ISO-10303-21;
HEADER;
FILE_DESCRIPTION(('FreeCAD Model'),'2;1');
FILE_NAME('Open CASCADE Shape Model','2026-09-21T10:18:29',('FreeCAD'),(
    'FreeCAD'),'Open CASCADE STEP processor 7.8','FreeCAD','Unknown');
FILE_SCHEMA(('AUTOMOTIVE_DESIGN { 1 0 10303 214 1 1 1 1 }'));
ENDSEC;
DATA;
#1 = APPLICATION_PROTOCOL_DEFINITION('international standard',
  'automotive_design',2000,#2);
#2 = APPLICATION_CONTEXT(
  'core data for automotive mechanical design processes');
#3 = SHAPE_DEFINITION_REPRESENTATION(#4,#10);
#4 = PRODUCT_DEFINITION_SHAPE('','',#5);
#5 = PRODUCT_DEFINITION('design','',#6,#9);
#6 = PRODUCT_DEFINITION_FORMATION('','',#7);
#7 = PRODUCT('Open CASCADE STEP translator 7.8 22',
  'Open CASCADE STEP translator 7.8 22','',(#8));
#8 = PRODUCT_CONTEXT('',#2,'mechanical');
#9 = PRODUCT_DEFINITION_CONTEXT('part definition',#2,'design');
#10 = ADVANCED_BREP_SHAPE_REPRESENTATION('',(#11,#15),#1268);
#11 = AXIS2_PLACEMENT_3D('',#12,#13,#14);
#12 = CARTESIAN_POINT('',(0.,0.,0.));
#13 = DIRECTION('',(0.,0.,1.));
#14 = DIRECTION('',(1.,0.,-0.));
#15 = MANIFOLD_SOLID_BREP('',#16);
#16 = CLOSED_SHELL('',(#17,#57,#88,#134,#158,#231,#243,#260,#277,#415,
    #439,#463,#617,#634,#665,#689,#720,#744,#761,#786,#811,#836,#867,
    #892,#917,#942,#966,#991,#1016,#1041,#1065,#1090,#1115,#1140,#1164,
    #1183,#1202,#1254));
#17 = ADVANCED_FACE('',(#18),#52,.F.);
#18 = FACE_BOUND('',#19,.F.);
#19 = EDGE_LOOP('',(#20,#30,#38,#46));
#20 = ORIENTED_EDGE('',*,*,#21,.F.);
#21 = EDGE_CURVE('',#22,#24,#26,.T.);
#22 = VERTEX_POINT('',#23);
#23 = CARTESIAN_POINT('',(0.,0.,29.));
#24 = VERTEX_POINT('',#25);
#25 = CARTESIAN_POINT('',(0.,0.,34.));
#26 = LINE('',#27,#28);
#27 = CARTESIAN_POINT('',(0.,0.,29.));
#28 = VECTOR('',#29,1.);
#29 = DIRECTION('',(0.,0.,1.));
#30 = ORIENTED_EDGE('',*,*,#31,.T.);
#31 = EDGE_CURVE('',#22,#32,#34,.T.);
#32 = VERTEX_POINT('',#33);
#33 = CARTESIAN_POINT('',(0.,30.,29.));
#34 = LINE('',#35,#36);
#35 = CARTESIAN_POINT('',(0.,0.,29.));
#36 = VECTOR('',#37,1.);
#37 = DIRECTION('',(-0.,1.,0.));
#38 = ORIENTED_EDGE('',*,*,#39,.T.);
#39 = EDGE_CURVE('',#32,#40,#42,.T.);
#40 = VERTEX_POINT('',#41);
#41 = CARTESIAN_POINT('',(0.,30.,34.));
#42 = LINE('',#43,#44);
#43 = CARTESIAN_POINT('',(0.,30.,29.));
#44 = VECTOR('',#45,1.);
#45 = DIRECTION('',(0.,0.,1.));
#46 = ORIENTED_EDGE('',*,*,#47,.F.);
#47 = EDGE_CURVE('',#24,#40,#48,.T.);
#48 = LINE('',#49,#50);
#49 = CARTESIAN_POINT('',(0.,0.,34.));
#50 = VECTOR('',#51,1.);
#51 = DIRECTION('',(-0.,1.,0.));
#52 = PLANE('',#53);
#53 = AXIS2_PLACEMENT_3D('',#54,#55,#56);
#54 = CARTESIAN_POINT('',(0.,0.,29.));
#55 = DIRECTION('',(1.,0.,-0.));
#56 = DIRECTION('',(0.,0.,1.));
#57 = ADVANCED_FACE('',(#58),#83,.F.);
#58 = FACE_BOUND('',#59,.F.);
#59 = EDGE_LOOP('',(#60,#68,#69,#77));
#60 = ORIENTED_EDGE('',*,*,#61,.F.);
#61 = EDGE_CURVE('',#22,#62,#64,.T.);
#62 = VERTEX_POINT('',#63);
#63 = CARTESIAN_POINT('',(90.,0.,29.));
#64 = LINE('',#65,#66);
#65 = CARTESIAN_POINT('',(0.,0.,29.));
#66 = VECTOR('',#67,1.);
#67 = DIRECTION('',(1.,0.,-0.));
#68 = ORIENTED_EDGE('',*,*,#21,.T.);
#69 = ORIENTED_EDGE('',*,*,#70,.T.);
#70 = EDGE_CURVE('',#24,#71,#73,.T.);
#71 = VERTEX_POINT('',#72);
#72 = CARTESIAN_POINT('',(90.,0.,34.));
#73 = LINE('',#74,#75);
#74 = CARTESIAN_POINT('',(0.,0.,34.));
#75 = VECTOR('',#76,1.);
#76 = DIRECTION('',(1.,0.,-0.));
#77 = ORIENTED_EDGE('',*,*,#78,.F.);
#78 = EDGE_CURVE('',#62,#71,#79,.T.);
#79 = LINE('',#80,#81);
#80 = CARTESIAN_POINT('',(90.,0.,29.));
#81 = VECTOR('',#82,1.);
#82 = DIRECTION('',(0.,0.,1.));
#83 = PLANE('',#84);
#84 = AXIS2_PLACEMENT_3D('',#85,#86,#87);
#85 = CARTESIAN_POINT('',(0.,0.,29.));
#86 = DIRECTION('',(-0.,1.,0.));
#87 = DIRECTION('',(0.,0.,1.));
#88 = ADVANCED_FACE('',(#89,#107,#118),#129,.T.);
#89 = FACE_BOUND('',#90,.T.);
#90 = EDGE_LOOP('',(#91,#92,#93,#101));
#91 = ORIENTED_EDGE('',*,*,#47,.F.);
#92 = ORIENTED_EDGE('',*,*,#70,.T.);
#93 = ORIENTED_EDGE('',*,*,#94,.T.);
#94 = EDGE_CURVE('',#71,#95,#97,.T.);
#95 = VERTEX_POINT('',#96);
#96 = CARTESIAN_POINT('',(90.,30.,34.));
#97 = LINE('',#98,#99);
#98 = CARTESIAN_POINT('',(90.,0.,34.));
#99 = VECTOR('',#100,1.);
#100 = DIRECTION('',(-0.,1.,0.));
#101 = ORIENTED_EDGE('',*,*,#102,.F.);
#102 = EDGE_CURVE('',#40,#95,#103,.T.);
#103 = LINE('',#104,#105);
#104 = CARTESIAN_POINT('',(0.,30.,34.));
#105 = VECTOR('',#106,1.);
#106 = DIRECTION('',(1.,0.,-0.));
#107 = FACE_BOUND('',#108,.T.);
#108 = EDGE_LOOP('',(#109));
#109 = ORIENTED_EDGE('',*,*,#110,.F.);
#110 = EDGE_CURVE('',#111,#111,#113,.T.);
#111 = VERTEX_POINT('',#112);
#112 = CARTESIAN_POINT('',(10.8,15.,34.));
#113 = CIRCLE('',#114,3.3);
#114 = AXIS2_PLACEMENT_3D('',#115,#116,#117);
#115 = CARTESIAN_POINT('',(7.5,15.,34.));
#116 = DIRECTION('',(0.,0.,1.));
#117 = DIRECTION('',(1.,0.,-0.));
#118 = FACE_BOUND('',#119,.T.);
#119 = EDGE_LOOP('',(#120));
#120 = ORIENTED_EDGE('',*,*,#121,.F.);
#121 = EDGE_CURVE('',#122,#122,#124,.T.);
#122 = VERTEX_POINT('',#123);
#123 = CARTESIAN_POINT('',(85.8,15.,34.));
#124 = CIRCLE('',#125,3.3);
#125 = AXIS2_PLACEMENT_3D('',#126,#127,#128);
#126 = CARTESIAN_POINT('',(82.5,15.,34.));
#127 = DIRECTION('',(0.,0.,1.));
#128 = DIRECTION('',(1.,0.,-0.));
#129 = PLANE('',#130);
#130 = AXIS2_PLACEMENT_3D('',#131,#132,#133);
#131 = CARTESIAN_POINT('',(0.,0.,34.));
#132 = DIRECTION('',(0.,0.,1.));
#133 = DIRECTION('',(1.,0.,-0.));
#134 = ADVANCED_FACE('',(#135),#153,.T.);
#135 = FACE_BOUND('',#136,.T.);
#136 = EDGE_LOOP('',(#137,#145,#146,#147));
#137 = ORIENTED_EDGE('',*,*,#138,.F.);
#138 = EDGE_CURVE('',#32,#139,#141,.T.);
#139 = VERTEX_POINT('',#140);
#140 = CARTESIAN_POINT('',(90.,30.,29.));
#141 = LINE('',#142,#143);
#142 = CARTESIAN_POINT('',(0.,30.,29.));
#143 = VECTOR('',#144,1.);
#144 = DIRECTION('',(1.,0.,-0.));
#145 = ORIENTED_EDGE('',*,*,#39,.T.);
#146 = ORIENTED_EDGE('',*,*,#102,.T.);
#147 = ORIENTED_EDGE('',*,*,#148,.F.);
#148 = EDGE_CURVE('',#139,#95,#149,.T.);
#149 = LINE('',#150,#151);
#150 = CARTESIAN_POINT('',(90.,30.,29.));
#151 = VECTOR('',#152,1.);
#152 = DIRECTION('',(0.,0.,1.));
#153 = PLANE('',#154);
#154 = AXIS2_PLACEMENT_3D('',#155,#156,#157);
#155 = CARTESIAN_POINT('',(0.,30.,29.));
#156 = DIRECTION('',(-0.,1.,0.));
#157 = DIRECTION('',(0.,0.,1.));
#158 = ADVANCED_FACE('',(#159,#170,#181,#192),#226,.F.);
#159 = FACE_BOUND('',#160,.F.);
#160 = EDGE_LOOP('',(#161,#162,#163,#169));
#161 = ORIENTED_EDGE('',*,*,#31,.F.);
#162 = ORIENTED_EDGE('',*,*,#61,.T.);
#163 = ORIENTED_EDGE('',*,*,#164,.T.);
#164 = EDGE_CURVE('',#62,#139,#165,.T.);
#165 = LINE('',#166,#167);
#166 = CARTESIAN_POINT('',(90.,0.,29.));
#167 = VECTOR('',#168,1.);
#168 = DIRECTION('',(-0.,1.,0.));
#169 = ORIENTED_EDGE('',*,*,#138,.F.);
#170 = FACE_BOUND('',#171,.F.);
#171 = EDGE_LOOP('',(#172));
#172 = ORIENTED_EDGE('',*,*,#173,.F.);
#173 = EDGE_CURVE('',#174,#174,#176,.T.);
#174 = VERTEX_POINT('',#175);
#175 = CARTESIAN_POINT('',(10.8,15.,29.));
#176 = CIRCLE('',#177,3.3);
#177 = AXIS2_PLACEMENT_3D('',#178,#179,#180);
#178 = CARTESIAN_POINT('',(7.5,15.,29.));
#179 = DIRECTION('',(0.,0.,1.));
#180 = DIRECTION('',(1.,0.,-0.));
#181 = FACE_BOUND('',#182,.F.);
#182 = EDGE_LOOP('',(#183));
#183 = ORIENTED_EDGE('',*,*,#184,.F.);
#184 = EDGE_CURVE('',#185,#185,#187,.T.);
#185 = VERTEX_POINT('',#186);
#186 = CARTESIAN_POINT('',(85.8,15.,29.));
#187 = CIRCLE('',#188,3.3);
#188 = AXIS2_PLACEMENT_3D('',#189,#190,#191);
#189 = CARTESIAN_POINT('',(82.5,15.,29.));
#190 = DIRECTION('',(0.,0.,1.));
#191 = DIRECTION('',(1.,0.,-0.));
#192 = FACE_BOUND('',#193,.F.);
#193 = EDGE_LOOP('',(#194,#204,#212,#220));
#194 = ORIENTED_EDGE('',*,*,#195,.T.);
#195 = EDGE_CURVE('',#196,#198,#200,.T.);
#196 = VERTEX_POINT('',#197);
#197 = CARTESIAN_POINT('',(75.,10.,29.));
#198 = VERTEX_POINT('',#199);
#199 = CARTESIAN_POINT('',(15.,10.,29.));
#200 = LINE('',#201,#202);
#201 = CARTESIAN_POINT('',(7.5,10.,29.));
#202 = VECTOR('',#203,1.);
#203 = DIRECTION('',(-1.,-0.,0.));
#204 = ORIENTED_EDGE('',*,*,#205,.T.);
#205 = EDGE_CURVE('',#198,#206,#208,.T.);
#206 = VERTEX_POINT('',#207);
#207 = CARTESIAN_POINT('',(15.,27.,29.));
#208 = LINE('',#209,#210);
#209 = CARTESIAN_POINT('',(15.,5.,29.));
#210 = VECTOR('',#211,1.);
#211 = DIRECTION('',(-0.,1.,0.));
#212 = ORIENTED_EDGE('',*,*,#213,.F.);
#213 = EDGE_CURVE('',#214,#206,#216,.T.);
#214 = VERTEX_POINT('',#215);
#215 = CARTESIAN_POINT('',(75.,27.,29.));
#216 = LINE('',#217,#218);
#217 = CARTESIAN_POINT('',(7.5,27.,29.));
#218 = VECTOR('',#219,1.);
#219 = DIRECTION('',(-1.,-0.,0.));
#220 = ORIENTED_EDGE('',*,*,#221,.F.);
#221 = EDGE_CURVE('',#196,#214,#222,.T.);
#222 = LINE('',#223,#224);
#223 = CARTESIAN_POINT('',(75.,5.,29.));
#224 = VECTOR('',#225,1.);
#225 = DIRECTION('',(-0.,1.,0.));
#226 = PLANE('',#227);
#227 = AXIS2_PLACEMENT_3D('',#228,#229,#230);
#228 = CARTESIAN_POINT('',(0.,0.,29.));
#229 = DIRECTION('',(0.,0.,1.));
#230 = DIRECTION('',(1.,0.,-0.));
#231 = ADVANCED_FACE('',(#232),#238,.T.);
#232 = FACE_BOUND('',#233,.T.);
#233 = EDGE_LOOP('',(#234,#235,#236,#237));
#234 = ORIENTED_EDGE('',*,*,#78,.F.);
#235 = ORIENTED_EDGE('',*,*,#164,.T.);
#236 = ORIENTED_EDGE('',*,*,#148,.T.);
#237 = ORIENTED_EDGE('',*,*,#94,.F.);
#238 = PLANE('',#239);
#239 = AXIS2_PLACEMENT_3D('',#240,#241,#242);
#240 = CARTESIAN_POINT('',(90.,0.,29.));
#241 = DIRECTION('',(1.,0.,-0.));
#242 = DIRECTION('',(0.,0.,1.));
#243 = ADVANCED_FACE('',(#244),#255,.F.);
#244 = FACE_BOUND('',#245,.F.);
#245 = EDGE_LOOP('',(#246,#247,#253,#254));
#246 = ORIENTED_EDGE('',*,*,#110,.F.);
#247 = ORIENTED_EDGE('',*,*,#248,.F.);
#248 = EDGE_CURVE('',#174,#111,#249,.T.);
#249 = LINE('',#250,#251);
#250 = CARTESIAN_POINT('',(10.8,15.,28.));
#251 = VECTOR('',#252,1.);
#252 = DIRECTION('',(0.,0.,1.));
#253 = ORIENTED_EDGE('',*,*,#173,.T.);
#254 = ORIENTED_EDGE('',*,*,#248,.T.);
#255 = CYLINDRICAL_SURFACE('',#256,3.3);
#256 = AXIS2_PLACEMENT_3D('',#257,#258,#259);
#257 = CARTESIAN_POINT('',(7.5,15.,28.));
#258 = DIRECTION('',(0.,0.,1.));
#259 = DIRECTION('',(1.,0.,-0.));
#260 = ADVANCED_FACE('',(#261),#272,.F.);
#261 = FACE_BOUND('',#262,.F.);
#262 = EDGE_LOOP('',(#263,#264,#270,#271));
#263 = ORIENTED_EDGE('',*,*,#121,.F.);
#264 = ORIENTED_EDGE('',*,*,#265,.F.);
#265 = EDGE_CURVE('',#185,#122,#266,.T.);
#266 = LINE('',#267,#268);
#267 = CARTESIAN_POINT('',(85.8,15.,28.));
#268 = VECTOR('',#269,1.);
#269 = DIRECTION('',(0.,0.,1.));
#270 = ORIENTED_EDGE('',*,*,#184,.T.);
#271 = ORIENTED_EDGE('',*,*,#265,.T.);
#272 = CYLINDRICAL_SURFACE('',#273,3.3);
#273 = AXIS2_PLACEMENT_3D('',#274,#275,#276);
#274 = CARTESIAN_POINT('',(82.5,15.,28.));
#275 = DIRECTION('',(0.,0.,1.));
#276 = DIRECTION('',(1.,0.,-0.));
#277 = ADVANCED_FACE('',(#278,#377,#388,#399),#410,.F.);
#278 = FACE_BOUND('',#279,.F.);
#279 = EDGE_LOOP('',(#280,#288,#296,#304,#312,#320,#329,#338,#346,#354,
    #362,#370,#376));
#280 = ORIENTED_EDGE('',*,*,#281,.F.);
#281 = EDGE_CURVE('',#282,#196,#284,.T.);
#282 = VERTEX_POINT('',#283);
#283 = CARTESIAN_POINT('',(75.,10.,0.));
#284 = LINE('',#285,#286);
#285 = CARTESIAN_POINT('',(75.,10.,0.));
#286 = VECTOR('',#287,1.);
#287 = DIRECTION('',(0.,0.,1.));
#288 = ORIENTED_EDGE('',*,*,#289,.F.);
#289 = EDGE_CURVE('',#290,#282,#292,.T.);
#290 = VERTEX_POINT('',#291);
#291 = CARTESIAN_POINT('',(49.75,10.,0.));
#292 = LINE('',#293,#294);
#293 = CARTESIAN_POINT('',(15.,10.,0.));
#294 = VECTOR('',#295,1.);
#295 = DIRECTION('',(1.,0.,-0.));
#296 = ORIENTED_EDGE('',*,*,#297,.F.);
#297 = EDGE_CURVE('',#298,#290,#300,.T.);
#298 = VERTEX_POINT('',#299);
#299 = CARTESIAN_POINT('',(49.75,10.,6.));
#300 = LINE('',#301,#302);
#301 = CARTESIAN_POINT('',(49.75,10.,-0.5));
#302 = VECTOR('',#303,1.);
#303 = DIRECTION('',(-0.,0.,-1.));
#304 = ORIENTED_EDGE('',*,*,#305,.F.);
#305 = EDGE_CURVE('',#306,#298,#308,.T.);
#306 = VERTEX_POINT('',#307);
#307 = CARTESIAN_POINT('',(48.5,10.,6.));
#308 = LINE('',#309,#310);
#309 = CARTESIAN_POINT('',(27.625,10.,6.));
#310 = VECTOR('',#311,1.);
#311 = DIRECTION('',(1.,0.,-0.));
#312 = ORIENTED_EDGE('',*,*,#313,.F.);
#313 = EDGE_CURVE('',#314,#306,#316,.T.);
#314 = VERTEX_POINT('',#315);
#315 = CARTESIAN_POINT('',(48.5,10.,15.35));
#316 = LINE('',#317,#318);
#317 = CARTESIAN_POINT('',(48.5,10.,-0.5));
#318 = VECTOR('',#319,1.);
#319 = DIRECTION('',(-0.,0.,-1.));
#320 = ORIENTED_EDGE('',*,*,#321,.F.);
#321 = EDGE_CURVE('',#322,#314,#324,.T.);
#322 = VERTEX_POINT('',#323);
#323 = CARTESIAN_POINT('',(45.,10.,18.85));
#324 = CIRCLE('',#325,3.5);
#325 = AXIS2_PLACEMENT_3D('',#326,#327,#328);
#326 = CARTESIAN_POINT('',(45.,10.,15.35));
#327 = DIRECTION('',(0.,1.,0.));
#328 = DIRECTION('',(0.,-0.,1.));
#329 = ORIENTED_EDGE('',*,*,#330,.F.);
#330 = EDGE_CURVE('',#331,#322,#333,.T.);
#331 = VERTEX_POINT('',#332);
#332 = CARTESIAN_POINT('',(41.5,10.,15.35));
#333 = CIRCLE('',#334,3.5);
#334 = AXIS2_PLACEMENT_3D('',#335,#336,#337);
#335 = CARTESIAN_POINT('',(45.,10.,15.35));
#336 = DIRECTION('',(0.,1.,0.));
#337 = DIRECTION('',(0.,-0.,1.));
#338 = ORIENTED_EDGE('',*,*,#339,.T.);
#339 = EDGE_CURVE('',#331,#340,#342,.T.);
#340 = VERTEX_POINT('',#341);
#341 = CARTESIAN_POINT('',(41.5,10.,6.));
#342 = LINE('',#343,#344);
#343 = CARTESIAN_POINT('',(41.5,10.,-0.5));
#344 = VECTOR('',#345,1.);
#345 = DIRECTION('',(-0.,0.,-1.));
#346 = ORIENTED_EDGE('',*,*,#347,.F.);
#347 = EDGE_CURVE('',#348,#340,#350,.T.);
#348 = VERTEX_POINT('',#349);
#349 = CARTESIAN_POINT('',(40.25,10.,6.));
#350 = LINE('',#351,#352);
#351 = CARTESIAN_POINT('',(27.625,10.,6.));
#352 = VECTOR('',#353,1.);
#353 = DIRECTION('',(1.,0.,-0.));
#354 = ORIENTED_EDGE('',*,*,#355,.T.);
#355 = EDGE_CURVE('',#348,#356,#358,.T.);
#356 = VERTEX_POINT('',#357);
#357 = CARTESIAN_POINT('',(40.25,10.,0.));
#358 = LINE('',#359,#360);
#359 = CARTESIAN_POINT('',(40.25,10.,-0.5));
#360 = VECTOR('',#361,1.);
#361 = DIRECTION('',(-0.,0.,-1.));
#362 = ORIENTED_EDGE('',*,*,#363,.F.);
#363 = EDGE_CURVE('',#364,#356,#366,.T.);
#364 = VERTEX_POINT('',#365);
#365 = CARTESIAN_POINT('',(15.,10.,0.));
#366 = LINE('',#367,#368);
#367 = CARTESIAN_POINT('',(15.,10.,0.));
#368 = VECTOR('',#369,1.);
#369 = DIRECTION('',(1.,0.,-0.));
#370 = ORIENTED_EDGE('',*,*,#371,.T.);
#371 = EDGE_CURVE('',#364,#198,#372,.T.);
#372 = LINE('',#373,#374);
#373 = CARTESIAN_POINT('',(15.,10.,0.));
#374 = VECTOR('',#375,1.);
#375 = DIRECTION('',(0.,0.,1.));
#376 = ORIENTED_EDGE('',*,*,#195,.F.);
#377 = FACE_BOUND('',#378,.F.);
#378 = EDGE_LOOP('',(#379));
#379 = ORIENTED_EDGE('',*,*,#380,.F.);
#380 = EDGE_CURVE('',#381,#381,#383,.T.);
#381 = VERTEX_POINT('',#382);
#382 = CARTESIAN_POINT('',(38.418206931238,10.,12.95));
#383 = CIRCLE('',#384,1.4);
#384 = AXIS2_PLACEMENT_3D('',#385,#386,#387);
#385 = CARTESIAN_POINT('',(38.418206931238,10.,11.55));
#386 = DIRECTION('',(0.,1.,0.));
#387 = DIRECTION('',(0.,-0.,1.));
#388 = FACE_BOUND('',#389,.F.);
#389 = EDGE_LOOP('',(#390));
#390 = ORIENTED_EDGE('',*,*,#391,.F.);
#391 = EDGE_CURVE('',#392,#392,#394,.T.);
#392 = VERTEX_POINT('',#393);
#393 = CARTESIAN_POINT('',(51.581793068762,10.,12.95));
#394 = CIRCLE('',#395,1.4);
#395 = AXIS2_PLACEMENT_3D('',#396,#397,#398);
#396 = CARTESIAN_POINT('',(51.581793068762,10.,11.55));
#397 = DIRECTION('',(0.,1.,0.));
#398 = DIRECTION('',(0.,-0.,1.));
#399 = FACE_BOUND('',#400,.F.);
#400 = EDGE_LOOP('',(#401));
#401 = ORIENTED_EDGE('',*,*,#402,.F.);
#402 = EDGE_CURVE('',#403,#403,#405,.T.);
#403 = VERTEX_POINT('',#404);
#404 = CARTESIAN_POINT('',(45.,10.,24.35));
#405 = CIRCLE('',#406,1.4);
#406 = AXIS2_PLACEMENT_3D('',#407,#408,#409);
#407 = CARTESIAN_POINT('',(45.,10.,22.95));
#408 = DIRECTION('',(0.,1.,0.));
#409 = DIRECTION('',(0.,-0.,1.));
#410 = PLANE('',#411);
#411 = AXIS2_PLACEMENT_3D('',#412,#413,#414);
#412 = CARTESIAN_POINT('',(15.,10.,0.));
#413 = DIRECTION('',(-0.,1.,0.));
#414 = DIRECTION('',(0.,0.,1.));
#415 = ADVANCED_FACE('',(#416),#434,.T.);
#416 = FACE_BOUND('',#417,.T.);
#417 = EDGE_LOOP('',(#418,#419,#427,#433));
#418 = ORIENTED_EDGE('',*,*,#281,.F.);
#419 = ORIENTED_EDGE('',*,*,#420,.T.);
#420 = EDGE_CURVE('',#282,#421,#423,.T.);
#421 = VERTEX_POINT('',#422);
#422 = CARTESIAN_POINT('',(75.,27.,0.));
#423 = LINE('',#424,#425);
#424 = CARTESIAN_POINT('',(75.,10.,0.));
#425 = VECTOR('',#426,1.);
#426 = DIRECTION('',(-0.,1.,0.));
#427 = ORIENTED_EDGE('',*,*,#428,.T.);
#428 = EDGE_CURVE('',#421,#214,#429,.T.);
#429 = LINE('',#430,#431);
#430 = CARTESIAN_POINT('',(75.,27.,0.));
#431 = VECTOR('',#432,1.);
#432 = DIRECTION('',(0.,0.,1.));
#433 = ORIENTED_EDGE('',*,*,#221,.F.);
#434 = PLANE('',#435);
#435 = AXIS2_PLACEMENT_3D('',#436,#437,#438);
#436 = CARTESIAN_POINT('',(75.,10.,0.));
#437 = DIRECTION('',(1.,0.,-0.));
#438 = DIRECTION('',(0.,0.,1.));
#439 = ADVANCED_FACE('',(#440),#458,.F.);
#440 = FACE_BOUND('',#441,.F.);
#441 = EDGE_LOOP('',(#442,#443,#451,#457));
#442 = ORIENTED_EDGE('',*,*,#371,.F.);
#443 = ORIENTED_EDGE('',*,*,#444,.T.);
#444 = EDGE_CURVE('',#364,#445,#447,.T.);
#445 = VERTEX_POINT('',#446);
#446 = CARTESIAN_POINT('',(15.,27.,0.));
#447 = LINE('',#448,#449);
#448 = CARTESIAN_POINT('',(15.,10.,0.));
#449 = VECTOR('',#450,1.);
#450 = DIRECTION('',(-0.,1.,0.));
#451 = ORIENTED_EDGE('',*,*,#452,.T.);
#452 = EDGE_CURVE('',#445,#206,#453,.T.);
#453 = LINE('',#454,#455);
#454 = CARTESIAN_POINT('',(15.,27.,0.));
#455 = VECTOR('',#456,1.);
#456 = DIRECTION('',(0.,0.,1.));
#457 = ORIENTED_EDGE('',*,*,#205,.F.);
#458 = PLANE('',#459);
#459 = AXIS2_PLACEMENT_3D('',#460,#461,#462);
#460 = CARTESIAN_POINT('',(15.,10.,0.));
#461 = DIRECTION('',(1.,0.,-0.));
#462 = DIRECTION('',(0.,0.,1.));
#463 = ADVANCED_FACE('',(#464),#612,.T.);
#464 = FACE_BOUND('',#465,.T.);
#465 = EDGE_LOOP('',(#466,#467,#475,#483,#491,#500,#509,#518,#526,#535,
    #544,#553,#561,#570,#579,#588,#596,#604,#610,#611));
#466 = ORIENTED_EDGE('',*,*,#428,.F.);
#467 = ORIENTED_EDGE('',*,*,#468,.F.);
#468 = EDGE_CURVE('',#469,#421,#471,.T.);
#469 = VERTEX_POINT('',#470);
#470 = CARTESIAN_POINT('',(49.75,27.,0.));
#471 = LINE('',#472,#473);
#472 = CARTESIAN_POINT('',(15.,27.,0.));
#473 = VECTOR('',#474,1.);
#474 = DIRECTION('',(1.,0.,-0.));
#475 = ORIENTED_EDGE('',*,*,#476,.F.);
#476 = EDGE_CURVE('',#477,#469,#479,.T.);
#477 = VERTEX_POINT('',#478);
#478 = CARTESIAN_POINT('',(49.75,27.,7.1));
#479 = LINE('',#480,#481);
#480 = CARTESIAN_POINT('',(49.75,27.,-0.5));
#481 = VECTOR('',#482,1.);
#482 = DIRECTION('',(-0.,0.,-1.));
#483 = ORIENTED_EDGE('',*,*,#484,.T.);
#484 = EDGE_CURVE('',#477,#485,#487,.T.);
#485 = VERTEX_POINT('',#486);
#486 = CARTESIAN_POINT('',(50.058903043151,27.,7.1));
#487 = LINE('',#488,#489);
#488 = CARTESIAN_POINT('',(47.5,27.,7.1));
#489 = VECTOR('',#490,1.);
#490 = DIRECTION('',(1.,0.,0.));
#491 = ORIENTED_EDGE('',*,*,#492,.T.);
#492 = EDGE_CURVE('',#485,#493,#495,.T.);
#493 = VERTEX_POINT('',#494);
#494 = CARTESIAN_POINT('',(51.640307676157,27.,8.279192834905));
#495 = CIRCLE('',#496,1.65);
#496 = AXIS2_PLACEMENT_3D('',#497,#498,#499);
#497 = CARTESIAN_POINT('',(50.058903043151,27.,8.75));
#498 = DIRECTION('',(0.,-1.,-2.22044604925E-16));
#499 = DIRECTION('',(-2.48689957516E-14,2.22044604925E-16,-1.));
#500 = ORIENTED_EDGE('',*,*,#501,.T.);
#501 = EDGE_CURVE('',#493,#502,#504,.T.);
#502 = VERTEX_POINT('',#503);
#503 = CARTESIAN_POINT('',(54.443652468312,27.,13.134728446051));
#504 = CIRCLE('',#505,9.7);
#505 = AXIS2_PLACEMENT_3D('',#506,#507,#508);
#506 = CARTESIAN_POINT('',(45.,27.,15.35));
#507 = DIRECTION('',(4.473221495647E-33,-1.,-2.22044604925E-16));
#508 = DIRECTION('',(0.681401770154,1.625165726727E-16,-0.73190957613));
#509 = ORIENTED_EDGE('',*,*,#510,.T.);
#510 = EDGE_CURVE('',#502,#511,#513,.T.);
#511 = VERTEX_POINT('',#512);
#512 = CARTESIAN_POINT('',(54.674161102797,27.,15.093861449349));
#513 = CIRCLE('',#514,1.65);
#514 = AXIS2_PLACEMENT_3D('',#515,#516,#517);
#515 = CARTESIAN_POINT('',(53.245219186553,27.,14.268861449349));
#516 = DIRECTION('',(-4.101169456807E-33,-1.,-2.22044604925E-16));
#517 = DIRECTION('',(0.70784239944,1.568457357007E-16,-0.706370396856));
#518 = ORIENTED_EDGE('',*,*,#519,.T.);
#519 = EDGE_CURVE('',#511,#520,#522,.T.);
#520 = VERTEX_POINT('',#521);
#521 = CARTESIAN_POINT('',(49.615258059646,27.,23.856138550651));
#522 = LINE('',#523,#524);
#523 = CARTESIAN_POINT('',(54.674161102797,27.,15.093861449349));
#524 = VECTOR('',#525,1.);
#525 = DIRECTION('',(-0.5,-1.922962686384E-16,0.866025403784));
#526 = ORIENTED_EDGE('',*,*,#527,.T.);
#527 = EDGE_CURVE('',#520,#528,#530,.T.);
#528 = VERTEX_POINT('',#529);
#529 = CARTESIAN_POINT('',(47.803344792155,27.,24.636078719045));
#530 = CIRCLE('',#531,1.65);
#531 = AXIS2_PLACEMENT_3D('',#532,#533,#534);
#532 = CARTESIAN_POINT('',(48.186316143402,27.,23.031138550651));
#533 = DIRECTION('',(3.603391568781E-33,-1.,-2.22044604925E-16));
#534 = DIRECTION('',(0.866025403784,-1.110223024625E-16,0.5));
#535 = ORIENTED_EDGE('',*,*,#536,.T.);
#536 = EDGE_CURVE('',#528,#537,#539,.T.);
#537 = VERTEX_POINT('',#538);
#538 = CARTESIAN_POINT('',(42.196655207845,27.,24.636078719045));
#539 = CIRCLE('',#540,9.7);
#540 = AXIS2_PLACEMENT_3D('',#541,#542,#543);
#541 = CARTESIAN_POINT('',(45.,27.,15.35));
#542 = DIRECTION('',(-2.672331468585E-33,-1.,-2.22044604925E-16));
#543 = DIRECTION('',(0.293151401125,-2.122893041805E-16,0.956066031202)
  );
#544 = ORIENTED_EDGE('',*,*,#545,.T.);
#545 = EDGE_CURVE('',#537,#546,#548,.T.);
#546 = VERTEX_POINT('',#547);
#547 = CARTESIAN_POINT('',(40.384741940354,27.,23.856138550651));
#548 = CIRCLE('',#549,1.65);
#549 = AXIS2_PLACEMENT_3D('',#550,#551,#552);
#550 = CARTESIAN_POINT('',(41.813683856598,27.,23.031138550651));
#551 = DIRECTION('',(8.871545530748E-34,-1.,-2.22044604925E-16));
#552 = DIRECTION('',(0.257813508439,-2.145383200467E-16,0.966194698219)
  );
#553 = ORIENTED_EDGE('',*,*,#554,.T.);
#554 = EDGE_CURVE('',#546,#555,#557,.T.);
#555 = VERTEX_POINT('',#556);
#556 = CARTESIAN_POINT('',(35.325838897203,27.,15.093861449349));
#557 = LINE('',#558,#559);
#558 = CARTESIAN_POINT('',(40.384741940354,27.,23.856138550651));
#559 = VECTOR('',#560,1.);
#560 = DIRECTION('',(-0.5,1.922962686384E-16,-0.866025403784));
#561 = ORIENTED_EDGE('',*,*,#562,.T.);
#562 = EDGE_CURVE('',#555,#563,#565,.T.);
#563 = VERTEX_POINT('',#564);
#564 = CARTESIAN_POINT('',(35.556347531688,27.,13.134728446051));
#565 = CIRCLE('',#566,1.65);
#566 = AXIS2_PLACEMENT_3D('',#567,#568,#569);
#567 = CARTESIAN_POINT('',(36.754780813447,27.,14.268861449349));
#568 = DIRECTION('',(1.27865167935E-33,-1.,-2.22044604925E-16));
#569 = DIRECTION('',(-0.866025403784,-1.110223024625E-16,0.5));
#570 = ORIENTED_EDGE('',*,*,#571,.T.);
#571 = EDGE_CURVE('',#563,#572,#574,.T.);
#572 = VERTEX_POINT('',#573);
#573 = CARTESIAN_POINT('',(38.359692323843,27.,8.279192834905));
#574 = CIRCLE('',#575,9.7);
#575 = AXIS2_PLACEMENT_3D('',#576,#577,#578);
#576 = CARTESIAN_POINT('',(45.,27.,15.35));
#577 = DIRECTION('',(2.007383461135E-33,-1.,-2.22044604925E-16));
#578 = DIRECTION('',(-0.974553171279,4.97727315078E-17,-0.224156455072)
  );
#579 = ORIENTED_EDGE('',*,*,#580,.T.);
#580 = EDGE_CURVE('',#572,#581,#583,.T.);
#581 = VERTEX_POINT('',#582);
#582 = CARTESIAN_POINT('',(39.941096956849,27.,7.1));
#583 = CIRCLE('',#584,1.65);
#584 = AXIS2_PLACEMENT_3D('',#585,#586,#587);
#585 = CARTESIAN_POINT('',(39.941096956849,27.,8.75));
#586 = DIRECTION('',(-4.0738051538E-33,-1.,-2.22044604925E-16));
#587 = DIRECTION('',(-0.965655907879,5.769258434605E-17,-0.259824301363)
  );
#588 = ORIENTED_EDGE('',*,*,#589,.T.);
#589 = EDGE_CURVE('',#581,#590,#592,.T.);
#590 = VERTEX_POINT('',#591);
#591 = CARTESIAN_POINT('',(40.25,27.,7.1));
#592 = LINE('',#593,#594);
#593 = CARTESIAN_POINT('',(39.941096956849,27.,7.1));
#594 = VECTOR('',#595,1.);
#595 = DIRECTION('',(1.,-1.233123556334E-30,5.553494788808E-15));
#596 = ORIENTED_EDGE('',*,*,#597,.T.);
#597 = EDGE_CURVE('',#590,#598,#600,.T.);
#598 = VERTEX_POINT('',#599);
#599 = CARTESIAN_POINT('',(40.25,27.,0.));
#600 = LINE('',#601,#602);
#601 = CARTESIAN_POINT('',(40.25,27.,-0.5));
#602 = VECTOR('',#603,1.);
#603 = DIRECTION('',(-0.,0.,-1.));
#604 = ORIENTED_EDGE('',*,*,#605,.F.);
#605 = EDGE_CURVE('',#445,#598,#606,.T.);
#606 = LINE('',#607,#608);
#607 = CARTESIAN_POINT('',(15.,27.,0.));
#608 = VECTOR('',#609,1.);
#609 = DIRECTION('',(1.,0.,-0.));
#610 = ORIENTED_EDGE('',*,*,#452,.T.);
#611 = ORIENTED_EDGE('',*,*,#213,.F.);
#612 = PLANE('',#613);
#613 = AXIS2_PLACEMENT_3D('',#614,#615,#616);
#614 = CARTESIAN_POINT('',(15.,27.,0.));
#615 = DIRECTION('',(-0.,1.,0.));
#616 = DIRECTION('',(0.,0.,1.));
#617 = ADVANCED_FACE('',(#618),#629,.F.);
#618 = FACE_BOUND('',#619,.F.);
#619 = EDGE_LOOP('',(#620,#621,#622,#623));
#620 = ORIENTED_EDGE('',*,*,#605,.F.);
#621 = ORIENTED_EDGE('',*,*,#444,.F.);
#622 = ORIENTED_EDGE('',*,*,#363,.T.);
#623 = ORIENTED_EDGE('',*,*,#624,.T.);
#624 = EDGE_CURVE('',#356,#598,#625,.T.);
#625 = LINE('',#626,#627);
#626 = CARTESIAN_POINT('',(40.25,9.5,0.));
#627 = VECTOR('',#628,1.);
#628 = DIRECTION('',(-0.,1.,0.));
#629 = PLANE('',#630);
#630 = AXIS2_PLACEMENT_3D('',#631,#632,#633);
#631 = CARTESIAN_POINT('',(15.,10.,0.));
#632 = DIRECTION('',(0.,0.,1.));
#633 = DIRECTION('',(1.,0.,-0.));
#634 = ADVANCED_FACE('',(#635),#660,.F.);
#635 = FACE_BOUND('',#636,.F.);
#636 = EDGE_LOOP('',(#637,#645,#646,#654));
#637 = ORIENTED_EDGE('',*,*,#638,.F.);
#638 = EDGE_CURVE('',#348,#639,#641,.T.);
#639 = VERTEX_POINT('',#640);
#640 = CARTESIAN_POINT('',(40.25,18.,6.));
#641 = LINE('',#642,#643);
#642 = CARTESIAN_POINT('',(40.25,9.,6.));
#643 = VECTOR('',#644,1.);
#644 = DIRECTION('',(-0.,1.,0.));
#645 = ORIENTED_EDGE('',*,*,#347,.T.);
#646 = ORIENTED_EDGE('',*,*,#647,.F.);
#647 = EDGE_CURVE('',#648,#340,#650,.T.);
#648 = VERTEX_POINT('',#649);
#649 = CARTESIAN_POINT('',(41.5,18.,6.));
#650 = LINE('',#651,#652);
#651 = CARTESIAN_POINT('',(41.5,9.,6.));
#652 = VECTOR('',#653,1.);
#653 = DIRECTION('',(0.,-1.,0.));
#654 = ORIENTED_EDGE('',*,*,#655,.F.);
#655 = EDGE_CURVE('',#639,#648,#656,.T.);
#656 = LINE('',#657,#658);
#657 = CARTESIAN_POINT('',(40.25,18.,6.));
#658 = VECTOR('',#659,1.);
#659 = DIRECTION('',(1.,0.,-0.));
#660 = PLANE('',#661);
#661 = AXIS2_PLACEMENT_3D('',#662,#663,#664);
#662 = CARTESIAN_POINT('',(40.25,9.,6.));
#663 = DIRECTION('',(0.,0.,1.));
#664 = DIRECTION('',(1.,0.,-0.));
#665 = ADVANCED_FACE('',(#666),#684,.T.);
#666 = FACE_BOUND('',#667,.T.);
#667 = EDGE_LOOP('',(#668,#669,#670,#678));
#668 = ORIENTED_EDGE('',*,*,#339,.T.);
#669 = ORIENTED_EDGE('',*,*,#647,.F.);
#670 = ORIENTED_EDGE('',*,*,#671,.T.);
#671 = EDGE_CURVE('',#648,#672,#674,.T.);
#672 = VERTEX_POINT('',#673);
#673 = CARTESIAN_POINT('',(41.5,18.,15.35));
#674 = LINE('',#675,#676);
#675 = CARTESIAN_POINT('',(41.5,18.,-1.));
#676 = VECTOR('',#677,1.);
#677 = DIRECTION('',(0.,0.,1.));
#678 = ORIENTED_EDGE('',*,*,#679,.F.);
#679 = EDGE_CURVE('',#331,#672,#680,.T.);
#680 = LINE('',#681,#682);
#681 = CARTESIAN_POINT('',(41.5,9.,15.35));
#682 = VECTOR('',#683,1.);
#683 = DIRECTION('',(-0.,1.,0.));
#684 = PLANE('',#685);
#685 = AXIS2_PLACEMENT_3D('',#686,#687,#688);
#686 = CARTESIAN_POINT('',(41.5,9.,-1.));
#687 = DIRECTION('',(1.,0.,-0.));
#688 = DIRECTION('',(0.,0.,1.));
#689 = ADVANCED_FACE('',(#690),#715,.F.);
#690 = FACE_BOUND('',#691,.F.);
#691 = EDGE_LOOP('',(#692,#693,#701,#709));
#692 = ORIENTED_EDGE('',*,*,#313,.T.);
#693 = ORIENTED_EDGE('',*,*,#694,.F.);
#694 = EDGE_CURVE('',#695,#306,#697,.T.);
#695 = VERTEX_POINT('',#696);
#696 = CARTESIAN_POINT('',(48.5,18.,6.));
#697 = LINE('',#698,#699);
#698 = CARTESIAN_POINT('',(48.5,9.,6.));
#699 = VECTOR('',#700,1.);
#700 = DIRECTION('',(0.,-1.,0.));
#701 = ORIENTED_EDGE('',*,*,#702,.T.);
#702 = EDGE_CURVE('',#695,#703,#705,.T.);
#703 = VERTEX_POINT('',#704);
#704 = CARTESIAN_POINT('',(48.5,18.,15.35));
#705 = LINE('',#706,#707);
#706 = CARTESIAN_POINT('',(48.5,18.,-1.));
#707 = VECTOR('',#708,1.);
#708 = DIRECTION('',(0.,0.,1.));
#709 = ORIENTED_EDGE('',*,*,#710,.F.);
#710 = EDGE_CURVE('',#314,#703,#711,.T.);
#711 = LINE('',#712,#713);
#712 = CARTESIAN_POINT('',(48.5,9.,15.35));
#713 = VECTOR('',#714,1.);
#714 = DIRECTION('',(-0.,1.,0.));
#715 = PLANE('',#716);
#716 = AXIS2_PLACEMENT_3D('',#717,#718,#719);
#717 = CARTESIAN_POINT('',(48.5,9.,-1.));
#718 = DIRECTION('',(1.,0.,-0.));
#719 = DIRECTION('',(0.,0.,1.));
#720 = ADVANCED_FACE('',(#721),#739,.F.);
#721 = FACE_BOUND('',#722,.F.);
#722 = EDGE_LOOP('',(#723,#724,#725,#733));
#723 = ORIENTED_EDGE('',*,*,#694,.T.);
#724 = ORIENTED_EDGE('',*,*,#305,.T.);
#725 = ORIENTED_EDGE('',*,*,#726,.T.);
#726 = EDGE_CURVE('',#298,#727,#729,.T.);
#727 = VERTEX_POINT('',#728);
#728 = CARTESIAN_POINT('',(49.75,18.,6.));
#729 = LINE('',#730,#731);
#730 = CARTESIAN_POINT('',(49.75,9.,6.));
#731 = VECTOR('',#732,1.);
#732 = DIRECTION('',(-0.,1.,0.));
#733 = ORIENTED_EDGE('',*,*,#734,.F.);
#734 = EDGE_CURVE('',#695,#727,#735,.T.);
#735 = LINE('',#736,#737);
#736 = CARTESIAN_POINT('',(40.25,18.,6.));
#737 = VECTOR('',#738,1.);
#738 = DIRECTION('',(1.,0.,-0.));
#739 = PLANE('',#740);
#740 = AXIS2_PLACEMENT_3D('',#741,#742,#743);
#741 = CARTESIAN_POINT('',(40.25,9.,6.));
#742 = DIRECTION('',(0.,0.,1.));
#743 = DIRECTION('',(1.,0.,-0.));
#744 = ADVANCED_FACE('',(#745),#756,.F.);
#745 = FACE_BOUND('',#746,.F.);
#746 = EDGE_LOOP('',(#747,#748,#754,#755));
#747 = ORIENTED_EDGE('',*,*,#468,.F.);
#748 = ORIENTED_EDGE('',*,*,#749,.F.);
#749 = EDGE_CURVE('',#290,#469,#750,.T.);
#750 = LINE('',#751,#752);
#751 = CARTESIAN_POINT('',(49.75,9.5,0.));
#752 = VECTOR('',#753,1.);
#753 = DIRECTION('',(-0.,1.,0.));
#754 = ORIENTED_EDGE('',*,*,#289,.T.);
#755 = ORIENTED_EDGE('',*,*,#420,.T.);
#756 = PLANE('',#757);
#757 = AXIS2_PLACEMENT_3D('',#758,#759,#760);
#758 = CARTESIAN_POINT('',(15.,10.,0.));
#759 = DIRECTION('',(0.,0.,1.));
#760 = DIRECTION('',(1.,0.,-0.));
#761 = ADVANCED_FACE('',(#762),#781,.F.);
#762 = FACE_BOUND('',#763,.F.);
#763 = EDGE_LOOP('',(#764,#773,#779,#780));
#764 = ORIENTED_EDGE('',*,*,#765,.F.);
#765 = EDGE_CURVE('',#766,#766,#768,.T.);
#766 = VERTEX_POINT('',#767);
#767 = CARTESIAN_POINT('',(38.418206931238,18.,12.95));
#768 = CIRCLE('',#769,1.4);
#769 = AXIS2_PLACEMENT_3D('',#770,#771,#772);
#770 = CARTESIAN_POINT('',(38.418206931238,18.,11.55));
#771 = DIRECTION('',(0.,1.,0.));
#772 = DIRECTION('',(0.,-0.,1.));
#773 = ORIENTED_EDGE('',*,*,#774,.F.);
#774 = EDGE_CURVE('',#381,#766,#775,.T.);
#775 = LINE('',#776,#777);
#776 = CARTESIAN_POINT('',(38.418206931238,9.,12.95));
#777 = VECTOR('',#778,1.);
#778 = DIRECTION('',(0.,1.,0.));
#779 = ORIENTED_EDGE('',*,*,#380,.T.);
#780 = ORIENTED_EDGE('',*,*,#774,.T.);
#781 = CYLINDRICAL_SURFACE('',#782,1.4);
#782 = AXIS2_PLACEMENT_3D('',#783,#784,#785);
#783 = CARTESIAN_POINT('',(38.418206931238,9.,11.55));
#784 = DIRECTION('',(0.,1.,0.));
#785 = DIRECTION('',(0.,-0.,1.));
#786 = ADVANCED_FACE('',(#787),#806,.F.);
#787 = FACE_BOUND('',#788,.F.);
#788 = EDGE_LOOP('',(#789,#798,#804,#805));
#789 = ORIENTED_EDGE('',*,*,#790,.F.);
#790 = EDGE_CURVE('',#791,#791,#793,.T.);
#791 = VERTEX_POINT('',#792);
#792 = CARTESIAN_POINT('',(51.581793068762,18.,12.95));
#793 = CIRCLE('',#794,1.4);
#794 = AXIS2_PLACEMENT_3D('',#795,#796,#797);
#795 = CARTESIAN_POINT('',(51.581793068762,18.,11.55));
#796 = DIRECTION('',(0.,1.,0.));
#797 = DIRECTION('',(0.,-0.,1.));
#798 = ORIENTED_EDGE('',*,*,#799,.F.);
#799 = EDGE_CURVE('',#392,#791,#800,.T.);
#800 = LINE('',#801,#802);
#801 = CARTESIAN_POINT('',(51.581793068762,9.,12.95));
#802 = VECTOR('',#803,1.);
#803 = DIRECTION('',(0.,1.,0.));
#804 = ORIENTED_EDGE('',*,*,#391,.T.);
#805 = ORIENTED_EDGE('',*,*,#799,.T.);
#806 = CYLINDRICAL_SURFACE('',#807,1.4);
#807 = AXIS2_PLACEMENT_3D('',#808,#809,#810);
#808 = CARTESIAN_POINT('',(51.581793068762,9.,11.55));
#809 = DIRECTION('',(0.,1.,0.));
#810 = DIRECTION('',(0.,-0.,1.));
#811 = ADVANCED_FACE('',(#812),#831,.F.);
#812 = FACE_BOUND('',#813,.F.);
#813 = EDGE_LOOP('',(#814,#823,#829,#830));
#814 = ORIENTED_EDGE('',*,*,#815,.F.);
#815 = EDGE_CURVE('',#816,#816,#818,.T.);
#816 = VERTEX_POINT('',#817);
#817 = CARTESIAN_POINT('',(45.,18.,24.35));
#818 = CIRCLE('',#819,1.4);
#819 = AXIS2_PLACEMENT_3D('',#820,#821,#822);
#820 = CARTESIAN_POINT('',(45.,18.,22.95));
#821 = DIRECTION('',(0.,1.,0.));
#822 = DIRECTION('',(0.,-0.,1.));
#823 = ORIENTED_EDGE('',*,*,#824,.F.);
#824 = EDGE_CURVE('',#403,#816,#825,.T.);
#825 = LINE('',#826,#827);
#826 = CARTESIAN_POINT('',(45.,9.,24.35));
#827 = VECTOR('',#828,1.);
#828 = DIRECTION('',(0.,1.,0.));
#829 = ORIENTED_EDGE('',*,*,#402,.T.);
#830 = ORIENTED_EDGE('',*,*,#824,.T.);
#831 = CYLINDRICAL_SURFACE('',#832,1.4);
#832 = AXIS2_PLACEMENT_3D('',#833,#834,#835);
#833 = CARTESIAN_POINT('',(45.,9.,22.95));
#834 = DIRECTION('',(0.,1.,0.));
#835 = DIRECTION('',(0.,-0.,1.));
#836 = ADVANCED_FACE('',(#837),#862,.T.);
#837 = FACE_BOUND('',#838,.T.);
#838 = EDGE_LOOP('',(#839,#840,#848,#856));
#839 = ORIENTED_EDGE('',*,*,#589,.F.);
#840 = ORIENTED_EDGE('',*,*,#841,.T.);
#841 = EDGE_CURVE('',#581,#842,#844,.T.);
#842 = VERTEX_POINT('',#843);
#843 = CARTESIAN_POINT('',(39.941096956849,18.,7.1));
#844 = LINE('',#845,#846);
#845 = CARTESIAN_POINT('',(39.941096956849,27.,7.1));
#846 = VECTOR('',#847,1.);
#847 = DIRECTION('',(0.,-1.,-2.22044604925E-16));
#848 = ORIENTED_EDGE('',*,*,#849,.T.);
#849 = EDGE_CURVE('',#842,#850,#852,.T.);
#850 = VERTEX_POINT('',#851);
#851 = CARTESIAN_POINT('',(40.25,18.,7.1));
#852 = LINE('',#853,#854);
#853 = CARTESIAN_POINT('',(39.941096956849,18.,7.1));
#854 = VECTOR('',#855,1.);
#855 = DIRECTION('',(1.,-1.233123556334E-30,5.553494788808E-15));
#856 = ORIENTED_EDGE('',*,*,#857,.T.);
#857 = EDGE_CURVE('',#850,#590,#858,.T.);
#858 = LINE('',#859,#860);
#859 = CARTESIAN_POINT('',(40.25,22.5,7.1));
#860 = VECTOR('',#861,1.);
#861 = DIRECTION('',(0.,1.,2.22044604925E-16));
#862 = PLANE('',#863);
#863 = AXIS2_PLACEMENT_3D('',#864,#865,#866);
#864 = CARTESIAN_POINT('',(39.941096956849,27.,7.1));
#865 = DIRECTION('',(-5.553494788808E-15,-2.22044604925E-16,1.));
#866 = DIRECTION('',(1.,-1.233123556334E-30,5.553494788808E-15));
#867 = ADVANCED_FACE('',(#868),#887,.F.);
#868 = FACE_BOUND('',#869,.T.);
#869 = EDGE_LOOP('',(#870,#878,#885,#886));
#870 = ORIENTED_EDGE('',*,*,#871,.T.);
#871 = EDGE_CURVE('',#572,#872,#874,.T.);
#872 = VERTEX_POINT('',#873);
#873 = CARTESIAN_POINT('',(38.359692323843,18.,8.279192834905));
#874 = LINE('',#875,#876);
#875 = CARTESIAN_POINT('',(38.359692323843,27.,8.279192834905));
#876 = VECTOR('',#877,1.);
#877 = DIRECTION('',(0.,-1.,-2.22044604925E-16));
#878 = ORIENTED_EDGE('',*,*,#879,.T.);
#879 = EDGE_CURVE('',#872,#842,#880,.T.);
#880 = CIRCLE('',#881,1.65);
#881 = AXIS2_PLACEMENT_3D('',#882,#883,#884);
#882 = CARTESIAN_POINT('',(39.941096956849,18.,8.75));
#883 = DIRECTION('',(-4.0738051538E-33,-1.,-2.22044604925E-16));
#884 = DIRECTION('',(-0.965655907879,5.769258434605E-17,-0.259824301363)
  );
#885 = ORIENTED_EDGE('',*,*,#841,.F.);
#886 = ORIENTED_EDGE('',*,*,#580,.F.);
#887 = CYLINDRICAL_SURFACE('',#888,1.65);
#888 = AXIS2_PLACEMENT_3D('',#889,#890,#891);
#889 = CARTESIAN_POINT('',(39.941096956849,27.,8.75));
#890 = DIRECTION('',(0.,1.,2.22044604925E-16));
#891 = DIRECTION('',(-0.965655907879,5.769258434605E-17,-0.259824301363)
  );
#892 = ADVANCED_FACE('',(#893),#912,.F.);
#893 = FACE_BOUND('',#894,.T.);
#894 = EDGE_LOOP('',(#895,#903,#910,#911));
#895 = ORIENTED_EDGE('',*,*,#896,.T.);
#896 = EDGE_CURVE('',#563,#897,#899,.T.);
#897 = VERTEX_POINT('',#898);
#898 = CARTESIAN_POINT('',(35.556347531688,18.,13.134728446051));
#899 = LINE('',#900,#901);
#900 = CARTESIAN_POINT('',(35.556347531688,27.,13.134728446051));
#901 = VECTOR('',#902,1.);
#902 = DIRECTION('',(0.,-1.,-2.22044604925E-16));
#903 = ORIENTED_EDGE('',*,*,#904,.T.);
#904 = EDGE_CURVE('',#897,#872,#905,.T.);
#905 = CIRCLE('',#906,9.7);
#906 = AXIS2_PLACEMENT_3D('',#907,#908,#909);
#907 = CARTESIAN_POINT('',(45.,18.,15.35));
#908 = DIRECTION('',(2.007383461135E-33,-1.,-2.22044604925E-16));
#909 = DIRECTION('',(-0.974553171279,4.97727315078E-17,-0.224156455072)
  );
#910 = ORIENTED_EDGE('',*,*,#871,.F.);
#911 = ORIENTED_EDGE('',*,*,#571,.F.);
#912 = CYLINDRICAL_SURFACE('',#913,9.7);
#913 = AXIS2_PLACEMENT_3D('',#914,#915,#916);
#914 = CARTESIAN_POINT('',(45.,27.,15.35));
#915 = DIRECTION('',(0.,1.,2.22044604925E-16));
#916 = DIRECTION('',(-0.974553171279,4.97727315078E-17,-0.224156455072)
  );
#917 = ADVANCED_FACE('',(#918),#937,.F.);
#918 = FACE_BOUND('',#919,.T.);
#919 = EDGE_LOOP('',(#920,#928,#935,#936));
#920 = ORIENTED_EDGE('',*,*,#921,.T.);
#921 = EDGE_CURVE('',#555,#922,#924,.T.);
#922 = VERTEX_POINT('',#923);
#923 = CARTESIAN_POINT('',(35.325838897203,18.,15.093861449349));
#924 = LINE('',#925,#926);
#925 = CARTESIAN_POINT('',(35.325838897203,27.,15.093861449349));
#926 = VECTOR('',#927,1.);
#927 = DIRECTION('',(0.,-1.,-2.22044604925E-16));
#928 = ORIENTED_EDGE('',*,*,#929,.T.);
#929 = EDGE_CURVE('',#922,#897,#930,.T.);
#930 = CIRCLE('',#931,1.65);
#931 = AXIS2_PLACEMENT_3D('',#932,#933,#934);
#932 = CARTESIAN_POINT('',(36.754780813447,18.,14.268861449349));
#933 = DIRECTION('',(1.27865167935E-33,-1.,-2.22044604925E-16));
#934 = DIRECTION('',(-0.866025403784,-1.110223024625E-16,0.5));
#935 = ORIENTED_EDGE('',*,*,#896,.F.);
#936 = ORIENTED_EDGE('',*,*,#562,.F.);
#937 = CYLINDRICAL_SURFACE('',#938,1.65);
#938 = AXIS2_PLACEMENT_3D('',#939,#940,#941);
#939 = CARTESIAN_POINT('',(36.754780813447,27.,14.268861449349));
#940 = DIRECTION('',(0.,1.,2.22044604925E-16));
#941 = DIRECTION('',(-0.866025403784,-1.110223024625E-16,0.5));
#942 = ADVANCED_FACE('',(#943),#961,.T.);
#943 = FACE_BOUND('',#944,.T.);
#944 = EDGE_LOOP('',(#945,#953,#959,#960));
#945 = ORIENTED_EDGE('',*,*,#946,.T.);
#946 = EDGE_CURVE('',#546,#947,#949,.T.);
#947 = VERTEX_POINT('',#948);
#948 = CARTESIAN_POINT('',(40.384741940354,18.,23.856138550651));
#949 = LINE('',#950,#951);
#950 = CARTESIAN_POINT('',(40.384741940354,27.,23.856138550651));
#951 = VECTOR('',#952,1.);
#952 = DIRECTION('',(0.,-1.,-2.22044604925E-16));
#953 = ORIENTED_EDGE('',*,*,#954,.T.);
#954 = EDGE_CURVE('',#947,#922,#955,.T.);
#955 = LINE('',#956,#957);
#956 = CARTESIAN_POINT('',(40.384741940354,18.,23.856138550651));
#957 = VECTOR('',#958,1.);
#958 = DIRECTION('',(-0.5,1.922962686384E-16,-0.866025403784));
#959 = ORIENTED_EDGE('',*,*,#921,.F.);
#960 = ORIENTED_EDGE('',*,*,#554,.F.);
#961 = PLANE('',#962);
#962 = AXIS2_PLACEMENT_3D('',#963,#964,#965);
#963 = CARTESIAN_POINT('',(40.384741940354,27.,23.856138550651));
#964 = DIRECTION('',(0.866025403784,1.110223024625E-16,-0.5));
#965 = DIRECTION('',(-0.5,1.922962686384E-16,-0.866025403784));
#966 = ADVANCED_FACE('',(#967),#986,.F.);
#967 = FACE_BOUND('',#968,.T.);
#968 = EDGE_LOOP('',(#969,#977,#984,#985));
#969 = ORIENTED_EDGE('',*,*,#970,.T.);
#970 = EDGE_CURVE('',#537,#971,#973,.T.);
#971 = VERTEX_POINT('',#972);
#972 = CARTESIAN_POINT('',(42.196655207845,18.,24.636078719045));
#973 = LINE('',#974,#975);
#974 = CARTESIAN_POINT('',(42.196655207845,27.,24.636078719045));
#975 = VECTOR('',#976,1.);
#976 = DIRECTION('',(0.,-1.,-2.22044604925E-16));
#977 = ORIENTED_EDGE('',*,*,#978,.T.);
#978 = EDGE_CURVE('',#971,#947,#979,.T.);
#979 = CIRCLE('',#980,1.65);
#980 = AXIS2_PLACEMENT_3D('',#981,#982,#983);
#981 = CARTESIAN_POINT('',(41.813683856598,18.,23.031138550651));
#982 = DIRECTION('',(8.871545530748E-34,-1.,-2.22044604925E-16));
#983 = DIRECTION('',(0.257813508439,-2.145383200467E-16,0.966194698219)
  );
#984 = ORIENTED_EDGE('',*,*,#946,.F.);
#985 = ORIENTED_EDGE('',*,*,#545,.F.);
#986 = CYLINDRICAL_SURFACE('',#987,1.65);
#987 = AXIS2_PLACEMENT_3D('',#988,#989,#990);
#988 = CARTESIAN_POINT('',(41.813683856598,27.,23.031138550651));
#989 = DIRECTION('',(0.,1.,2.22044604925E-16));
#990 = DIRECTION('',(0.257813508439,-2.145383200467E-16,0.966194698219)
  );
#991 = ADVANCED_FACE('',(#992),#1011,.F.);
#992 = FACE_BOUND('',#993,.T.);
#993 = EDGE_LOOP('',(#994,#1002,#1009,#1010));
#994 = ORIENTED_EDGE('',*,*,#995,.T.);
#995 = EDGE_CURVE('',#528,#996,#998,.T.);
#996 = VERTEX_POINT('',#997);
#997 = CARTESIAN_POINT('',(47.803344792155,18.,24.636078719045));
#998 = LINE('',#999,#1000);
#999 = CARTESIAN_POINT('',(47.803344792155,27.,24.636078719045));
#1000 = VECTOR('',#1001,1.);
#1001 = DIRECTION('',(0.,-1.,-2.22044604925E-16));
#1002 = ORIENTED_EDGE('',*,*,#1003,.T.);
#1003 = EDGE_CURVE('',#996,#971,#1004,.T.);
#1004 = CIRCLE('',#1005,9.7);
#1005 = AXIS2_PLACEMENT_3D('',#1006,#1007,#1008);
#1006 = CARTESIAN_POINT('',(45.,18.,15.35));
#1007 = DIRECTION('',(-2.672331468585E-33,-1.,-2.22044604925E-16));
#1008 = DIRECTION('',(0.293151401125,-2.122893041805E-16,0.956066031202)
  );
#1009 = ORIENTED_EDGE('',*,*,#970,.F.);
#1010 = ORIENTED_EDGE('',*,*,#536,.F.);
#1011 = CYLINDRICAL_SURFACE('',#1012,9.7);
#1012 = AXIS2_PLACEMENT_3D('',#1013,#1014,#1015);
#1013 = CARTESIAN_POINT('',(45.,27.,15.35));
#1014 = DIRECTION('',(0.,1.,2.22044604925E-16));
#1015 = DIRECTION('',(0.293151401125,-2.122893041805E-16,0.956066031202)
  );
#1016 = ADVANCED_FACE('',(#1017),#1036,.F.);
#1017 = FACE_BOUND('',#1018,.T.);
#1018 = EDGE_LOOP('',(#1019,#1027,#1034,#1035));
#1019 = ORIENTED_EDGE('',*,*,#1020,.T.);
#1020 = EDGE_CURVE('',#520,#1021,#1023,.T.);
#1021 = VERTEX_POINT('',#1022);
#1022 = CARTESIAN_POINT('',(49.615258059646,18.,23.856138550651));
#1023 = LINE('',#1024,#1025);
#1024 = CARTESIAN_POINT('',(49.615258059646,27.,23.856138550651));
#1025 = VECTOR('',#1026,1.);
#1026 = DIRECTION('',(0.,-1.,-2.22044604925E-16));
#1027 = ORIENTED_EDGE('',*,*,#1028,.T.);
#1028 = EDGE_CURVE('',#1021,#996,#1029,.T.);
#1029 = CIRCLE('',#1030,1.65);
#1030 = AXIS2_PLACEMENT_3D('',#1031,#1032,#1033);
#1031 = CARTESIAN_POINT('',(48.186316143402,18.,23.031138550651));
#1032 = DIRECTION('',(3.603391568781E-33,-1.,-2.22044604925E-16));
#1033 = DIRECTION('',(0.866025403784,-1.110223024625E-16,0.5));
#1034 = ORIENTED_EDGE('',*,*,#995,.F.);
#1035 = ORIENTED_EDGE('',*,*,#527,.F.);
#1036 = CYLINDRICAL_SURFACE('',#1037,1.65);
#1037 = AXIS2_PLACEMENT_3D('',#1038,#1039,#1040);
#1038 = CARTESIAN_POINT('',(48.186316143402,27.,23.031138550651));
#1039 = DIRECTION('',(0.,1.,2.22044604925E-16));
#1040 = DIRECTION('',(0.866025403784,-1.110223024625E-16,0.5));
#1041 = ADVANCED_FACE('',(#1042),#1060,.T.);
#1042 = FACE_BOUND('',#1043,.T.);
#1043 = EDGE_LOOP('',(#1044,#1052,#1058,#1059));
#1044 = ORIENTED_EDGE('',*,*,#1045,.T.);
#1045 = EDGE_CURVE('',#511,#1046,#1048,.T.);
#1046 = VERTEX_POINT('',#1047);
#1047 = CARTESIAN_POINT('',(54.674161102797,18.,15.093861449349));
#1048 = LINE('',#1049,#1050);
#1049 = CARTESIAN_POINT('',(54.674161102797,27.,15.093861449349));
#1050 = VECTOR('',#1051,1.);
#1051 = DIRECTION('',(0.,-1.,-2.22044604925E-16));
#1052 = ORIENTED_EDGE('',*,*,#1053,.T.);
#1053 = EDGE_CURVE('',#1046,#1021,#1054,.T.);
#1054 = LINE('',#1055,#1056);
#1055 = CARTESIAN_POINT('',(54.674161102797,18.,15.093861449349));
#1056 = VECTOR('',#1057,1.);
#1057 = DIRECTION('',(-0.5,-1.922962686384E-16,0.866025403784));
#1058 = ORIENTED_EDGE('',*,*,#1020,.F.);
#1059 = ORIENTED_EDGE('',*,*,#519,.F.);
#1060 = PLANE('',#1061);
#1061 = AXIS2_PLACEMENT_3D('',#1062,#1063,#1064);
#1062 = CARTESIAN_POINT('',(54.674161102797,27.,15.093861449349));
#1063 = DIRECTION('',(-0.866025403784,1.110223024625E-16,-0.5));
#1064 = DIRECTION('',(-0.5,-1.922962686384E-16,0.866025403784));
#1065 = ADVANCED_FACE('',(#1066),#1085,.F.);
#1066 = FACE_BOUND('',#1067,.T.);
#1067 = EDGE_LOOP('',(#1068,#1076,#1083,#1084));
#1068 = ORIENTED_EDGE('',*,*,#1069,.T.);
#1069 = EDGE_CURVE('',#502,#1070,#1072,.T.);
#1070 = VERTEX_POINT('',#1071);
#1071 = CARTESIAN_POINT('',(54.443652468312,18.,13.134728446051));
#1072 = LINE('',#1073,#1074);
#1073 = CARTESIAN_POINT('',(54.443652468312,27.,13.134728446051));
#1074 = VECTOR('',#1075,1.);
#1075 = DIRECTION('',(0.,-1.,-2.22044604925E-16));
#1076 = ORIENTED_EDGE('',*,*,#1077,.T.);
#1077 = EDGE_CURVE('',#1070,#1046,#1078,.T.);
#1078 = CIRCLE('',#1079,1.65);
#1079 = AXIS2_PLACEMENT_3D('',#1080,#1081,#1082);
#1080 = CARTESIAN_POINT('',(53.245219186553,18.,14.268861449349));
#1081 = DIRECTION('',(-4.101169456807E-33,-1.,-2.22044604925E-16));
#1082 = DIRECTION('',(0.70784239944,1.568457357007E-16,-0.706370396856)
  );
#1083 = ORIENTED_EDGE('',*,*,#1045,.F.);
#1084 = ORIENTED_EDGE('',*,*,#510,.F.);
#1085 = CYLINDRICAL_SURFACE('',#1086,1.65);
#1086 = AXIS2_PLACEMENT_3D('',#1087,#1088,#1089);
#1087 = CARTESIAN_POINT('',(53.245219186553,27.,14.268861449349));
#1088 = DIRECTION('',(0.,1.,2.22044604925E-16));
#1089 = DIRECTION('',(0.70784239944,1.568457357007E-16,-0.706370396856)
  );
#1090 = ADVANCED_FACE('',(#1091),#1110,.F.);
#1091 = FACE_BOUND('',#1092,.T.);
#1092 = EDGE_LOOP('',(#1093,#1101,#1108,#1109));
#1093 = ORIENTED_EDGE('',*,*,#1094,.T.);
#1094 = EDGE_CURVE('',#493,#1095,#1097,.T.);
#1095 = VERTEX_POINT('',#1096);
#1096 = CARTESIAN_POINT('',(51.640307676157,18.,8.279192834905));
#1097 = LINE('',#1098,#1099);
#1098 = CARTESIAN_POINT('',(51.640307676157,27.,8.279192834905));
#1099 = VECTOR('',#1100,1.);
#1100 = DIRECTION('',(0.,-1.,-2.22044604925E-16));
#1101 = ORIENTED_EDGE('',*,*,#1102,.T.);
#1102 = EDGE_CURVE('',#1095,#1070,#1103,.T.);
#1103 = CIRCLE('',#1104,9.7);
#1104 = AXIS2_PLACEMENT_3D('',#1105,#1106,#1107);
#1105 = CARTESIAN_POINT('',(45.,18.,15.35));
#1106 = DIRECTION('',(4.473221495647E-33,-1.,-2.22044604925E-16));
#1107 = DIRECTION('',(0.681401770154,1.625165726727E-16,-0.73190957613)
  );
#1108 = ORIENTED_EDGE('',*,*,#1069,.F.);
#1109 = ORIENTED_EDGE('',*,*,#501,.F.);
#1110 = CYLINDRICAL_SURFACE('',#1111,9.7);
#1111 = AXIS2_PLACEMENT_3D('',#1112,#1113,#1114);
#1112 = CARTESIAN_POINT('',(45.,27.,15.35));
#1113 = DIRECTION('',(0.,1.,2.22044604925E-16));
#1114 = DIRECTION('',(0.681401770154,1.625165726727E-16,-0.73190957613)
  );
#1115 = ADVANCED_FACE('',(#1116),#1135,.F.);
#1116 = FACE_BOUND('',#1117,.T.);
#1117 = EDGE_LOOP('',(#1118,#1126,#1133,#1134));
#1118 = ORIENTED_EDGE('',*,*,#1119,.T.);
#1119 = EDGE_CURVE('',#485,#1120,#1122,.T.);
#1120 = VERTEX_POINT('',#1121);
#1121 = CARTESIAN_POINT('',(50.058903043151,18.,7.1));
#1122 = LINE('',#1123,#1124);
#1123 = CARTESIAN_POINT('',(50.058903043151,27.,7.1));
#1124 = VECTOR('',#1125,1.);
#1125 = DIRECTION('',(0.,-1.,-2.22044604925E-16));
#1126 = ORIENTED_EDGE('',*,*,#1127,.T.);
#1127 = EDGE_CURVE('',#1120,#1095,#1128,.T.);
#1128 = CIRCLE('',#1129,1.65);
#1129 = AXIS2_PLACEMENT_3D('',#1130,#1131,#1132);
#1130 = CARTESIAN_POINT('',(50.058903043151,18.,8.75));
#1131 = DIRECTION('',(0.,-1.,-2.22044604925E-16));
#1132 = DIRECTION('',(-2.48689957516E-14,2.22044604925E-16,-1.));
#1133 = ORIENTED_EDGE('',*,*,#1094,.F.);
#1134 = ORIENTED_EDGE('',*,*,#492,.F.);
#1135 = CYLINDRICAL_SURFACE('',#1136,1.65);
#1136 = AXIS2_PLACEMENT_3D('',#1137,#1138,#1139);
#1137 = CARTESIAN_POINT('',(50.058903043151,27.,8.75));
#1138 = DIRECTION('',(0.,1.,2.22044604925E-16));
#1139 = DIRECTION('',(-2.48689957516E-14,2.22044604925E-16,-1.));
#1140 = ADVANCED_FACE('',(#1141),#1159,.T.);
#1141 = FACE_BOUND('',#1142,.T.);
#1142 = EDGE_LOOP('',(#1143,#1144,#1152,#1158));
#1143 = ORIENTED_EDGE('',*,*,#484,.F.);
#1144 = ORIENTED_EDGE('',*,*,#1145,.F.);
#1145 = EDGE_CURVE('',#1146,#477,#1148,.T.);
#1146 = VERTEX_POINT('',#1147);
#1147 = CARTESIAN_POINT('',(49.75,18.,7.1));
#1148 = LINE('',#1149,#1150);
#1149 = CARTESIAN_POINT('',(49.75,22.5,7.1));
#1150 = VECTOR('',#1151,1.);
#1151 = DIRECTION('',(0.,1.,2.22044604925E-16));
#1152 = ORIENTED_EDGE('',*,*,#1153,.T.);
#1153 = EDGE_CURVE('',#1146,#1120,#1154,.T.);
#1154 = LINE('',#1155,#1156);
#1155 = CARTESIAN_POINT('',(47.5,18.,7.1));
#1156 = VECTOR('',#1157,1.);
#1157 = DIRECTION('',(1.,0.,0.));
#1158 = ORIENTED_EDGE('',*,*,#1119,.F.);
#1159 = PLANE('',#1160);
#1160 = AXIS2_PLACEMENT_3D('',#1161,#1162,#1163);
#1161 = CARTESIAN_POINT('',(47.5,27.,7.1));
#1162 = DIRECTION('',(0.,-2.22044604925E-16,1.));
#1163 = DIRECTION('',(1.,0.,0.));
#1164 = ADVANCED_FACE('',(#1165),#1178,.T.);
#1165 = FACE_BOUND('',#1166,.T.);
#1166 = EDGE_LOOP('',(#1167,#1168,#1169,#1170,#1171,#1172));
#1167 = ORIENTED_EDGE('',*,*,#638,.F.);
#1168 = ORIENTED_EDGE('',*,*,#355,.T.);
#1169 = ORIENTED_EDGE('',*,*,#624,.T.);
#1170 = ORIENTED_EDGE('',*,*,#597,.F.);
#1171 = ORIENTED_EDGE('',*,*,#857,.F.);
#1172 = ORIENTED_EDGE('',*,*,#1173,.F.);
#1173 = EDGE_CURVE('',#639,#850,#1174,.T.);
#1174 = LINE('',#1175,#1176);
#1175 = CARTESIAN_POINT('',(40.25,18.,-1.));
#1176 = VECTOR('',#1177,1.);
#1177 = DIRECTION('',(0.,0.,1.));
#1178 = PLANE('',#1179);
#1179 = AXIS2_PLACEMENT_3D('',#1180,#1181,#1182);
#1180 = CARTESIAN_POINT('',(40.25,18.682572614108,3.367427385892));
#1181 = DIRECTION('',(1.,0.,0.));
#1182 = DIRECTION('',(-0.,0.,1.));
#1183 = ADVANCED_FACE('',(#1184),#1197,.T.);
#1184 = FACE_BOUND('',#1185,.T.);
#1185 = EDGE_LOOP('',(#1186,#1187,#1193,#1194,#1195,#1196));
#1186 = ORIENTED_EDGE('',*,*,#726,.T.);
#1187 = ORIENTED_EDGE('',*,*,#1188,.T.);
#1188 = EDGE_CURVE('',#727,#1146,#1189,.T.);
#1189 = LINE('',#1190,#1191);
#1190 = CARTESIAN_POINT('',(49.75,18.,-1.));
#1191 = VECTOR('',#1192,1.);
#1192 = DIRECTION('',(0.,0.,1.));
#1193 = ORIENTED_EDGE('',*,*,#1145,.T.);
#1194 = ORIENTED_EDGE('',*,*,#476,.T.);
#1195 = ORIENTED_EDGE('',*,*,#749,.F.);
#1196 = ORIENTED_EDGE('',*,*,#297,.F.);
#1197 = PLANE('',#1198);
#1198 = AXIS2_PLACEMENT_3D('',#1199,#1200,#1201);
#1199 = CARTESIAN_POINT('',(49.75,18.682572614108,3.367427385892));
#1200 = DIRECTION('',(-1.,-0.,-0.));
#1201 = DIRECTION('',(0.,0.,-1.));
#1202 = ADVANCED_FACE('',(#1203,#1240,#1243,#1246),#1249,.T.);
#1203 = FACE_BOUND('',#1204,.T.);
#1204 = EDGE_LOOP('',(#1205,#1206,#1207,#1208,#1209,#1210,#1211,#1212,
    #1213,#1214,#1215,#1216,#1217,#1218,#1219,#1220,#1221,#1222,#1223,
    #1232,#1239));
#1205 = ORIENTED_EDGE('',*,*,#655,.F.);
#1206 = ORIENTED_EDGE('',*,*,#1173,.T.);
#1207 = ORIENTED_EDGE('',*,*,#849,.F.);
#1208 = ORIENTED_EDGE('',*,*,#879,.F.);
#1209 = ORIENTED_EDGE('',*,*,#904,.F.);
#1210 = ORIENTED_EDGE('',*,*,#929,.F.);
#1211 = ORIENTED_EDGE('',*,*,#954,.F.);
#1212 = ORIENTED_EDGE('',*,*,#978,.F.);
#1213 = ORIENTED_EDGE('',*,*,#1003,.F.);
#1214 = ORIENTED_EDGE('',*,*,#1028,.F.);
#1215 = ORIENTED_EDGE('',*,*,#1053,.F.);
#1216 = ORIENTED_EDGE('',*,*,#1077,.F.);
#1217 = ORIENTED_EDGE('',*,*,#1102,.F.);
#1218 = ORIENTED_EDGE('',*,*,#1127,.F.);
#1219 = ORIENTED_EDGE('',*,*,#1153,.F.);
#1220 = ORIENTED_EDGE('',*,*,#1188,.F.);
#1221 = ORIENTED_EDGE('',*,*,#734,.F.);
#1222 = ORIENTED_EDGE('',*,*,#702,.T.);
#1223 = ORIENTED_EDGE('',*,*,#1224,.F.);
#1224 = EDGE_CURVE('',#1225,#703,#1227,.T.);
#1225 = VERTEX_POINT('',#1226);
#1226 = CARTESIAN_POINT('',(45.,18.,18.85));
#1227 = CIRCLE('',#1228,3.5);
#1228 = AXIS2_PLACEMENT_3D('',#1229,#1230,#1231);
#1229 = CARTESIAN_POINT('',(45.,18.,15.35));
#1230 = DIRECTION('',(0.,1.,0.));
#1231 = DIRECTION('',(0.,-0.,1.));
#1232 = ORIENTED_EDGE('',*,*,#1233,.F.);
#1233 = EDGE_CURVE('',#672,#1225,#1234,.T.);
#1234 = CIRCLE('',#1235,3.5);
#1235 = AXIS2_PLACEMENT_3D('',#1236,#1237,#1238);
#1236 = CARTESIAN_POINT('',(45.,18.,15.35));
#1237 = DIRECTION('',(0.,1.,0.));
#1238 = DIRECTION('',(0.,-0.,1.));
#1239 = ORIENTED_EDGE('',*,*,#671,.F.);
#1240 = FACE_BOUND('',#1241,.T.);
#1241 = EDGE_LOOP('',(#1242));
#1242 = ORIENTED_EDGE('',*,*,#815,.F.);
#1243 = FACE_BOUND('',#1244,.T.);
#1244 = EDGE_LOOP('',(#1245));
#1245 = ORIENTED_EDGE('',*,*,#790,.F.);
#1246 = FACE_BOUND('',#1247,.T.);
#1247 = EDGE_LOOP('',(#1248));
#1248 = ORIENTED_EDGE('',*,*,#765,.F.);
#1249 = PLANE('',#1250);
#1250 = AXIS2_PLACEMENT_3D('',#1251,#1252,#1253);
#1251 = CARTESIAN_POINT('',(45.,18.,15.018232856234));
#1252 = DIRECTION('',(0.,1.,0.));
#1253 = DIRECTION('',(0.,-0.,1.));
#1254 = ADVANCED_FACE('',(#1255),#1263,.F.);
#1255 = FACE_BOUND('',#1256,.F.);
#1256 = EDGE_LOOP('',(#1257,#1258,#1259,#1260,#1261,#1262));
#1257 = ORIENTED_EDGE('',*,*,#710,.T.);
#1258 = ORIENTED_EDGE('',*,*,#1224,.F.);
#1259 = ORIENTED_EDGE('',*,*,#1233,.F.);
#1260 = ORIENTED_EDGE('',*,*,#679,.F.);
#1261 = ORIENTED_EDGE('',*,*,#330,.T.);
#1262 = ORIENTED_EDGE('',*,*,#321,.T.);
#1263 = CYLINDRICAL_SURFACE('',#1264,3.5);
#1264 = AXIS2_PLACEMENT_3D('',#1265,#1266,#1267);
#1265 = CARTESIAN_POINT('',(45.,9.,15.35));
#1266 = DIRECTION('',(0.,1.,0.));
#1267 = DIRECTION('',(0.,-0.,1.));
#1268 = ( GEOMETRIC_REPRESENTATION_CONTEXT(3)
GLOBAL_UNCERTAINTY_ASSIGNED_CONTEXT((#1272))
GLOBAL_UNIT_ASSIGNED_CONTEXT((#1269,#1270,#1271)) REPRESENTATION_CONTEXT
('Context #1','3D Context with UNIT and UNCERTAINTY') );
#1269 = ( LENGTH_UNIT() NAMED_UNIT(*) SI_UNIT(.MILLI.,.METRE.) );
#1270 = ( NAMED_UNIT(*) PLANE_ANGLE_UNIT() SI_UNIT($,.RADIAN.) );
#1271 = ( NAMED_UNIT(*) SI_UNIT($,.STERADIAN.) SOLID_ANGLE_UNIT() );
#1272 = UNCERTAINTY_MEASURE_WITH_UNIT(LENGTH_MEASURE(2.E-07),#1269,
  'distance_accuracy_value','confusion accuracy');
#1273 = PRODUCT_RELATED_PRODUCT_CATEGORY('part',$,(#7));
ENDSEC;
END-ISO-10303-21;
