ISO-10303-21;
HEADER;
FILE_DESCRIPTION(('FreeCAD Model'),'2;1');
FILE_NAME('Open CASCADE Shape Model','2026-09-21T12:12:59',('FreeCAD'),(
    'FreeCAD'),'Open CASCADE STEP processor 7.8','FreeCAD','Unknown');
FILE_SCHEMA(('AUTOMOTIVE_DESIGN { 1 0 10303 214 1 1 1 1 }'));
ENDSEC;
DATA;
#1 = APPLICATION_PROTOCOL_DEFINITION('international standard',
  'automotive_design',2000,#2);
#2 = APPLICATION_CONTEXT(
  'core data for automotive mechanical design processes');
#3 = SHAPE_DEFINITION_REPRESENTATION(#4,#10);
#4 = PRODUCT_DEFINITION_SHAPE('','',#5);
#5 = PRODUCT_DEFINITION('design','',#6,#9);
#6 = PRODUCT_DEFINITION_FORMATION('','',#7);
#7 = PRODUCT('Open CASCADE STEP translator 7.8 1',
  'Open CASCADE STEP translator 7.8 1','',(#8));
#8 = PRODUCT_CONTEXT('',#2,'mechanical');
#9 = PRODUCT_DEFINITION_CONTEXT('part definition',#2,'design');
#10 = ADVANCED_BREP_SHAPE_REPRESENTATION('',(#11,#15),#1534);
#11 = AXIS2_PLACEMENT_3D('',#12,#13,#14);
#12 = CARTESIAN_POINT('',(0.,0.,0.));
#13 = DIRECTION('',(0.,0.,1.));
#14 = DIRECTION('',(1.,0.,-0.));
#15 = MANIFOLD_SOLID_BREP('',#16);
#16 = CLOSED_SHELL('',(#17,#145,#196,#221,#264,#281,#312,#336,#360,#377,
    #402,#427,#551,#575,#740,#757,#775,#808,#832,#865,#889,#913,#948,
    #965,#1026,#1087,#1148,#1172,#1197,#1221,#1246,#1271,#1296,#1321,
    #1345,#1370,#1405,#1429,#1464,#1482));
#17 = ADVANCED_FACE('',(#18,#84,#118,#129),#140,.F.);
#18 = FACE_BOUND('',#19,.F.);
#19 = EDGE_LOOP('',(#20,#30,#38,#46,#54,#62,#70,#78));
#20 = ORIENTED_EDGE('',*,*,#21,.T.);
#21 = EDGE_CURVE('',#22,#24,#26,.T.);
#22 = VERTEX_POINT('',#23);
#23 = CARTESIAN_POINT('',(60.,10.,28.));
#24 = VERTEX_POINT('',#25);
#25 = CARTESIAN_POINT('',(60.,8.,28.));
#26 = LINE('',#27,#28);
#27 = CARTESIAN_POINT('',(60.,5.,28.));
#28 = VECTOR('',#29,1.);
#29 = DIRECTION('',(0.,-1.,-0.));
#30 = ORIENTED_EDGE('',*,*,#31,.T.);
#31 = EDGE_CURVE('',#24,#32,#34,.T.);
#32 = VERTEX_POINT('',#33);
#33 = CARTESIAN_POINT('',(15.,8.,28.));
#34 = LINE('',#35,#36);
#35 = CARTESIAN_POINT('',(60.,8.,28.));
#36 = VECTOR('',#37,1.);
#37 = DIRECTION('',(-1.,-0.,0.));
#38 = ORIENTED_EDGE('',*,*,#39,.F.);
#39 = EDGE_CURVE('',#40,#32,#42,.T.);
#40 = VERTEX_POINT('',#41);
#41 = CARTESIAN_POINT('',(15.,10.,28.));
#42 = LINE('',#43,#44);
#43 = CARTESIAN_POINT('',(15.,5.,28.));
#44 = VECTOR('',#45,1.);
#45 = DIRECTION('',(0.,-1.,-0.));
#46 = ORIENTED_EDGE('',*,*,#47,.T.);
#47 = EDGE_CURVE('',#40,#48,#50,.T.);
#48 = VERTEX_POINT('',#49);
#49 = CARTESIAN_POINT('',(15.,27.,28.));
#50 = LINE('',#51,#52);
#51 = CARTESIAN_POINT('',(15.,5.,28.));
#52 = VECTOR('',#53,1.);
#53 = DIRECTION('',(-0.,1.,0.));
#54 = ORIENTED_EDGE('',*,*,#55,.T.);
#55 = EDGE_CURVE('',#48,#56,#58,.T.);
#56 = VERTEX_POINT('',#57);
#57 = CARTESIAN_POINT('',(15.,29.,28.));
#58 = LINE('',#59,#60);
#59 = CARTESIAN_POINT('',(15.,5.,28.));
#60 = VECTOR('',#61,1.);
#61 = DIRECTION('',(-0.,1.,0.));
#62 = ORIENTED_EDGE('',*,*,#63,.F.);
#63 = EDGE_CURVE('',#64,#56,#66,.T.);
#64 = VERTEX_POINT('',#65);
#65 = CARTESIAN_POINT('',(60.,29.,28.));
#66 = LINE('',#67,#68);
#67 = CARTESIAN_POINT('',(60.,29.,28.));
#68 = VECTOR('',#69,1.);
#69 = DIRECTION('',(-1.,-0.,0.));
#70 = ORIENTED_EDGE('',*,*,#71,.F.);
#71 = EDGE_CURVE('',#72,#64,#74,.T.);
#72 = VERTEX_POINT('',#73);
#73 = CARTESIAN_POINT('',(60.,27.,28.));
#74 = LINE('',#75,#76);
#75 = CARTESIAN_POINT('',(60.,5.,28.));
#76 = VECTOR('',#77,1.);
#77 = DIRECTION('',(-0.,1.,0.));
#78 = ORIENTED_EDGE('',*,*,#79,.F.);
#79 = EDGE_CURVE('',#22,#72,#80,.T.);
#80 = LINE('',#81,#82);
#81 = CARTESIAN_POINT('',(60.,5.,28.));
#82 = VECTOR('',#83,1.);
#83 = DIRECTION('',(-0.,1.,0.));
#84 = FACE_BOUND('',#85,.F.);
#85 = EDGE_LOOP('',(#86,#96,#104,#112));
#86 = ORIENTED_EDGE('',*,*,#87,.F.);
#87 = EDGE_CURVE('',#88,#90,#92,.T.);
#88 = VERTEX_POINT('',#89);
#89 = CARTESIAN_POINT('',(0.,0.,28.));
#90 = VERTEX_POINT('',#91);
#91 = CARTESIAN_POINT('',(0.,30.,28.));
#92 = LINE('',#93,#94);
#93 = CARTESIAN_POINT('',(0.,0.,28.));
#94 = VECTOR('',#95,1.);
#95 = DIRECTION('',(-0.,1.,0.));
#96 = ORIENTED_EDGE('',*,*,#97,.T.);
#97 = EDGE_CURVE('',#88,#98,#100,.T.);
#98 = VERTEX_POINT('',#99);
#99 = CARTESIAN_POINT('',(75.,0.,28.));
#100 = LINE('',#101,#102);
#101 = CARTESIAN_POINT('',(0.,0.,28.));
#102 = VECTOR('',#103,1.);
#103 = DIRECTION('',(1.,0.,-0.));
#104 = ORIENTED_EDGE('',*,*,#105,.T.);
#105 = EDGE_CURVE('',#98,#106,#108,.T.);
#106 = VERTEX_POINT('',#107);
#107 = CARTESIAN_POINT('',(75.,30.,28.));
#108 = LINE('',#109,#110);
#109 = CARTESIAN_POINT('',(75.,0.,28.));
#110 = VECTOR('',#111,1.);
#111 = DIRECTION('',(-0.,1.,0.));
#112 = ORIENTED_EDGE('',*,*,#113,.F.);
#113 = EDGE_CURVE('',#90,#106,#114,.T.);
#114 = LINE('',#115,#116);
#115 = CARTESIAN_POINT('',(0.,30.,28.));
#116 = VECTOR('',#117,1.);
#117 = DIRECTION('',(1.,0.,-0.));
#118 = FACE_BOUND('',#119,.F.);
#119 = EDGE_LOOP('',(#120));
#120 = ORIENTED_EDGE('',*,*,#121,.F.);
#121 = EDGE_CURVE('',#122,#122,#124,.T.);
#122 = VERTEX_POINT('',#123);
#123 = CARTESIAN_POINT('',(10.8,15.,28.));
#124 = CIRCLE('',#125,3.3);
#125 = AXIS2_PLACEMENT_3D('',#126,#127,#128);
#126 = CARTESIAN_POINT('',(7.5,15.,28.));
#127 = DIRECTION('',(0.,0.,1.));
#128 = DIRECTION('',(1.,0.,-0.));
#129 = FACE_BOUND('',#130,.F.);
#130 = EDGE_LOOP('',(#131));
#131 = ORIENTED_EDGE('',*,*,#132,.F.);
#132 = EDGE_CURVE('',#133,#133,#135,.T.);
#133 = VERTEX_POINT('',#134);
#134 = CARTESIAN_POINT('',(70.8,15.,28.));
#135 = CIRCLE('',#136,3.3);
#136 = AXIS2_PLACEMENT_3D('',#137,#138,#139);
#137 = CARTESIAN_POINT('',(67.5,15.,28.));
#138 = DIRECTION('',(0.,0.,1.));
#139 = DIRECTION('',(1.,0.,-0.));
#140 = PLANE('',#141);
#141 = AXIS2_PLACEMENT_3D('',#142,#143,#144);
#142 = CARTESIAN_POINT('',(0.,0.,28.));
#143 = DIRECTION('',(0.,0.,1.));
#144 = DIRECTION('',(1.,0.,-0.));
#145 = ADVANCED_FACE('',(#146),#191,.T.);
#146 = FACE_BOUND('',#147,.T.);
#147 = EDGE_LOOP('',(#148,#158,#166,#174,#181,#182,#183,#184));
#148 = ORIENTED_EDGE('',*,*,#149,.F.);
#149 = EDGE_CURVE('',#150,#152,#154,.T.);
#150 = VERTEX_POINT('',#151);
#151 = CARTESIAN_POINT('',(60.,10.,0.));
#152 = VERTEX_POINT('',#153);
#153 = CARTESIAN_POINT('',(60.,10.,26.));
#154 = LINE('',#155,#156);
#155 = CARTESIAN_POINT('',(60.,10.,0.));
#156 = VECTOR('',#157,1.);
#157 = DIRECTION('',(0.,0.,1.));
#158 = ORIENTED_EDGE('',*,*,#159,.T.);
#159 = EDGE_CURVE('',#150,#160,#162,.T.);
#160 = VERTEX_POINT('',#161);
#161 = CARTESIAN_POINT('',(60.,27.,0.));
#162 = LINE('',#163,#164);
#163 = CARTESIAN_POINT('',(60.,10.,0.));
#164 = VECTOR('',#165,1.);
#165 = DIRECTION('',(-0.,1.,0.));
#166 = ORIENTED_EDGE('',*,*,#167,.T.);
#167 = EDGE_CURVE('',#160,#168,#170,.T.);
#168 = VERTEX_POINT('',#169);
#169 = CARTESIAN_POINT('',(60.,27.,26.));
#170 = LINE('',#171,#172);
#171 = CARTESIAN_POINT('',(60.,27.,0.));
#172 = VECTOR('',#173,1.);
#173 = DIRECTION('',(0.,0.,1.));
#174 = ORIENTED_EDGE('',*,*,#175,.F.);
#175 = EDGE_CURVE('',#64,#168,#176,.T.);
#176 = CIRCLE('',#177,2.);
#177 = AXIS2_PLACEMENT_3D('',#178,#179,#180);
#178 = CARTESIAN_POINT('',(60.,29.,26.));
#179 = DIRECTION('',(1.,0.,-0.));
#180 = DIRECTION('',(-0.,0.,-1.));
#181 = ORIENTED_EDGE('',*,*,#71,.F.);
#182 = ORIENTED_EDGE('',*,*,#79,.F.);
#183 = ORIENTED_EDGE('',*,*,#21,.T.);
#184 = ORIENTED_EDGE('',*,*,#185,.T.);
#185 = EDGE_CURVE('',#24,#152,#186,.T.);
#186 = CIRCLE('',#187,2.);
#187 = AXIS2_PLACEMENT_3D('',#188,#189,#190);
#188 = CARTESIAN_POINT('',(60.,8.,26.));
#189 = DIRECTION('',(-1.,-0.,0.));
#190 = DIRECTION('',(-0.,0.,-1.));
#191 = PLANE('',#192);
#192 = AXIS2_PLACEMENT_3D('',#193,#194,#195);
#193 = CARTESIAN_POINT('',(60.,10.,0.));
#194 = DIRECTION('',(1.,0.,-0.));
#195 = DIRECTION('',(0.,0.,1.));
#196 = ADVANCED_FACE('',(#197),#216,.F.);
#197 = FACE_BOUND('',#198,.F.);
#198 = EDGE_LOOP('',(#199,#200,#208,#215));
#199 = ORIENTED_EDGE('',*,*,#185,.T.);
#200 = ORIENTED_EDGE('',*,*,#201,.T.);
#201 = EDGE_CURVE('',#152,#202,#204,.T.);
#202 = VERTEX_POINT('',#203);
#203 = CARTESIAN_POINT('',(15.,10.,26.));
#204 = LINE('',#205,#206);
#205 = CARTESIAN_POINT('',(60.,10.,26.));
#206 = VECTOR('',#207,1.);
#207 = DIRECTION('',(-1.,-0.,0.));
#208 = ORIENTED_EDGE('',*,*,#209,.F.);
#209 = EDGE_CURVE('',#32,#202,#210,.T.);
#210 = CIRCLE('',#211,2.);
#211 = AXIS2_PLACEMENT_3D('',#212,#213,#214);
#212 = CARTESIAN_POINT('',(15.,8.,26.));
#213 = DIRECTION('',(-1.,-0.,0.));
#214 = DIRECTION('',(-0.,0.,-1.));
#215 = ORIENTED_EDGE('',*,*,#31,.F.);
#216 = CYLINDRICAL_SURFACE('',#217,2.);
#217 = AXIS2_PLACEMENT_3D('',#218,#219,#220);
#218 = CARTESIAN_POINT('',(60.,8.,26.));
#219 = DIRECTION('',(-1.,-0.,0.));
#220 = DIRECTION('',(0.,0.,1.));
#221 = ADVANCED_FACE('',(#222),#259,.F.);
#222 = FACE_BOUND('',#223,.F.);
#223 = EDGE_LOOP('',(#224,#232,#240,#248,#255,#256,#257,#258));
#224 = ORIENTED_EDGE('',*,*,#225,.F.);
#225 = EDGE_CURVE('',#226,#202,#228,.T.);
#226 = VERTEX_POINT('',#227);
#227 = CARTESIAN_POINT('',(15.,10.,0.));
#228 = LINE('',#229,#230);
#229 = CARTESIAN_POINT('',(15.,10.,0.));
#230 = VECTOR('',#231,1.);
#231 = DIRECTION('',(0.,0.,1.));
#232 = ORIENTED_EDGE('',*,*,#233,.T.);
#233 = EDGE_CURVE('',#226,#234,#236,.T.);
#234 = VERTEX_POINT('',#235);
#235 = CARTESIAN_POINT('',(15.,27.,0.));
#236 = LINE('',#237,#238);
#237 = CARTESIAN_POINT('',(15.,10.,0.));
#238 = VECTOR('',#239,1.);
#239 = DIRECTION('',(-0.,1.,0.));
#240 = ORIENTED_EDGE('',*,*,#241,.T.);
#241 = EDGE_CURVE('',#234,#242,#244,.T.);
#242 = VERTEX_POINT('',#243);
#243 = CARTESIAN_POINT('',(15.,27.,26.));
#244 = LINE('',#245,#246);
#245 = CARTESIAN_POINT('',(15.,27.,0.));
#246 = VECTOR('',#247,1.);
#247 = DIRECTION('',(0.,0.,1.));
#248 = ORIENTED_EDGE('',*,*,#249,.F.);
#249 = EDGE_CURVE('',#56,#242,#250,.T.);
#250 = CIRCLE('',#251,2.);
#251 = AXIS2_PLACEMENT_3D('',#252,#253,#254);
#252 = CARTESIAN_POINT('',(15.,29.,26.));
#253 = DIRECTION('',(1.,0.,-0.));
#254 = DIRECTION('',(-0.,0.,-1.));
#255 = ORIENTED_EDGE('',*,*,#55,.F.);
#256 = ORIENTED_EDGE('',*,*,#47,.F.);
#257 = ORIENTED_EDGE('',*,*,#39,.T.);
#258 = ORIENTED_EDGE('',*,*,#209,.T.);
#259 = PLANE('',#260);
#260 = AXIS2_PLACEMENT_3D('',#261,#262,#263);
#261 = CARTESIAN_POINT('',(15.,10.,0.));
#262 = DIRECTION('',(1.,0.,-0.));
#263 = DIRECTION('',(0.,0.,1.));
#264 = ADVANCED_FACE('',(#265),#276,.F.);
#265 = FACE_BOUND('',#266,.T.);
#266 = EDGE_LOOP('',(#267,#268,#274,#275));
#267 = ORIENTED_EDGE('',*,*,#175,.T.);
#268 = ORIENTED_EDGE('',*,*,#269,.T.);
#269 = EDGE_CURVE('',#168,#242,#270,.T.);
#270 = LINE('',#271,#272);
#271 = CARTESIAN_POINT('',(60.,27.,26.));
#272 = VECTOR('',#273,1.);
#273 = DIRECTION('',(-1.,-0.,0.));
#274 = ORIENTED_EDGE('',*,*,#249,.F.);
#275 = ORIENTED_EDGE('',*,*,#63,.F.);
#276 = CYLINDRICAL_SURFACE('',#277,2.);
#277 = AXIS2_PLACEMENT_3D('',#278,#279,#280);
#278 = CARTESIAN_POINT('',(60.,29.,26.));
#279 = DIRECTION('',(-1.,-0.,0.));
#280 = DIRECTION('',(0.,0.,1.));
#281 = ADVANCED_FACE('',(#282),#307,.F.);
#282 = FACE_BOUND('',#283,.F.);
#283 = EDGE_LOOP('',(#284,#292,#293,#301));
#284 = ORIENTED_EDGE('',*,*,#285,.F.);
#285 = EDGE_CURVE('',#88,#286,#288,.T.);
#286 = VERTEX_POINT('',#287);
#287 = CARTESIAN_POINT('',(0.,0.,34.));
#288 = LINE('',#289,#290);
#289 = CARTESIAN_POINT('',(0.,0.,28.));
#290 = VECTOR('',#291,1.);
#291 = DIRECTION('',(0.,0.,1.));
#292 = ORIENTED_EDGE('',*,*,#87,.T.);
#293 = ORIENTED_EDGE('',*,*,#294,.T.);
#294 = EDGE_CURVE('',#90,#295,#297,.T.);
#295 = VERTEX_POINT('',#296);
#296 = CARTESIAN_POINT('',(0.,30.,34.));
#297 = LINE('',#298,#299);
#298 = CARTESIAN_POINT('',(0.,30.,28.));
#299 = VECTOR('',#300,1.);
#300 = DIRECTION('',(0.,0.,1.));
#301 = ORIENTED_EDGE('',*,*,#302,.F.);
#302 = EDGE_CURVE('',#286,#295,#303,.T.);
#303 = LINE('',#304,#305);
#304 = CARTESIAN_POINT('',(0.,0.,34.));
#305 = VECTOR('',#306,1.);
#306 = DIRECTION('',(-0.,1.,0.));
#307 = PLANE('',#308);
#308 = AXIS2_PLACEMENT_3D('',#309,#310,#311);
#309 = CARTESIAN_POINT('',(0.,0.,28.));
#310 = DIRECTION('',(1.,0.,-0.));
#311 = DIRECTION('',(0.,0.,1.));
#312 = ADVANCED_FACE('',(#313),#331,.T.);
#313 = FACE_BOUND('',#314,.T.);
#314 = EDGE_LOOP('',(#315,#316,#317,#325));
#315 = ORIENTED_EDGE('',*,*,#113,.F.);
#316 = ORIENTED_EDGE('',*,*,#294,.T.);
#317 = ORIENTED_EDGE('',*,*,#318,.T.);
#318 = EDGE_CURVE('',#295,#319,#321,.T.);
#319 = VERTEX_POINT('',#320);
#320 = CARTESIAN_POINT('',(75.,30.,34.));
#321 = LINE('',#322,#323);
#322 = CARTESIAN_POINT('',(0.,30.,34.));
#323 = VECTOR('',#324,1.);
#324 = DIRECTION('',(1.,0.,-0.));
#325 = ORIENTED_EDGE('',*,*,#326,.F.);
#326 = EDGE_CURVE('',#106,#319,#327,.T.);
#327 = LINE('',#328,#329);
#328 = CARTESIAN_POINT('',(75.,30.,28.));
#329 = VECTOR('',#330,1.);
#330 = DIRECTION('',(0.,0.,1.));
#331 = PLANE('',#332);
#332 = AXIS2_PLACEMENT_3D('',#333,#334,#335);
#333 = CARTESIAN_POINT('',(0.,30.,28.));
#334 = DIRECTION('',(-0.,1.,0.));
#335 = DIRECTION('',(0.,0.,1.));
#336 = ADVANCED_FACE('',(#337),#355,.F.);
#337 = FACE_BOUND('',#338,.F.);
#338 = EDGE_LOOP('',(#339,#340,#341,#349));
#339 = ORIENTED_EDGE('',*,*,#97,.F.);
#340 = ORIENTED_EDGE('',*,*,#285,.T.);
#341 = ORIENTED_EDGE('',*,*,#342,.T.);
#342 = EDGE_CURVE('',#286,#343,#345,.T.);
#343 = VERTEX_POINT('',#344);
#344 = CARTESIAN_POINT('',(75.,0.,34.));
#345 = LINE('',#346,#347);
#346 = CARTESIAN_POINT('',(0.,0.,34.));
#347 = VECTOR('',#348,1.);
#348 = DIRECTION('',(1.,0.,-0.));
#349 = ORIENTED_EDGE('',*,*,#350,.F.);
#350 = EDGE_CURVE('',#98,#343,#351,.T.);
#351 = LINE('',#352,#353);
#352 = CARTESIAN_POINT('',(75.,0.,28.));
#353 = VECTOR('',#354,1.);
#354 = DIRECTION('',(0.,0.,1.));
#355 = PLANE('',#356);
#356 = AXIS2_PLACEMENT_3D('',#357,#358,#359);
#357 = CARTESIAN_POINT('',(0.,0.,28.));
#358 = DIRECTION('',(-0.,1.,0.));
#359 = DIRECTION('',(0.,0.,1.));
#360 = ADVANCED_FACE('',(#361),#372,.T.);
#361 = FACE_BOUND('',#362,.T.);
#362 = EDGE_LOOP('',(#363,#364,#365,#366));
#363 = ORIENTED_EDGE('',*,*,#350,.F.);
#364 = ORIENTED_EDGE('',*,*,#105,.T.);
#365 = ORIENTED_EDGE('',*,*,#326,.T.);
#366 = ORIENTED_EDGE('',*,*,#367,.F.);
#367 = EDGE_CURVE('',#343,#319,#368,.T.);
#368 = LINE('',#369,#370);
#369 = CARTESIAN_POINT('',(75.,0.,34.));
#370 = VECTOR('',#371,1.);
#371 = DIRECTION('',(-0.,1.,0.));
#372 = PLANE('',#373);
#373 = AXIS2_PLACEMENT_3D('',#374,#375,#376);
#374 = CARTESIAN_POINT('',(75.,0.,28.));
#375 = DIRECTION('',(1.,0.,-0.));
#376 = DIRECTION('',(0.,0.,1.));
#377 = ADVANCED_FACE('',(#378),#397,.F.);
#378 = FACE_BOUND('',#379,.F.);
#379 = EDGE_LOOP('',(#380,#389,#395,#396));
#380 = ORIENTED_EDGE('',*,*,#381,.F.);
#381 = EDGE_CURVE('',#382,#382,#384,.T.);
#382 = VERTEX_POINT('',#383);
#383 = CARTESIAN_POINT('',(10.8,15.,34.));
#384 = CIRCLE('',#385,3.3);
#385 = AXIS2_PLACEMENT_3D('',#386,#387,#388);
#386 = CARTESIAN_POINT('',(7.5,15.,34.));
#387 = DIRECTION('',(0.,0.,1.));
#388 = DIRECTION('',(1.,0.,-0.));
#389 = ORIENTED_EDGE('',*,*,#390,.F.);
#390 = EDGE_CURVE('',#122,#382,#391,.T.);
#391 = LINE('',#392,#393);
#392 = CARTESIAN_POINT('',(10.8,15.,27.));
#393 = VECTOR('',#394,1.);
#394 = DIRECTION('',(0.,0.,1.));
#395 = ORIENTED_EDGE('',*,*,#121,.T.);
#396 = ORIENTED_EDGE('',*,*,#390,.T.);
#397 = CYLINDRICAL_SURFACE('',#398,3.3);
#398 = AXIS2_PLACEMENT_3D('',#399,#400,#401);
#399 = CARTESIAN_POINT('',(7.5,15.,27.));
#400 = DIRECTION('',(0.,0.,1.));
#401 = DIRECTION('',(1.,0.,-0.));
#402 = ADVANCED_FACE('',(#403),#422,.F.);
#403 = FACE_BOUND('',#404,.F.);
#404 = EDGE_LOOP('',(#405,#414,#420,#421));
#405 = ORIENTED_EDGE('',*,*,#406,.F.);
#406 = EDGE_CURVE('',#407,#407,#409,.T.);
#407 = VERTEX_POINT('',#408);
#408 = CARTESIAN_POINT('',(70.8,15.,34.));
#409 = CIRCLE('',#410,3.3);
#410 = AXIS2_PLACEMENT_3D('',#411,#412,#413);
#411 = CARTESIAN_POINT('',(67.5,15.,34.));
#412 = DIRECTION('',(0.,0.,1.));
#413 = DIRECTION('',(1.,0.,-0.));
#414 = ORIENTED_EDGE('',*,*,#415,.F.);
#415 = EDGE_CURVE('',#133,#407,#416,.T.);
#416 = LINE('',#417,#418);
#417 = CARTESIAN_POINT('',(70.8,15.,27.));
#418 = VECTOR('',#419,1.);
#419 = DIRECTION('',(0.,0.,1.));
#420 = ORIENTED_EDGE('',*,*,#132,.T.);
#421 = ORIENTED_EDGE('',*,*,#415,.T.);
#422 = CYLINDRICAL_SURFACE('',#423,3.3);
#423 = AXIS2_PLACEMENT_3D('',#424,#425,#426);
#424 = CARTESIAN_POINT('',(67.5,15.,27.));
#425 = DIRECTION('',(0.,0.,1.));
#426 = DIRECTION('',(1.,0.,-0.));
#427 = ADVANCED_FACE('',(#428,#513,#524,#535),#546,.F.);
#428 = FACE_BOUND('',#429,.F.);
#429 = EDGE_LOOP('',(#430,#431,#439,#447,#455,#463,#472,#481,#489,#497,
    #505,#511,#512));
#430 = ORIENTED_EDGE('',*,*,#149,.F.);
#431 = ORIENTED_EDGE('',*,*,#432,.F.);
#432 = EDGE_CURVE('',#433,#150,#435,.T.);
#433 = VERTEX_POINT('',#434);
#434 = CARTESIAN_POINT('',(42.25,10.,0.));
#435 = LINE('',#436,#437);
#436 = CARTESIAN_POINT('',(15.,10.,0.));
#437 = VECTOR('',#438,1.);
#438 = DIRECTION('',(1.,0.,-0.));
#439 = ORIENTED_EDGE('',*,*,#440,.F.);
#440 = EDGE_CURVE('',#441,#433,#443,.T.);
#441 = VERTEX_POINT('',#442);
#442 = CARTESIAN_POINT('',(42.25,10.,6.));
#443 = LINE('',#444,#445);
#444 = CARTESIAN_POINT('',(42.25,10.,-0.5));
#445 = VECTOR('',#446,1.);
#446 = DIRECTION('',(-0.,0.,-1.));
#447 = ORIENTED_EDGE('',*,*,#448,.F.);
#448 = EDGE_CURVE('',#449,#441,#451,.T.);
#449 = VERTEX_POINT('',#450);
#450 = CARTESIAN_POINT('',(41.,10.,6.));
#451 = LINE('',#452,#453);
#452 = CARTESIAN_POINT('',(20.125,10.,6.));
#453 = VECTOR('',#454,1.);
#454 = DIRECTION('',(1.,0.,-0.));
#455 = ORIENTED_EDGE('',*,*,#456,.F.);
#456 = EDGE_CURVE('',#457,#449,#459,.T.);
#457 = VERTEX_POINT('',#458);
#458 = CARTESIAN_POINT('',(41.,10.,15.35));
#459 = LINE('',#460,#461);
#460 = CARTESIAN_POINT('',(41.,10.,-0.5));
#461 = VECTOR('',#462,1.);
#462 = DIRECTION('',(-0.,0.,-1.));
#463 = ORIENTED_EDGE('',*,*,#464,.F.);
#464 = EDGE_CURVE('',#465,#457,#467,.T.);
#465 = VERTEX_POINT('',#466);
#466 = CARTESIAN_POINT('',(37.5,10.,18.85));
#467 = CIRCLE('',#468,3.5);
#468 = AXIS2_PLACEMENT_3D('',#469,#470,#471);
#469 = CARTESIAN_POINT('',(37.5,10.,15.35));
#470 = DIRECTION('',(0.,1.,0.));
#471 = DIRECTION('',(0.,-0.,1.));
#472 = ORIENTED_EDGE('',*,*,#473,.F.);
#473 = EDGE_CURVE('',#474,#465,#476,.T.);
#474 = VERTEX_POINT('',#475);
#475 = CARTESIAN_POINT('',(34.,10.,15.35));
#476 = CIRCLE('',#477,3.5);
#477 = AXIS2_PLACEMENT_3D('',#478,#479,#480);
#478 = CARTESIAN_POINT('',(37.5,10.,15.35));
#479 = DIRECTION('',(0.,1.,0.));
#480 = DIRECTION('',(0.,-0.,1.));
#481 = ORIENTED_EDGE('',*,*,#482,.T.);
#482 = EDGE_CURVE('',#474,#483,#485,.T.);
#483 = VERTEX_POINT('',#484);
#484 = CARTESIAN_POINT('',(34.,10.,6.));
#485 = LINE('',#486,#487);
#486 = CARTESIAN_POINT('',(34.,10.,-0.5));
#487 = VECTOR('',#488,1.);
#488 = DIRECTION('',(-0.,0.,-1.));
#489 = ORIENTED_EDGE('',*,*,#490,.F.);
#490 = EDGE_CURVE('',#491,#483,#493,.T.);
#491 = VERTEX_POINT('',#492);
#492 = CARTESIAN_POINT('',(32.75,10.,6.));
#493 = LINE('',#494,#495);
#494 = CARTESIAN_POINT('',(20.125,10.,6.));
#495 = VECTOR('',#496,1.);
#496 = DIRECTION('',(1.,0.,-0.));
#497 = ORIENTED_EDGE('',*,*,#498,.T.);
#498 = EDGE_CURVE('',#491,#499,#501,.T.);
#499 = VERTEX_POINT('',#500);
#500 = CARTESIAN_POINT('',(32.75,10.,0.));
#501 = LINE('',#502,#503);
#502 = CARTESIAN_POINT('',(32.75,10.,-0.5));
#503 = VECTOR('',#504,1.);
#504 = DIRECTION('',(-0.,0.,-1.));
#505 = ORIENTED_EDGE('',*,*,#506,.F.);
#506 = EDGE_CURVE('',#226,#499,#507,.T.);
#507 = LINE('',#508,#509);
#508 = CARTESIAN_POINT('',(15.,10.,0.));
#509 = VECTOR('',#510,1.);
#510 = DIRECTION('',(1.,0.,-0.));
#511 = ORIENTED_EDGE('',*,*,#225,.T.);
#512 = ORIENTED_EDGE('',*,*,#201,.F.);
#513 = FACE_BOUND('',#514,.F.);
#514 = EDGE_LOOP('',(#515));
#515 = ORIENTED_EDGE('',*,*,#516,.F.);
#516 = EDGE_CURVE('',#517,#517,#519,.T.);
#517 = VERTEX_POINT('',#518);
#518 = CARTESIAN_POINT('',(30.918206931238,10.,12.95));
#519 = CIRCLE('',#520,1.4);
#520 = AXIS2_PLACEMENT_3D('',#521,#522,#523);
#521 = CARTESIAN_POINT('',(30.918206931238,10.,11.55));
#522 = DIRECTION('',(0.,1.,0.));
#523 = DIRECTION('',(0.,-0.,1.));
#524 = FACE_BOUND('',#525,.F.);
#525 = EDGE_LOOP('',(#526));
#526 = ORIENTED_EDGE('',*,*,#527,.F.);
#527 = EDGE_CURVE('',#528,#528,#530,.T.);
#528 = VERTEX_POINT('',#529);
#529 = CARTESIAN_POINT('',(44.081793068762,10.,12.95));
#530 = CIRCLE('',#531,1.4);
#531 = AXIS2_PLACEMENT_3D('',#532,#533,#534);
#532 = CARTESIAN_POINT('',(44.081793068762,10.,11.55));
#533 = DIRECTION('',(0.,1.,0.));
#534 = DIRECTION('',(0.,-0.,1.));
#535 = FACE_BOUND('',#536,.F.);
#536 = EDGE_LOOP('',(#537));
#537 = ORIENTED_EDGE('',*,*,#538,.F.);
#538 = EDGE_CURVE('',#539,#539,#541,.T.);
#539 = VERTEX_POINT('',#540);
#540 = CARTESIAN_POINT('',(37.5,10.,24.35));
#541 = CIRCLE('',#542,1.4);
#542 = AXIS2_PLACEMENT_3D('',#543,#544,#545);
#543 = CARTESIAN_POINT('',(37.5,10.,22.95));
#544 = DIRECTION('',(0.,1.,0.));
#545 = DIRECTION('',(0.,-0.,1.));
#546 = PLANE('',#547);
#547 = AXIS2_PLACEMENT_3D('',#548,#549,#550);
#548 = CARTESIAN_POINT('',(15.,10.,0.));
#549 = DIRECTION('',(-0.,1.,0.));
#550 = DIRECTION('',(0.,0.,1.));
#551 = ADVANCED_FACE('',(#552),#570,.F.);
#552 = FACE_BOUND('',#553,.F.);
#553 = EDGE_LOOP('',(#554,#562,#568,#569));
#554 = ORIENTED_EDGE('',*,*,#555,.F.);
#555 = EDGE_CURVE('',#556,#160,#558,.T.);
#556 = VERTEX_POINT('',#557);
#557 = CARTESIAN_POINT('',(42.25,27.,0.));
#558 = LINE('',#559,#560);
#559 = CARTESIAN_POINT('',(15.,27.,0.));
#560 = VECTOR('',#561,1.);
#561 = DIRECTION('',(1.,0.,-0.));
#562 = ORIENTED_EDGE('',*,*,#563,.F.);
#563 = EDGE_CURVE('',#433,#556,#564,.T.);
#564 = LINE('',#565,#566);
#565 = CARTESIAN_POINT('',(42.25,9.5,0.));
#566 = VECTOR('',#567,1.);
#567 = DIRECTION('',(-0.,1.,0.));
#568 = ORIENTED_EDGE('',*,*,#432,.T.);
#569 = ORIENTED_EDGE('',*,*,#159,.T.);
#570 = PLANE('',#571);
#571 = AXIS2_PLACEMENT_3D('',#572,#573,#574);
#572 = CARTESIAN_POINT('',(15.,10.,0.));
#573 = DIRECTION('',(0.,0.,1.));
#574 = DIRECTION('',(1.,0.,-0.));
#575 = ADVANCED_FACE('',(#576),#735,.T.);
#576 = FACE_BOUND('',#577,.T.);
#577 = EDGE_LOOP('',(#578,#579,#580,#588,#596,#605,#614,#623,#631,#640,
    #649,#658,#667,#676,#684,#693,#702,#711,#719,#727,#733,#734));
#578 = ORIENTED_EDGE('',*,*,#167,.F.);
#579 = ORIENTED_EDGE('',*,*,#555,.F.);
#580 = ORIENTED_EDGE('',*,*,#581,.F.);
#581 = EDGE_CURVE('',#582,#556,#584,.T.);
#582 = VERTEX_POINT('',#583);
#583 = CARTESIAN_POINT('',(42.25,27.,7.1));
#584 = LINE('',#585,#586);
#585 = CARTESIAN_POINT('',(42.25,27.,-0.5));
#586 = VECTOR('',#587,1.);
#587 = DIRECTION('',(-0.,0.,-1.));
#588 = ORIENTED_EDGE('',*,*,#589,.T.);
#589 = EDGE_CURVE('',#582,#590,#592,.T.);
#590 = VERTEX_POINT('',#591);
#591 = CARTESIAN_POINT('',(42.558903043151,27.,7.1));
#592 = LINE('',#593,#594);
#593 = CARTESIAN_POINT('',(40.,27.,7.1));
#594 = VECTOR('',#595,1.);
#595 = DIRECTION('',(1.,0.,0.));
#596 = ORIENTED_EDGE('',*,*,#597,.F.);
#597 = EDGE_CURVE('',#598,#590,#600,.T.);
#598 = VERTEX_POINT('',#599);
#599 = CARTESIAN_POINT('',(44.505473647137,27.,8.640801912354));
#600 = CIRCLE('',#601,2.);
#601 = AXIS2_PLACEMENT_3D('',#602,#603,#604);
#602 = CARTESIAN_POINT('',(42.558903043151,27.,9.1));
#603 = DIRECTION('',(0.,1.,0.));
#604 = DIRECTION('',(0.,-0.,1.));
#605 = ORIENTED_EDGE('',*,*,#606,.T.);
#606 = EDGE_CURVE('',#598,#607,#609,.T.);
#607 = VERTEX_POINT('',#608);
#608 = CARTESIAN_POINT('',(46.813072806492,27.,12.63768089986));
#609 = CIRCLE('',#610,9.7);
#610 = AXIS2_PLACEMENT_3D('',#611,#612,#613);
#611 = CARTESIAN_POINT('',(37.5,27.,15.35));
#612 = DIRECTION('',(4.473221495647E-33,-1.,-2.22044604925E-16));
#613 = DIRECTION('',(0.681401770154,1.625165726727E-16,-0.73190957613));
#614 = ORIENTED_EDGE('',*,*,#615,.F.);
#615 = EDGE_CURVE('',#616,#607,#618,.T.);
#616 = VERTEX_POINT('',#617);
#617 = CARTESIAN_POINT('',(47.174161102797,27.,15.093861449349));
#618 = CIRCLE('',#619,2.);
#619 = AXIS2_PLACEMENT_3D('',#620,#621,#622);
#620 = CARTESIAN_POINT('',(45.442110295228,27.,14.093861449349));
#621 = DIRECTION('',(0.,1.,0.));
#622 = DIRECTION('',(0.,-0.,1.));
#623 = ORIENTED_EDGE('',*,*,#624,.T.);
#624 = EDGE_CURVE('',#616,#625,#627,.T.);
#625 = VERTEX_POINT('',#626);
#626 = CARTESIAN_POINT('',(42.115258059646,27.,23.856138550651));
#627 = LINE('',#628,#629);
#628 = CARTESIAN_POINT('',(47.174161102797,27.,15.093861449349));
#629 = VECTOR('',#630,1.);
#630 = DIRECTION('',(-0.5,-1.922962686384E-16,0.866025403784));
#631 = ORIENTED_EDGE('',*,*,#632,.F.);
#632 = EDGE_CURVE('',#633,#625,#635,.T.);
#633 = VERTEX_POINT('',#634);
#634 = CARTESIAN_POINT('',(40.383207252077,27.,24.856138550651));
#635 = CIRCLE('',#636,2.);
#636 = AXIS2_PLACEMENT_3D('',#637,#638,#639);
#637 = CARTESIAN_POINT('',(40.383207252077,27.,22.856138550651));
#638 = DIRECTION('',(0.,1.,0.));
#639 = DIRECTION('',(0.,-0.,1.));
#640 = ORIENTED_EDGE('',*,*,#641,.F.);
#641 = EDGE_CURVE('',#642,#633,#644,.T.);
#642 = VERTEX_POINT('',#643);
#643 = CARTESIAN_POINT('',(39.807599159355,27.,24.771517187786));
#644 = CIRCLE('',#645,2.);
#645 = AXIS2_PLACEMENT_3D('',#646,#647,#648);
#646 = CARTESIAN_POINT('',(40.383207252077,27.,22.856138550651));
#647 = DIRECTION('',(0.,1.,0.));
#648 = DIRECTION('',(0.,-0.,1.));
#649 = ORIENTED_EDGE('',*,*,#650,.T.);
#650 = EDGE_CURVE('',#642,#651,#653,.T.);
#651 = VERTEX_POINT('',#652);
#652 = CARTESIAN_POINT('',(35.192400840645,27.,24.771517187786));
#653 = CIRCLE('',#654,9.7);
#654 = AXIS2_PLACEMENT_3D('',#655,#656,#657);
#655 = CARTESIAN_POINT('',(37.5,27.,15.35));
#656 = DIRECTION('',(-2.672331468585E-33,-1.,-2.22044604925E-16));
#657 = DIRECTION('',(0.293151401125,-2.122893041805E-16,0.956066031202)
  );
#658 = ORIENTED_EDGE('',*,*,#659,.F.);
#659 = EDGE_CURVE('',#660,#651,#662,.T.);
#660 = VERTEX_POINT('',#661);
#661 = CARTESIAN_POINT('',(34.616792747923,27.,24.856138550651));
#662 = CIRCLE('',#663,2.);
#663 = AXIS2_PLACEMENT_3D('',#664,#665,#666);
#664 = CARTESIAN_POINT('',(34.616792747923,27.,22.856138550651));
#665 = DIRECTION('',(0.,1.,0.));
#666 = DIRECTION('',(0.,-0.,1.));
#667 = ORIENTED_EDGE('',*,*,#668,.F.);
#668 = EDGE_CURVE('',#669,#660,#671,.T.);
#669 = VERTEX_POINT('',#670);
#670 = CARTESIAN_POINT('',(32.884741940354,27.,23.856138550651));
#671 = CIRCLE('',#672,2.);
#672 = AXIS2_PLACEMENT_3D('',#673,#674,#675);
#673 = CARTESIAN_POINT('',(34.616792747923,27.,22.856138550651));
#674 = DIRECTION('',(0.,1.,0.));
#675 = DIRECTION('',(0.,-0.,1.));
#676 = ORIENTED_EDGE('',*,*,#677,.T.);
#677 = EDGE_CURVE('',#669,#678,#680,.T.);
#678 = VERTEX_POINT('',#679);
#679 = CARTESIAN_POINT('',(27.825838897203,27.,15.093861449349));
#680 = LINE('',#681,#682);
#681 = CARTESIAN_POINT('',(32.884741940354,27.,23.856138550651));
#682 = VECTOR('',#683,1.);
#683 = DIRECTION('',(-0.5,1.922962686384E-16,-0.866025403784));
#684 = ORIENTED_EDGE('',*,*,#685,.F.);
#685 = EDGE_CURVE('',#686,#678,#688,.T.);
#686 = VERTEX_POINT('',#687);
#687 = CARTESIAN_POINT('',(28.186927193508,27.,12.63768089986));
#688 = CIRCLE('',#689,2.);
#689 = AXIS2_PLACEMENT_3D('',#690,#691,#692);
#690 = CARTESIAN_POINT('',(29.557889704772,27.,14.093861449349));
#691 = DIRECTION('',(0.,1.,0.));
#692 = DIRECTION('',(0.,-0.,1.));
#693 = ORIENTED_EDGE('',*,*,#694,.T.);
#694 = EDGE_CURVE('',#686,#695,#697,.T.);
#695 = VERTEX_POINT('',#696);
#696 = CARTESIAN_POINT('',(30.494526352863,27.,8.640801912354));
#697 = CIRCLE('',#698,9.7);
#698 = AXIS2_PLACEMENT_3D('',#699,#700,#701);
#699 = CARTESIAN_POINT('',(37.5,27.,15.35));
#700 = DIRECTION('',(2.007383461135E-33,-1.,-2.22044604925E-16));
#701 = DIRECTION('',(-0.974553171279,4.97727315078E-17,-0.224156455072)
  );
#702 = ORIENTED_EDGE('',*,*,#703,.F.);
#703 = EDGE_CURVE('',#704,#695,#706,.T.);
#704 = VERTEX_POINT('',#705);
#705 = CARTESIAN_POINT('',(32.441096956849,27.,7.1));
#706 = CIRCLE('',#707,2.);
#707 = AXIS2_PLACEMENT_3D('',#708,#709,#710);
#708 = CARTESIAN_POINT('',(32.441096956849,27.,9.1));
#709 = DIRECTION('',(0.,1.,0.));
#710 = DIRECTION('',(0.,-0.,1.));
#711 = ORIENTED_EDGE('',*,*,#712,.T.);
#712 = EDGE_CURVE('',#704,#713,#715,.T.);
#713 = VERTEX_POINT('',#714);
#714 = CARTESIAN_POINT('',(32.75,27.,7.1));
#715 = LINE('',#716,#717);
#716 = CARTESIAN_POINT('',(32.441096956849,27.,7.1));
#717 = VECTOR('',#718,1.);
#718 = DIRECTION('',(1.,-1.233123556334E-30,5.553494788808E-15));
#719 = ORIENTED_EDGE('',*,*,#720,.T.);
#720 = EDGE_CURVE('',#713,#721,#723,.T.);
#721 = VERTEX_POINT('',#722);
#722 = CARTESIAN_POINT('',(32.75,27.,0.));
#723 = LINE('',#724,#725);
#724 = CARTESIAN_POINT('',(32.75,27.,-0.5));
#725 = VECTOR('',#726,1.);
#726 = DIRECTION('',(-0.,0.,-1.));
#727 = ORIENTED_EDGE('',*,*,#728,.F.);
#728 = EDGE_CURVE('',#234,#721,#729,.T.);
#729 = LINE('',#730,#731);
#730 = CARTESIAN_POINT('',(15.,27.,0.));
#731 = VECTOR('',#732,1.);
#732 = DIRECTION('',(1.,0.,-0.));
#733 = ORIENTED_EDGE('',*,*,#241,.T.);
#734 = ORIENTED_EDGE('',*,*,#269,.F.);
#735 = PLANE('',#736);
#736 = AXIS2_PLACEMENT_3D('',#737,#738,#739);
#737 = CARTESIAN_POINT('',(15.,27.,0.));
#738 = DIRECTION('',(-0.,1.,0.));
#739 = DIRECTION('',(0.,0.,1.));
#740 = ADVANCED_FACE('',(#741),#752,.F.);
#741 = FACE_BOUND('',#742,.F.);
#742 = EDGE_LOOP('',(#743,#744,#745,#746));
#743 = ORIENTED_EDGE('',*,*,#728,.F.);
#744 = ORIENTED_EDGE('',*,*,#233,.F.);
#745 = ORIENTED_EDGE('',*,*,#506,.T.);
#746 = ORIENTED_EDGE('',*,*,#747,.T.);
#747 = EDGE_CURVE('',#499,#721,#748,.T.);
#748 = LINE('',#749,#750);
#749 = CARTESIAN_POINT('',(32.75,9.5,0.));
#750 = VECTOR('',#751,1.);
#751 = DIRECTION('',(-0.,1.,0.));
#752 = PLANE('',#753);
#753 = AXIS2_PLACEMENT_3D('',#754,#755,#756);
#754 = CARTESIAN_POINT('',(15.,10.,0.));
#755 = DIRECTION('',(0.,0.,1.));
#756 = DIRECTION('',(1.,0.,-0.));
#757 = ADVANCED_FACE('',(#758,#764,#767),#770,.T.);
#758 = FACE_BOUND('',#759,.T.);
#759 = EDGE_LOOP('',(#760,#761,#762,#763));
#760 = ORIENTED_EDGE('',*,*,#302,.F.);
#761 = ORIENTED_EDGE('',*,*,#342,.T.);
#762 = ORIENTED_EDGE('',*,*,#367,.T.);
#763 = ORIENTED_EDGE('',*,*,#318,.F.);
#764 = FACE_BOUND('',#765,.T.);
#765 = EDGE_LOOP('',(#766));
#766 = ORIENTED_EDGE('',*,*,#381,.F.);
#767 = FACE_BOUND('',#768,.T.);
#768 = EDGE_LOOP('',(#769));
#769 = ORIENTED_EDGE('',*,*,#406,.F.);
#770 = PLANE('',#771);
#771 = AXIS2_PLACEMENT_3D('',#772,#773,#774);
#772 = CARTESIAN_POINT('',(0.,0.,34.));
#773 = DIRECTION('',(0.,0.,1.));
#774 = DIRECTION('',(1.,0.,-0.));
#775 = ADVANCED_FACE('',(#776),#803,.T.);
#776 = FACE_BOUND('',#777,.T.);
#777 = EDGE_LOOP('',(#778,#786,#794,#800,#801,#802));
#778 = ORIENTED_EDGE('',*,*,#779,.T.);
#779 = EDGE_CURVE('',#441,#780,#782,.T.);
#780 = VERTEX_POINT('',#781);
#781 = CARTESIAN_POINT('',(42.25,18.,6.));
#782 = LINE('',#783,#784);
#783 = CARTESIAN_POINT('',(42.25,9.,6.));
#784 = VECTOR('',#785,1.);
#785 = DIRECTION('',(-0.,1.,0.));
#786 = ORIENTED_EDGE('',*,*,#787,.T.);
#787 = EDGE_CURVE('',#780,#788,#790,.T.);
#788 = VERTEX_POINT('',#789);
#789 = CARTESIAN_POINT('',(42.25,18.,7.1));
#790 = LINE('',#791,#792);
#791 = CARTESIAN_POINT('',(42.25,18.,-1.));
#792 = VECTOR('',#793,1.);
#793 = DIRECTION('',(0.,0.,1.));
#794 = ORIENTED_EDGE('',*,*,#795,.T.);
#795 = EDGE_CURVE('',#788,#582,#796,.T.);
#796 = LINE('',#797,#798);
#797 = CARTESIAN_POINT('',(42.25,22.5,7.1));
#798 = VECTOR('',#799,1.);
#799 = DIRECTION('',(0.,1.,2.22044604925E-16));
#800 = ORIENTED_EDGE('',*,*,#581,.T.);
#801 = ORIENTED_EDGE('',*,*,#563,.F.);
#802 = ORIENTED_EDGE('',*,*,#440,.F.);
#803 = PLANE('',#804);
#804 = AXIS2_PLACEMENT_3D('',#805,#806,#807);
#805 = CARTESIAN_POINT('',(42.25,18.682572614108,3.367427385892));
#806 = DIRECTION('',(-1.,-0.,-0.));
#807 = DIRECTION('',(0.,0.,-1.));
#808 = ADVANCED_FACE('',(#809),#827,.F.);
#809 = FACE_BOUND('',#810,.F.);
#810 = EDGE_LOOP('',(#811,#819,#820,#821));
#811 = ORIENTED_EDGE('',*,*,#812,.T.);
#812 = EDGE_CURVE('',#813,#449,#815,.T.);
#813 = VERTEX_POINT('',#814);
#814 = CARTESIAN_POINT('',(41.,18.,6.));
#815 = LINE('',#816,#817);
#816 = CARTESIAN_POINT('',(41.,9.,6.));
#817 = VECTOR('',#818,1.);
#818 = DIRECTION('',(0.,-1.,0.));
#819 = ORIENTED_EDGE('',*,*,#448,.T.);
#820 = ORIENTED_EDGE('',*,*,#779,.T.);
#821 = ORIENTED_EDGE('',*,*,#822,.F.);
#822 = EDGE_CURVE('',#813,#780,#823,.T.);
#823 = LINE('',#824,#825);
#824 = CARTESIAN_POINT('',(32.75,18.,6.));
#825 = VECTOR('',#826,1.);
#826 = DIRECTION('',(1.,0.,-0.));
#827 = PLANE('',#828);
#828 = AXIS2_PLACEMENT_3D('',#829,#830,#831);
#829 = CARTESIAN_POINT('',(32.75,9.,6.));
#830 = DIRECTION('',(0.,0.,1.));
#831 = DIRECTION('',(1.,0.,-0.));
#832 = ADVANCED_FACE('',(#833),#860,.T.);
#833 = FACE_BOUND('',#834,.T.);
#834 = EDGE_LOOP('',(#835,#843,#844,#845,#846,#854));
#835 = ORIENTED_EDGE('',*,*,#836,.F.);
#836 = EDGE_CURVE('',#491,#837,#839,.T.);
#837 = VERTEX_POINT('',#838);
#838 = CARTESIAN_POINT('',(32.75,18.,6.));
#839 = LINE('',#840,#841);
#840 = CARTESIAN_POINT('',(32.75,9.,6.));
#841 = VECTOR('',#842,1.);
#842 = DIRECTION('',(-0.,1.,0.));
#843 = ORIENTED_EDGE('',*,*,#498,.T.);
#844 = ORIENTED_EDGE('',*,*,#747,.T.);
#845 = ORIENTED_EDGE('',*,*,#720,.F.);
#846 = ORIENTED_EDGE('',*,*,#847,.F.);
#847 = EDGE_CURVE('',#848,#713,#850,.T.);
#848 = VERTEX_POINT('',#849);
#849 = CARTESIAN_POINT('',(32.75,18.,7.1));
#850 = LINE('',#851,#852);
#851 = CARTESIAN_POINT('',(32.75,22.5,7.1));
#852 = VECTOR('',#853,1.);
#853 = DIRECTION('',(0.,1.,2.22044604925E-16));
#854 = ORIENTED_EDGE('',*,*,#855,.F.);
#855 = EDGE_CURVE('',#837,#848,#856,.T.);
#856 = LINE('',#857,#858);
#857 = CARTESIAN_POINT('',(32.75,18.,-1.));
#858 = VECTOR('',#859,1.);
#859 = DIRECTION('',(0.,0.,1.));
#860 = PLANE('',#861);
#861 = AXIS2_PLACEMENT_3D('',#862,#863,#864);
#862 = CARTESIAN_POINT('',(32.75,18.682572614108,3.367427385892));
#863 = DIRECTION('',(1.,0.,0.));
#864 = DIRECTION('',(-0.,0.,1.));
#865 = ADVANCED_FACE('',(#866),#884,.F.);
#866 = FACE_BOUND('',#867,.F.);
#867 = EDGE_LOOP('',(#868,#869,#870,#878));
#868 = ORIENTED_EDGE('',*,*,#456,.T.);
#869 = ORIENTED_EDGE('',*,*,#812,.F.);
#870 = ORIENTED_EDGE('',*,*,#871,.T.);
#871 = EDGE_CURVE('',#813,#872,#874,.T.);
#872 = VERTEX_POINT('',#873);
#873 = CARTESIAN_POINT('',(41.,18.,15.35));
#874 = LINE('',#875,#876);
#875 = CARTESIAN_POINT('',(41.,18.,-1.));
#876 = VECTOR('',#877,1.);
#877 = DIRECTION('',(0.,0.,1.));
#878 = ORIENTED_EDGE('',*,*,#879,.F.);
#879 = EDGE_CURVE('',#457,#872,#880,.T.);
#880 = LINE('',#881,#882);
#881 = CARTESIAN_POINT('',(41.,9.,15.35));
#882 = VECTOR('',#883,1.);
#883 = DIRECTION('',(-0.,1.,0.));
#884 = PLANE('',#885);
#885 = AXIS2_PLACEMENT_3D('',#886,#887,#888);
#886 = CARTESIAN_POINT('',(41.,9.,-1.));
#887 = DIRECTION('',(1.,0.,-0.));
#888 = DIRECTION('',(0.,0.,1.));
#889 = ADVANCED_FACE('',(#890),#908,.F.);
#890 = FACE_BOUND('',#891,.F.);
#891 = EDGE_LOOP('',(#892,#893,#894,#902));
#892 = ORIENTED_EDGE('',*,*,#836,.F.);
#893 = ORIENTED_EDGE('',*,*,#490,.T.);
#894 = ORIENTED_EDGE('',*,*,#895,.F.);
#895 = EDGE_CURVE('',#896,#483,#898,.T.);
#896 = VERTEX_POINT('',#897);
#897 = CARTESIAN_POINT('',(34.,18.,6.));
#898 = LINE('',#899,#900);
#899 = CARTESIAN_POINT('',(34.,9.,6.));
#900 = VECTOR('',#901,1.);
#901 = DIRECTION('',(0.,-1.,0.));
#902 = ORIENTED_EDGE('',*,*,#903,.F.);
#903 = EDGE_CURVE('',#837,#896,#904,.T.);
#904 = LINE('',#905,#906);
#905 = CARTESIAN_POINT('',(32.75,18.,6.));
#906 = VECTOR('',#907,1.);
#907 = DIRECTION('',(1.,0.,-0.));
#908 = PLANE('',#909);
#909 = AXIS2_PLACEMENT_3D('',#910,#911,#912);
#910 = CARTESIAN_POINT('',(32.75,9.,6.));
#911 = DIRECTION('',(0.,0.,1.));
#912 = DIRECTION('',(1.,0.,-0.));
#913 = ADVANCED_FACE('',(#914),#943,.F.);
#914 = FACE_BOUND('',#915,.F.);
#915 = EDGE_LOOP('',(#916,#917,#926,#935,#941,#942));
#916 = ORIENTED_EDGE('',*,*,#879,.T.);
#917 = ORIENTED_EDGE('',*,*,#918,.F.);
#918 = EDGE_CURVE('',#919,#872,#921,.T.);
#919 = VERTEX_POINT('',#920);
#920 = CARTESIAN_POINT('',(37.5,18.,18.85));
#921 = CIRCLE('',#922,3.5);
#922 = AXIS2_PLACEMENT_3D('',#923,#924,#925);
#923 = CARTESIAN_POINT('',(37.5,18.,15.35));
#924 = DIRECTION('',(0.,1.,0.));
#925 = DIRECTION('',(0.,-0.,1.));
#926 = ORIENTED_EDGE('',*,*,#927,.F.);
#927 = EDGE_CURVE('',#928,#919,#930,.T.);
#928 = VERTEX_POINT('',#929);
#929 = CARTESIAN_POINT('',(34.,18.,15.35));
#930 = CIRCLE('',#931,3.5);
#931 = AXIS2_PLACEMENT_3D('',#932,#933,#934);
#932 = CARTESIAN_POINT('',(37.5,18.,15.35));
#933 = DIRECTION('',(0.,1.,0.));
#934 = DIRECTION('',(0.,-0.,1.));
#935 = ORIENTED_EDGE('',*,*,#936,.F.);
#936 = EDGE_CURVE('',#474,#928,#937,.T.);
#937 = LINE('',#938,#939);
#938 = CARTESIAN_POINT('',(34.,9.,15.35));
#939 = VECTOR('',#940,1.);
#940 = DIRECTION('',(-0.,1.,0.));
#941 = ORIENTED_EDGE('',*,*,#473,.T.);
#942 = ORIENTED_EDGE('',*,*,#464,.T.);
#943 = CYLINDRICAL_SURFACE('',#944,3.5);
#944 = AXIS2_PLACEMENT_3D('',#945,#946,#947);
#945 = CARTESIAN_POINT('',(37.5,9.,15.35));
#946 = DIRECTION('',(0.,1.,0.));
#947 = DIRECTION('',(0.,-0.,1.));
#948 = ADVANCED_FACE('',(#949),#960,.T.);
#949 = FACE_BOUND('',#950,.T.);
#950 = EDGE_LOOP('',(#951,#952,#953,#959));
#951 = ORIENTED_EDGE('',*,*,#482,.T.);
#952 = ORIENTED_EDGE('',*,*,#895,.F.);
#953 = ORIENTED_EDGE('',*,*,#954,.T.);
#954 = EDGE_CURVE('',#896,#928,#955,.T.);
#955 = LINE('',#956,#957);
#956 = CARTESIAN_POINT('',(34.,18.,-1.));
#957 = VECTOR('',#958,1.);
#958 = DIRECTION('',(0.,0.,1.));
#959 = ORIENTED_EDGE('',*,*,#936,.F.);
#960 = PLANE('',#961);
#961 = AXIS2_PLACEMENT_3D('',#962,#963,#964);
#962 = CARTESIAN_POINT('',(34.,9.,-1.));
#963 = DIRECTION('',(1.,0.,-0.));
#964 = DIRECTION('',(0.,0.,1.));
#965 = ADVANCED_FACE('',(#966),#1021,.F.);
#966 = FACE_BOUND('',#967,.F.);
#967 = EDGE_LOOP('',(#968,#976,#985,#994,#1003,#1012,#1019,#1020));
#968 = ORIENTED_EDGE('',*,*,#969,.T.);
#969 = EDGE_CURVE('',#517,#970,#972,.T.);
#970 = VERTEX_POINT('',#971);
#971 = CARTESIAN_POINT('',(30.918206931238,18.,12.95));
#972 = LINE('',#973,#974);
#973 = CARTESIAN_POINT('',(30.918206931238,9.,12.95));
#974 = VECTOR('',#975,1.);
#975 = DIRECTION('',(0.,1.,0.));
#976 = ORIENTED_EDGE('',*,*,#977,.F.);
#977 = EDGE_CURVE('',#978,#970,#980,.T.);
#978 = VERTEX_POINT('',#979);
#979 = CARTESIAN_POINT('',(29.628691689872,18.,12.095115072515));
#980 = CIRCLE('',#981,1.4);
#981 = AXIS2_PLACEMENT_3D('',#982,#983,#984);
#982 = CARTESIAN_POINT('',(30.918206931238,18.,11.55));
#983 = DIRECTION('',(0.,1.,0.));
#984 = DIRECTION('',(0.,-0.,1.));
#985 = ORIENTED_EDGE('',*,*,#986,.F.);
#986 = EDGE_CURVE('',#987,#978,#989,.T.);
#987 = VERTEX_POINT('',#988);
#988 = CARTESIAN_POINT('',(30.745532811339,18.,10.160689506152));
#989 = CIRCLE('',#990,1.4);
#990 = AXIS2_PLACEMENT_3D('',#991,#992,#993);
#991 = CARTESIAN_POINT('',(30.918206931238,18.,11.55));
#992 = DIRECTION('',(0.,1.,0.));
#993 = DIRECTION('',(0.,-0.,1.));
#994 = ORIENTED_EDGE('',*,*,#995,.F.);
#995 = EDGE_CURVE('',#996,#987,#998,.T.);
#996 = VERTEX_POINT('',#997);
#997 = CARTESIAN_POINT('',(32.240446169463,18.,11.089909360127));
#998 = CIRCLE('',#999,1.4);
#999 = AXIS2_PLACEMENT_3D('',#1000,#1001,#1002);
#1000 = CARTESIAN_POINT('',(30.918206931238,18.,11.55));
#1001 = DIRECTION('',(0.,1.,0.));
#1002 = DIRECTION('',(0.,-0.,1.));
#1003 = ORIENTED_EDGE('',*,*,#1004,.F.);
#1004 = EDGE_CURVE('',#1005,#996,#1007,.T.);
#1005 = VERTEX_POINT('',#1006);
#1006 = CARTESIAN_POINT('',(31.180876368177,18.,12.92513809012));
#1007 = CIRCLE('',#1008,1.4);
#1008 = AXIS2_PLACEMENT_3D('',#1009,#1010,#1011);
#1009 = CARTESIAN_POINT('',(30.918206931238,18.,11.55));
#1010 = DIRECTION('',(0.,1.,0.));
#1011 = DIRECTION('',(0.,-0.,1.));
#1012 = ORIENTED_EDGE('',*,*,#1013,.F.);
#1013 = EDGE_CURVE('',#970,#1005,#1014,.T.);
#1014 = CIRCLE('',#1015,1.4);
#1015 = AXIS2_PLACEMENT_3D('',#1016,#1017,#1018);
#1016 = CARTESIAN_POINT('',(30.918206931238,18.,11.55));
#1017 = DIRECTION('',(0.,1.,0.));
#1018 = DIRECTION('',(0.,-0.,1.));
#1019 = ORIENTED_EDGE('',*,*,#969,.F.);
#1020 = ORIENTED_EDGE('',*,*,#516,.T.);
#1021 = CYLINDRICAL_SURFACE('',#1022,1.4);
#1022 = AXIS2_PLACEMENT_3D('',#1023,#1024,#1025);
#1023 = CARTESIAN_POINT('',(30.918206931238,9.,11.55));
#1024 = DIRECTION('',(0.,1.,0.));
#1025 = DIRECTION('',(0.,-0.,1.));
#1026 = ADVANCED_FACE('',(#1027),#1082,.F.);
#1027 = FACE_BOUND('',#1028,.F.);
#1028 = EDGE_LOOP('',(#1029,#1037,#1046,#1055,#1064,#1073,#1080,#1081));
#1029 = ORIENTED_EDGE('',*,*,#1030,.T.);
#1030 = EDGE_CURVE('',#528,#1031,#1033,.T.);
#1031 = VERTEX_POINT('',#1032);
#1032 = CARTESIAN_POINT('',(44.081793068762,18.,12.95));
#1033 = LINE('',#1034,#1035);
#1034 = CARTESIAN_POINT('',(44.081793068762,9.,12.95));
#1035 = VECTOR('',#1036,1.);
#1036 = DIRECTION('',(0.,1.,0.));
#1037 = ORIENTED_EDGE('',*,*,#1038,.F.);
#1038 = EDGE_CURVE('',#1039,#1031,#1041,.T.);
#1039 = VERTEX_POINT('',#1040);
#1040 = CARTESIAN_POINT('',(43.819123631823,18.,12.92513809012));
#1041 = CIRCLE('',#1042,1.4);
#1042 = AXIS2_PLACEMENT_3D('',#1043,#1044,#1045);
#1043 = CARTESIAN_POINT('',(44.081793068762,18.,11.55));
#1044 = DIRECTION('',(0.,1.,0.));
#1045 = DIRECTION('',(0.,-0.,1.));
#1046 = ORIENTED_EDGE('',*,*,#1047,.F.);
#1047 = EDGE_CURVE('',#1048,#1039,#1050,.T.);
#1048 = VERTEX_POINT('',#1049);
#1049 = CARTESIAN_POINT('',(42.759553830537,18.,11.089909360127));
#1050 = CIRCLE('',#1051,1.4);
#1051 = AXIS2_PLACEMENT_3D('',#1052,#1053,#1054);
#1052 = CARTESIAN_POINT('',(44.081793068762,18.,11.55));
#1053 = DIRECTION('',(0.,1.,0.));
#1054 = DIRECTION('',(0.,-0.,1.));
#1055 = ORIENTED_EDGE('',*,*,#1056,.F.);
#1056 = EDGE_CURVE('',#1057,#1048,#1059,.T.);
#1057 = VERTEX_POINT('',#1058);
#1058 = CARTESIAN_POINT('',(44.254467188661,18.,10.160689506152));
#1059 = CIRCLE('',#1060,1.4);
#1060 = AXIS2_PLACEMENT_3D('',#1061,#1062,#1063);
#1061 = CARTESIAN_POINT('',(44.081793068762,18.,11.55));
#1062 = DIRECTION('',(0.,1.,0.));
#1063 = DIRECTION('',(0.,-0.,1.));
#1064 = ORIENTED_EDGE('',*,*,#1065,.F.);
#1065 = EDGE_CURVE('',#1066,#1057,#1068,.T.);
#1066 = VERTEX_POINT('',#1067);
#1067 = CARTESIAN_POINT('',(45.371308310128,18.,12.095115072515));
#1068 = CIRCLE('',#1069,1.4);
#1069 = AXIS2_PLACEMENT_3D('',#1070,#1071,#1072);
#1070 = CARTESIAN_POINT('',(44.081793068762,18.,11.55));
#1071 = DIRECTION('',(0.,1.,0.));
#1072 = DIRECTION('',(0.,-0.,1.));
#1073 = ORIENTED_EDGE('',*,*,#1074,.F.);
#1074 = EDGE_CURVE('',#1031,#1066,#1075,.T.);
#1075 = CIRCLE('',#1076,1.4);
#1076 = AXIS2_PLACEMENT_3D('',#1077,#1078,#1079);
#1077 = CARTESIAN_POINT('',(44.081793068762,18.,11.55));
#1078 = DIRECTION('',(0.,1.,0.));
#1079 = DIRECTION('',(0.,-0.,1.));
#1080 = ORIENTED_EDGE('',*,*,#1030,.F.);
#1081 = ORIENTED_EDGE('',*,*,#527,.T.);
#1082 = CYLINDRICAL_SURFACE('',#1083,1.4);
#1083 = AXIS2_PLACEMENT_3D('',#1084,#1085,#1086);
#1084 = CARTESIAN_POINT('',(44.081793068762,9.,11.55));
#1085 = DIRECTION('',(0.,1.,0.));
#1086 = DIRECTION('',(0.,-0.,1.));
#1087 = ADVANCED_FACE('',(#1088),#1143,.F.);
#1088 = FACE_BOUND('',#1089,.F.);
#1089 = EDGE_LOOP('',(#1090,#1098,#1107,#1116,#1125,#1134,#1141,#1142));
#1090 = ORIENTED_EDGE('',*,*,#1091,.T.);
#1091 = EDGE_CURVE('',#539,#1092,#1094,.T.);
#1092 = VERTEX_POINT('',#1093);
#1093 = CARTESIAN_POINT('',(37.5,18.,24.35));
#1094 = LINE('',#1095,#1096);
#1095 = CARTESIAN_POINT('',(37.5,9.,24.35));
#1096 = VECTOR('',#1097,1.);
#1097 = DIRECTION('',(0.,1.,0.));
#1098 = ORIENTED_EDGE('',*,*,#1099,.F.);
#1099 = EDGE_CURVE('',#1100,#1092,#1102,.T.);
#1100 = VERTEX_POINT('',#1101);
#1101 = CARTESIAN_POINT('',(36.383158878533,18.,23.794195421333));
#1102 = CIRCLE('',#1103,1.4);
#1103 = AXIS2_PLACEMENT_3D('',#1104,#1105,#1106);
#1104 = CARTESIAN_POINT('',(37.5,18.,22.95));
#1105 = DIRECTION('',(0.,1.,0.));
#1106 = DIRECTION('',(0.,-0.,1.));
#1107 = ORIENTED_EDGE('',*,*,#1108,.F.);
#1108 = EDGE_CURVE('',#1109,#1100,#1111,.T.);
#1109 = VERTEX_POINT('',#1110);
#1110 = CARTESIAN_POINT('',(36.440430198714,18.,22.034952549753));
#1111 = CIRCLE('',#1112,1.4);
#1112 = AXIS2_PLACEMENT_3D('',#1113,#1114,#1115);
#1113 = CARTESIAN_POINT('',(37.5,18.,22.95));
#1114 = DIRECTION('',(0.,1.,0.));
#1115 = DIRECTION('',(0.,-0.,1.));
#1116 = ORIENTED_EDGE('',*,*,#1117,.F.);
#1117 = EDGE_CURVE('',#1118,#1109,#1120,.T.);
#1118 = VERTEX_POINT('',#1119);
#1119 = CARTESIAN_POINT('',(38.559569801286,18.,22.034952549753));
#1120 = CIRCLE('',#1121,1.4);
#1121 = AXIS2_PLACEMENT_3D('',#1122,#1123,#1124);
#1122 = CARTESIAN_POINT('',(37.5,18.,22.95));
#1123 = DIRECTION('',(0.,1.,0.));
#1124 = DIRECTION('',(0.,-0.,1.));
#1125 = ORIENTED_EDGE('',*,*,#1126,.F.);
#1126 = EDGE_CURVE('',#1127,#1118,#1129,.T.);
#1127 = VERTEX_POINT('',#1128);
#1128 = CARTESIAN_POINT('',(38.616841121467,18.,23.794195421333));
#1129 = CIRCLE('',#1130,1.4);
#1130 = AXIS2_PLACEMENT_3D('',#1131,#1132,#1133);
#1131 = CARTESIAN_POINT('',(37.5,18.,22.95));
#1132 = DIRECTION('',(0.,1.,0.));
#1133 = DIRECTION('',(0.,-0.,1.));
#1134 = ORIENTED_EDGE('',*,*,#1135,.F.);
#1135 = EDGE_CURVE('',#1092,#1127,#1136,.T.);
#1136 = CIRCLE('',#1137,1.4);
#1137 = AXIS2_PLACEMENT_3D('',#1138,#1139,#1140);
#1138 = CARTESIAN_POINT('',(37.5,18.,22.95));
#1139 = DIRECTION('',(0.,1.,0.));
#1140 = DIRECTION('',(0.,-0.,1.));
#1141 = ORIENTED_EDGE('',*,*,#1091,.F.);
#1142 = ORIENTED_EDGE('',*,*,#538,.T.);
#1143 = CYLINDRICAL_SURFACE('',#1144,1.4);
#1144 = AXIS2_PLACEMENT_3D('',#1145,#1146,#1147);
#1145 = CARTESIAN_POINT('',(37.5,9.,22.95));
#1146 = DIRECTION('',(0.,1.,0.));
#1147 = DIRECTION('',(0.,-0.,1.));
#1148 = ADVANCED_FACE('',(#1149),#1167,.T.);
#1149 = FACE_BOUND('',#1150,.T.);
#1150 = EDGE_LOOP('',(#1151,#1152,#1153,#1161));
#1151 = ORIENTED_EDGE('',*,*,#589,.F.);
#1152 = ORIENTED_EDGE('',*,*,#795,.F.);
#1153 = ORIENTED_EDGE('',*,*,#1154,.T.);
#1154 = EDGE_CURVE('',#788,#1155,#1157,.T.);
#1155 = VERTEX_POINT('',#1156);
#1156 = CARTESIAN_POINT('',(42.558903043151,18.,7.1));
#1157 = LINE('',#1158,#1159);
#1158 = CARTESIAN_POINT('',(40.,18.,7.1));
#1159 = VECTOR('',#1160,1.);
#1160 = DIRECTION('',(1.,0.,0.));
#1161 = ORIENTED_EDGE('',*,*,#1162,.F.);
#1162 = EDGE_CURVE('',#590,#1155,#1163,.T.);
#1163 = LINE('',#1164,#1165);
#1164 = CARTESIAN_POINT('',(42.558903043151,27.,7.1));
#1165 = VECTOR('',#1166,1.);
#1166 = DIRECTION('',(0.,-1.,-2.22044604925E-16));
#1167 = PLANE('',#1168);
#1168 = AXIS2_PLACEMENT_3D('',#1169,#1170,#1171);
#1169 = CARTESIAN_POINT('',(40.,27.,7.1));
#1170 = DIRECTION('',(0.,-2.22044604925E-16,1.));
#1171 = DIRECTION('',(1.,0.,0.));
#1172 = ADVANCED_FACE('',(#1173),#1192,.F.);
#1173 = FACE_BOUND('',#1174,.F.);
#1174 = EDGE_LOOP('',(#1175,#1176,#1177,#1185));
#1175 = ORIENTED_EDGE('',*,*,#1162,.F.);
#1176 = ORIENTED_EDGE('',*,*,#597,.F.);
#1177 = ORIENTED_EDGE('',*,*,#1178,.F.);
#1178 = EDGE_CURVE('',#1179,#598,#1181,.T.);
#1179 = VERTEX_POINT('',#1180);
#1180 = CARTESIAN_POINT('',(44.505473647137,18.,8.640801912354));
#1181 = LINE('',#1182,#1183);
#1182 = CARTESIAN_POINT('',(44.505473647137,27.,8.640801912354));
#1183 = VECTOR('',#1184,1.);
#1184 = DIRECTION('',(0.,1.,2.22044604925E-16));
#1185 = ORIENTED_EDGE('',*,*,#1186,.T.);
#1186 = EDGE_CURVE('',#1179,#1155,#1187,.T.);
#1187 = CIRCLE('',#1188,2.);
#1188 = AXIS2_PLACEMENT_3D('',#1189,#1190,#1191);
#1189 = CARTESIAN_POINT('',(42.558903043151,18.,9.1));
#1190 = DIRECTION('',(0.,1.,0.));
#1191 = DIRECTION('',(0.,-0.,1.));
#1192 = CYLINDRICAL_SURFACE('',#1193,2.);
#1193 = AXIS2_PLACEMENT_3D('',#1194,#1195,#1196);
#1194 = CARTESIAN_POINT('',(42.558903043151,18.,9.1));
#1195 = DIRECTION('',(0.,1.,0.));
#1196 = DIRECTION('',(0.,-0.,1.));
#1197 = ADVANCED_FACE('',(#1198),#1216,.T.);
#1198 = FACE_BOUND('',#1199,.T.);
#1199 = EDGE_LOOP('',(#1200,#1201,#1209,#1215));
#1200 = ORIENTED_EDGE('',*,*,#712,.F.);
#1201 = ORIENTED_EDGE('',*,*,#1202,.T.);
#1202 = EDGE_CURVE('',#704,#1203,#1205,.T.);
#1203 = VERTEX_POINT('',#1204);
#1204 = CARTESIAN_POINT('',(32.441096956849,18.,7.1));
#1205 = LINE('',#1206,#1207);
#1206 = CARTESIAN_POINT('',(32.441096956849,27.,7.1));
#1207 = VECTOR('',#1208,1.);
#1208 = DIRECTION('',(0.,-1.,-2.22044604925E-16));
#1209 = ORIENTED_EDGE('',*,*,#1210,.T.);
#1210 = EDGE_CURVE('',#1203,#848,#1211,.T.);
#1211 = LINE('',#1212,#1213);
#1212 = CARTESIAN_POINT('',(32.441096956849,18.,7.1));
#1213 = VECTOR('',#1214,1.);
#1214 = DIRECTION('',(1.,-1.233123556334E-30,5.553494788808E-15));
#1215 = ORIENTED_EDGE('',*,*,#847,.T.);
#1216 = PLANE('',#1217);
#1217 = AXIS2_PLACEMENT_3D('',#1218,#1219,#1220);
#1218 = CARTESIAN_POINT('',(32.441096956849,27.,7.1));
#1219 = DIRECTION('',(-5.553494788808E-15,-2.22044604925E-16,1.));
#1220 = DIRECTION('',(1.,-1.233123556334E-30,5.553494788808E-15));
#1221 = ADVANCED_FACE('',(#1222),#1241,.F.);
#1222 = FACE_BOUND('',#1223,.T.);
#1223 = EDGE_LOOP('',(#1224,#1225,#1226,#1235));
#1224 = ORIENTED_EDGE('',*,*,#606,.F.);
#1225 = ORIENTED_EDGE('',*,*,#1178,.F.);
#1226 = ORIENTED_EDGE('',*,*,#1227,.T.);
#1227 = EDGE_CURVE('',#1179,#1228,#1230,.T.);
#1228 = VERTEX_POINT('',#1229);
#1229 = CARTESIAN_POINT('',(46.813072806492,18.,12.63768089986));
#1230 = CIRCLE('',#1231,9.7);
#1231 = AXIS2_PLACEMENT_3D('',#1232,#1233,#1234);
#1232 = CARTESIAN_POINT('',(37.5,18.,15.35));
#1233 = DIRECTION('',(4.473221495647E-33,-1.,-2.22044604925E-16));
#1234 = DIRECTION('',(0.681401770154,1.625165726727E-16,-0.73190957613)
  );
#1235 = ORIENTED_EDGE('',*,*,#1236,.T.);
#1236 = EDGE_CURVE('',#1228,#607,#1237,.T.);
#1237 = LINE('',#1238,#1239);
#1238 = CARTESIAN_POINT('',(46.813072806492,27.,12.63768089986));
#1239 = VECTOR('',#1240,1.);
#1240 = DIRECTION('',(0.,1.,2.22044604925E-16));
#1241 = CYLINDRICAL_SURFACE('',#1242,9.7);
#1242 = AXIS2_PLACEMENT_3D('',#1243,#1244,#1245);
#1243 = CARTESIAN_POINT('',(37.5,27.,15.35));
#1244 = DIRECTION('',(0.,1.,2.22044604925E-16));
#1245 = DIRECTION('',(0.681401770154,1.625165726727E-16,-0.73190957613)
  );
#1246 = ADVANCED_FACE('',(#1247),#1266,.F.);
#1247 = FACE_BOUND('',#1248,.F.);
#1248 = EDGE_LOOP('',(#1249,#1250,#1251,#1260));
#1249 = ORIENTED_EDGE('',*,*,#703,.F.);
#1250 = ORIENTED_EDGE('',*,*,#1202,.T.);
#1251 = ORIENTED_EDGE('',*,*,#1252,.T.);
#1252 = EDGE_CURVE('',#1203,#1253,#1255,.T.);
#1253 = VERTEX_POINT('',#1254);
#1254 = CARTESIAN_POINT('',(30.494526352863,18.,8.640801912354));
#1255 = CIRCLE('',#1256,2.);
#1256 = AXIS2_PLACEMENT_3D('',#1257,#1258,#1259);
#1257 = CARTESIAN_POINT('',(32.441096956849,18.,9.1));
#1258 = DIRECTION('',(0.,1.,0.));
#1259 = DIRECTION('',(0.,-0.,1.));
#1260 = ORIENTED_EDGE('',*,*,#1261,.T.);
#1261 = EDGE_CURVE('',#1253,#695,#1262,.T.);
#1262 = LINE('',#1263,#1264);
#1263 = CARTESIAN_POINT('',(30.494526352863,27.,8.640801912354));
#1264 = VECTOR('',#1265,1.);
#1265 = DIRECTION('',(0.,1.,2.22044604925E-16));
#1266 = CYLINDRICAL_SURFACE('',#1267,2.);
#1267 = AXIS2_PLACEMENT_3D('',#1268,#1269,#1270);
#1268 = CARTESIAN_POINT('',(32.441096956849,18.,9.1));
#1269 = DIRECTION('',(0.,1.,0.));
#1270 = DIRECTION('',(0.,-0.,1.));
#1271 = ADVANCED_FACE('',(#1272),#1291,.F.);
#1272 = FACE_BOUND('',#1273,.F.);
#1273 = EDGE_LOOP('',(#1274,#1275,#1283,#1290));
#1274 = ORIENTED_EDGE('',*,*,#615,.F.);
#1275 = ORIENTED_EDGE('',*,*,#1276,.T.);
#1276 = EDGE_CURVE('',#616,#1277,#1279,.T.);
#1277 = VERTEX_POINT('',#1278);
#1278 = CARTESIAN_POINT('',(47.174161102797,18.,15.093861449349));
#1279 = LINE('',#1280,#1281);
#1280 = CARTESIAN_POINT('',(47.174161102797,27.,15.093861449349));
#1281 = VECTOR('',#1282,1.);
#1282 = DIRECTION('',(0.,-1.,-2.22044604925E-16));
#1283 = ORIENTED_EDGE('',*,*,#1284,.T.);
#1284 = EDGE_CURVE('',#1277,#1228,#1285,.T.);
#1285 = CIRCLE('',#1286,2.);
#1286 = AXIS2_PLACEMENT_3D('',#1287,#1288,#1289);
#1287 = CARTESIAN_POINT('',(45.442110295228,18.,14.093861449349));
#1288 = DIRECTION('',(0.,1.,0.));
#1289 = DIRECTION('',(0.,-0.,1.));
#1290 = ORIENTED_EDGE('',*,*,#1236,.T.);
#1291 = CYLINDRICAL_SURFACE('',#1292,2.);
#1292 = AXIS2_PLACEMENT_3D('',#1293,#1294,#1295);
#1293 = CARTESIAN_POINT('',(45.442110295228,18.,14.093861449349));
#1294 = DIRECTION('',(0.,1.,0.));
#1295 = DIRECTION('',(0.,-0.,1.));
#1296 = ADVANCED_FACE('',(#1297),#1316,.F.);
#1297 = FACE_BOUND('',#1298,.T.);
#1298 = EDGE_LOOP('',(#1299,#1300,#1308,#1315));
#1299 = ORIENTED_EDGE('',*,*,#694,.F.);
#1300 = ORIENTED_EDGE('',*,*,#1301,.F.);
#1301 = EDGE_CURVE('',#1302,#686,#1304,.T.);
#1302 = VERTEX_POINT('',#1303);
#1303 = CARTESIAN_POINT('',(28.186927193508,18.,12.63768089986));
#1304 = LINE('',#1305,#1306);
#1305 = CARTESIAN_POINT('',(28.186927193508,27.,12.63768089986));
#1306 = VECTOR('',#1307,1.);
#1307 = DIRECTION('',(0.,1.,2.22044604925E-16));
#1308 = ORIENTED_EDGE('',*,*,#1309,.T.);
#1309 = EDGE_CURVE('',#1302,#1253,#1310,.T.);
#1310 = CIRCLE('',#1311,9.7);
#1311 = AXIS2_PLACEMENT_3D('',#1312,#1313,#1314);
#1312 = CARTESIAN_POINT('',(37.5,18.,15.35));
#1313 = DIRECTION('',(2.007383461135E-33,-1.,-2.22044604925E-16));
#1314 = DIRECTION('',(-0.974553171279,4.97727315078E-17,-0.224156455072)
  );
#1315 = ORIENTED_EDGE('',*,*,#1261,.T.);
#1316 = CYLINDRICAL_SURFACE('',#1317,9.7);
#1317 = AXIS2_PLACEMENT_3D('',#1318,#1319,#1320);
#1318 = CARTESIAN_POINT('',(37.5,27.,15.35));
#1319 = DIRECTION('',(0.,1.,2.22044604925E-16));
#1320 = DIRECTION('',(-0.974553171279,4.97727315078E-17,-0.224156455072)
  );
#1321 = ADVANCED_FACE('',(#1322),#1340,.T.);
#1322 = FACE_BOUND('',#1323,.T.);
#1323 = EDGE_LOOP('',(#1324,#1325,#1333,#1339));
#1324 = ORIENTED_EDGE('',*,*,#1276,.T.);
#1325 = ORIENTED_EDGE('',*,*,#1326,.T.);
#1326 = EDGE_CURVE('',#1277,#1327,#1329,.T.);
#1327 = VERTEX_POINT('',#1328);
#1328 = CARTESIAN_POINT('',(42.115258059646,18.,23.856138550651));
#1329 = LINE('',#1330,#1331);
#1330 = CARTESIAN_POINT('',(47.174161102797,18.,15.093861449349));
#1331 = VECTOR('',#1332,1.);
#1332 = DIRECTION('',(-0.5,-1.922962686384E-16,0.866025403784));
#1333 = ORIENTED_EDGE('',*,*,#1334,.F.);
#1334 = EDGE_CURVE('',#625,#1327,#1335,.T.);
#1335 = LINE('',#1336,#1337);
#1336 = CARTESIAN_POINT('',(42.115258059646,27.,23.856138550651));
#1337 = VECTOR('',#1338,1.);
#1338 = DIRECTION('',(0.,-1.,-2.22044604925E-16));
#1339 = ORIENTED_EDGE('',*,*,#624,.F.);
#1340 = PLANE('',#1341);
#1341 = AXIS2_PLACEMENT_3D('',#1342,#1343,#1344);
#1342 = CARTESIAN_POINT('',(47.174161102797,27.,15.093861449349));
#1343 = DIRECTION('',(-0.866025403784,1.110223024625E-16,-0.5));
#1344 = DIRECTION('',(-0.5,-1.922962686384E-16,0.866025403784));
#1345 = ADVANCED_FACE('',(#1346),#1365,.F.);
#1346 = FACE_BOUND('',#1347,.F.);
#1347 = EDGE_LOOP('',(#1348,#1356,#1357,#1358));
#1348 = ORIENTED_EDGE('',*,*,#1349,.F.);
#1349 = EDGE_CURVE('',#678,#1350,#1352,.T.);
#1350 = VERTEX_POINT('',#1351);
#1351 = CARTESIAN_POINT('',(27.825838897203,18.,15.093861449349));
#1352 = LINE('',#1353,#1354);
#1353 = CARTESIAN_POINT('',(27.825838897203,27.,15.093861449349));
#1354 = VECTOR('',#1355,1.);
#1355 = DIRECTION('',(0.,-1.,-2.22044604925E-16));
#1356 = ORIENTED_EDGE('',*,*,#685,.F.);
#1357 = ORIENTED_EDGE('',*,*,#1301,.F.);
#1358 = ORIENTED_EDGE('',*,*,#1359,.T.);
#1359 = EDGE_CURVE('',#1302,#1350,#1360,.T.);
#1360 = CIRCLE('',#1361,2.);
#1361 = AXIS2_PLACEMENT_3D('',#1362,#1363,#1364);
#1362 = CARTESIAN_POINT('',(29.557889704772,18.,14.093861449349));
#1363 = DIRECTION('',(0.,1.,0.));
#1364 = DIRECTION('',(0.,-0.,1.));
#1365 = CYLINDRICAL_SURFACE('',#1366,2.);
#1366 = AXIS2_PLACEMENT_3D('',#1367,#1368,#1369);
#1367 = CARTESIAN_POINT('',(29.557889704772,18.,14.093861449349));
#1368 = DIRECTION('',(0.,1.,0.));
#1369 = DIRECTION('',(0.,-0.,1.));
#1370 = ADVANCED_FACE('',(#1371),#1400,.F.);
#1371 = FACE_BOUND('',#1372,.F.);
#1372 = EDGE_LOOP('',(#1373,#1374,#1375,#1376,#1384,#1393));
#1373 = ORIENTED_EDGE('',*,*,#1334,.F.);
#1374 = ORIENTED_EDGE('',*,*,#632,.F.);
#1375 = ORIENTED_EDGE('',*,*,#641,.F.);
#1376 = ORIENTED_EDGE('',*,*,#1377,.F.);
#1377 = EDGE_CURVE('',#1378,#642,#1380,.T.);
#1378 = VERTEX_POINT('',#1379);
#1379 = CARTESIAN_POINT('',(39.807599159355,18.,24.771517187786));
#1380 = LINE('',#1381,#1382);
#1381 = CARTESIAN_POINT('',(39.807599159355,27.,24.771517187786));
#1382 = VECTOR('',#1383,1.);
#1383 = DIRECTION('',(0.,1.,2.22044604925E-16));
#1384 = ORIENTED_EDGE('',*,*,#1385,.T.);
#1385 = EDGE_CURVE('',#1378,#1386,#1388,.T.);
#1386 = VERTEX_POINT('',#1387);
#1387 = CARTESIAN_POINT('',(40.383207252077,18.,24.856138550651));
#1388 = CIRCLE('',#1389,2.);
#1389 = AXIS2_PLACEMENT_3D('',#1390,#1391,#1392);
#1390 = CARTESIAN_POINT('',(40.383207252077,18.,22.856138550651));
#1391 = DIRECTION('',(0.,1.,0.));
#1392 = DIRECTION('',(0.,-0.,1.));
#1393 = ORIENTED_EDGE('',*,*,#1394,.T.);
#1394 = EDGE_CURVE('',#1386,#1327,#1395,.T.);
#1395 = CIRCLE('',#1396,2.);
#1396 = AXIS2_PLACEMENT_3D('',#1397,#1398,#1399);
#1397 = CARTESIAN_POINT('',(40.383207252077,18.,22.856138550651));
#1398 = DIRECTION('',(0.,1.,0.));
#1399 = DIRECTION('',(0.,-0.,1.));
#1400 = CYLINDRICAL_SURFACE('',#1401,2.);
#1401 = AXIS2_PLACEMENT_3D('',#1402,#1403,#1404);
#1402 = CARTESIAN_POINT('',(40.383207252077,18.,22.856138550651));
#1403 = DIRECTION('',(0.,1.,0.));
#1404 = DIRECTION('',(0.,-0.,1.));
#1405 = ADVANCED_FACE('',(#1406),#1424,.T.);
#1406 = FACE_BOUND('',#1407,.T.);
#1407 = EDGE_LOOP('',(#1408,#1416,#1422,#1423));
#1408 = ORIENTED_EDGE('',*,*,#1409,.T.);
#1409 = EDGE_CURVE('',#669,#1410,#1412,.T.);
#1410 = VERTEX_POINT('',#1411);
#1411 = CARTESIAN_POINT('',(32.884741940354,18.,23.856138550651));
#1412 = LINE('',#1413,#1414);
#1413 = CARTESIAN_POINT('',(32.884741940354,27.,23.856138550651));
#1414 = VECTOR('',#1415,1.);
#1415 = DIRECTION('',(0.,-1.,-2.22044604925E-16));
#1416 = ORIENTED_EDGE('',*,*,#1417,.T.);
#1417 = EDGE_CURVE('',#1410,#1350,#1418,.T.);
#1418 = LINE('',#1419,#1420);
#1419 = CARTESIAN_POINT('',(32.884741940354,18.,23.856138550651));
#1420 = VECTOR('',#1421,1.);
#1421 = DIRECTION('',(-0.5,1.922962686384E-16,-0.866025403784));
#1422 = ORIENTED_EDGE('',*,*,#1349,.F.);
#1423 = ORIENTED_EDGE('',*,*,#677,.F.);
#1424 = PLANE('',#1425);
#1425 = AXIS2_PLACEMENT_3D('',#1426,#1427,#1428);
#1426 = CARTESIAN_POINT('',(32.884741940354,27.,23.856138550651));
#1427 = DIRECTION('',(0.866025403784,1.110223024625E-16,-0.5));
#1428 = DIRECTION('',(-0.5,1.922962686384E-16,-0.866025403784));
#1429 = ADVANCED_FACE('',(#1430),#1459,.F.);
#1430 = FACE_BOUND('',#1431,.F.);
#1431 = EDGE_LOOP('',(#1432,#1440,#1441,#1442,#1443,#1452));
#1432 = ORIENTED_EDGE('',*,*,#1433,.T.);
#1433 = EDGE_CURVE('',#1434,#651,#1436,.T.);
#1434 = VERTEX_POINT('',#1435);
#1435 = CARTESIAN_POINT('',(35.192400840645,18.,24.771517187786));
#1436 = LINE('',#1437,#1438);
#1437 = CARTESIAN_POINT('',(35.192400840645,27.,24.771517187786));
#1438 = VECTOR('',#1439,1.);
#1439 = DIRECTION('',(0.,1.,2.22044604925E-16));
#1440 = ORIENTED_EDGE('',*,*,#659,.F.);
#1441 = ORIENTED_EDGE('',*,*,#668,.F.);
#1442 = ORIENTED_EDGE('',*,*,#1409,.T.);
#1443 = ORIENTED_EDGE('',*,*,#1444,.T.);
#1444 = EDGE_CURVE('',#1410,#1445,#1447,.T.);
#1445 = VERTEX_POINT('',#1446);
#1446 = CARTESIAN_POINT('',(34.616792747923,18.,24.856138550651));
#1447 = CIRCLE('',#1448,2.);
#1448 = AXIS2_PLACEMENT_3D('',#1449,#1450,#1451);
#1449 = CARTESIAN_POINT('',(34.616792747923,18.,22.856138550651));
#1450 = DIRECTION('',(0.,1.,0.));
#1451 = DIRECTION('',(0.,-0.,1.));
#1452 = ORIENTED_EDGE('',*,*,#1453,.T.);
#1453 = EDGE_CURVE('',#1445,#1434,#1454,.T.);
#1454 = CIRCLE('',#1455,2.);
#1455 = AXIS2_PLACEMENT_3D('',#1456,#1457,#1458);
#1456 = CARTESIAN_POINT('',(34.616792747923,18.,22.856138550651));
#1457 = DIRECTION('',(0.,1.,0.));
#1458 = DIRECTION('',(0.,-0.,1.));
#1459 = CYLINDRICAL_SURFACE('',#1460,2.);
#1460 = AXIS2_PLACEMENT_3D('',#1461,#1462,#1463);
#1461 = CARTESIAN_POINT('',(34.616792747923,18.,22.856138550651));
#1462 = DIRECTION('',(0.,1.,0.));
#1463 = DIRECTION('',(0.,-0.,1.));
#1464 = ADVANCED_FACE('',(#1465),#1477,.F.);
#1465 = FACE_BOUND('',#1466,.T.);
#1466 = EDGE_LOOP('',(#1467,#1468,#1469,#1476));
#1467 = ORIENTED_EDGE('',*,*,#650,.F.);
#1468 = ORIENTED_EDGE('',*,*,#1377,.F.);
#1469 = ORIENTED_EDGE('',*,*,#1470,.T.);
#1470 = EDGE_CURVE('',#1378,#1434,#1471,.T.);
#1471 = CIRCLE('',#1472,9.7);
#1472 = AXIS2_PLACEMENT_3D('',#1473,#1474,#1475);
#1473 = CARTESIAN_POINT('',(37.5,18.,15.35));
#1474 = DIRECTION('',(-2.672331468585E-33,-1.,-2.22044604925E-16));
#1475 = DIRECTION('',(0.293151401125,-2.122893041805E-16,0.956066031202)
  );
#1476 = ORIENTED_EDGE('',*,*,#1433,.T.);
#1477 = CYLINDRICAL_SURFACE('',#1478,9.7);
#1478 = AXIS2_PLACEMENT_3D('',#1479,#1480,#1481);
#1479 = CARTESIAN_POINT('',(37.5,27.,15.35));
#1480 = DIRECTION('',(0.,1.,2.22044604925E-16));
#1481 = DIRECTION('',(0.293151401125,-2.122893041805E-16,0.956066031202)
  );
#1482 = ADVANCED_FACE('',(#1483,#1508,#1515,#1522),#1529,.T.);
#1483 = FACE_BOUND('',#1484,.T.);
#1484 = EDGE_LOOP('',(#1485,#1486,#1487,#1488,#1489,#1490,#1491,#1492,
    #1493,#1494,#1495,#1496,#1497,#1498,#1499,#1500,#1501,#1502,#1503,
    #1504,#1505,#1506,#1507));
#1485 = ORIENTED_EDGE('',*,*,#903,.F.);
#1486 = ORIENTED_EDGE('',*,*,#855,.T.);
#1487 = ORIENTED_EDGE('',*,*,#1210,.F.);
#1488 = ORIENTED_EDGE('',*,*,#1252,.T.);
#1489 = ORIENTED_EDGE('',*,*,#1309,.F.);
#1490 = ORIENTED_EDGE('',*,*,#1359,.T.);
#1491 = ORIENTED_EDGE('',*,*,#1417,.F.);
#1492 = ORIENTED_EDGE('',*,*,#1444,.T.);
#1493 = ORIENTED_EDGE('',*,*,#1453,.T.);
#1494 = ORIENTED_EDGE('',*,*,#1470,.F.);
#1495 = ORIENTED_EDGE('',*,*,#1385,.T.);
#1496 = ORIENTED_EDGE('',*,*,#1394,.T.);
#1497 = ORIENTED_EDGE('',*,*,#1326,.F.);
#1498 = ORIENTED_EDGE('',*,*,#1284,.T.);
#1499 = ORIENTED_EDGE('',*,*,#1227,.F.);
#1500 = ORIENTED_EDGE('',*,*,#1186,.T.);
#1501 = ORIENTED_EDGE('',*,*,#1154,.F.);
#1502 = ORIENTED_EDGE('',*,*,#787,.F.);
#1503 = ORIENTED_EDGE('',*,*,#822,.F.);
#1504 = ORIENTED_EDGE('',*,*,#871,.T.);
#1505 = ORIENTED_EDGE('',*,*,#918,.F.);
#1506 = ORIENTED_EDGE('',*,*,#927,.F.);
#1507 = ORIENTED_EDGE('',*,*,#954,.F.);
#1508 = FACE_BOUND('',#1509,.T.);
#1509 = EDGE_LOOP('',(#1510,#1511,#1512,#1513,#1514));
#1510 = ORIENTED_EDGE('',*,*,#995,.F.);
#1511 = ORIENTED_EDGE('',*,*,#1004,.F.);
#1512 = ORIENTED_EDGE('',*,*,#1013,.F.);
#1513 = ORIENTED_EDGE('',*,*,#977,.F.);
#1514 = ORIENTED_EDGE('',*,*,#986,.F.);
#1515 = FACE_BOUND('',#1516,.T.);
#1516 = EDGE_LOOP('',(#1517,#1518,#1519,#1520,#1521));
#1517 = ORIENTED_EDGE('',*,*,#1047,.F.);
#1518 = ORIENTED_EDGE('',*,*,#1056,.F.);
#1519 = ORIENTED_EDGE('',*,*,#1065,.F.);
#1520 = ORIENTED_EDGE('',*,*,#1074,.F.);
#1521 = ORIENTED_EDGE('',*,*,#1038,.F.);
#1522 = FACE_BOUND('',#1523,.T.);
#1523 = EDGE_LOOP('',(#1524,#1525,#1526,#1527,#1528));
#1524 = ORIENTED_EDGE('',*,*,#1117,.F.);
#1525 = ORIENTED_EDGE('',*,*,#1126,.F.);
#1526 = ORIENTED_EDGE('',*,*,#1135,.F.);
#1527 = ORIENTED_EDGE('',*,*,#1099,.F.);
#1528 = ORIENTED_EDGE('',*,*,#1108,.F.);
#1529 = PLANE('',#1530);
#1530 = AXIS2_PLACEMENT_3D('',#1531,#1532,#1533);
#1531 = CARTESIAN_POINT('',(37.5,18.,15.022816266306));
#1532 = DIRECTION('',(0.,1.,0.));
#1533 = DIRECTION('',(0.,-0.,1.));
#1534 = ( GEOMETRIC_REPRESENTATION_CONTEXT(3) 
GLOBAL_UNCERTAINTY_ASSIGNED_CONTEXT((#1538)) 
GLOBAL_UNIT_ASSIGNED_CONTEXT((#1535,#1536,#1537)) REPRESENTATION_CONTEXT
('Context #1','3D Context with UNIT and UNCERTAINTY') );
#1535 = ( LENGTH_UNIT() NAMED_UNIT(*) SI_UNIT(.MILLI.,.METRE.) );
#1536 = ( NAMED_UNIT(*) PLANE_ANGLE_UNIT() SI_UNIT($,.RADIAN.) );
#1537 = ( NAMED_UNIT(*) SI_UNIT($,.STERADIAN.) SOLID_ANGLE_UNIT() );
#1538 = UNCERTAINTY_MEASURE_WITH_UNIT(LENGTH_MEASURE(2.E-06),#1535,
  'distance_accuracy_value','confusion accuracy');
#1539 = PRODUCT_RELATED_PRODUCT_CATEGORY('part',$,(#7));
ENDSEC;
END-ISO-10303-21;
