ISO-10303-21;
HEADER;
FILE_DESCRIPTION(('FreeCAD Model'),'2;1');
FILE_NAME('Open CASCADE Shape Model','2026-09-21T12:07:52',('FreeCAD'),(
    'FreeCAD'),'Open CASCADE STEP processor 7.8','FreeCAD','Unknown');
FILE_SCHEMA(('AUTOMOTIVE_DESIGN { 1 0 10303 214 1 1 1 1 }'));
ENDSEC;
DATA;
#1 = APPLICATION_PROTOCOL_DEFINITION('international standard',
  'automotive_design',2000,#2);
#2 = APPLICATION_CONTEXT(
  'core data for automotive mechanical design processes');
#3 = SHAPE_DEFINITION_REPRESENTATION(#4,#10);
#4 = PRODUCT_DEFINITION_SHAPE('','',#5);
#5 = PRODUCT_DEFINITION('design','',#6,#9);
#6 = PRODUCT_DEFINITION_FORMATION('','',#7);
#7 = PRODUCT('Open CASCADE STEP translator 7.8 2',
  'Open CASCADE STEP translator 7.8 2','',(#8));
#8 = PRODUCT_CONTEXT('',#2,'mechanical');
#9 = PRODUCT_DEFINITION_CONTEXT('part definition',#2,'design');
#10 = ADVANCED_BREP_SHAPE_REPRESENTATION('',(#11,#15),#1428);
#11 = AXIS2_PLACEMENT_3D('',#12,#13,#14);
#12 = CARTESIAN_POINT('',(0.,0.,0.));
#13 = DIRECTION('',(0.,0.,1.));
#14 = DIRECTION('',(1.,0.,-0.));
#15 = MANIFOLD_SOLID_BREP('',#16);
#16 = CLOSED_SHELL('',(#17,#57,#88,#134,#158,#231,#243,#260,#277,#415,
    #439,#463,#635,#652,#685,#709,#733,#768,#792,#816,#847,#859,#920,
    #981,#1042,#1066,#1091,#1116,#1141,#1165,#1197,#1228,#1253,#1278,
    #1303,#1320,#1400,#1414));
#17 = ADVANCED_FACE('',(#18),#52,.F.);
#18 = FACE_BOUND('',#19,.F.);
#19 = EDGE_LOOP('',(#20,#30,#38,#46));
#20 = ORIENTED_EDGE('',*,*,#21,.F.);
#21 = EDGE_CURVE('',#22,#24,#26,.T.);
#22 = VERTEX_POINT('',#23);
#23 = CARTESIAN_POINT('',(0.,0.,29.));
#24 = VERTEX_POINT('',#25);
#25 = CARTESIAN_POINT('',(0.,0.,34.));
#26 = LINE('',#27,#28);
#27 = CARTESIAN_POINT('',(0.,0.,29.));
#28 = VECTOR('',#29,1.);
#29 = DIRECTION('',(0.,0.,1.));
#30 = ORIENTED_EDGE('',*,*,#31,.T.);
#31 = EDGE_CURVE('',#22,#32,#34,.T.);
#32 = VERTEX_POINT('',#33);
#33 = CARTESIAN_POINT('',(0.,30.,29.));
#34 = LINE('',#35,#36);
#35 = CARTESIAN_POINT('',(0.,0.,29.));
#36 = VECTOR('',#37,1.);
#37 = DIRECTION('',(-0.,1.,0.));
#38 = ORIENTED_EDGE('',*,*,#39,.T.);
#39 = EDGE_CURVE('',#32,#40,#42,.T.);
#40 = VERTEX_POINT('',#41);
#41 = CARTESIAN_POINT('',(0.,30.,34.));
#42 = LINE('',#43,#44);
#43 = CARTESIAN_POINT('',(0.,30.,29.));
#44 = VECTOR('',#45,1.);
#45 = DIRECTION('',(0.,0.,1.));
#46 = ORIENTED_EDGE('',*,*,#47,.F.);
#47 = EDGE_CURVE('',#24,#40,#48,.T.);
#48 = LINE('',#49,#50);
#49 = CARTESIAN_POINT('',(0.,0.,34.));
#50 = VECTOR('',#51,1.);
#51 = DIRECTION('',(-0.,1.,0.));
#52 = PLANE('',#53);
#53 = AXIS2_PLACEMENT_3D('',#54,#55,#56);
#54 = CARTESIAN_POINT('',(0.,0.,29.));
#55 = DIRECTION('',(1.,0.,-0.));
#56 = DIRECTION('',(0.,0.,1.));
#57 = ADVANCED_FACE('',(#58),#83,.F.);
#58 = FACE_BOUND('',#59,.F.);
#59 = EDGE_LOOP('',(#60,#68,#69,#77));
#60 = ORIENTED_EDGE('',*,*,#61,.F.);
#61 = EDGE_CURVE('',#22,#62,#64,.T.);
#62 = VERTEX_POINT('',#63);
#63 = CARTESIAN_POINT('',(90.,0.,29.));
#64 = LINE('',#65,#66);
#65 = CARTESIAN_POINT('',(0.,0.,29.));
#66 = VECTOR('',#67,1.);
#67 = DIRECTION('',(1.,0.,-0.));
#68 = ORIENTED_EDGE('',*,*,#21,.T.);
#69 = ORIENTED_EDGE('',*,*,#70,.T.);
#70 = EDGE_CURVE('',#24,#71,#73,.T.);
#71 = VERTEX_POINT('',#72);
#72 = CARTESIAN_POINT('',(90.,0.,34.));
#73 = LINE('',#74,#75);
#74 = CARTESIAN_POINT('',(0.,0.,34.));
#75 = VECTOR('',#76,1.);
#76 = DIRECTION('',(1.,0.,-0.));
#77 = ORIENTED_EDGE('',*,*,#78,.F.);
#78 = EDGE_CURVE('',#62,#71,#79,.T.);
#79 = LINE('',#80,#81);
#80 = CARTESIAN_POINT('',(90.,0.,29.));
#81 = VECTOR('',#82,1.);
#82 = DIRECTION('',(0.,0.,1.));
#83 = PLANE('',#84);
#84 = AXIS2_PLACEMENT_3D('',#85,#86,#87);
#85 = CARTESIAN_POINT('',(0.,0.,29.));
#86 = DIRECTION('',(-0.,1.,0.));
#87 = DIRECTION('',(0.,0.,1.));
#88 = ADVANCED_FACE('',(#89,#107,#118),#129,.T.);
#89 = FACE_BOUND('',#90,.T.);
#90 = EDGE_LOOP('',(#91,#92,#93,#101));
#91 = ORIENTED_EDGE('',*,*,#47,.F.);
#92 = ORIENTED_EDGE('',*,*,#70,.T.);
#93 = ORIENTED_EDGE('',*,*,#94,.T.);
#94 = EDGE_CURVE('',#71,#95,#97,.T.);
#95 = VERTEX_POINT('',#96);
#96 = CARTESIAN_POINT('',(90.,30.,34.));
#97 = LINE('',#98,#99);
#98 = CARTESIAN_POINT('',(90.,0.,34.));
#99 = VECTOR('',#100,1.);
#100 = DIRECTION('',(-0.,1.,0.));
#101 = ORIENTED_EDGE('',*,*,#102,.F.);
#102 = EDGE_CURVE('',#40,#95,#103,.T.);
#103 = LINE('',#104,#105);
#104 = CARTESIAN_POINT('',(0.,30.,34.));
#105 = VECTOR('',#106,1.);
#106 = DIRECTION('',(1.,0.,-0.));
#107 = FACE_BOUND('',#108,.T.);
#108 = EDGE_LOOP('',(#109));
#109 = ORIENTED_EDGE('',*,*,#110,.F.);
#110 = EDGE_CURVE('',#111,#111,#113,.T.);
#111 = VERTEX_POINT('',#112);
#112 = CARTESIAN_POINT('',(10.8,15.,34.));
#113 = CIRCLE('',#114,3.3);
#114 = AXIS2_PLACEMENT_3D('',#115,#116,#117);
#115 = CARTESIAN_POINT('',(7.5,15.,34.));
#116 = DIRECTION('',(0.,0.,1.));
#117 = DIRECTION('',(1.,0.,-0.));
#118 = FACE_BOUND('',#119,.T.);
#119 = EDGE_LOOP('',(#120));
#120 = ORIENTED_EDGE('',*,*,#121,.F.);
#121 = EDGE_CURVE('',#122,#122,#124,.T.);
#122 = VERTEX_POINT('',#123);
#123 = CARTESIAN_POINT('',(85.8,15.,34.));
#124 = CIRCLE('',#125,3.3);
#125 = AXIS2_PLACEMENT_3D('',#126,#127,#128);
#126 = CARTESIAN_POINT('',(82.5,15.,34.));
#127 = DIRECTION('',(0.,0.,1.));
#128 = DIRECTION('',(1.,0.,-0.));
#129 = PLANE('',#130);
#130 = AXIS2_PLACEMENT_3D('',#131,#132,#133);
#131 = CARTESIAN_POINT('',(0.,0.,34.));
#132 = DIRECTION('',(0.,0.,1.));
#133 = DIRECTION('',(1.,0.,-0.));
#134 = ADVANCED_FACE('',(#135),#153,.T.);
#135 = FACE_BOUND('',#136,.T.);
#136 = EDGE_LOOP('',(#137,#145,#146,#147));
#137 = ORIENTED_EDGE('',*,*,#138,.F.);
#138 = EDGE_CURVE('',#32,#139,#141,.T.);
#139 = VERTEX_POINT('',#140);
#140 = CARTESIAN_POINT('',(90.,30.,29.));
#141 = LINE('',#142,#143);
#142 = CARTESIAN_POINT('',(0.,30.,29.));
#143 = VECTOR('',#144,1.);
#144 = DIRECTION('',(1.,0.,-0.));
#145 = ORIENTED_EDGE('',*,*,#39,.T.);
#146 = ORIENTED_EDGE('',*,*,#102,.T.);
#147 = ORIENTED_EDGE('',*,*,#148,.F.);
#148 = EDGE_CURVE('',#139,#95,#149,.T.);
#149 = LINE('',#150,#151);
#150 = CARTESIAN_POINT('',(90.,30.,29.));
#151 = VECTOR('',#152,1.);
#152 = DIRECTION('',(0.,0.,1.));
#153 = PLANE('',#154);
#154 = AXIS2_PLACEMENT_3D('',#155,#156,#157);
#155 = CARTESIAN_POINT('',(0.,30.,29.));
#156 = DIRECTION('',(-0.,1.,0.));
#157 = DIRECTION('',(0.,0.,1.));
#158 = ADVANCED_FACE('',(#159,#170,#181,#192),#226,.F.);
#159 = FACE_BOUND('',#160,.F.);
#160 = EDGE_LOOP('',(#161,#162,#163,#169));
#161 = ORIENTED_EDGE('',*,*,#31,.F.);
#162 = ORIENTED_EDGE('',*,*,#61,.T.);
#163 = ORIENTED_EDGE('',*,*,#164,.T.);
#164 = EDGE_CURVE('',#62,#139,#165,.T.);
#165 = LINE('',#166,#167);
#166 = CARTESIAN_POINT('',(90.,0.,29.));
#167 = VECTOR('',#168,1.);
#168 = DIRECTION('',(-0.,1.,0.));
#169 = ORIENTED_EDGE('',*,*,#138,.F.);
#170 = FACE_BOUND('',#171,.F.);
#171 = EDGE_LOOP('',(#172));
#172 = ORIENTED_EDGE('',*,*,#173,.F.);
#173 = EDGE_CURVE('',#174,#174,#176,.T.);
#174 = VERTEX_POINT('',#175);
#175 = CARTESIAN_POINT('',(10.8,15.,29.));
#176 = CIRCLE('',#177,3.3);
#177 = AXIS2_PLACEMENT_3D('',#178,#179,#180);
#178 = CARTESIAN_POINT('',(7.5,15.,29.));
#179 = DIRECTION('',(0.,0.,1.));
#180 = DIRECTION('',(1.,0.,-0.));
#181 = FACE_BOUND('',#182,.F.);
#182 = EDGE_LOOP('',(#183));
#183 = ORIENTED_EDGE('',*,*,#184,.F.);
#184 = EDGE_CURVE('',#185,#185,#187,.T.);
#185 = VERTEX_POINT('',#186);
#186 = CARTESIAN_POINT('',(85.8,15.,29.));
#187 = CIRCLE('',#188,3.3);
#188 = AXIS2_PLACEMENT_3D('',#189,#190,#191);
#189 = CARTESIAN_POINT('',(82.5,15.,29.));
#190 = DIRECTION('',(0.,0.,1.));
#191 = DIRECTION('',(1.,0.,-0.));
#192 = FACE_BOUND('',#193,.F.);
#193 = EDGE_LOOP('',(#194,#204,#212,#220));
#194 = ORIENTED_EDGE('',*,*,#195,.T.);
#195 = EDGE_CURVE('',#196,#198,#200,.T.);
#196 = VERTEX_POINT('',#197);
#197 = CARTESIAN_POINT('',(75.,10.,29.));
#198 = VERTEX_POINT('',#199);
#199 = CARTESIAN_POINT('',(15.,10.,29.));
#200 = LINE('',#201,#202);
#201 = CARTESIAN_POINT('',(7.5,10.,29.));
#202 = VECTOR('',#203,1.);
#203 = DIRECTION('',(-1.,-0.,0.));
#204 = ORIENTED_EDGE('',*,*,#205,.T.);
#205 = EDGE_CURVE('',#198,#206,#208,.T.);
#206 = VERTEX_POINT('',#207);
#207 = CARTESIAN_POINT('',(15.,27.,29.));
#208 = LINE('',#209,#210);
#209 = CARTESIAN_POINT('',(15.,5.,29.));
#210 = VECTOR('',#211,1.);
#211 = DIRECTION('',(-0.,1.,0.));
#212 = ORIENTED_EDGE('',*,*,#213,.F.);
#213 = EDGE_CURVE('',#214,#206,#216,.T.);
#214 = VERTEX_POINT('',#215);
#215 = CARTESIAN_POINT('',(75.,27.,29.));
#216 = LINE('',#217,#218);
#217 = CARTESIAN_POINT('',(7.5,27.,29.));
#218 = VECTOR('',#219,1.);
#219 = DIRECTION('',(-1.,-0.,0.));
#220 = ORIENTED_EDGE('',*,*,#221,.F.);
#221 = EDGE_CURVE('',#196,#214,#222,.T.);
#222 = LINE('',#223,#224);
#223 = CARTESIAN_POINT('',(75.,5.,29.));
#224 = VECTOR('',#225,1.);
#225 = DIRECTION('',(-0.,1.,0.));
#226 = PLANE('',#227);
#227 = AXIS2_PLACEMENT_3D('',#228,#229,#230);
#228 = CARTESIAN_POINT('',(0.,0.,29.));
#229 = DIRECTION('',(0.,0.,1.));
#230 = DIRECTION('',(1.,0.,-0.));
#231 = ADVANCED_FACE('',(#232),#238,.T.);
#232 = FACE_BOUND('',#233,.T.);
#233 = EDGE_LOOP('',(#234,#235,#236,#237));
#234 = ORIENTED_EDGE('',*,*,#78,.F.);
#235 = ORIENTED_EDGE('',*,*,#164,.T.);
#236 = ORIENTED_EDGE('',*,*,#148,.T.);
#237 = ORIENTED_EDGE('',*,*,#94,.F.);
#238 = PLANE('',#239);
#239 = AXIS2_PLACEMENT_3D('',#240,#241,#242);
#240 = CARTESIAN_POINT('',(90.,0.,29.));
#241 = DIRECTION('',(1.,0.,-0.));
#242 = DIRECTION('',(0.,0.,1.));
#243 = ADVANCED_FACE('',(#244),#255,.F.);
#244 = FACE_BOUND('',#245,.F.);
#245 = EDGE_LOOP('',(#246,#247,#253,#254));
#246 = ORIENTED_EDGE('',*,*,#110,.F.);
#247 = ORIENTED_EDGE('',*,*,#248,.F.);
#248 = EDGE_CURVE('',#174,#111,#249,.T.);
#249 = LINE('',#250,#251);
#250 = CARTESIAN_POINT('',(10.8,15.,28.));
#251 = VECTOR('',#252,1.);
#252 = DIRECTION('',(0.,0.,1.));
#253 = ORIENTED_EDGE('',*,*,#173,.T.);
#254 = ORIENTED_EDGE('',*,*,#248,.T.);
#255 = CYLINDRICAL_SURFACE('',#256,3.3);
#256 = AXIS2_PLACEMENT_3D('',#257,#258,#259);
#257 = CARTESIAN_POINT('',(7.5,15.,28.));
#258 = DIRECTION('',(0.,0.,1.));
#259 = DIRECTION('',(1.,0.,-0.));
#260 = ADVANCED_FACE('',(#261),#272,.F.);
#261 = FACE_BOUND('',#262,.F.);
#262 = EDGE_LOOP('',(#263,#264,#270,#271));
#263 = ORIENTED_EDGE('',*,*,#121,.F.);
#264 = ORIENTED_EDGE('',*,*,#265,.F.);
#265 = EDGE_CURVE('',#185,#122,#266,.T.);
#266 = LINE('',#267,#268);
#267 = CARTESIAN_POINT('',(85.8,15.,28.));
#268 = VECTOR('',#269,1.);
#269 = DIRECTION('',(0.,0.,1.));
#270 = ORIENTED_EDGE('',*,*,#184,.T.);
#271 = ORIENTED_EDGE('',*,*,#265,.T.);
#272 = CYLINDRICAL_SURFACE('',#273,3.3);
#273 = AXIS2_PLACEMENT_3D('',#274,#275,#276);
#274 = CARTESIAN_POINT('',(82.5,15.,28.));
#275 = DIRECTION('',(0.,0.,1.));
#276 = DIRECTION('',(1.,0.,-0.));
#277 = ADVANCED_FACE('',(#278,#377,#388,#399),#410,.F.);
#278 = FACE_BOUND('',#279,.F.);
#279 = EDGE_LOOP('',(#280,#288,#296,#304,#312,#320,#329,#338,#346,#354,
    #362,#370,#376));
#280 = ORIENTED_EDGE('',*,*,#281,.F.);
#281 = EDGE_CURVE('',#282,#196,#284,.T.);
#282 = VERTEX_POINT('',#283);
#283 = CARTESIAN_POINT('',(75.,10.,0.));
#284 = LINE('',#285,#286);
#285 = CARTESIAN_POINT('',(75.,10.,0.));
#286 = VECTOR('',#287,1.);
#287 = DIRECTION('',(0.,0.,1.));
#288 = ORIENTED_EDGE('',*,*,#289,.F.);
#289 = EDGE_CURVE('',#290,#282,#292,.T.);
#290 = VERTEX_POINT('',#291);
#291 = CARTESIAN_POINT('',(49.75,10.,0.));
#292 = LINE('',#293,#294);
#293 = CARTESIAN_POINT('',(15.,10.,0.));
#294 = VECTOR('',#295,1.);
#295 = DIRECTION('',(1.,0.,-0.));
#296 = ORIENTED_EDGE('',*,*,#297,.F.);
#297 = EDGE_CURVE('',#298,#290,#300,.T.);
#298 = VERTEX_POINT('',#299);
#299 = CARTESIAN_POINT('',(49.75,10.,6.));
#300 = LINE('',#301,#302);
#301 = CARTESIAN_POINT('',(49.75,10.,-0.5));
#302 = VECTOR('',#303,1.);
#303 = DIRECTION('',(-0.,0.,-1.));
#304 = ORIENTED_EDGE('',*,*,#305,.F.);
#305 = EDGE_CURVE('',#306,#298,#308,.T.);
#306 = VERTEX_POINT('',#307);
#307 = CARTESIAN_POINT('',(48.5,10.,6.));
#308 = LINE('',#309,#310);
#309 = CARTESIAN_POINT('',(27.625,10.,6.));
#310 = VECTOR('',#311,1.);
#311 = DIRECTION('',(1.,0.,-0.));
#312 = ORIENTED_EDGE('',*,*,#313,.F.);
#313 = EDGE_CURVE('',#314,#306,#316,.T.);
#314 = VERTEX_POINT('',#315);
#315 = CARTESIAN_POINT('',(48.5,10.,15.35));
#316 = LINE('',#317,#318);
#317 = CARTESIAN_POINT('',(48.5,10.,-0.5));
#318 = VECTOR('',#319,1.);
#319 = DIRECTION('',(-0.,0.,-1.));
#320 = ORIENTED_EDGE('',*,*,#321,.F.);
#321 = EDGE_CURVE('',#322,#314,#324,.T.);
#322 = VERTEX_POINT('',#323);
#323 = CARTESIAN_POINT('',(45.,10.,18.85));
#324 = CIRCLE('',#325,3.5);
#325 = AXIS2_PLACEMENT_3D('',#326,#327,#328);
#326 = CARTESIAN_POINT('',(45.,10.,15.35));
#327 = DIRECTION('',(0.,1.,0.));
#328 = DIRECTION('',(0.,-0.,1.));
#329 = ORIENTED_EDGE('',*,*,#330,.F.);
#330 = EDGE_CURVE('',#331,#322,#333,.T.);
#331 = VERTEX_POINT('',#332);
#332 = CARTESIAN_POINT('',(41.5,10.,15.35));
#333 = CIRCLE('',#334,3.5);
#334 = AXIS2_PLACEMENT_3D('',#335,#336,#337);
#335 = CARTESIAN_POINT('',(45.,10.,15.35));
#336 = DIRECTION('',(0.,1.,0.));
#337 = DIRECTION('',(0.,-0.,1.));
#338 = ORIENTED_EDGE('',*,*,#339,.T.);
#339 = EDGE_CURVE('',#331,#340,#342,.T.);
#340 = VERTEX_POINT('',#341);
#341 = CARTESIAN_POINT('',(41.5,10.,6.));
#342 = LINE('',#343,#344);
#343 = CARTESIAN_POINT('',(41.5,10.,-0.5));
#344 = VECTOR('',#345,1.);
#345 = DIRECTION('',(-0.,0.,-1.));
#346 = ORIENTED_EDGE('',*,*,#347,.F.);
#347 = EDGE_CURVE('',#348,#340,#350,.T.);
#348 = VERTEX_POINT('',#349);
#349 = CARTESIAN_POINT('',(40.25,10.,6.));
#350 = LINE('',#351,#352);
#351 = CARTESIAN_POINT('',(27.625,10.,6.));
#352 = VECTOR('',#353,1.);
#353 = DIRECTION('',(1.,0.,-0.));
#354 = ORIENTED_EDGE('',*,*,#355,.T.);
#355 = EDGE_CURVE('',#348,#356,#358,.T.);
#356 = VERTEX_POINT('',#357);
#357 = CARTESIAN_POINT('',(40.25,10.,0.));
#358 = LINE('',#359,#360);
#359 = CARTESIAN_POINT('',(40.25,10.,-0.5));
#360 = VECTOR('',#361,1.);
#361 = DIRECTION('',(-0.,0.,-1.));
#362 = ORIENTED_EDGE('',*,*,#363,.F.);
#363 = EDGE_CURVE('',#364,#356,#366,.T.);
#364 = VERTEX_POINT('',#365);
#365 = CARTESIAN_POINT('',(15.,10.,0.));
#366 = LINE('',#367,#368);
#367 = CARTESIAN_POINT('',(15.,10.,0.));
#368 = VECTOR('',#369,1.);
#369 = DIRECTION('',(1.,0.,-0.));
#370 = ORIENTED_EDGE('',*,*,#371,.T.);
#371 = EDGE_CURVE('',#364,#198,#372,.T.);
#372 = LINE('',#373,#374);
#373 = CARTESIAN_POINT('',(15.,10.,0.));
#374 = VECTOR('',#375,1.);
#375 = DIRECTION('',(0.,0.,1.));
#376 = ORIENTED_EDGE('',*,*,#195,.F.);
#377 = FACE_BOUND('',#378,.F.);
#378 = EDGE_LOOP('',(#379));
#379 = ORIENTED_EDGE('',*,*,#380,.F.);
#380 = EDGE_CURVE('',#381,#381,#383,.T.);
#381 = VERTEX_POINT('',#382);
#382 = CARTESIAN_POINT('',(38.418206931238,10.,12.95));
#383 = CIRCLE('',#384,1.4);
#384 = AXIS2_PLACEMENT_3D('',#385,#386,#387);
#385 = CARTESIAN_POINT('',(38.418206931238,10.,11.55));
#386 = DIRECTION('',(0.,1.,0.));
#387 = DIRECTION('',(0.,-0.,1.));
#388 = FACE_BOUND('',#389,.F.);
#389 = EDGE_LOOP('',(#390));
#390 = ORIENTED_EDGE('',*,*,#391,.F.);
#391 = EDGE_CURVE('',#392,#392,#394,.T.);
#392 = VERTEX_POINT('',#393);
#393 = CARTESIAN_POINT('',(51.581793068762,10.,12.95));
#394 = CIRCLE('',#395,1.4);
#395 = AXIS2_PLACEMENT_3D('',#396,#397,#398);
#396 = CARTESIAN_POINT('',(51.581793068762,10.,11.55));
#397 = DIRECTION('',(0.,1.,0.));
#398 = DIRECTION('',(0.,-0.,1.));
#399 = FACE_BOUND('',#400,.F.);
#400 = EDGE_LOOP('',(#401));
#401 = ORIENTED_EDGE('',*,*,#402,.F.);
#402 = EDGE_CURVE('',#403,#403,#405,.T.);
#403 = VERTEX_POINT('',#404);
#404 = CARTESIAN_POINT('',(45.,10.,24.35));
#405 = CIRCLE('',#406,1.4);
#406 = AXIS2_PLACEMENT_3D('',#407,#408,#409);
#407 = CARTESIAN_POINT('',(45.,10.,22.95));
#408 = DIRECTION('',(0.,1.,0.));
#409 = DIRECTION('',(0.,-0.,1.));
#410 = PLANE('',#411);
#411 = AXIS2_PLACEMENT_3D('',#412,#413,#414);
#412 = CARTESIAN_POINT('',(15.,10.,0.));
#413 = DIRECTION('',(-0.,1.,0.));
#414 = DIRECTION('',(0.,0.,1.));
#415 = ADVANCED_FACE('',(#416),#434,.T.);
#416 = FACE_BOUND('',#417,.T.);
#417 = EDGE_LOOP('',(#418,#419,#427,#433));
#418 = ORIENTED_EDGE('',*,*,#281,.F.);
#419 = ORIENTED_EDGE('',*,*,#420,.T.);
#420 = EDGE_CURVE('',#282,#421,#423,.T.);
#421 = VERTEX_POINT('',#422);
#422 = CARTESIAN_POINT('',(75.,27.,0.));
#423 = LINE('',#424,#425);
#424 = CARTESIAN_POINT('',(75.,10.,0.));
#425 = VECTOR('',#426,1.);
#426 = DIRECTION('',(-0.,1.,0.));
#427 = ORIENTED_EDGE('',*,*,#428,.T.);
#428 = EDGE_CURVE('',#421,#214,#429,.T.);
#429 = LINE('',#430,#431);
#430 = CARTESIAN_POINT('',(75.,27.,0.));
#431 = VECTOR('',#432,1.);
#432 = DIRECTION('',(0.,0.,1.));
#433 = ORIENTED_EDGE('',*,*,#221,.F.);
#434 = PLANE('',#435);
#435 = AXIS2_PLACEMENT_3D('',#436,#437,#438);
#436 = CARTESIAN_POINT('',(75.,10.,0.));
#437 = DIRECTION('',(1.,0.,-0.));
#438 = DIRECTION('',(0.,0.,1.));
#439 = ADVANCED_FACE('',(#440),#458,.F.);
#440 = FACE_BOUND('',#441,.F.);
#441 = EDGE_LOOP('',(#442,#443,#451,#457));
#442 = ORIENTED_EDGE('',*,*,#371,.F.);
#443 = ORIENTED_EDGE('',*,*,#444,.T.);
#444 = EDGE_CURVE('',#364,#445,#447,.T.);
#445 = VERTEX_POINT('',#446);
#446 = CARTESIAN_POINT('',(15.,27.,0.));
#447 = LINE('',#448,#449);
#448 = CARTESIAN_POINT('',(15.,10.,0.));
#449 = VECTOR('',#450,1.);
#450 = DIRECTION('',(-0.,1.,0.));
#451 = ORIENTED_EDGE('',*,*,#452,.T.);
#452 = EDGE_CURVE('',#445,#206,#453,.T.);
#453 = LINE('',#454,#455);
#454 = CARTESIAN_POINT('',(15.,27.,0.));
#455 = VECTOR('',#456,1.);
#456 = DIRECTION('',(0.,0.,1.));
#457 = ORIENTED_EDGE('',*,*,#205,.F.);
#458 = PLANE('',#459);
#459 = AXIS2_PLACEMENT_3D('',#460,#461,#462);
#460 = CARTESIAN_POINT('',(15.,10.,0.));
#461 = DIRECTION('',(1.,0.,-0.));
#462 = DIRECTION('',(0.,0.,1.));
#463 = ADVANCED_FACE('',(#464),#630,.T.);
#464 = FACE_BOUND('',#465,.T.);
#465 = EDGE_LOOP('',(#466,#467,#475,#483,#491,#500,#509,#518,#526,#535,
    #544,#553,#562,#571,#579,#588,#597,#606,#614,#622,#628,#629));
#466 = ORIENTED_EDGE('',*,*,#428,.F.);
#467 = ORIENTED_EDGE('',*,*,#468,.F.);
#468 = EDGE_CURVE('',#469,#421,#471,.T.);
#469 = VERTEX_POINT('',#470);
#470 = CARTESIAN_POINT('',(49.75,27.,0.));
#471 = LINE('',#472,#473);
#472 = CARTESIAN_POINT('',(15.,27.,0.));
#473 = VECTOR('',#474,1.);
#474 = DIRECTION('',(1.,0.,-0.));
#475 = ORIENTED_EDGE('',*,*,#476,.F.);
#476 = EDGE_CURVE('',#477,#469,#479,.T.);
#477 = VERTEX_POINT('',#478);
#478 = CARTESIAN_POINT('',(49.75,27.,7.1));
#479 = LINE('',#480,#481);
#480 = CARTESIAN_POINT('',(49.75,27.,-0.5));
#481 = VECTOR('',#482,1.);
#482 = DIRECTION('',(-0.,0.,-1.));
#483 = ORIENTED_EDGE('',*,*,#484,.T.);
#484 = EDGE_CURVE('',#477,#485,#487,.T.);
#485 = VERTEX_POINT('',#486);
#486 = CARTESIAN_POINT('',(50.058903043151,27.,7.1));
#487 = LINE('',#488,#489);
#488 = CARTESIAN_POINT('',(47.5,27.,7.1));
#489 = VECTOR('',#490,1.);
#490 = DIRECTION('',(1.,0.,0.));
#491 = ORIENTED_EDGE('',*,*,#492,.F.);
#492 = EDGE_CURVE('',#493,#485,#495,.T.);
#493 = VERTEX_POINT('',#494);
#494 = CARTESIAN_POINT('',(52.005473647137,27.,8.640801912354));
#495 = CIRCLE('',#496,2.);
#496 = AXIS2_PLACEMENT_3D('',#497,#498,#499);
#497 = CARTESIAN_POINT('',(50.058903043151,27.,9.1));
#498 = DIRECTION('',(0.,1.,0.));
#499 = DIRECTION('',(0.,-0.,1.));
#500 = ORIENTED_EDGE('',*,*,#501,.T.);
#501 = EDGE_CURVE('',#493,#502,#504,.T.);
#502 = VERTEX_POINT('',#503);
#503 = CARTESIAN_POINT('',(54.313072806492,27.,12.63768089986));
#504 = CIRCLE('',#505,9.7);
#505 = AXIS2_PLACEMENT_3D('',#506,#507,#508);
#506 = CARTESIAN_POINT('',(45.,27.,15.35));
#507 = DIRECTION('',(4.473221495647E-33,-1.,-2.22044604925E-16));
#508 = DIRECTION('',(0.681401770154,1.625165726727E-16,-0.73190957613));
#509 = ORIENTED_EDGE('',*,*,#510,.F.);
#510 = EDGE_CURVE('',#511,#502,#513,.T.);
#511 = VERTEX_POINT('',#512);
#512 = CARTESIAN_POINT('',(54.674161102797,27.,15.093861449349));
#513 = CIRCLE('',#514,2.);
#514 = AXIS2_PLACEMENT_3D('',#515,#516,#517);
#515 = CARTESIAN_POINT('',(52.942110295228,27.,14.093861449349));
#516 = DIRECTION('',(0.,1.,0.));
#517 = DIRECTION('',(0.,-0.,1.));
#518 = ORIENTED_EDGE('',*,*,#519,.T.);
#519 = EDGE_CURVE('',#511,#520,#522,.T.);
#520 = VERTEX_POINT('',#521);
#521 = CARTESIAN_POINT('',(49.615258059646,27.,23.856138550651));
#522 = LINE('',#523,#524);
#523 = CARTESIAN_POINT('',(54.674161102797,27.,15.093861449349));
#524 = VECTOR('',#525,1.);
#525 = DIRECTION('',(-0.5,-1.922962686384E-16,0.866025403784));
#526 = ORIENTED_EDGE('',*,*,#527,.F.);
#527 = EDGE_CURVE('',#528,#520,#530,.T.);
#528 = VERTEX_POINT('',#529);
#529 = CARTESIAN_POINT('',(47.883207252077,27.,24.856138550651));
#530 = CIRCLE('',#531,2.);
#531 = AXIS2_PLACEMENT_3D('',#532,#533,#534);
#532 = CARTESIAN_POINT('',(47.883207252077,27.,22.856138550651));
#533 = DIRECTION('',(0.,1.,0.));
#534 = DIRECTION('',(0.,-0.,1.));
#535 = ORIENTED_EDGE('',*,*,#536,.F.);
#536 = EDGE_CURVE('',#537,#528,#539,.T.);
#537 = VERTEX_POINT('',#538);
#538 = CARTESIAN_POINT('',(47.307599159355,27.,24.771517187786));
#539 = CIRCLE('',#540,2.);
#540 = AXIS2_PLACEMENT_3D('',#541,#542,#543);
#541 = CARTESIAN_POINT('',(47.883207252077,27.,22.856138550651));
#542 = DIRECTION('',(0.,1.,0.));
#543 = DIRECTION('',(0.,-0.,1.));
#544 = ORIENTED_EDGE('',*,*,#545,.T.);
#545 = EDGE_CURVE('',#537,#546,#548,.T.);
#546 = VERTEX_POINT('',#547);
#547 = CARTESIAN_POINT('',(42.692400840645,27.,24.771517187786));
#548 = CIRCLE('',#549,9.7);
#549 = AXIS2_PLACEMENT_3D('',#550,#551,#552);
#550 = CARTESIAN_POINT('',(45.,27.,15.35));
#551 = DIRECTION('',(-2.672331468585E-33,-1.,-2.22044604925E-16));
#552 = DIRECTION('',(0.293151401125,-2.122893041805E-16,0.956066031202)
  );
#553 = ORIENTED_EDGE('',*,*,#554,.F.);
#554 = EDGE_CURVE('',#555,#546,#557,.T.);
#555 = VERTEX_POINT('',#556);
#556 = CARTESIAN_POINT('',(42.116792747923,27.,24.856138550651));
#557 = CIRCLE('',#558,2.);
#558 = AXIS2_PLACEMENT_3D('',#559,#560,#561);
#559 = CARTESIAN_POINT('',(42.116792747923,27.,22.856138550651));
#560 = DIRECTION('',(0.,1.,0.));
#561 = DIRECTION('',(0.,-0.,1.));
#562 = ORIENTED_EDGE('',*,*,#563,.F.);
#563 = EDGE_CURVE('',#564,#555,#566,.T.);
#564 = VERTEX_POINT('',#565);
#565 = CARTESIAN_POINT('',(40.384741940354,27.,23.856138550651));
#566 = CIRCLE('',#567,2.);
#567 = AXIS2_PLACEMENT_3D('',#568,#569,#570);
#568 = CARTESIAN_POINT('',(42.116792747923,27.,22.856138550651));
#569 = DIRECTION('',(0.,1.,0.));
#570 = DIRECTION('',(0.,-0.,1.));
#571 = ORIENTED_EDGE('',*,*,#572,.T.);
#572 = EDGE_CURVE('',#564,#573,#575,.T.);
#573 = VERTEX_POINT('',#574);
#574 = CARTESIAN_POINT('',(35.325838897203,27.,15.093861449349));
#575 = LINE('',#576,#577);
#576 = CARTESIAN_POINT('',(40.384741940354,27.,23.856138550651));
#577 = VECTOR('',#578,1.);
#578 = DIRECTION('',(-0.5,1.922962686384E-16,-0.866025403784));
#579 = ORIENTED_EDGE('',*,*,#580,.F.);
#580 = EDGE_CURVE('',#581,#573,#583,.T.);
#581 = VERTEX_POINT('',#582);
#582 = CARTESIAN_POINT('',(35.686927193508,27.,12.63768089986));
#583 = CIRCLE('',#584,2.);
#584 = AXIS2_PLACEMENT_3D('',#585,#586,#587);
#585 = CARTESIAN_POINT('',(37.057889704772,27.,14.093861449349));
#586 = DIRECTION('',(0.,1.,0.));
#587 = DIRECTION('',(0.,-0.,1.));
#588 = ORIENTED_EDGE('',*,*,#589,.T.);
#589 = EDGE_CURVE('',#581,#590,#592,.T.);
#590 = VERTEX_POINT('',#591);
#591 = CARTESIAN_POINT('',(37.994526352863,27.,8.640801912354));
#592 = CIRCLE('',#593,9.7);
#593 = AXIS2_PLACEMENT_3D('',#594,#595,#596);
#594 = CARTESIAN_POINT('',(45.,27.,15.35));
#595 = DIRECTION('',(2.007383461135E-33,-1.,-2.22044604925E-16));
#596 = DIRECTION('',(-0.974553171279,4.97727315078E-17,-0.224156455072)
  );
#597 = ORIENTED_EDGE('',*,*,#598,.F.);
#598 = EDGE_CURVE('',#599,#590,#601,.T.);
#599 = VERTEX_POINT('',#600);
#600 = CARTESIAN_POINT('',(39.941096956849,27.,7.1));
#601 = CIRCLE('',#602,2.);
#602 = AXIS2_PLACEMENT_3D('',#603,#604,#605);
#603 = CARTESIAN_POINT('',(39.941096956849,27.,9.1));
#604 = DIRECTION('',(0.,1.,0.));
#605 = DIRECTION('',(0.,-0.,1.));
#606 = ORIENTED_EDGE('',*,*,#607,.T.);
#607 = EDGE_CURVE('',#599,#608,#610,.T.);
#608 = VERTEX_POINT('',#609);
#609 = CARTESIAN_POINT('',(40.25,27.,7.1));
#610 = LINE('',#611,#612);
#611 = CARTESIAN_POINT('',(39.941096956849,27.,7.1));
#612 = VECTOR('',#613,1.);
#613 = DIRECTION('',(1.,-1.233123556334E-30,5.553494788808E-15));
#614 = ORIENTED_EDGE('',*,*,#615,.T.);
#615 = EDGE_CURVE('',#608,#616,#618,.T.);
#616 = VERTEX_POINT('',#617);
#617 = CARTESIAN_POINT('',(40.25,27.,0.));
#618 = LINE('',#619,#620);
#619 = CARTESIAN_POINT('',(40.25,27.,-0.5));
#620 = VECTOR('',#621,1.);
#621 = DIRECTION('',(-0.,0.,-1.));
#622 = ORIENTED_EDGE('',*,*,#623,.F.);
#623 = EDGE_CURVE('',#445,#616,#624,.T.);
#624 = LINE('',#625,#626);
#625 = CARTESIAN_POINT('',(15.,27.,0.));
#626 = VECTOR('',#627,1.);
#627 = DIRECTION('',(1.,0.,-0.));
#628 = ORIENTED_EDGE('',*,*,#452,.T.);
#629 = ORIENTED_EDGE('',*,*,#213,.F.);
#630 = PLANE('',#631);
#631 = AXIS2_PLACEMENT_3D('',#632,#633,#634);
#632 = CARTESIAN_POINT('',(15.,27.,0.));
#633 = DIRECTION('',(-0.,1.,0.));
#634 = DIRECTION('',(0.,0.,1.));
#635 = ADVANCED_FACE('',(#636),#647,.F.);
#636 = FACE_BOUND('',#637,.F.);
#637 = EDGE_LOOP('',(#638,#639,#640,#641));
#638 = ORIENTED_EDGE('',*,*,#623,.F.);
#639 = ORIENTED_EDGE('',*,*,#444,.F.);
#640 = ORIENTED_EDGE('',*,*,#363,.T.);
#641 = ORIENTED_EDGE('',*,*,#642,.T.);
#642 = EDGE_CURVE('',#356,#616,#643,.T.);
#643 = LINE('',#644,#645);
#644 = CARTESIAN_POINT('',(40.25,9.5,0.));
#645 = VECTOR('',#646,1.);
#646 = DIRECTION('',(-0.,1.,0.));
#647 = PLANE('',#648);
#648 = AXIS2_PLACEMENT_3D('',#649,#650,#651);
#649 = CARTESIAN_POINT('',(15.,10.,0.));
#650 = DIRECTION('',(0.,0.,1.));
#651 = DIRECTION('',(1.,0.,-0.));
#652 = ADVANCED_FACE('',(#653),#680,.T.);
#653 = FACE_BOUND('',#654,.T.);
#654 = EDGE_LOOP('',(#655,#663,#664,#665,#666,#674));
#655 = ORIENTED_EDGE('',*,*,#656,.F.);
#656 = EDGE_CURVE('',#348,#657,#659,.T.);
#657 = VERTEX_POINT('',#658);
#658 = CARTESIAN_POINT('',(40.25,18.,6.));
#659 = LINE('',#660,#661);
#660 = CARTESIAN_POINT('',(40.25,9.,6.));
#661 = VECTOR('',#662,1.);
#662 = DIRECTION('',(-0.,1.,0.));
#663 = ORIENTED_EDGE('',*,*,#355,.T.);
#664 = ORIENTED_EDGE('',*,*,#642,.T.);
#665 = ORIENTED_EDGE('',*,*,#615,.F.);
#666 = ORIENTED_EDGE('',*,*,#667,.F.);
#667 = EDGE_CURVE('',#668,#608,#670,.T.);
#668 = VERTEX_POINT('',#669);
#669 = CARTESIAN_POINT('',(40.25,18.,7.1));
#670 = LINE('',#671,#672);
#671 = CARTESIAN_POINT('',(40.25,22.5,7.1));
#672 = VECTOR('',#673,1.);
#673 = DIRECTION('',(0.,1.,2.22044604925E-16));
#674 = ORIENTED_EDGE('',*,*,#675,.F.);
#675 = EDGE_CURVE('',#657,#668,#676,.T.);
#676 = LINE('',#677,#678);
#677 = CARTESIAN_POINT('',(40.25,18.,-1.));
#678 = VECTOR('',#679,1.);
#679 = DIRECTION('',(0.,0.,1.));
#680 = PLANE('',#681);
#681 = AXIS2_PLACEMENT_3D('',#682,#683,#684);
#682 = CARTESIAN_POINT('',(40.25,18.682572614108,3.367427385892));
#683 = DIRECTION('',(1.,0.,0.));
#684 = DIRECTION('',(-0.,0.,1.));
#685 = ADVANCED_FACE('',(#686),#704,.F.);
#686 = FACE_BOUND('',#687,.F.);
#687 = EDGE_LOOP('',(#688,#689,#690,#698));
#688 = ORIENTED_EDGE('',*,*,#656,.F.);
#689 = ORIENTED_EDGE('',*,*,#347,.T.);
#690 = ORIENTED_EDGE('',*,*,#691,.F.);
#691 = EDGE_CURVE('',#692,#340,#694,.T.);
#692 = VERTEX_POINT('',#693);
#693 = CARTESIAN_POINT('',(41.5,18.,6.));
#694 = LINE('',#695,#696);
#695 = CARTESIAN_POINT('',(41.5,9.,6.));
#696 = VECTOR('',#697,1.);
#697 = DIRECTION('',(0.,-1.,0.));
#698 = ORIENTED_EDGE('',*,*,#699,.F.);
#699 = EDGE_CURVE('',#657,#692,#700,.T.);
#700 = LINE('',#701,#702);
#701 = CARTESIAN_POINT('',(40.25,18.,6.));
#702 = VECTOR('',#703,1.);
#703 = DIRECTION('',(1.,0.,-0.));
#704 = PLANE('',#705);
#705 = AXIS2_PLACEMENT_3D('',#706,#707,#708);
#706 = CARTESIAN_POINT('',(40.25,9.,6.));
#707 = DIRECTION('',(0.,0.,1.));
#708 = DIRECTION('',(1.,0.,-0.));
#709 = ADVANCED_FACE('',(#710),#728,.T.);
#710 = FACE_BOUND('',#711,.T.);
#711 = EDGE_LOOP('',(#712,#713,#714,#722));
#712 = ORIENTED_EDGE('',*,*,#339,.T.);
#713 = ORIENTED_EDGE('',*,*,#691,.F.);
#714 = ORIENTED_EDGE('',*,*,#715,.T.);
#715 = EDGE_CURVE('',#692,#716,#718,.T.);
#716 = VERTEX_POINT('',#717);
#717 = CARTESIAN_POINT('',(41.5,18.,15.35));
#718 = LINE('',#719,#720);
#719 = CARTESIAN_POINT('',(41.5,18.,-1.));
#720 = VECTOR('',#721,1.);
#721 = DIRECTION('',(0.,0.,1.));
#722 = ORIENTED_EDGE('',*,*,#723,.F.);
#723 = EDGE_CURVE('',#331,#716,#724,.T.);
#724 = LINE('',#725,#726);
#725 = CARTESIAN_POINT('',(41.5,9.,15.35));
#726 = VECTOR('',#727,1.);
#727 = DIRECTION('',(-0.,1.,0.));
#728 = PLANE('',#729);
#729 = AXIS2_PLACEMENT_3D('',#730,#731,#732);
#730 = CARTESIAN_POINT('',(41.5,9.,-1.));
#731 = DIRECTION('',(1.,0.,-0.));
#732 = DIRECTION('',(0.,0.,1.));
#733 = ADVANCED_FACE('',(#734),#763,.F.);
#734 = FACE_BOUND('',#735,.F.);
#735 = EDGE_LOOP('',(#736,#744,#753,#760,#761,#762));
#736 = ORIENTED_EDGE('',*,*,#737,.T.);
#737 = EDGE_CURVE('',#314,#738,#740,.T.);
#738 = VERTEX_POINT('',#739);
#739 = CARTESIAN_POINT('',(48.5,18.,15.35));
#740 = LINE('',#741,#742);
#741 = CARTESIAN_POINT('',(48.5,9.,15.35));
#742 = VECTOR('',#743,1.);
#743 = DIRECTION('',(-0.,1.,0.));
#744 = ORIENTED_EDGE('',*,*,#745,.F.);
#745 = EDGE_CURVE('',#746,#738,#748,.T.);
#746 = VERTEX_POINT('',#747);
#747 = CARTESIAN_POINT('',(45.,18.,18.85));
#748 = CIRCLE('',#749,3.5);
#749 = AXIS2_PLACEMENT_3D('',#750,#751,#752);
#750 = CARTESIAN_POINT('',(45.,18.,15.35));
#751 = DIRECTION('',(0.,1.,0.));
#752 = DIRECTION('',(0.,-0.,1.));
#753 = ORIENTED_EDGE('',*,*,#754,.F.);
#754 = EDGE_CURVE('',#716,#746,#755,.T.);
#755 = CIRCLE('',#756,3.5);
#756 = AXIS2_PLACEMENT_3D('',#757,#758,#759);
#757 = CARTESIAN_POINT('',(45.,18.,15.35));
#758 = DIRECTION('',(0.,1.,0.));
#759 = DIRECTION('',(0.,-0.,1.));
#760 = ORIENTED_EDGE('',*,*,#723,.F.);
#761 = ORIENTED_EDGE('',*,*,#330,.T.);
#762 = ORIENTED_EDGE('',*,*,#321,.T.);
#763 = CYLINDRICAL_SURFACE('',#764,3.5);
#764 = AXIS2_PLACEMENT_3D('',#765,#766,#767);
#765 = CARTESIAN_POINT('',(45.,9.,15.35));
#766 = DIRECTION('',(0.,1.,0.));
#767 = DIRECTION('',(0.,-0.,1.));
#768 = ADVANCED_FACE('',(#769),#787,.F.);
#769 = FACE_BOUND('',#770,.F.);
#770 = EDGE_LOOP('',(#771,#772,#780,#786));
#771 = ORIENTED_EDGE('',*,*,#313,.T.);
#772 = ORIENTED_EDGE('',*,*,#773,.F.);
#773 = EDGE_CURVE('',#774,#306,#776,.T.);
#774 = VERTEX_POINT('',#775);
#775 = CARTESIAN_POINT('',(48.5,18.,6.));
#776 = LINE('',#777,#778);
#777 = CARTESIAN_POINT('',(48.5,9.,6.));
#778 = VECTOR('',#779,1.);
#779 = DIRECTION('',(0.,-1.,0.));
#780 = ORIENTED_EDGE('',*,*,#781,.T.);
#781 = EDGE_CURVE('',#774,#738,#782,.T.);
#782 = LINE('',#783,#784);
#783 = CARTESIAN_POINT('',(48.5,18.,-1.));
#784 = VECTOR('',#785,1.);
#785 = DIRECTION('',(0.,0.,1.));
#786 = ORIENTED_EDGE('',*,*,#737,.F.);
#787 = PLANE('',#788);
#788 = AXIS2_PLACEMENT_3D('',#789,#790,#791);
#789 = CARTESIAN_POINT('',(48.5,9.,-1.));
#790 = DIRECTION('',(1.,0.,-0.));
#791 = DIRECTION('',(0.,0.,1.));
#792 = ADVANCED_FACE('',(#793),#811,.F.);
#793 = FACE_BOUND('',#794,.F.);
#794 = EDGE_LOOP('',(#795,#796,#797,#805));
#795 = ORIENTED_EDGE('',*,*,#773,.T.);
#796 = ORIENTED_EDGE('',*,*,#305,.T.);
#797 = ORIENTED_EDGE('',*,*,#798,.T.);
#798 = EDGE_CURVE('',#298,#799,#801,.T.);
#799 = VERTEX_POINT('',#800);
#800 = CARTESIAN_POINT('',(49.75,18.,6.));
#801 = LINE('',#802,#803);
#802 = CARTESIAN_POINT('',(49.75,9.,6.));
#803 = VECTOR('',#804,1.);
#804 = DIRECTION('',(-0.,1.,0.));
#805 = ORIENTED_EDGE('',*,*,#806,.F.);
#806 = EDGE_CURVE('',#774,#799,#807,.T.);
#807 = LINE('',#808,#809);
#808 = CARTESIAN_POINT('',(40.25,18.,6.));
#809 = VECTOR('',#810,1.);
#810 = DIRECTION('',(1.,0.,-0.));
#811 = PLANE('',#812);
#812 = AXIS2_PLACEMENT_3D('',#813,#814,#815);
#813 = CARTESIAN_POINT('',(40.25,9.,6.));
#814 = DIRECTION('',(0.,0.,1.));
#815 = DIRECTION('',(1.,0.,-0.));
#816 = ADVANCED_FACE('',(#817),#842,.T.);
#817 = FACE_BOUND('',#818,.T.);
#818 = EDGE_LOOP('',(#819,#820,#828,#834,#835,#841));
#819 = ORIENTED_EDGE('',*,*,#798,.T.);
#820 = ORIENTED_EDGE('',*,*,#821,.T.);
#821 = EDGE_CURVE('',#799,#822,#824,.T.);
#822 = VERTEX_POINT('',#823);
#823 = CARTESIAN_POINT('',(49.75,18.,7.1));
#824 = LINE('',#825,#826);
#825 = CARTESIAN_POINT('',(49.75,18.,-1.));
#826 = VECTOR('',#827,1.);
#827 = DIRECTION('',(0.,0.,1.));
#828 = ORIENTED_EDGE('',*,*,#829,.T.);
#829 = EDGE_CURVE('',#822,#477,#830,.T.);
#830 = LINE('',#831,#832);
#831 = CARTESIAN_POINT('',(49.75,22.5,7.1));
#832 = VECTOR('',#833,1.);
#833 = DIRECTION('',(0.,1.,2.22044604925E-16));
#834 = ORIENTED_EDGE('',*,*,#476,.T.);
#835 = ORIENTED_EDGE('',*,*,#836,.F.);
#836 = EDGE_CURVE('',#290,#469,#837,.T.);
#837 = LINE('',#838,#839);
#838 = CARTESIAN_POINT('',(49.75,9.5,0.));
#839 = VECTOR('',#840,1.);
#840 = DIRECTION('',(-0.,1.,0.));
#841 = ORIENTED_EDGE('',*,*,#297,.F.);
#842 = PLANE('',#843);
#843 = AXIS2_PLACEMENT_3D('',#844,#845,#846);
#844 = CARTESIAN_POINT('',(49.75,18.682572614108,3.367427385892));
#845 = DIRECTION('',(-1.,-0.,-0.));
#846 = DIRECTION('',(0.,0.,-1.));
#847 = ADVANCED_FACE('',(#848),#854,.F.);
#848 = FACE_BOUND('',#849,.F.);
#849 = EDGE_LOOP('',(#850,#851,#852,#853));
#850 = ORIENTED_EDGE('',*,*,#468,.F.);
#851 = ORIENTED_EDGE('',*,*,#836,.F.);
#852 = ORIENTED_EDGE('',*,*,#289,.T.);
#853 = ORIENTED_EDGE('',*,*,#420,.T.);
#854 = PLANE('',#855);
#855 = AXIS2_PLACEMENT_3D('',#856,#857,#858);
#856 = CARTESIAN_POINT('',(15.,10.,0.));
#857 = DIRECTION('',(0.,0.,1.));
#858 = DIRECTION('',(1.,0.,-0.));
#859 = ADVANCED_FACE('',(#860),#915,.F.);
#860 = FACE_BOUND('',#861,.F.);
#861 = EDGE_LOOP('',(#862,#870,#879,#888,#897,#906,#913,#914));
#862 = ORIENTED_EDGE('',*,*,#863,.T.);
#863 = EDGE_CURVE('',#381,#864,#866,.T.);
#864 = VERTEX_POINT('',#865);
#865 = CARTESIAN_POINT('',(38.418206931238,18.,12.95));
#866 = LINE('',#867,#868);
#867 = CARTESIAN_POINT('',(38.418206931238,9.,12.95));
#868 = VECTOR('',#869,1.);
#869 = DIRECTION('',(0.,1.,0.));
#870 = ORIENTED_EDGE('',*,*,#871,.F.);
#871 = EDGE_CURVE('',#872,#864,#874,.T.);
#872 = VERTEX_POINT('',#873);
#873 = CARTESIAN_POINT('',(37.128691689872,18.,12.095115072515));
#874 = CIRCLE('',#875,1.4);
#875 = AXIS2_PLACEMENT_3D('',#876,#877,#878);
#876 = CARTESIAN_POINT('',(38.418206931238,18.,11.55));
#877 = DIRECTION('',(0.,1.,0.));
#878 = DIRECTION('',(0.,-0.,1.));
#879 = ORIENTED_EDGE('',*,*,#880,.F.);
#880 = EDGE_CURVE('',#881,#872,#883,.T.);
#881 = VERTEX_POINT('',#882);
#882 = CARTESIAN_POINT('',(38.245532811339,18.,10.160689506152));
#883 = CIRCLE('',#884,1.4);
#884 = AXIS2_PLACEMENT_3D('',#885,#886,#887);
#885 = CARTESIAN_POINT('',(38.418206931238,18.,11.55));
#886 = DIRECTION('',(0.,1.,0.));
#887 = DIRECTION('',(0.,-0.,1.));
#888 = ORIENTED_EDGE('',*,*,#889,.F.);
#889 = EDGE_CURVE('',#890,#881,#892,.T.);
#890 = VERTEX_POINT('',#891);
#891 = CARTESIAN_POINT('',(39.740446169463,18.,11.089909360127));
#892 = CIRCLE('',#893,1.4);
#893 = AXIS2_PLACEMENT_3D('',#894,#895,#896);
#894 = CARTESIAN_POINT('',(38.418206931238,18.,11.55));
#895 = DIRECTION('',(0.,1.,0.));
#896 = DIRECTION('',(0.,-0.,1.));
#897 = ORIENTED_EDGE('',*,*,#898,.F.);
#898 = EDGE_CURVE('',#899,#890,#901,.T.);
#899 = VERTEX_POINT('',#900);
#900 = CARTESIAN_POINT('',(38.680876368177,18.,12.92513809012));
#901 = CIRCLE('',#902,1.4);
#902 = AXIS2_PLACEMENT_3D('',#903,#904,#905);
#903 = CARTESIAN_POINT('',(38.418206931238,18.,11.55));
#904 = DIRECTION('',(0.,1.,0.));
#905 = DIRECTION('',(0.,-0.,1.));
#906 = ORIENTED_EDGE('',*,*,#907,.F.);
#907 = EDGE_CURVE('',#864,#899,#908,.T.);
#908 = CIRCLE('',#909,1.4);
#909 = AXIS2_PLACEMENT_3D('',#910,#911,#912);
#910 = CARTESIAN_POINT('',(38.418206931238,18.,11.55));
#911 = DIRECTION('',(0.,1.,0.));
#912 = DIRECTION('',(0.,-0.,1.));
#913 = ORIENTED_EDGE('',*,*,#863,.F.);
#914 = ORIENTED_EDGE('',*,*,#380,.T.);
#915 = CYLINDRICAL_SURFACE('',#916,1.4);
#916 = AXIS2_PLACEMENT_3D('',#917,#918,#919);
#917 = CARTESIAN_POINT('',(38.418206931238,9.,11.55));
#918 = DIRECTION('',(0.,1.,0.));
#919 = DIRECTION('',(0.,-0.,1.));
#920 = ADVANCED_FACE('',(#921),#976,.F.);
#921 = FACE_BOUND('',#922,.F.);
#922 = EDGE_LOOP('',(#923,#931,#940,#949,#958,#967,#974,#975));
#923 = ORIENTED_EDGE('',*,*,#924,.T.);
#924 = EDGE_CURVE('',#392,#925,#927,.T.);
#925 = VERTEX_POINT('',#926);
#926 = CARTESIAN_POINT('',(51.581793068762,18.,12.95));
#927 = LINE('',#928,#929);
#928 = CARTESIAN_POINT('',(51.581793068762,9.,12.95));
#929 = VECTOR('',#930,1.);
#930 = DIRECTION('',(0.,1.,0.));
#931 = ORIENTED_EDGE('',*,*,#932,.F.);
#932 = EDGE_CURVE('',#933,#925,#935,.T.);
#933 = VERTEX_POINT('',#934);
#934 = CARTESIAN_POINT('',(51.319123631823,18.,12.92513809012));
#935 = CIRCLE('',#936,1.4);
#936 = AXIS2_PLACEMENT_3D('',#937,#938,#939);
#937 = CARTESIAN_POINT('',(51.581793068762,18.,11.55));
#938 = DIRECTION('',(0.,1.,0.));
#939 = DIRECTION('',(0.,-0.,1.));
#940 = ORIENTED_EDGE('',*,*,#941,.F.);
#941 = EDGE_CURVE('',#942,#933,#944,.T.);
#942 = VERTEX_POINT('',#943);
#943 = CARTESIAN_POINT('',(50.259553830537,18.,11.089909360127));
#944 = CIRCLE('',#945,1.4);
#945 = AXIS2_PLACEMENT_3D('',#946,#947,#948);
#946 = CARTESIAN_POINT('',(51.581793068762,18.,11.55));
#947 = DIRECTION('',(0.,1.,0.));
#948 = DIRECTION('',(0.,-0.,1.));
#949 = ORIENTED_EDGE('',*,*,#950,.F.);
#950 = EDGE_CURVE('',#951,#942,#953,.T.);
#951 = VERTEX_POINT('',#952);
#952 = CARTESIAN_POINT('',(51.754467188661,18.,10.160689506152));
#953 = CIRCLE('',#954,1.4);
#954 = AXIS2_PLACEMENT_3D('',#955,#956,#957);
#955 = CARTESIAN_POINT('',(51.581793068762,18.,11.55));
#956 = DIRECTION('',(0.,1.,0.));
#957 = DIRECTION('',(0.,-0.,1.));
#958 = ORIENTED_EDGE('',*,*,#959,.F.);
#959 = EDGE_CURVE('',#960,#951,#962,.T.);
#960 = VERTEX_POINT('',#961);
#961 = CARTESIAN_POINT('',(52.871308310128,18.,12.095115072515));
#962 = CIRCLE('',#963,1.4);
#963 = AXIS2_PLACEMENT_3D('',#964,#965,#966);
#964 = CARTESIAN_POINT('',(51.581793068762,18.,11.55));
#965 = DIRECTION('',(0.,1.,0.));
#966 = DIRECTION('',(0.,-0.,1.));
#967 = ORIENTED_EDGE('',*,*,#968,.F.);
#968 = EDGE_CURVE('',#925,#960,#969,.T.);
#969 = CIRCLE('',#970,1.4);
#970 = AXIS2_PLACEMENT_3D('',#971,#972,#973);
#971 = CARTESIAN_POINT('',(51.581793068762,18.,11.55));
#972 = DIRECTION('',(0.,1.,0.));
#973 = DIRECTION('',(0.,-0.,1.));
#974 = ORIENTED_EDGE('',*,*,#924,.F.);
#975 = ORIENTED_EDGE('',*,*,#391,.T.);
#976 = CYLINDRICAL_SURFACE('',#977,1.4);
#977 = AXIS2_PLACEMENT_3D('',#978,#979,#980);
#978 = CARTESIAN_POINT('',(51.581793068762,9.,11.55));
#979 = DIRECTION('',(0.,1.,0.));
#980 = DIRECTION('',(0.,-0.,1.));
#981 = ADVANCED_FACE('',(#982),#1037,.F.);
#982 = FACE_BOUND('',#983,.F.);
#983 = EDGE_LOOP('',(#984,#992,#1001,#1010,#1019,#1028,#1035,#1036));
#984 = ORIENTED_EDGE('',*,*,#985,.T.);
#985 = EDGE_CURVE('',#403,#986,#988,.T.);
#986 = VERTEX_POINT('',#987);
#987 = CARTESIAN_POINT('',(45.,18.,24.35));
#988 = LINE('',#989,#990);
#989 = CARTESIAN_POINT('',(45.,9.,24.35));
#990 = VECTOR('',#991,1.);
#991 = DIRECTION('',(0.,1.,0.));
#992 = ORIENTED_EDGE('',*,*,#993,.F.);
#993 = EDGE_CURVE('',#994,#986,#996,.T.);
#994 = VERTEX_POINT('',#995);
#995 = CARTESIAN_POINT('',(43.883158878533,18.,23.794195421333));
#996 = CIRCLE('',#997,1.4);
#997 = AXIS2_PLACEMENT_3D('',#998,#999,#1000);
#998 = CARTESIAN_POINT('',(45.,18.,22.95));
#999 = DIRECTION('',(0.,1.,0.));
#1000 = DIRECTION('',(0.,-0.,1.));
#1001 = ORIENTED_EDGE('',*,*,#1002,.F.);
#1002 = EDGE_CURVE('',#1003,#994,#1005,.T.);
#1003 = VERTEX_POINT('',#1004);
#1004 = CARTESIAN_POINT('',(43.940430198714,18.,22.034952549753));
#1005 = CIRCLE('',#1006,1.4);
#1006 = AXIS2_PLACEMENT_3D('',#1007,#1008,#1009);
#1007 = CARTESIAN_POINT('',(45.,18.,22.95));
#1008 = DIRECTION('',(0.,1.,0.));
#1009 = DIRECTION('',(0.,-0.,1.));
#1010 = ORIENTED_EDGE('',*,*,#1011,.F.);
#1011 = EDGE_CURVE('',#1012,#1003,#1014,.T.);
#1012 = VERTEX_POINT('',#1013);
#1013 = CARTESIAN_POINT('',(46.059569801286,18.,22.034952549753));
#1014 = CIRCLE('',#1015,1.4);
#1015 = AXIS2_PLACEMENT_3D('',#1016,#1017,#1018);
#1016 = CARTESIAN_POINT('',(45.,18.,22.95));
#1017 = DIRECTION('',(0.,1.,0.));
#1018 = DIRECTION('',(0.,-0.,1.));
#1019 = ORIENTED_EDGE('',*,*,#1020,.F.);
#1020 = EDGE_CURVE('',#1021,#1012,#1023,.T.);
#1021 = VERTEX_POINT('',#1022);
#1022 = CARTESIAN_POINT('',(46.116841121467,18.,23.794195421333));
#1023 = CIRCLE('',#1024,1.4);
#1024 = AXIS2_PLACEMENT_3D('',#1025,#1026,#1027);
#1025 = CARTESIAN_POINT('',(45.,18.,22.95));
#1026 = DIRECTION('',(0.,1.,0.));
#1027 = DIRECTION('',(0.,-0.,1.));
#1028 = ORIENTED_EDGE('',*,*,#1029,.F.);
#1029 = EDGE_CURVE('',#986,#1021,#1030,.T.);
#1030 = CIRCLE('',#1031,1.4);
#1031 = AXIS2_PLACEMENT_3D('',#1032,#1033,#1034);
#1032 = CARTESIAN_POINT('',(45.,18.,22.95));
#1033 = DIRECTION('',(0.,1.,0.));
#1034 = DIRECTION('',(0.,-0.,1.));
#1035 = ORIENTED_EDGE('',*,*,#985,.F.);
#1036 = ORIENTED_EDGE('',*,*,#402,.T.);
#1037 = CYLINDRICAL_SURFACE('',#1038,1.4);
#1038 = AXIS2_PLACEMENT_3D('',#1039,#1040,#1041);
#1039 = CARTESIAN_POINT('',(45.,9.,22.95));
#1040 = DIRECTION('',(0.,1.,0.));
#1041 = DIRECTION('',(0.,-0.,1.));
#1042 = ADVANCED_FACE('',(#1043),#1061,.T.);
#1043 = FACE_BOUND('',#1044,.T.);
#1044 = EDGE_LOOP('',(#1045,#1046,#1054,#1060));
#1045 = ORIENTED_EDGE('',*,*,#607,.F.);
#1046 = ORIENTED_EDGE('',*,*,#1047,.T.);
#1047 = EDGE_CURVE('',#599,#1048,#1050,.T.);
#1048 = VERTEX_POINT('',#1049);
#1049 = CARTESIAN_POINT('',(39.941096956849,18.,7.1));
#1050 = LINE('',#1051,#1052);
#1051 = CARTESIAN_POINT('',(39.941096956849,27.,7.1));
#1052 = VECTOR('',#1053,1.);
#1053 = DIRECTION('',(0.,-1.,-2.22044604925E-16));
#1054 = ORIENTED_EDGE('',*,*,#1055,.T.);
#1055 = EDGE_CURVE('',#1048,#668,#1056,.T.);
#1056 = LINE('',#1057,#1058);
#1057 = CARTESIAN_POINT('',(39.941096956849,18.,7.1));
#1058 = VECTOR('',#1059,1.);
#1059 = DIRECTION('',(1.,-1.233123556334E-30,5.553494788808E-15));
#1060 = ORIENTED_EDGE('',*,*,#667,.T.);
#1061 = PLANE('',#1062);
#1062 = AXIS2_PLACEMENT_3D('',#1063,#1064,#1065);
#1063 = CARTESIAN_POINT('',(39.941096956849,27.,7.1));
#1064 = DIRECTION('',(-5.553494788808E-15,-2.22044604925E-16,1.));
#1065 = DIRECTION('',(1.,-1.233123556334E-30,5.553494788808E-15));
#1066 = ADVANCED_FACE('',(#1067),#1086,.F.);
#1067 = FACE_BOUND('',#1068,.F.);
#1068 = EDGE_LOOP('',(#1069,#1070,#1071,#1080));
#1069 = ORIENTED_EDGE('',*,*,#598,.F.);
#1070 = ORIENTED_EDGE('',*,*,#1047,.T.);
#1071 = ORIENTED_EDGE('',*,*,#1072,.T.);
#1072 = EDGE_CURVE('',#1048,#1073,#1075,.T.);
#1073 = VERTEX_POINT('',#1074);
#1074 = CARTESIAN_POINT('',(37.994526352863,18.,8.640801912354));
#1075 = CIRCLE('',#1076,2.);
#1076 = AXIS2_PLACEMENT_3D('',#1077,#1078,#1079);
#1077 = CARTESIAN_POINT('',(39.941096956849,18.,9.1));
#1078 = DIRECTION('',(0.,1.,0.));
#1079 = DIRECTION('',(0.,-0.,1.));
#1080 = ORIENTED_EDGE('',*,*,#1081,.T.);
#1081 = EDGE_CURVE('',#1073,#590,#1082,.T.);
#1082 = LINE('',#1083,#1084);
#1083 = CARTESIAN_POINT('',(37.994526352863,27.,8.640801912354));
#1084 = VECTOR('',#1085,1.);
#1085 = DIRECTION('',(0.,1.,2.22044604925E-16));
#1086 = CYLINDRICAL_SURFACE('',#1087,2.);
#1087 = AXIS2_PLACEMENT_3D('',#1088,#1089,#1090);
#1088 = CARTESIAN_POINT('',(39.941096956849,18.,9.1));
#1089 = DIRECTION('',(0.,1.,0.));
#1090 = DIRECTION('',(0.,-0.,1.));
#1091 = ADVANCED_FACE('',(#1092),#1111,.F.);
#1092 = FACE_BOUND('',#1093,.T.);
#1093 = EDGE_LOOP('',(#1094,#1095,#1103,#1110));
#1094 = ORIENTED_EDGE('',*,*,#589,.F.);
#1095 = ORIENTED_EDGE('',*,*,#1096,.F.);
#1096 = EDGE_CURVE('',#1097,#581,#1099,.T.);
#1097 = VERTEX_POINT('',#1098);
#1098 = CARTESIAN_POINT('',(35.686927193508,18.,12.63768089986));
#1099 = LINE('',#1100,#1101);
#1100 = CARTESIAN_POINT('',(35.686927193508,27.,12.63768089986));
#1101 = VECTOR('',#1102,1.);
#1102 = DIRECTION('',(0.,1.,2.22044604925E-16));
#1103 = ORIENTED_EDGE('',*,*,#1104,.T.);
#1104 = EDGE_CURVE('',#1097,#1073,#1105,.T.);
#1105 = CIRCLE('',#1106,9.7);
#1106 = AXIS2_PLACEMENT_3D('',#1107,#1108,#1109);
#1107 = CARTESIAN_POINT('',(45.,18.,15.35));
#1108 = DIRECTION('',(2.007383461135E-33,-1.,-2.22044604925E-16));
#1109 = DIRECTION('',(-0.974553171279,4.97727315078E-17,-0.224156455072)
  );
#1110 = ORIENTED_EDGE('',*,*,#1081,.T.);
#1111 = CYLINDRICAL_SURFACE('',#1112,9.7);
#1112 = AXIS2_PLACEMENT_3D('',#1113,#1114,#1115);
#1113 = CARTESIAN_POINT('',(45.,27.,15.35));
#1114 = DIRECTION('',(0.,1.,2.22044604925E-16));
#1115 = DIRECTION('',(-0.974553171279,4.97727315078E-17,-0.224156455072)
  );
#1116 = ADVANCED_FACE('',(#1117),#1136,.F.);
#1117 = FACE_BOUND('',#1118,.F.);
#1118 = EDGE_LOOP('',(#1119,#1127,#1128,#1129));
#1119 = ORIENTED_EDGE('',*,*,#1120,.F.);
#1120 = EDGE_CURVE('',#573,#1121,#1123,.T.);
#1121 = VERTEX_POINT('',#1122);
#1122 = CARTESIAN_POINT('',(35.325838897203,18.,15.093861449349));
#1123 = LINE('',#1124,#1125);
#1124 = CARTESIAN_POINT('',(35.325838897203,27.,15.093861449349));
#1125 = VECTOR('',#1126,1.);
#1126 = DIRECTION('',(0.,-1.,-2.22044604925E-16));
#1127 = ORIENTED_EDGE('',*,*,#580,.F.);
#1128 = ORIENTED_EDGE('',*,*,#1096,.F.);
#1129 = ORIENTED_EDGE('',*,*,#1130,.T.);
#1130 = EDGE_CURVE('',#1097,#1121,#1131,.T.);
#1131 = CIRCLE('',#1132,2.);
#1132 = AXIS2_PLACEMENT_3D('',#1133,#1134,#1135);
#1133 = CARTESIAN_POINT('',(37.057889704772,18.,14.093861449349));
#1134 = DIRECTION('',(0.,1.,0.));
#1135 = DIRECTION('',(0.,-0.,1.));
#1136 = CYLINDRICAL_SURFACE('',#1137,2.);
#1137 = AXIS2_PLACEMENT_3D('',#1138,#1139,#1140);
#1138 = CARTESIAN_POINT('',(37.057889704772,18.,14.093861449349));
#1139 = DIRECTION('',(0.,1.,0.));
#1140 = DIRECTION('',(0.,-0.,1.));
#1141 = ADVANCED_FACE('',(#1142),#1160,.T.);
#1142 = FACE_BOUND('',#1143,.T.);
#1143 = EDGE_LOOP('',(#1144,#1152,#1158,#1159));
#1144 = ORIENTED_EDGE('',*,*,#1145,.T.);
#1145 = EDGE_CURVE('',#564,#1146,#1148,.T.);
#1146 = VERTEX_POINT('',#1147);
#1147 = CARTESIAN_POINT('',(40.384741940354,18.,23.856138550651));
#1148 = LINE('',#1149,#1150);
#1149 = CARTESIAN_POINT('',(40.384741940354,27.,23.856138550651));
#1150 = VECTOR('',#1151,1.);
#1151 = DIRECTION('',(0.,-1.,-2.22044604925E-16));
#1152 = ORIENTED_EDGE('',*,*,#1153,.T.);
#1153 = EDGE_CURVE('',#1146,#1121,#1154,.T.);
#1154 = LINE('',#1155,#1156);
#1155 = CARTESIAN_POINT('',(40.384741940354,18.,23.856138550651));
#1156 = VECTOR('',#1157,1.);
#1157 = DIRECTION('',(-0.5,1.922962686384E-16,-0.866025403784));
#1158 = ORIENTED_EDGE('',*,*,#1120,.F.);
#1159 = ORIENTED_EDGE('',*,*,#572,.F.);
#1160 = PLANE('',#1161);
#1161 = AXIS2_PLACEMENT_3D('',#1162,#1163,#1164);
#1162 = CARTESIAN_POINT('',(40.384741940354,27.,23.856138550651));
#1163 = DIRECTION('',(0.866025403784,1.110223024625E-16,-0.5));
#1164 = DIRECTION('',(-0.5,1.922962686384E-16,-0.866025403784));
#1165 = ADVANCED_FACE('',(#1166),#1192,.F.);
#1166 = FACE_BOUND('',#1167,.T.);
#1167 = EDGE_LOOP('',(#1168,#1169,#1177,#1186));
#1168 = ORIENTED_EDGE('',*,*,#545,.F.);
#1169 = ORIENTED_EDGE('',*,*,#1170,.F.);
#1170 = EDGE_CURVE('',#1171,#537,#1173,.T.);
#1171 = VERTEX_POINT('',#1172);
#1172 = CARTESIAN_POINT('',(47.307599159355,18.,24.771517187786));
#1173 = LINE('',#1174,#1175);
#1174 = CARTESIAN_POINT('',(47.307599159355,27.,24.771517187786));
#1175 = VECTOR('',#1176,1.);
#1176 = DIRECTION('',(0.,1.,2.22044604925E-16));
#1177 = ORIENTED_EDGE('',*,*,#1178,.T.);
#1178 = EDGE_CURVE('',#1171,#1179,#1181,.T.);
#1179 = VERTEX_POINT('',#1180);
#1180 = CARTESIAN_POINT('',(42.692400840645,18.,24.771517187786));
#1181 = CIRCLE('',#1182,9.7);
#1182 = AXIS2_PLACEMENT_3D('',#1183,#1184,#1185);
#1183 = CARTESIAN_POINT('',(45.,18.,15.35));
#1184 = DIRECTION('',(-2.672331468585E-33,-1.,-2.22044604925E-16));
#1185 = DIRECTION('',(0.293151401125,-2.122893041805E-16,0.956066031202)
  );
#1186 = ORIENTED_EDGE('',*,*,#1187,.T.);
#1187 = EDGE_CURVE('',#1179,#546,#1188,.T.);
#1188 = LINE('',#1189,#1190);
#1189 = CARTESIAN_POINT('',(42.692400840645,27.,24.771517187786));
#1190 = VECTOR('',#1191,1.);
#1191 = DIRECTION('',(0.,1.,2.22044604925E-16));
#1192 = CYLINDRICAL_SURFACE('',#1193,9.7);
#1193 = AXIS2_PLACEMENT_3D('',#1194,#1195,#1196);
#1194 = CARTESIAN_POINT('',(45.,27.,15.35));
#1195 = DIRECTION('',(0.,1.,2.22044604925E-16));
#1196 = DIRECTION('',(0.293151401125,-2.122893041805E-16,0.956066031202)
  );
#1197 = ADVANCED_FACE('',(#1198),#1223,.T.);
#1198 = FACE_BOUND('',#1199,.T.);
#1199 = EDGE_LOOP('',(#1200,#1208,#1216,#1222));
#1200 = ORIENTED_EDGE('',*,*,#1201,.T.);
#1201 = EDGE_CURVE('',#511,#1202,#1204,.T.);
#1202 = VERTEX_POINT('',#1203);
#1203 = CARTESIAN_POINT('',(54.674161102797,18.,15.093861449349));
#1204 = LINE('',#1205,#1206);
#1205 = CARTESIAN_POINT('',(54.674161102797,27.,15.093861449349));
#1206 = VECTOR('',#1207,1.);
#1207 = DIRECTION('',(0.,-1.,-2.22044604925E-16));
#1208 = ORIENTED_EDGE('',*,*,#1209,.T.);
#1209 = EDGE_CURVE('',#1202,#1210,#1212,.T.);
#1210 = VERTEX_POINT('',#1211);
#1211 = CARTESIAN_POINT('',(49.615258059646,18.,23.856138550651));
#1212 = LINE('',#1213,#1214);
#1213 = CARTESIAN_POINT('',(54.674161102797,18.,15.093861449349));
#1214 = VECTOR('',#1215,1.);
#1215 = DIRECTION('',(-0.5,-1.922962686384E-16,0.866025403784));
#1216 = ORIENTED_EDGE('',*,*,#1217,.F.);
#1217 = EDGE_CURVE('',#520,#1210,#1218,.T.);
#1218 = LINE('',#1219,#1220);
#1219 = CARTESIAN_POINT('',(49.615258059646,27.,23.856138550651));
#1220 = VECTOR('',#1221,1.);
#1221 = DIRECTION('',(0.,-1.,-2.22044604925E-16));
#1222 = ORIENTED_EDGE('',*,*,#519,.F.);
#1223 = PLANE('',#1224);
#1224 = AXIS2_PLACEMENT_3D('',#1225,#1226,#1227);
#1225 = CARTESIAN_POINT('',(54.674161102797,27.,15.093861449349));
#1226 = DIRECTION('',(-0.866025403784,1.110223024625E-16,-0.5));
#1227 = DIRECTION('',(-0.5,-1.922962686384E-16,0.866025403784));
#1228 = ADVANCED_FACE('',(#1229),#1248,.F.);
#1229 = FACE_BOUND('',#1230,.F.);
#1230 = EDGE_LOOP('',(#1231,#1232,#1233,#1242));
#1231 = ORIENTED_EDGE('',*,*,#510,.F.);
#1232 = ORIENTED_EDGE('',*,*,#1201,.T.);
#1233 = ORIENTED_EDGE('',*,*,#1234,.T.);
#1234 = EDGE_CURVE('',#1202,#1235,#1237,.T.);
#1235 = VERTEX_POINT('',#1236);
#1236 = CARTESIAN_POINT('',(54.313072806492,18.,12.63768089986));
#1237 = CIRCLE('',#1238,2.);
#1238 = AXIS2_PLACEMENT_3D('',#1239,#1240,#1241);
#1239 = CARTESIAN_POINT('',(52.942110295228,18.,14.093861449349));
#1240 = DIRECTION('',(0.,1.,0.));
#1241 = DIRECTION('',(0.,-0.,1.));
#1242 = ORIENTED_EDGE('',*,*,#1243,.T.);
#1243 = EDGE_CURVE('',#1235,#502,#1244,.T.);
#1244 = LINE('',#1245,#1246);
#1245 = CARTESIAN_POINT('',(54.313072806492,27.,12.63768089986));
#1246 = VECTOR('',#1247,1.);
#1247 = DIRECTION('',(0.,1.,2.22044604925E-16));
#1248 = CYLINDRICAL_SURFACE('',#1249,2.);
#1249 = AXIS2_PLACEMENT_3D('',#1250,#1251,#1252);
#1250 = CARTESIAN_POINT('',(52.942110295228,18.,14.093861449349));
#1251 = DIRECTION('',(0.,1.,0.));
#1252 = DIRECTION('',(0.,-0.,1.));
#1253 = ADVANCED_FACE('',(#1254),#1273,.F.);
#1254 = FACE_BOUND('',#1255,.T.);
#1255 = EDGE_LOOP('',(#1256,#1257,#1265,#1272));
#1256 = ORIENTED_EDGE('',*,*,#501,.F.);
#1257 = ORIENTED_EDGE('',*,*,#1258,.F.);
#1258 = EDGE_CURVE('',#1259,#493,#1261,.T.);
#1259 = VERTEX_POINT('',#1260);
#1260 = CARTESIAN_POINT('',(52.005473647137,18.,8.640801912354));
#1261 = LINE('',#1262,#1263);
#1262 = CARTESIAN_POINT('',(52.005473647137,27.,8.640801912354));
#1263 = VECTOR('',#1264,1.);
#1264 = DIRECTION('',(0.,1.,2.22044604925E-16));
#1265 = ORIENTED_EDGE('',*,*,#1266,.T.);
#1266 = EDGE_CURVE('',#1259,#1235,#1267,.T.);
#1267 = CIRCLE('',#1268,9.7);
#1268 = AXIS2_PLACEMENT_3D('',#1269,#1270,#1271);
#1269 = CARTESIAN_POINT('',(45.,18.,15.35));
#1270 = DIRECTION('',(4.473221495647E-33,-1.,-2.22044604925E-16));
#1271 = DIRECTION('',(0.681401770154,1.625165726727E-16,-0.73190957613)
  );
#1272 = ORIENTED_EDGE('',*,*,#1243,.T.);
#1273 = CYLINDRICAL_SURFACE('',#1274,9.7);
#1274 = AXIS2_PLACEMENT_3D('',#1275,#1276,#1277);
#1275 = CARTESIAN_POINT('',(45.,27.,15.35));
#1276 = DIRECTION('',(0.,1.,2.22044604925E-16));
#1277 = DIRECTION('',(0.681401770154,1.625165726727E-16,-0.73190957613)
  );
#1278 = ADVANCED_FACE('',(#1279),#1298,.F.);
#1279 = FACE_BOUND('',#1280,.F.);
#1280 = EDGE_LOOP('',(#1281,#1289,#1290,#1291));
#1281 = ORIENTED_EDGE('',*,*,#1282,.F.);
#1282 = EDGE_CURVE('',#485,#1283,#1285,.T.);
#1283 = VERTEX_POINT('',#1284);
#1284 = CARTESIAN_POINT('',(50.058903043151,18.,7.1));
#1285 = LINE('',#1286,#1287);
#1286 = CARTESIAN_POINT('',(50.058903043151,27.,7.1));
#1287 = VECTOR('',#1288,1.);
#1288 = DIRECTION('',(0.,-1.,-2.22044604925E-16));
#1289 = ORIENTED_EDGE('',*,*,#492,.F.);
#1290 = ORIENTED_EDGE('',*,*,#1258,.F.);
#1291 = ORIENTED_EDGE('',*,*,#1292,.T.);
#1292 = EDGE_CURVE('',#1259,#1283,#1293,.T.);
#1293 = CIRCLE('',#1294,2.);
#1294 = AXIS2_PLACEMENT_3D('',#1295,#1296,#1297);
#1295 = CARTESIAN_POINT('',(50.058903043151,18.,9.1));
#1296 = DIRECTION('',(0.,1.,0.));
#1297 = DIRECTION('',(0.,-0.,1.));
#1298 = CYLINDRICAL_SURFACE('',#1299,2.);
#1299 = AXIS2_PLACEMENT_3D('',#1300,#1301,#1302);
#1300 = CARTESIAN_POINT('',(50.058903043151,18.,9.1));
#1301 = DIRECTION('',(0.,1.,0.));
#1302 = DIRECTION('',(0.,-0.,1.));
#1303 = ADVANCED_FACE('',(#1304),#1315,.T.);
#1304 = FACE_BOUND('',#1305,.T.);
#1305 = EDGE_LOOP('',(#1306,#1307,#1308,#1314));
#1306 = ORIENTED_EDGE('',*,*,#484,.F.);
#1307 = ORIENTED_EDGE('',*,*,#829,.F.);
#1308 = ORIENTED_EDGE('',*,*,#1309,.T.);
#1309 = EDGE_CURVE('',#822,#1283,#1310,.T.);
#1310 = LINE('',#1311,#1312);
#1311 = CARTESIAN_POINT('',(47.5,18.,7.1));
#1312 = VECTOR('',#1313,1.);
#1313 = DIRECTION('',(1.,0.,0.));
#1314 = ORIENTED_EDGE('',*,*,#1282,.F.);
#1315 = PLANE('',#1316);
#1316 = AXIS2_PLACEMENT_3D('',#1317,#1318,#1319);
#1317 = CARTESIAN_POINT('',(47.5,27.,7.1));
#1318 = DIRECTION('',(0.,-2.22044604925E-16,1.));
#1319 = DIRECTION('',(1.,0.,0.));
#1320 = ADVANCED_FACE('',(#1321,#1374,#1381,#1388),#1395,.T.);
#1321 = FACE_BOUND('',#1322,.T.);
#1322 = EDGE_LOOP('',(#1323,#1324,#1325,#1326,#1327,#1328,#1329,#1330,
    #1339,#1346,#1347,#1356,#1363,#1364,#1365,#1366,#1367,#1368,#1369,
    #1370,#1371,#1372,#1373));
#1323 = ORIENTED_EDGE('',*,*,#699,.F.);
#1324 = ORIENTED_EDGE('',*,*,#675,.T.);
#1325 = ORIENTED_EDGE('',*,*,#1055,.F.);
#1326 = ORIENTED_EDGE('',*,*,#1072,.T.);
#1327 = ORIENTED_EDGE('',*,*,#1104,.F.);
#1328 = ORIENTED_EDGE('',*,*,#1130,.T.);
#1329 = ORIENTED_EDGE('',*,*,#1153,.F.);
#1330 = ORIENTED_EDGE('',*,*,#1331,.T.);
#1331 = EDGE_CURVE('',#1146,#1332,#1334,.T.);
#1332 = VERTEX_POINT('',#1333);
#1333 = CARTESIAN_POINT('',(42.116792747923,18.,24.856138550651));
#1334 = CIRCLE('',#1335,2.);
#1335 = AXIS2_PLACEMENT_3D('',#1336,#1337,#1338);
#1336 = CARTESIAN_POINT('',(42.116792747923,18.,22.856138550651));
#1337 = DIRECTION('',(0.,1.,0.));
#1338 = DIRECTION('',(0.,-0.,1.));
#1339 = ORIENTED_EDGE('',*,*,#1340,.T.);
#1340 = EDGE_CURVE('',#1332,#1179,#1341,.T.);
#1341 = CIRCLE('',#1342,2.);
#1342 = AXIS2_PLACEMENT_3D('',#1343,#1344,#1345);
#1343 = CARTESIAN_POINT('',(42.116792747923,18.,22.856138550651));
#1344 = DIRECTION('',(0.,1.,0.));
#1345 = DIRECTION('',(0.,-0.,1.));
#1346 = ORIENTED_EDGE('',*,*,#1178,.F.);
#1347 = ORIENTED_EDGE('',*,*,#1348,.T.);
#1348 = EDGE_CURVE('',#1171,#1349,#1351,.T.);
#1349 = VERTEX_POINT('',#1350);
#1350 = CARTESIAN_POINT('',(47.883207252077,18.,24.856138550651));
#1351 = CIRCLE('',#1352,2.);
#1352 = AXIS2_PLACEMENT_3D('',#1353,#1354,#1355);
#1353 = CARTESIAN_POINT('',(47.883207252077,18.,22.856138550651));
#1354 = DIRECTION('',(0.,1.,0.));
#1355 = DIRECTION('',(0.,-0.,1.));
#1356 = ORIENTED_EDGE('',*,*,#1357,.T.);
#1357 = EDGE_CURVE('',#1349,#1210,#1358,.T.);
#1358 = CIRCLE('',#1359,2.);
#1359 = AXIS2_PLACEMENT_3D('',#1360,#1361,#1362);
#1360 = CARTESIAN_POINT('',(47.883207252077,18.,22.856138550651));
#1361 = DIRECTION('',(0.,1.,0.));
#1362 = DIRECTION('',(0.,-0.,1.));
#1363 = ORIENTED_EDGE('',*,*,#1209,.F.);
#1364 = ORIENTED_EDGE('',*,*,#1234,.T.);
#1365 = ORIENTED_EDGE('',*,*,#1266,.F.);
#1366 = ORIENTED_EDGE('',*,*,#1292,.T.);
#1367 = ORIENTED_EDGE('',*,*,#1309,.F.);
#1368 = ORIENTED_EDGE('',*,*,#821,.F.);
#1369 = ORIENTED_EDGE('',*,*,#806,.F.);
#1370 = ORIENTED_EDGE('',*,*,#781,.T.);
#1371 = ORIENTED_EDGE('',*,*,#745,.F.);
#1372 = ORIENTED_EDGE('',*,*,#754,.F.);
#1373 = ORIENTED_EDGE('',*,*,#715,.F.);
#1374 = FACE_BOUND('',#1375,.T.);
#1375 = EDGE_LOOP('',(#1376,#1377,#1378,#1379,#1380));
#1376 = ORIENTED_EDGE('',*,*,#889,.F.);
#1377 = ORIENTED_EDGE('',*,*,#898,.F.);
#1378 = ORIENTED_EDGE('',*,*,#907,.F.);
#1379 = ORIENTED_EDGE('',*,*,#871,.F.);
#1380 = ORIENTED_EDGE('',*,*,#880,.F.);
#1381 = FACE_BOUND('',#1382,.T.);
#1382 = EDGE_LOOP('',(#1383,#1384,#1385,#1386,#1387));
#1383 = ORIENTED_EDGE('',*,*,#941,.F.);
#1384 = ORIENTED_EDGE('',*,*,#950,.F.);
#1385 = ORIENTED_EDGE('',*,*,#959,.F.);
#1386 = ORIENTED_EDGE('',*,*,#968,.F.);
#1387 = ORIENTED_EDGE('',*,*,#932,.F.);
#1388 = FACE_BOUND('',#1389,.T.);
#1389 = EDGE_LOOP('',(#1390,#1391,#1392,#1393,#1394));
#1390 = ORIENTED_EDGE('',*,*,#1011,.F.);
#1391 = ORIENTED_EDGE('',*,*,#1020,.F.);
#1392 = ORIENTED_EDGE('',*,*,#1029,.F.);
#1393 = ORIENTED_EDGE('',*,*,#993,.F.);
#1394 = ORIENTED_EDGE('',*,*,#1002,.F.);
#1395 = PLANE('',#1396);
#1396 = AXIS2_PLACEMENT_3D('',#1397,#1398,#1399);
#1397 = CARTESIAN_POINT('',(45.,18.,15.022816266306));
#1398 = DIRECTION('',(0.,1.,0.));
#1399 = DIRECTION('',(0.,-0.,1.));
#1400 = ADVANCED_FACE('',(#1401),#1409,.F.);
#1401 = FACE_BOUND('',#1402,.F.);
#1402 = EDGE_LOOP('',(#1403,#1404,#1405,#1406,#1407,#1408));
#1403 = ORIENTED_EDGE('',*,*,#1187,.T.);
#1404 = ORIENTED_EDGE('',*,*,#554,.F.);
#1405 = ORIENTED_EDGE('',*,*,#563,.F.);
#1406 = ORIENTED_EDGE('',*,*,#1145,.T.);
#1407 = ORIENTED_EDGE('',*,*,#1331,.T.);
#1408 = ORIENTED_EDGE('',*,*,#1340,.T.);
#1409 = CYLINDRICAL_SURFACE('',#1410,2.);
#1410 = AXIS2_PLACEMENT_3D('',#1411,#1412,#1413);
#1411 = CARTESIAN_POINT('',(42.116792747923,18.,22.856138550651));
#1412 = DIRECTION('',(0.,1.,0.));
#1413 = DIRECTION('',(0.,-0.,1.));
#1414 = ADVANCED_FACE('',(#1415),#1423,.F.);
#1415 = FACE_BOUND('',#1416,.F.);
#1416 = EDGE_LOOP('',(#1417,#1418,#1419,#1420,#1421,#1422));
#1417 = ORIENTED_EDGE('',*,*,#1217,.F.);
#1418 = ORIENTED_EDGE('',*,*,#527,.F.);
#1419 = ORIENTED_EDGE('',*,*,#536,.F.);
#1420 = ORIENTED_EDGE('',*,*,#1170,.F.);
#1421 = ORIENTED_EDGE('',*,*,#1348,.T.);
#1422 = ORIENTED_EDGE('',*,*,#1357,.T.);
#1423 = CYLINDRICAL_SURFACE('',#1424,2.);
#1424 = AXIS2_PLACEMENT_3D('',#1425,#1426,#1427);
#1425 = CARTESIAN_POINT('',(47.883207252077,18.,22.856138550651));
#1426 = DIRECTION('',(0.,1.,0.));
#1427 = DIRECTION('',(0.,-0.,1.));
#1428 = ( GEOMETRIC_REPRESENTATION_CONTEXT(3) 
GLOBAL_UNCERTAINTY_ASSIGNED_CONTEXT((#1432)) 
GLOBAL_UNIT_ASSIGNED_CONTEXT((#1429,#1430,#1431)) REPRESENTATION_CONTEXT
('Context #1','3D Context with UNIT and UNCERTAINTY') );
#1429 = ( LENGTH_UNIT() NAMED_UNIT(*) SI_UNIT(.MILLI.,.METRE.) );
#1430 = ( NAMED_UNIT(*) PLANE_ANGLE_UNIT() SI_UNIT($,.RADIAN.) );
#1431 = ( NAMED_UNIT(*) SI_UNIT($,.STERADIAN.) SOLID_ANGLE_UNIT() );
#1432 = UNCERTAINTY_MEASURE_WITH_UNIT(LENGTH_MEASURE(2.E-06),#1429,
  'distance_accuracy_value','confusion accuracy');
#1433 = PRODUCT_RELATED_PRODUCT_CATEGORY('part',$,(#7));
ENDSEC;
END-ISO-10303-21;
