ISO-10303-21;
HEADER;
FILE_DESCRIPTION(('FreeCAD Model'),'2;1');
FILE_NAME('Open CASCADE Shape Model','2026-09-21T11:56:59',('FreeCAD'),(
    'FreeCAD'),'Open CASCADE STEP processor 7.8','FreeCAD','Unknown');
FILE_SCHEMA(('AUTOMOTIVE_DESIGN { 1 0 10303 214 1 1 1 1 }'));
ENDSEC;
DATA;
#1 = APPLICATION_PROTOCOL_DEFINITION('international standard',
  'automotive_design',2000,#2);
#2 = APPLICATION_CONTEXT(
  'core data for automotive mechanical design processes');
#3 = SHAPE_DEFINITION_REPRESENTATION(#4,#10);
#4 = PRODUCT_DEFINITION_SHAPE('','',#5);
#5 = PRODUCT_DEFINITION('design','',#6,#9);
#6 = PRODUCT_DEFINITION_FORMATION('','',#7);
#7 = PRODUCT('Open CASCADE STEP translator 7.8 2',
  'Open CASCADE STEP translator 7.8 2','',(#8));
#8 = PRODUCT_CONTEXT('',#2,'mechanical');
#9 = PRODUCT_DEFINITION_CONTEXT('part definition',#2,'design');
#10 = ADVANCED_BREP_SHAPE_REPRESENTATION('',(#11,#15),#1528);
#11 = AXIS2_PLACEMENT_3D('',#12,#13,#14);
#12 = CARTESIAN_POINT('',(0.,0.,0.));
#13 = DIRECTION('',(0.,0.,1.));
#14 = DIRECTION('',(1.,0.,-0.));
#15 = MANIFOLD_SOLID_BREP('',#16);
#16 = CLOSED_SHELL('',(#17,#113,#146,#171,#196,#213,#244,#268,#292,#309,
    #334,#359,#497,#521,#545,#717,#735,#752,#785,#802,#826,#859,#883,
    #907,#942,#959,#1020,#1081,#1142,#1166,#1191,#1215,#1240,#1265,#1290
    ,#1315,#1339,#1364,#1399,#1423,#1458,#1476));
#17 = ADVANCED_FACE('',(#18,#52,#86,#97),#108,.F.);
#18 = FACE_BOUND('',#19,.F.);
#19 = EDGE_LOOP('',(#20,#30,#38,#46));
#20 = ORIENTED_EDGE('',*,*,#21,.T.);
#21 = EDGE_CURVE('',#22,#24,#26,.T.);
#22 = VERTEX_POINT('',#23);
#23 = CARTESIAN_POINT('',(77.,8.,29.));
#24 = VERTEX_POINT('',#25);
#25 = CARTESIAN_POINT('',(13.,8.,29.));
#26 = LINE('',#27,#28);
#27 = CARTESIAN_POINT('',(75.,8.,29.));
#28 = VECTOR('',#29,1.);
#29 = DIRECTION('',(-1.,-0.,0.));
#30 = ORIENTED_EDGE('',*,*,#31,.T.);
#31 = EDGE_CURVE('',#24,#32,#34,.T.);
#32 = VERTEX_POINT('',#33);
#33 = CARTESIAN_POINT('',(13.,29.,29.));
#34 = LINE('',#35,#36);
#35 = CARTESIAN_POINT('',(13.,10.,29.));
#36 = VECTOR('',#37,1.);
#37 = DIRECTION('',(-0.,1.,0.));
#38 = ORIENTED_EDGE('',*,*,#39,.F.);
#39 = EDGE_CURVE('',#40,#32,#42,.T.);
#40 = VERTEX_POINT('',#41);
#41 = CARTESIAN_POINT('',(77.,29.,29.));
#42 = LINE('',#43,#44);
#43 = CARTESIAN_POINT('',(75.,29.,29.));
#44 = VECTOR('',#45,1.);
#45 = DIRECTION('',(-1.,-0.,0.));
#46 = ORIENTED_EDGE('',*,*,#47,.F.);
#47 = EDGE_CURVE('',#22,#40,#48,.T.);
#48 = LINE('',#49,#50);
#49 = CARTESIAN_POINT('',(77.,10.,29.));
#50 = VECTOR('',#51,1.);
#51 = DIRECTION('',(-0.,1.,0.));
#52 = FACE_BOUND('',#53,.F.);
#53 = EDGE_LOOP('',(#54,#64,#72,#80));
#54 = ORIENTED_EDGE('',*,*,#55,.F.);
#55 = EDGE_CURVE('',#56,#58,#60,.T.);
#56 = VERTEX_POINT('',#57);
#57 = CARTESIAN_POINT('',(0.,0.,29.));
#58 = VERTEX_POINT('',#59);
#59 = CARTESIAN_POINT('',(0.,30.,29.));
#60 = LINE('',#61,#62);
#61 = CARTESIAN_POINT('',(0.,0.,29.));
#62 = VECTOR('',#63,1.);
#63 = DIRECTION('',(-0.,1.,0.));
#64 = ORIENTED_EDGE('',*,*,#65,.T.);
#65 = EDGE_CURVE('',#56,#66,#68,.T.);
#66 = VERTEX_POINT('',#67);
#67 = CARTESIAN_POINT('',(90.,0.,29.));
#68 = LINE('',#69,#70);
#69 = CARTESIAN_POINT('',(0.,0.,29.));
#70 = VECTOR('',#71,1.);
#71 = DIRECTION('',(1.,0.,-0.));
#72 = ORIENTED_EDGE('',*,*,#73,.T.);
#73 = EDGE_CURVE('',#66,#74,#76,.T.);
#74 = VERTEX_POINT('',#75);
#75 = CARTESIAN_POINT('',(90.,30.,29.));
#76 = LINE('',#77,#78);
#77 = CARTESIAN_POINT('',(90.,0.,29.));
#78 = VECTOR('',#79,1.);
#79 = DIRECTION('',(-0.,1.,0.));
#80 = ORIENTED_EDGE('',*,*,#81,.F.);
#81 = EDGE_CURVE('',#58,#74,#82,.T.);
#82 = LINE('',#83,#84);
#83 = CARTESIAN_POINT('',(0.,30.,29.));
#84 = VECTOR('',#85,1.);
#85 = DIRECTION('',(1.,0.,-0.));
#86 = FACE_BOUND('',#87,.F.);
#87 = EDGE_LOOP('',(#88));
#88 = ORIENTED_EDGE('',*,*,#89,.F.);
#89 = EDGE_CURVE('',#90,#90,#92,.T.);
#90 = VERTEX_POINT('',#91);
#91 = CARTESIAN_POINT('',(10.8,15.,29.));
#92 = CIRCLE('',#93,3.3);
#93 = AXIS2_PLACEMENT_3D('',#94,#95,#96);
#94 = CARTESIAN_POINT('',(7.5,15.,29.));
#95 = DIRECTION('',(0.,0.,1.));
#96 = DIRECTION('',(1.,0.,-0.));
#97 = FACE_BOUND('',#98,.F.);
#98 = EDGE_LOOP('',(#99));
#99 = ORIENTED_EDGE('',*,*,#100,.F.);
#100 = EDGE_CURVE('',#101,#101,#103,.T.);
#101 = VERTEX_POINT('',#102);
#102 = CARTESIAN_POINT('',(85.8,15.,29.));
#103 = CIRCLE('',#104,3.3);
#104 = AXIS2_PLACEMENT_3D('',#105,#106,#107);
#105 = CARTESIAN_POINT('',(82.5,15.,29.));
#106 = DIRECTION('',(0.,0.,1.));
#107 = DIRECTION('',(1.,0.,-0.));
#108 = PLANE('',#109);
#109 = AXIS2_PLACEMENT_3D('',#110,#111,#112);
#110 = CARTESIAN_POINT('',(0.,0.,29.));
#111 = DIRECTION('',(0.,0.,1.));
#112 = DIRECTION('',(1.,0.,-0.));
#113 = ADVANCED_FACE('',(#114),#141,.F.);
#114 = FACE_BOUND('',#115,.F.);
#115 = EDGE_LOOP('',(#116,#125,#133,#140));
#116 = ORIENTED_EDGE('',*,*,#117,.T.);
#117 = EDGE_CURVE('',#22,#118,#120,.T.);
#118 = VERTEX_POINT('',#119);
#119 = CARTESIAN_POINT('',(75.,10.,27.));
#120 = ELLIPSE('',#121,2.828427124746,2.);
#121 = AXIS2_PLACEMENT_3D('',#122,#123,#124);
#122 = CARTESIAN_POINT('',(77.,8.,27.));
#123 = DIRECTION('',(-0.707106781187,-0.707106781187,0.));
#124 = DIRECTION('',(-0.707106781187,0.707106781187,0.));
#125 = ORIENTED_EDGE('',*,*,#126,.T.);
#126 = EDGE_CURVE('',#118,#127,#129,.T.);
#127 = VERTEX_POINT('',#128);
#128 = CARTESIAN_POINT('',(15.,10.,27.));
#129 = LINE('',#130,#131);
#130 = CARTESIAN_POINT('',(75.,10.,27.));
#131 = VECTOR('',#132,1.);
#132 = DIRECTION('',(-1.,-0.,0.));
#133 = ORIENTED_EDGE('',*,*,#134,.F.);
#134 = EDGE_CURVE('',#24,#127,#135,.T.);
#135 = ELLIPSE('',#136,2.828427124746,2.);
#136 = AXIS2_PLACEMENT_3D('',#137,#138,#139);
#137 = CARTESIAN_POINT('',(13.,8.,27.));
#138 = DIRECTION('',(-0.707106781187,0.707106781187,0.));
#139 = DIRECTION('',(-0.707106781187,-0.707106781187,0.));
#140 = ORIENTED_EDGE('',*,*,#21,.F.);
#141 = CYLINDRICAL_SURFACE('',#142,2.);
#142 = AXIS2_PLACEMENT_3D('',#143,#144,#145);
#143 = CARTESIAN_POINT('',(75.,8.,27.));
#144 = DIRECTION('',(-1.,-0.,0.));
#145 = DIRECTION('',(0.,0.,1.));
#146 = ADVANCED_FACE('',(#147),#166,.F.);
#147 = FACE_BOUND('',#148,.T.);
#148 = EDGE_LOOP('',(#149,#150,#158,#165));
#149 = ORIENTED_EDGE('',*,*,#117,.T.);
#150 = ORIENTED_EDGE('',*,*,#151,.T.);
#151 = EDGE_CURVE('',#118,#152,#154,.T.);
#152 = VERTEX_POINT('',#153);
#153 = CARTESIAN_POINT('',(75.,27.,27.));
#154 = LINE('',#155,#156);
#155 = CARTESIAN_POINT('',(75.,10.,27.));
#156 = VECTOR('',#157,1.);
#157 = DIRECTION('',(-0.,1.,0.));
#158 = ORIENTED_EDGE('',*,*,#159,.F.);
#159 = EDGE_CURVE('',#40,#152,#160,.T.);
#160 = ELLIPSE('',#161,2.828427124746,2.);
#161 = AXIS2_PLACEMENT_3D('',#162,#163,#164);
#162 = CARTESIAN_POINT('',(77.,29.,27.));
#163 = DIRECTION('',(0.707106781187,-0.707106781187,-0.));
#164 = DIRECTION('',(0.707106781187,0.707106781187,0.));
#165 = ORIENTED_EDGE('',*,*,#47,.F.);
#166 = CYLINDRICAL_SURFACE('',#167,2.);
#167 = AXIS2_PLACEMENT_3D('',#168,#169,#170);
#168 = CARTESIAN_POINT('',(77.,10.,27.));
#169 = DIRECTION('',(-0.,1.,0.));
#170 = DIRECTION('',(0.,0.,1.));
#171 = ADVANCED_FACE('',(#172),#191,.F.);
#172 = FACE_BOUND('',#173,.F.);
#173 = EDGE_LOOP('',(#174,#175,#183,#190));
#174 = ORIENTED_EDGE('',*,*,#134,.T.);
#175 = ORIENTED_EDGE('',*,*,#176,.T.);
#176 = EDGE_CURVE('',#127,#177,#179,.T.);
#177 = VERTEX_POINT('',#178);
#178 = CARTESIAN_POINT('',(15.,27.,27.));
#179 = LINE('',#180,#181);
#180 = CARTESIAN_POINT('',(15.,10.,27.));
#181 = VECTOR('',#182,1.);
#182 = DIRECTION('',(-0.,1.,0.));
#183 = ORIENTED_EDGE('',*,*,#184,.F.);
#184 = EDGE_CURVE('',#32,#177,#185,.T.);
#185 = ELLIPSE('',#186,2.828427124746,2.);
#186 = AXIS2_PLACEMENT_3D('',#187,#188,#189);
#187 = CARTESIAN_POINT('',(13.,29.,27.));
#188 = DIRECTION('',(0.707106781187,0.707106781187,0.));
#189 = DIRECTION('',(-0.707106781187,0.707106781187,0.));
#190 = ORIENTED_EDGE('',*,*,#31,.F.);
#191 = CYLINDRICAL_SURFACE('',#192,2.);
#192 = AXIS2_PLACEMENT_3D('',#193,#194,#195);
#193 = CARTESIAN_POINT('',(13.,10.,27.));
#194 = DIRECTION('',(-0.,1.,0.));
#195 = DIRECTION('',(0.,0.,1.));
#196 = ADVANCED_FACE('',(#197),#208,.F.);
#197 = FACE_BOUND('',#198,.T.);
#198 = EDGE_LOOP('',(#199,#200,#206,#207));
#199 = ORIENTED_EDGE('',*,*,#159,.T.);
#200 = ORIENTED_EDGE('',*,*,#201,.T.);
#201 = EDGE_CURVE('',#152,#177,#202,.T.);
#202 = LINE('',#203,#204);
#203 = CARTESIAN_POINT('',(75.,27.,27.));
#204 = VECTOR('',#205,1.);
#205 = DIRECTION('',(-1.,-0.,0.));
#206 = ORIENTED_EDGE('',*,*,#184,.F.);
#207 = ORIENTED_EDGE('',*,*,#39,.F.);
#208 = CYLINDRICAL_SURFACE('',#209,2.);
#209 = AXIS2_PLACEMENT_3D('',#210,#211,#212);
#210 = CARTESIAN_POINT('',(75.,29.,27.));
#211 = DIRECTION('',(-1.,-0.,0.));
#212 = DIRECTION('',(0.,0.,1.));
#213 = ADVANCED_FACE('',(#214),#239,.F.);
#214 = FACE_BOUND('',#215,.F.);
#215 = EDGE_LOOP('',(#216,#224,#225,#233));
#216 = ORIENTED_EDGE('',*,*,#217,.F.);
#217 = EDGE_CURVE('',#56,#218,#220,.T.);
#218 = VERTEX_POINT('',#219);
#219 = CARTESIAN_POINT('',(0.,0.,34.));
#220 = LINE('',#221,#222);
#221 = CARTESIAN_POINT('',(0.,0.,29.));
#222 = VECTOR('',#223,1.);
#223 = DIRECTION('',(0.,0.,1.));
#224 = ORIENTED_EDGE('',*,*,#55,.T.);
#225 = ORIENTED_EDGE('',*,*,#226,.T.);
#226 = EDGE_CURVE('',#58,#227,#229,.T.);
#227 = VERTEX_POINT('',#228);
#228 = CARTESIAN_POINT('',(0.,30.,34.));
#229 = LINE('',#230,#231);
#230 = CARTESIAN_POINT('',(0.,30.,29.));
#231 = VECTOR('',#232,1.);
#232 = DIRECTION('',(0.,0.,1.));
#233 = ORIENTED_EDGE('',*,*,#234,.F.);
#234 = EDGE_CURVE('',#218,#227,#235,.T.);
#235 = LINE('',#236,#237);
#236 = CARTESIAN_POINT('',(0.,0.,34.));
#237 = VECTOR('',#238,1.);
#238 = DIRECTION('',(-0.,1.,0.));
#239 = PLANE('',#240);
#240 = AXIS2_PLACEMENT_3D('',#241,#242,#243);
#241 = CARTESIAN_POINT('',(0.,0.,29.));
#242 = DIRECTION('',(1.,0.,-0.));
#243 = DIRECTION('',(0.,0.,1.));
#244 = ADVANCED_FACE('',(#245),#263,.T.);
#245 = FACE_BOUND('',#246,.T.);
#246 = EDGE_LOOP('',(#247,#248,#249,#257));
#247 = ORIENTED_EDGE('',*,*,#81,.F.);
#248 = ORIENTED_EDGE('',*,*,#226,.T.);
#249 = ORIENTED_EDGE('',*,*,#250,.T.);
#250 = EDGE_CURVE('',#227,#251,#253,.T.);
#251 = VERTEX_POINT('',#252);
#252 = CARTESIAN_POINT('',(90.,30.,34.));
#253 = LINE('',#254,#255);
#254 = CARTESIAN_POINT('',(0.,30.,34.));
#255 = VECTOR('',#256,1.);
#256 = DIRECTION('',(1.,0.,-0.));
#257 = ORIENTED_EDGE('',*,*,#258,.F.);
#258 = EDGE_CURVE('',#74,#251,#259,.T.);
#259 = LINE('',#260,#261);
#260 = CARTESIAN_POINT('',(90.,30.,29.));
#261 = VECTOR('',#262,1.);
#262 = DIRECTION('',(0.,0.,1.));
#263 = PLANE('',#264);
#264 = AXIS2_PLACEMENT_3D('',#265,#266,#267);
#265 = CARTESIAN_POINT('',(0.,30.,29.));
#266 = DIRECTION('',(-0.,1.,0.));
#267 = DIRECTION('',(0.,0.,1.));
#268 = ADVANCED_FACE('',(#269),#287,.F.);
#269 = FACE_BOUND('',#270,.F.);
#270 = EDGE_LOOP('',(#271,#272,#273,#281));
#271 = ORIENTED_EDGE('',*,*,#65,.F.);
#272 = ORIENTED_EDGE('',*,*,#217,.T.);
#273 = ORIENTED_EDGE('',*,*,#274,.T.);
#274 = EDGE_CURVE('',#218,#275,#277,.T.);
#275 = VERTEX_POINT('',#276);
#276 = CARTESIAN_POINT('',(90.,0.,34.));
#277 = LINE('',#278,#279);
#278 = CARTESIAN_POINT('',(0.,0.,34.));
#279 = VECTOR('',#280,1.);
#280 = DIRECTION('',(1.,0.,-0.));
#281 = ORIENTED_EDGE('',*,*,#282,.F.);
#282 = EDGE_CURVE('',#66,#275,#283,.T.);
#283 = LINE('',#284,#285);
#284 = CARTESIAN_POINT('',(90.,0.,29.));
#285 = VECTOR('',#286,1.);
#286 = DIRECTION('',(0.,0.,1.));
#287 = PLANE('',#288);
#288 = AXIS2_PLACEMENT_3D('',#289,#290,#291);
#289 = CARTESIAN_POINT('',(0.,0.,29.));
#290 = DIRECTION('',(-0.,1.,0.));
#291 = DIRECTION('',(0.,0.,1.));
#292 = ADVANCED_FACE('',(#293),#304,.T.);
#293 = FACE_BOUND('',#294,.T.);
#294 = EDGE_LOOP('',(#295,#296,#297,#298));
#295 = ORIENTED_EDGE('',*,*,#282,.F.);
#296 = ORIENTED_EDGE('',*,*,#73,.T.);
#297 = ORIENTED_EDGE('',*,*,#258,.T.);
#298 = ORIENTED_EDGE('',*,*,#299,.F.);
#299 = EDGE_CURVE('',#275,#251,#300,.T.);
#300 = LINE('',#301,#302);
#301 = CARTESIAN_POINT('',(90.,0.,34.));
#302 = VECTOR('',#303,1.);
#303 = DIRECTION('',(-0.,1.,0.));
#304 = PLANE('',#305);
#305 = AXIS2_PLACEMENT_3D('',#306,#307,#308);
#306 = CARTESIAN_POINT('',(90.,0.,29.));
#307 = DIRECTION('',(1.,0.,-0.));
#308 = DIRECTION('',(0.,0.,1.));
#309 = ADVANCED_FACE('',(#310),#329,.F.);
#310 = FACE_BOUND('',#311,.F.);
#311 = EDGE_LOOP('',(#312,#321,#327,#328));
#312 = ORIENTED_EDGE('',*,*,#313,.F.);
#313 = EDGE_CURVE('',#314,#314,#316,.T.);
#314 = VERTEX_POINT('',#315);
#315 = CARTESIAN_POINT('',(10.8,15.,34.));
#316 = CIRCLE('',#317,3.3);
#317 = AXIS2_PLACEMENT_3D('',#318,#319,#320);
#318 = CARTESIAN_POINT('',(7.5,15.,34.));
#319 = DIRECTION('',(0.,0.,1.));
#320 = DIRECTION('',(1.,0.,-0.));
#321 = ORIENTED_EDGE('',*,*,#322,.F.);
#322 = EDGE_CURVE('',#90,#314,#323,.T.);
#323 = LINE('',#324,#325);
#324 = CARTESIAN_POINT('',(10.8,15.,28.));
#325 = VECTOR('',#326,1.);
#326 = DIRECTION('',(0.,0.,1.));
#327 = ORIENTED_EDGE('',*,*,#89,.T.);
#328 = ORIENTED_EDGE('',*,*,#322,.T.);
#329 = CYLINDRICAL_SURFACE('',#330,3.3);
#330 = AXIS2_PLACEMENT_3D('',#331,#332,#333);
#331 = CARTESIAN_POINT('',(7.5,15.,28.));
#332 = DIRECTION('',(0.,0.,1.));
#333 = DIRECTION('',(1.,0.,-0.));
#334 = ADVANCED_FACE('',(#335),#354,.F.);
#335 = FACE_BOUND('',#336,.F.);
#336 = EDGE_LOOP('',(#337,#346,#352,#353));
#337 = ORIENTED_EDGE('',*,*,#338,.F.);
#338 = EDGE_CURVE('',#339,#339,#341,.T.);
#339 = VERTEX_POINT('',#340);
#340 = CARTESIAN_POINT('',(85.8,15.,34.));
#341 = CIRCLE('',#342,3.3);
#342 = AXIS2_PLACEMENT_3D('',#343,#344,#345);
#343 = CARTESIAN_POINT('',(82.5,15.,34.));
#344 = DIRECTION('',(0.,0.,1.));
#345 = DIRECTION('',(1.,0.,-0.));
#346 = ORIENTED_EDGE('',*,*,#347,.F.);
#347 = EDGE_CURVE('',#101,#339,#348,.T.);
#348 = LINE('',#349,#350);
#349 = CARTESIAN_POINT('',(85.8,15.,28.));
#350 = VECTOR('',#351,1.);
#351 = DIRECTION('',(0.,0.,1.));
#352 = ORIENTED_EDGE('',*,*,#100,.T.);
#353 = ORIENTED_EDGE('',*,*,#347,.T.);
#354 = CYLINDRICAL_SURFACE('',#355,3.3);
#355 = AXIS2_PLACEMENT_3D('',#356,#357,#358);
#356 = CARTESIAN_POINT('',(82.5,15.,28.));
#357 = DIRECTION('',(0.,0.,1.));
#358 = DIRECTION('',(1.,0.,-0.));
#359 = ADVANCED_FACE('',(#360,#459,#470,#481),#492,.F.);
#360 = FACE_BOUND('',#361,.F.);
#361 = EDGE_LOOP('',(#362,#370,#378,#386,#394,#402,#411,#420,#428,#436,
    #444,#452,#458));
#362 = ORIENTED_EDGE('',*,*,#363,.F.);
#363 = EDGE_CURVE('',#364,#118,#366,.T.);
#364 = VERTEX_POINT('',#365);
#365 = CARTESIAN_POINT('',(75.,10.,0.));
#366 = LINE('',#367,#368);
#367 = CARTESIAN_POINT('',(75.,10.,0.));
#368 = VECTOR('',#369,1.);
#369 = DIRECTION('',(0.,0.,1.));
#370 = ORIENTED_EDGE('',*,*,#371,.F.);
#371 = EDGE_CURVE('',#372,#364,#374,.T.);
#372 = VERTEX_POINT('',#373);
#373 = CARTESIAN_POINT('',(49.75,10.,0.));
#374 = LINE('',#375,#376);
#375 = CARTESIAN_POINT('',(15.,10.,0.));
#376 = VECTOR('',#377,1.);
#377 = DIRECTION('',(1.,0.,-0.));
#378 = ORIENTED_EDGE('',*,*,#379,.F.);
#379 = EDGE_CURVE('',#380,#372,#382,.T.);
#380 = VERTEX_POINT('',#381);
#381 = CARTESIAN_POINT('',(49.75,10.,6.));
#382 = LINE('',#383,#384);
#383 = CARTESIAN_POINT('',(49.75,10.,-0.5));
#384 = VECTOR('',#385,1.);
#385 = DIRECTION('',(-0.,0.,-1.));
#386 = ORIENTED_EDGE('',*,*,#387,.F.);
#387 = EDGE_CURVE('',#388,#380,#390,.T.);
#388 = VERTEX_POINT('',#389);
#389 = CARTESIAN_POINT('',(48.5,10.,6.));
#390 = LINE('',#391,#392);
#391 = CARTESIAN_POINT('',(27.625,10.,6.));
#392 = VECTOR('',#393,1.);
#393 = DIRECTION('',(1.,0.,-0.));
#394 = ORIENTED_EDGE('',*,*,#395,.F.);
#395 = EDGE_CURVE('',#396,#388,#398,.T.);
#396 = VERTEX_POINT('',#397);
#397 = CARTESIAN_POINT('',(48.5,10.,15.35));
#398 = LINE('',#399,#400);
#399 = CARTESIAN_POINT('',(48.5,10.,-0.5));
#400 = VECTOR('',#401,1.);
#401 = DIRECTION('',(-0.,0.,-1.));
#402 = ORIENTED_EDGE('',*,*,#403,.F.);
#403 = EDGE_CURVE('',#404,#396,#406,.T.);
#404 = VERTEX_POINT('',#405);
#405 = CARTESIAN_POINT('',(45.,10.,18.85));
#406 = CIRCLE('',#407,3.5);
#407 = AXIS2_PLACEMENT_3D('',#408,#409,#410);
#408 = CARTESIAN_POINT('',(45.,10.,15.35));
#409 = DIRECTION('',(0.,1.,0.));
#410 = DIRECTION('',(0.,-0.,1.));
#411 = ORIENTED_EDGE('',*,*,#412,.F.);
#412 = EDGE_CURVE('',#413,#404,#415,.T.);
#413 = VERTEX_POINT('',#414);
#414 = CARTESIAN_POINT('',(41.5,10.,15.35));
#415 = CIRCLE('',#416,3.5);
#416 = AXIS2_PLACEMENT_3D('',#417,#418,#419);
#417 = CARTESIAN_POINT('',(45.,10.,15.35));
#418 = DIRECTION('',(0.,1.,0.));
#419 = DIRECTION('',(0.,-0.,1.));
#420 = ORIENTED_EDGE('',*,*,#421,.T.);
#421 = EDGE_CURVE('',#413,#422,#424,.T.);
#422 = VERTEX_POINT('',#423);
#423 = CARTESIAN_POINT('',(41.5,10.,6.));
#424 = LINE('',#425,#426);
#425 = CARTESIAN_POINT('',(41.5,10.,-0.5));
#426 = VECTOR('',#427,1.);
#427 = DIRECTION('',(-0.,0.,-1.));
#428 = ORIENTED_EDGE('',*,*,#429,.F.);
#429 = EDGE_CURVE('',#430,#422,#432,.T.);
#430 = VERTEX_POINT('',#431);
#431 = CARTESIAN_POINT('',(40.25,10.,6.));
#432 = LINE('',#433,#434);
#433 = CARTESIAN_POINT('',(27.625,10.,6.));
#434 = VECTOR('',#435,1.);
#435 = DIRECTION('',(1.,0.,-0.));
#436 = ORIENTED_EDGE('',*,*,#437,.T.);
#437 = EDGE_CURVE('',#430,#438,#440,.T.);
#438 = VERTEX_POINT('',#439);
#439 = CARTESIAN_POINT('',(40.25,10.,0.));
#440 = LINE('',#441,#442);
#441 = CARTESIAN_POINT('',(40.25,10.,-0.5));
#442 = VECTOR('',#443,1.);
#443 = DIRECTION('',(-0.,0.,-1.));
#444 = ORIENTED_EDGE('',*,*,#445,.F.);
#445 = EDGE_CURVE('',#446,#438,#448,.T.);
#446 = VERTEX_POINT('',#447);
#447 = CARTESIAN_POINT('',(15.,10.,0.));
#448 = LINE('',#449,#450);
#449 = CARTESIAN_POINT('',(15.,10.,0.));
#450 = VECTOR('',#451,1.);
#451 = DIRECTION('',(1.,0.,-0.));
#452 = ORIENTED_EDGE('',*,*,#453,.T.);
#453 = EDGE_CURVE('',#446,#127,#454,.T.);
#454 = LINE('',#455,#456);
#455 = CARTESIAN_POINT('',(15.,10.,0.));
#456 = VECTOR('',#457,1.);
#457 = DIRECTION('',(0.,0.,1.));
#458 = ORIENTED_EDGE('',*,*,#126,.F.);
#459 = FACE_BOUND('',#460,.F.);
#460 = EDGE_LOOP('',(#461));
#461 = ORIENTED_EDGE('',*,*,#462,.F.);
#462 = EDGE_CURVE('',#463,#463,#465,.T.);
#463 = VERTEX_POINT('',#464);
#464 = CARTESIAN_POINT('',(38.418206931238,10.,12.95));
#465 = CIRCLE('',#466,1.4);
#466 = AXIS2_PLACEMENT_3D('',#467,#468,#469);
#467 = CARTESIAN_POINT('',(38.418206931238,10.,11.55));
#468 = DIRECTION('',(0.,1.,0.));
#469 = DIRECTION('',(0.,-0.,1.));
#470 = FACE_BOUND('',#471,.F.);
#471 = EDGE_LOOP('',(#472));
#472 = ORIENTED_EDGE('',*,*,#473,.F.);
#473 = EDGE_CURVE('',#474,#474,#476,.T.);
#474 = VERTEX_POINT('',#475);
#475 = CARTESIAN_POINT('',(51.581793068762,10.,12.95));
#476 = CIRCLE('',#477,1.4);
#477 = AXIS2_PLACEMENT_3D('',#478,#479,#480);
#478 = CARTESIAN_POINT('',(51.581793068762,10.,11.55));
#479 = DIRECTION('',(0.,1.,0.));
#480 = DIRECTION('',(0.,-0.,1.));
#481 = FACE_BOUND('',#482,.F.);
#482 = EDGE_LOOP('',(#483));
#483 = ORIENTED_EDGE('',*,*,#484,.F.);
#484 = EDGE_CURVE('',#485,#485,#487,.T.);
#485 = VERTEX_POINT('',#486);
#486 = CARTESIAN_POINT('',(45.,10.,24.35));
#487 = CIRCLE('',#488,1.4);
#488 = AXIS2_PLACEMENT_3D('',#489,#490,#491);
#489 = CARTESIAN_POINT('',(45.,10.,22.95));
#490 = DIRECTION('',(0.,1.,0.));
#491 = DIRECTION('',(0.,-0.,1.));
#492 = PLANE('',#493);
#493 = AXIS2_PLACEMENT_3D('',#494,#495,#496);
#494 = CARTESIAN_POINT('',(15.,10.,0.));
#495 = DIRECTION('',(-0.,1.,0.));
#496 = DIRECTION('',(0.,0.,1.));
#497 = ADVANCED_FACE('',(#498),#516,.T.);
#498 = FACE_BOUND('',#499,.T.);
#499 = EDGE_LOOP('',(#500,#501,#509,#515));
#500 = ORIENTED_EDGE('',*,*,#363,.F.);
#501 = ORIENTED_EDGE('',*,*,#502,.T.);
#502 = EDGE_CURVE('',#364,#503,#505,.T.);
#503 = VERTEX_POINT('',#504);
#504 = CARTESIAN_POINT('',(75.,27.,0.));
#505 = LINE('',#506,#507);
#506 = CARTESIAN_POINT('',(75.,10.,0.));
#507 = VECTOR('',#508,1.);
#508 = DIRECTION('',(-0.,1.,0.));
#509 = ORIENTED_EDGE('',*,*,#510,.T.);
#510 = EDGE_CURVE('',#503,#152,#511,.T.);
#511 = LINE('',#512,#513);
#512 = CARTESIAN_POINT('',(75.,27.,0.));
#513 = VECTOR('',#514,1.);
#514 = DIRECTION('',(0.,0.,1.));
#515 = ORIENTED_EDGE('',*,*,#151,.F.);
#516 = PLANE('',#517);
#517 = AXIS2_PLACEMENT_3D('',#518,#519,#520);
#518 = CARTESIAN_POINT('',(75.,10.,0.));
#519 = DIRECTION('',(1.,0.,-0.));
#520 = DIRECTION('',(0.,0.,1.));
#521 = ADVANCED_FACE('',(#522),#540,.F.);
#522 = FACE_BOUND('',#523,.F.);
#523 = EDGE_LOOP('',(#524,#525,#533,#539));
#524 = ORIENTED_EDGE('',*,*,#453,.F.);
#525 = ORIENTED_EDGE('',*,*,#526,.T.);
#526 = EDGE_CURVE('',#446,#527,#529,.T.);
#527 = VERTEX_POINT('',#528);
#528 = CARTESIAN_POINT('',(15.,27.,0.));
#529 = LINE('',#530,#531);
#530 = CARTESIAN_POINT('',(15.,10.,0.));
#531 = VECTOR('',#532,1.);
#532 = DIRECTION('',(-0.,1.,0.));
#533 = ORIENTED_EDGE('',*,*,#534,.T.);
#534 = EDGE_CURVE('',#527,#177,#535,.T.);
#535 = LINE('',#536,#537);
#536 = CARTESIAN_POINT('',(15.,27.,0.));
#537 = VECTOR('',#538,1.);
#538 = DIRECTION('',(0.,0.,1.));
#539 = ORIENTED_EDGE('',*,*,#176,.F.);
#540 = PLANE('',#541);
#541 = AXIS2_PLACEMENT_3D('',#542,#543,#544);
#542 = CARTESIAN_POINT('',(15.,10.,0.));
#543 = DIRECTION('',(1.,0.,-0.));
#544 = DIRECTION('',(0.,0.,1.));
#545 = ADVANCED_FACE('',(#546),#712,.T.);
#546 = FACE_BOUND('',#547,.T.);
#547 = EDGE_LOOP('',(#548,#549,#557,#565,#573,#582,#591,#600,#608,#617,
    #626,#635,#644,#653,#661,#670,#679,#688,#696,#704,#710,#711));
#548 = ORIENTED_EDGE('',*,*,#510,.F.);
#549 = ORIENTED_EDGE('',*,*,#550,.F.);
#550 = EDGE_CURVE('',#551,#503,#553,.T.);
#551 = VERTEX_POINT('',#552);
#552 = CARTESIAN_POINT('',(49.75,27.,0.));
#553 = LINE('',#554,#555);
#554 = CARTESIAN_POINT('',(15.,27.,0.));
#555 = VECTOR('',#556,1.);
#556 = DIRECTION('',(1.,0.,-0.));
#557 = ORIENTED_EDGE('',*,*,#558,.F.);
#558 = EDGE_CURVE('',#559,#551,#561,.T.);
#559 = VERTEX_POINT('',#560);
#560 = CARTESIAN_POINT('',(49.75,27.,7.1));
#561 = LINE('',#562,#563);
#562 = CARTESIAN_POINT('',(49.75,27.,-0.5));
#563 = VECTOR('',#564,1.);
#564 = DIRECTION('',(-0.,0.,-1.));
#565 = ORIENTED_EDGE('',*,*,#566,.T.);
#566 = EDGE_CURVE('',#559,#567,#569,.T.);
#567 = VERTEX_POINT('',#568);
#568 = CARTESIAN_POINT('',(50.058903043151,27.,7.1));
#569 = LINE('',#570,#571);
#570 = CARTESIAN_POINT('',(47.5,27.,7.1));
#571 = VECTOR('',#572,1.);
#572 = DIRECTION('',(1.,0.,0.));
#573 = ORIENTED_EDGE('',*,*,#574,.F.);
#574 = EDGE_CURVE('',#575,#567,#577,.T.);
#575 = VERTEX_POINT('',#576);
#576 = CARTESIAN_POINT('',(52.532642005586,27.,9.238592272178));
#577 = CIRCLE('',#578,2.5);
#578 = AXIS2_PLACEMENT_3D('',#579,#580,#581);
#579 = CARTESIAN_POINT('',(50.058903043151,27.,9.6));
#580 = DIRECTION('',(0.,1.,0.));
#581 = DIRECTION('',(0.,-0.,1.));
#582 = ORIENTED_EDGE('',*,*,#583,.T.);
#583 = EDGE_CURVE('',#575,#584,#586,.T.);
#584 = VERTEX_POINT('',#585);
#585 = CARTESIAN_POINT('',(54.058955347971,27.,11.88224452946));
#586 = CIRCLE('',#587,9.7);
#587 = AXIS2_PLACEMENT_3D('',#588,#589,#590);
#588 = CARTESIAN_POINT('',(45.,27.,15.35));
#589 = DIRECTION('',(4.473221495647E-33,-1.,-2.22044604925E-16));
#590 = DIRECTION('',(0.681401770154,1.625165726727E-16,-0.73190957613));
#591 = ORIENTED_EDGE('',*,*,#592,.F.);
#592 = EDGE_CURVE('',#593,#584,#595,.T.);
#593 = VERTEX_POINT('',#594);
#594 = CARTESIAN_POINT('',(54.674161102797,27.,15.093861449349));
#595 = CIRCLE('',#596,2.5);
#596 = AXIS2_PLACEMENT_3D('',#597,#598,#599);
#597 = CARTESIAN_POINT('',(52.509097593336,27.,13.843861449349));
#598 = DIRECTION('',(0.,1.,0.));
#599 = DIRECTION('',(0.,-0.,1.));
#600 = ORIENTED_EDGE('',*,*,#601,.T.);
#601 = EDGE_CURVE('',#593,#602,#604,.T.);
#602 = VERTEX_POINT('',#603);
#603 = CARTESIAN_POINT('',(49.615258059646,27.,23.856138550651));
#604 = LINE('',#605,#606);
#605 = CARTESIAN_POINT('',(54.674161102797,27.,15.093861449349));
#606 = VECTOR('',#607,1.);
#607 = DIRECTION('',(-0.5,-1.922962686384E-16,0.866025403784));
#608 = ORIENTED_EDGE('',*,*,#609,.F.);
#609 = EDGE_CURVE('',#610,#602,#612,.T.);
#610 = VERTEX_POINT('',#611);
#611 = CARTESIAN_POINT('',(47.450194550185,27.,25.106138550651));
#612 = CIRCLE('',#613,2.5);
#613 = AXIS2_PLACEMENT_3D('',#614,#615,#616);
#614 = CARTESIAN_POINT('',(47.450194550185,27.,22.606138550651));
#615 = DIRECTION('',(0.,1.,0.));
#616 = DIRECTION('',(0.,-0.,1.));
#617 = ORIENTED_EDGE('',*,*,#618,.F.);
#618 = EDGE_CURVE('',#619,#610,#621,.T.);
#619 = VERTEX_POINT('',#620);
#620 = CARTESIAN_POINT('',(46.526313342385,27.,24.929163198362));
#621 = CIRCLE('',#622,2.5);
#622 = AXIS2_PLACEMENT_3D('',#623,#624,#625);
#623 = CARTESIAN_POINT('',(47.450194550185,27.,22.606138550651));
#624 = DIRECTION('',(0.,1.,0.));
#625 = DIRECTION('',(0.,-0.,1.));
#626 = ORIENTED_EDGE('',*,*,#627,.T.);
#627 = EDGE_CURVE('',#619,#628,#630,.T.);
#628 = VERTEX_POINT('',#629);
#629 = CARTESIAN_POINT('',(43.473686657615,27.,24.929163198362));
#630 = CIRCLE('',#631,9.7);
#631 = AXIS2_PLACEMENT_3D('',#632,#633,#634);
#632 = CARTESIAN_POINT('',(45.,27.,15.35));
#633 = DIRECTION('',(-2.672331468585E-33,-1.,-2.22044604925E-16));
#634 = DIRECTION('',(0.293151401125,-2.122893041805E-16,0.956066031202)
  );
#635 = ORIENTED_EDGE('',*,*,#636,.F.);
#636 = EDGE_CURVE('',#637,#628,#639,.T.);
#637 = VERTEX_POINT('',#638);
#638 = CARTESIAN_POINT('',(42.549805449815,27.,25.106138550651));
#639 = CIRCLE('',#640,2.5);
#640 = AXIS2_PLACEMENT_3D('',#641,#642,#643);
#641 = CARTESIAN_POINT('',(42.549805449815,27.,22.606138550651));
#642 = DIRECTION('',(0.,1.,0.));
#643 = DIRECTION('',(0.,-0.,1.));
#644 = ORIENTED_EDGE('',*,*,#645,.F.);
#645 = EDGE_CURVE('',#646,#637,#648,.T.);
#646 = VERTEX_POINT('',#647);
#647 = CARTESIAN_POINT('',(40.384741940354,27.,23.856138550651));
#648 = CIRCLE('',#649,2.5);
#649 = AXIS2_PLACEMENT_3D('',#650,#651,#652);
#650 = CARTESIAN_POINT('',(42.549805449815,27.,22.606138550651));
#651 = DIRECTION('',(0.,1.,0.));
#652 = DIRECTION('',(0.,-0.,1.));
#653 = ORIENTED_EDGE('',*,*,#654,.T.);
#654 = EDGE_CURVE('',#646,#655,#657,.T.);
#655 = VERTEX_POINT('',#656);
#656 = CARTESIAN_POINT('',(35.325838897203,27.,15.093861449349));
#657 = LINE('',#658,#659);
#658 = CARTESIAN_POINT('',(40.384741940354,27.,23.856138550651));
#659 = VECTOR('',#660,1.);
#660 = DIRECTION('',(-0.5,1.922962686384E-16,-0.866025403784));
#661 = ORIENTED_EDGE('',*,*,#662,.F.);
#662 = EDGE_CURVE('',#663,#655,#665,.T.);
#663 = VERTEX_POINT('',#664);
#664 = CARTESIAN_POINT('',(35.941044652029,27.,11.88224452946));
#665 = CIRCLE('',#666,2.5);
#666 = AXIS2_PLACEMENT_3D('',#667,#668,#669);
#667 = CARTESIAN_POINT('',(37.490902406664,27.,13.843861449349));
#668 = DIRECTION('',(0.,1.,0.));
#669 = DIRECTION('',(0.,-0.,1.));
#670 = ORIENTED_EDGE('',*,*,#671,.T.);
#671 = EDGE_CURVE('',#663,#672,#674,.T.);
#672 = VERTEX_POINT('',#673);
#673 = CARTESIAN_POINT('',(37.467357994414,27.,9.238592272178));
#674 = CIRCLE('',#675,9.7);
#675 = AXIS2_PLACEMENT_3D('',#676,#677,#678);
#676 = CARTESIAN_POINT('',(45.,27.,15.35));
#677 = DIRECTION('',(2.007383461135E-33,-1.,-2.22044604925E-16));
#678 = DIRECTION('',(-0.974553171279,4.97727315078E-17,-0.224156455072)
  );
#679 = ORIENTED_EDGE('',*,*,#680,.F.);
#680 = EDGE_CURVE('',#681,#672,#683,.T.);
#681 = VERTEX_POINT('',#682);
#682 = CARTESIAN_POINT('',(39.941096956849,27.,7.1));
#683 = CIRCLE('',#684,2.5);
#684 = AXIS2_PLACEMENT_3D('',#685,#686,#687);
#685 = CARTESIAN_POINT('',(39.941096956849,27.,9.6));
#686 = DIRECTION('',(0.,1.,0.));
#687 = DIRECTION('',(0.,-0.,1.));
#688 = ORIENTED_EDGE('',*,*,#689,.T.);
#689 = EDGE_CURVE('',#681,#690,#692,.T.);
#690 = VERTEX_POINT('',#691);
#691 = CARTESIAN_POINT('',(40.25,27.,7.1));
#692 = LINE('',#693,#694);
#693 = CARTESIAN_POINT('',(39.941096956849,27.,7.1));
#694 = VECTOR('',#695,1.);
#695 = DIRECTION('',(1.,-1.233123556334E-30,5.553494788808E-15));
#696 = ORIENTED_EDGE('',*,*,#697,.T.);
#697 = EDGE_CURVE('',#690,#698,#700,.T.);
#698 = VERTEX_POINT('',#699);
#699 = CARTESIAN_POINT('',(40.25,27.,0.));
#700 = LINE('',#701,#702);
#701 = CARTESIAN_POINT('',(40.25,27.,-0.5));
#702 = VECTOR('',#703,1.);
#703 = DIRECTION('',(-0.,0.,-1.));
#704 = ORIENTED_EDGE('',*,*,#705,.F.);
#705 = EDGE_CURVE('',#527,#698,#706,.T.);
#706 = LINE('',#707,#708);
#707 = CARTESIAN_POINT('',(15.,27.,0.));
#708 = VECTOR('',#709,1.);
#709 = DIRECTION('',(1.,0.,-0.));
#710 = ORIENTED_EDGE('',*,*,#534,.T.);
#711 = ORIENTED_EDGE('',*,*,#201,.F.);
#712 = PLANE('',#713);
#713 = AXIS2_PLACEMENT_3D('',#714,#715,#716);
#714 = CARTESIAN_POINT('',(15.,27.,0.));
#715 = DIRECTION('',(-0.,1.,0.));
#716 = DIRECTION('',(0.,0.,1.));
#717 = ADVANCED_FACE('',(#718,#724,#727),#730,.T.);
#718 = FACE_BOUND('',#719,.T.);
#719 = EDGE_LOOP('',(#720,#721,#722,#723));
#720 = ORIENTED_EDGE('',*,*,#234,.F.);
#721 = ORIENTED_EDGE('',*,*,#274,.T.);
#722 = ORIENTED_EDGE('',*,*,#299,.T.);
#723 = ORIENTED_EDGE('',*,*,#250,.F.);
#724 = FACE_BOUND('',#725,.T.);
#725 = EDGE_LOOP('',(#726));
#726 = ORIENTED_EDGE('',*,*,#313,.F.);
#727 = FACE_BOUND('',#728,.T.);
#728 = EDGE_LOOP('',(#729));
#729 = ORIENTED_EDGE('',*,*,#338,.F.);
#730 = PLANE('',#731);
#731 = AXIS2_PLACEMENT_3D('',#732,#733,#734);
#732 = CARTESIAN_POINT('',(0.,0.,34.));
#733 = DIRECTION('',(0.,0.,1.));
#734 = DIRECTION('',(1.,0.,-0.));
#735 = ADVANCED_FACE('',(#736),#747,.F.);
#736 = FACE_BOUND('',#737,.F.);
#737 = EDGE_LOOP('',(#738,#739,#745,#746));
#738 = ORIENTED_EDGE('',*,*,#550,.F.);
#739 = ORIENTED_EDGE('',*,*,#740,.F.);
#740 = EDGE_CURVE('',#372,#551,#741,.T.);
#741 = LINE('',#742,#743);
#742 = CARTESIAN_POINT('',(49.75,9.5,0.));
#743 = VECTOR('',#744,1.);
#744 = DIRECTION('',(-0.,1.,0.));
#745 = ORIENTED_EDGE('',*,*,#371,.T.);
#746 = ORIENTED_EDGE('',*,*,#502,.T.);
#747 = PLANE('',#748);
#748 = AXIS2_PLACEMENT_3D('',#749,#750,#751);
#749 = CARTESIAN_POINT('',(15.,10.,0.));
#750 = DIRECTION('',(0.,0.,1.));
#751 = DIRECTION('',(1.,0.,-0.));
#752 = ADVANCED_FACE('',(#753),#780,.T.);
#753 = FACE_BOUND('',#754,.T.);
#754 = EDGE_LOOP('',(#755,#763,#771,#777,#778,#779));
#755 = ORIENTED_EDGE('',*,*,#756,.T.);
#756 = EDGE_CURVE('',#380,#757,#759,.T.);
#757 = VERTEX_POINT('',#758);
#758 = CARTESIAN_POINT('',(49.75,18.,6.));
#759 = LINE('',#760,#761);
#760 = CARTESIAN_POINT('',(49.75,9.,6.));
#761 = VECTOR('',#762,1.);
#762 = DIRECTION('',(-0.,1.,0.));
#763 = ORIENTED_EDGE('',*,*,#764,.T.);
#764 = EDGE_CURVE('',#757,#765,#767,.T.);
#765 = VERTEX_POINT('',#766);
#766 = CARTESIAN_POINT('',(49.75,18.,7.1));
#767 = LINE('',#768,#769);
#768 = CARTESIAN_POINT('',(49.75,18.,-1.));
#769 = VECTOR('',#770,1.);
#770 = DIRECTION('',(0.,0.,1.));
#771 = ORIENTED_EDGE('',*,*,#772,.T.);
#772 = EDGE_CURVE('',#765,#559,#773,.T.);
#773 = LINE('',#774,#775);
#774 = CARTESIAN_POINT('',(49.75,22.5,7.1));
#775 = VECTOR('',#776,1.);
#776 = DIRECTION('',(0.,1.,2.22044604925E-16));
#777 = ORIENTED_EDGE('',*,*,#558,.T.);
#778 = ORIENTED_EDGE('',*,*,#740,.F.);
#779 = ORIENTED_EDGE('',*,*,#379,.F.);
#780 = PLANE('',#781);
#781 = AXIS2_PLACEMENT_3D('',#782,#783,#784);
#782 = CARTESIAN_POINT('',(49.75,18.682572614108,3.367427385892));
#783 = DIRECTION('',(-1.,-0.,-0.));
#784 = DIRECTION('',(0.,0.,-1.));
#785 = ADVANCED_FACE('',(#786),#797,.F.);
#786 = FACE_BOUND('',#787,.F.);
#787 = EDGE_LOOP('',(#788,#789,#790,#791));
#788 = ORIENTED_EDGE('',*,*,#705,.F.);
#789 = ORIENTED_EDGE('',*,*,#526,.F.);
#790 = ORIENTED_EDGE('',*,*,#445,.T.);
#791 = ORIENTED_EDGE('',*,*,#792,.T.);
#792 = EDGE_CURVE('',#438,#698,#793,.T.);
#793 = LINE('',#794,#795);
#794 = CARTESIAN_POINT('',(40.25,9.5,0.));
#795 = VECTOR('',#796,1.);
#796 = DIRECTION('',(-0.,1.,0.));
#797 = PLANE('',#798);
#798 = AXIS2_PLACEMENT_3D('',#799,#800,#801);
#799 = CARTESIAN_POINT('',(15.,10.,0.));
#800 = DIRECTION('',(0.,0.,1.));
#801 = DIRECTION('',(1.,0.,-0.));
#802 = ADVANCED_FACE('',(#803),#821,.F.);
#803 = FACE_BOUND('',#804,.F.);
#804 = EDGE_LOOP('',(#805,#813,#814,#815));
#805 = ORIENTED_EDGE('',*,*,#806,.T.);
#806 = EDGE_CURVE('',#807,#388,#809,.T.);
#807 = VERTEX_POINT('',#808);
#808 = CARTESIAN_POINT('',(48.5,18.,6.));
#809 = LINE('',#810,#811);
#810 = CARTESIAN_POINT('',(48.5,9.,6.));
#811 = VECTOR('',#812,1.);
#812 = DIRECTION('',(0.,-1.,0.));
#813 = ORIENTED_EDGE('',*,*,#387,.T.);
#814 = ORIENTED_EDGE('',*,*,#756,.T.);
#815 = ORIENTED_EDGE('',*,*,#816,.F.);
#816 = EDGE_CURVE('',#807,#757,#817,.T.);
#817 = LINE('',#818,#819);
#818 = CARTESIAN_POINT('',(40.25,18.,6.));
#819 = VECTOR('',#820,1.);
#820 = DIRECTION('',(1.,0.,-0.));
#821 = PLANE('',#822);
#822 = AXIS2_PLACEMENT_3D('',#823,#824,#825);
#823 = CARTESIAN_POINT('',(40.25,9.,6.));
#824 = DIRECTION('',(0.,0.,1.));
#825 = DIRECTION('',(1.,0.,-0.));
#826 = ADVANCED_FACE('',(#827),#854,.T.);
#827 = FACE_BOUND('',#828,.T.);
#828 = EDGE_LOOP('',(#829,#837,#838,#839,#840,#848));
#829 = ORIENTED_EDGE('',*,*,#830,.F.);
#830 = EDGE_CURVE('',#430,#831,#833,.T.);
#831 = VERTEX_POINT('',#832);
#832 = CARTESIAN_POINT('',(40.25,18.,6.));
#833 = LINE('',#834,#835);
#834 = CARTESIAN_POINT('',(40.25,9.,6.));
#835 = VECTOR('',#836,1.);
#836 = DIRECTION('',(-0.,1.,0.));
#837 = ORIENTED_EDGE('',*,*,#437,.T.);
#838 = ORIENTED_EDGE('',*,*,#792,.T.);
#839 = ORIENTED_EDGE('',*,*,#697,.F.);
#840 = ORIENTED_EDGE('',*,*,#841,.F.);
#841 = EDGE_CURVE('',#842,#690,#844,.T.);
#842 = VERTEX_POINT('',#843);
#843 = CARTESIAN_POINT('',(40.25,18.,7.1));
#844 = LINE('',#845,#846);
#845 = CARTESIAN_POINT('',(40.25,22.5,7.1));
#846 = VECTOR('',#847,1.);
#847 = DIRECTION('',(0.,1.,2.22044604925E-16));
#848 = ORIENTED_EDGE('',*,*,#849,.F.);
#849 = EDGE_CURVE('',#831,#842,#850,.T.);
#850 = LINE('',#851,#852);
#851 = CARTESIAN_POINT('',(40.25,18.,-1.));
#852 = VECTOR('',#853,1.);
#853 = DIRECTION('',(0.,0.,1.));
#854 = PLANE('',#855);
#855 = AXIS2_PLACEMENT_3D('',#856,#857,#858);
#856 = CARTESIAN_POINT('',(40.25,18.682572614108,3.367427385892));
#857 = DIRECTION('',(1.,0.,0.));
#858 = DIRECTION('',(-0.,0.,1.));
#859 = ADVANCED_FACE('',(#860),#878,.F.);
#860 = FACE_BOUND('',#861,.F.);
#861 = EDGE_LOOP('',(#862,#863,#864,#872));
#862 = ORIENTED_EDGE('',*,*,#395,.T.);
#863 = ORIENTED_EDGE('',*,*,#806,.F.);
#864 = ORIENTED_EDGE('',*,*,#865,.T.);
#865 = EDGE_CURVE('',#807,#866,#868,.T.);
#866 = VERTEX_POINT('',#867);
#867 = CARTESIAN_POINT('',(48.5,18.,15.35));
#868 = LINE('',#869,#870);
#869 = CARTESIAN_POINT('',(48.5,18.,-1.));
#870 = VECTOR('',#871,1.);
#871 = DIRECTION('',(0.,0.,1.));
#872 = ORIENTED_EDGE('',*,*,#873,.F.);
#873 = EDGE_CURVE('',#396,#866,#874,.T.);
#874 = LINE('',#875,#876);
#875 = CARTESIAN_POINT('',(48.5,9.,15.35));
#876 = VECTOR('',#877,1.);
#877 = DIRECTION('',(-0.,1.,0.));
#878 = PLANE('',#879);
#879 = AXIS2_PLACEMENT_3D('',#880,#881,#882);
#880 = CARTESIAN_POINT('',(48.5,9.,-1.));
#881 = DIRECTION('',(1.,0.,-0.));
#882 = DIRECTION('',(0.,0.,1.));
#883 = ADVANCED_FACE('',(#884),#902,.F.);
#884 = FACE_BOUND('',#885,.F.);
#885 = EDGE_LOOP('',(#886,#887,#888,#896));
#886 = ORIENTED_EDGE('',*,*,#830,.F.);
#887 = ORIENTED_EDGE('',*,*,#429,.T.);
#888 = ORIENTED_EDGE('',*,*,#889,.F.);
#889 = EDGE_CURVE('',#890,#422,#892,.T.);
#890 = VERTEX_POINT('',#891);
#891 = CARTESIAN_POINT('',(41.5,18.,6.));
#892 = LINE('',#893,#894);
#893 = CARTESIAN_POINT('',(41.5,9.,6.));
#894 = VECTOR('',#895,1.);
#895 = DIRECTION('',(0.,-1.,0.));
#896 = ORIENTED_EDGE('',*,*,#897,.F.);
#897 = EDGE_CURVE('',#831,#890,#898,.T.);
#898 = LINE('',#899,#900);
#899 = CARTESIAN_POINT('',(40.25,18.,6.));
#900 = VECTOR('',#901,1.);
#901 = DIRECTION('',(1.,0.,-0.));
#902 = PLANE('',#903);
#903 = AXIS2_PLACEMENT_3D('',#904,#905,#906);
#904 = CARTESIAN_POINT('',(40.25,9.,6.));
#905 = DIRECTION('',(0.,0.,1.));
#906 = DIRECTION('',(1.,0.,-0.));
#907 = ADVANCED_FACE('',(#908),#937,.F.);
#908 = FACE_BOUND('',#909,.F.);
#909 = EDGE_LOOP('',(#910,#911,#920,#929,#935,#936));
#910 = ORIENTED_EDGE('',*,*,#873,.T.);
#911 = ORIENTED_EDGE('',*,*,#912,.F.);
#912 = EDGE_CURVE('',#913,#866,#915,.T.);
#913 = VERTEX_POINT('',#914);
#914 = CARTESIAN_POINT('',(45.,18.,18.85));
#915 = CIRCLE('',#916,3.5);
#916 = AXIS2_PLACEMENT_3D('',#917,#918,#919);
#917 = CARTESIAN_POINT('',(45.,18.,15.35));
#918 = DIRECTION('',(0.,1.,0.));
#919 = DIRECTION('',(0.,-0.,1.));
#920 = ORIENTED_EDGE('',*,*,#921,.F.);
#921 = EDGE_CURVE('',#922,#913,#924,.T.);
#922 = VERTEX_POINT('',#923);
#923 = CARTESIAN_POINT('',(41.5,18.,15.35));
#924 = CIRCLE('',#925,3.5);
#925 = AXIS2_PLACEMENT_3D('',#926,#927,#928);
#926 = CARTESIAN_POINT('',(45.,18.,15.35));
#927 = DIRECTION('',(0.,1.,0.));
#928 = DIRECTION('',(0.,-0.,1.));
#929 = ORIENTED_EDGE('',*,*,#930,.F.);
#930 = EDGE_CURVE('',#413,#922,#931,.T.);
#931 = LINE('',#932,#933);
#932 = CARTESIAN_POINT('',(41.5,9.,15.35));
#933 = VECTOR('',#934,1.);
#934 = DIRECTION('',(-0.,1.,0.));
#935 = ORIENTED_EDGE('',*,*,#412,.T.);
#936 = ORIENTED_EDGE('',*,*,#403,.T.);
#937 = CYLINDRICAL_SURFACE('',#938,3.5);
#938 = AXIS2_PLACEMENT_3D('',#939,#940,#941);
#939 = CARTESIAN_POINT('',(45.,9.,15.35));
#940 = DIRECTION('',(0.,1.,0.));
#941 = DIRECTION('',(0.,-0.,1.));
#942 = ADVANCED_FACE('',(#943),#954,.T.);
#943 = FACE_BOUND('',#944,.T.);
#944 = EDGE_LOOP('',(#945,#946,#947,#953));
#945 = ORIENTED_EDGE('',*,*,#421,.T.);
#946 = ORIENTED_EDGE('',*,*,#889,.F.);
#947 = ORIENTED_EDGE('',*,*,#948,.T.);
#948 = EDGE_CURVE('',#890,#922,#949,.T.);
#949 = LINE('',#950,#951);
#950 = CARTESIAN_POINT('',(41.5,18.,-1.));
#951 = VECTOR('',#952,1.);
#952 = DIRECTION('',(0.,0.,1.));
#953 = ORIENTED_EDGE('',*,*,#930,.F.);
#954 = PLANE('',#955);
#955 = AXIS2_PLACEMENT_3D('',#956,#957,#958);
#956 = CARTESIAN_POINT('',(41.5,9.,-1.));
#957 = DIRECTION('',(1.,0.,-0.));
#958 = DIRECTION('',(0.,0.,1.));
#959 = ADVANCED_FACE('',(#960),#1015,.F.);
#960 = FACE_BOUND('',#961,.F.);
#961 = EDGE_LOOP('',(#962,#970,#979,#988,#997,#1006,#1013,#1014));
#962 = ORIENTED_EDGE('',*,*,#963,.T.);
#963 = EDGE_CURVE('',#463,#964,#966,.T.);
#964 = VERTEX_POINT('',#965);
#965 = CARTESIAN_POINT('',(38.418206931238,18.,12.95));
#966 = LINE('',#967,#968);
#967 = CARTESIAN_POINT('',(38.418206931238,9.,12.95));
#968 = VECTOR('',#969,1.);
#969 = DIRECTION('',(0.,1.,0.));
#970 = ORIENTED_EDGE('',*,*,#971,.F.);
#971 = EDGE_CURVE('',#972,#964,#974,.T.);
#972 = VERTEX_POINT('',#973);
#973 = CARTESIAN_POINT('',(37.027711203629,18.,11.387145366968));
#974 = CIRCLE('',#975,1.4);
#975 = AXIS2_PLACEMENT_3D('',#976,#977,#978);
#976 = CARTESIAN_POINT('',(38.418206931238,18.,11.55));
#977 = DIRECTION('',(0.,1.,0.));
#978 = DIRECTION('',(0.,-0.,1.));
#979 = ORIENTED_EDGE('',*,*,#980,.F.);
#980 = EDGE_CURVE('',#981,#972,#983,.T.);
#981 = VERTEX_POINT('',#982);
#982 = CARTESIAN_POINT('',(37.581922818104,18.,10.427222692553));
#983 = CIRCLE('',#984,1.4);
#984 = AXIS2_PLACEMENT_3D('',#985,#986,#987);
#985 = CARTESIAN_POINT('',(38.418206931238,18.,11.55));
#986 = DIRECTION('',(0.,1.,0.));
#987 = DIRECTION('',(0.,-0.,1.));
#988 = ORIENTED_EDGE('',*,*,#989,.F.);
#989 = EDGE_CURVE('',#990,#981,#992,.T.);
#990 = VERTEX_POINT('',#991);
#991 = CARTESIAN_POINT('',(39.710160431752,18.,12.089310812529));
#992 = CIRCLE('',#993,1.4);
#993 = AXIS2_PLACEMENT_3D('',#994,#995,#996);
#994 = CARTESIAN_POINT('',(38.418206931238,18.,11.55));
#995 = DIRECTION('',(0.,1.,0.));
#996 = DIRECTION('',(0.,-0.,1.));
#997 = ORIENTED_EDGE('',*,*,#998,.F.);
#998 = EDGE_CURVE('',#999,#990,#1001,.T.);
#999 = VERTEX_POINT('',#1000);
#1000 = CARTESIAN_POINT('',(39.531240545681,18.,12.399209145688));
#1001 = CIRCLE('',#1002,1.4);
#1002 = AXIS2_PLACEMENT_3D('',#1003,#1004,#1005);
#1003 = CARTESIAN_POINT('',(38.418206931238,18.,11.55));
#1004 = DIRECTION('',(0.,1.,0.));
#1005 = DIRECTION('',(0.,-0.,1.));
#1006 = ORIENTED_EDGE('',*,*,#1007,.F.);
#1007 = EDGE_CURVE('',#964,#999,#1008,.T.);
#1008 = CIRCLE('',#1009,1.4);
#1009 = AXIS2_PLACEMENT_3D('',#1010,#1011,#1012);
#1010 = CARTESIAN_POINT('',(38.418206931238,18.,11.55));
#1011 = DIRECTION('',(0.,1.,0.));
#1012 = DIRECTION('',(0.,-0.,1.));
#1013 = ORIENTED_EDGE('',*,*,#963,.F.);
#1014 = ORIENTED_EDGE('',*,*,#462,.T.);
#1015 = CYLINDRICAL_SURFACE('',#1016,1.4);
#1016 = AXIS2_PLACEMENT_3D('',#1017,#1018,#1019);
#1017 = CARTESIAN_POINT('',(38.418206931238,9.,11.55));
#1018 = DIRECTION('',(0.,1.,0.));
#1019 = DIRECTION('',(0.,-0.,1.));
#1020 = ADVANCED_FACE('',(#1021),#1076,.F.);
#1021 = FACE_BOUND('',#1022,.F.);
#1022 = EDGE_LOOP('',(#1023,#1031,#1040,#1049,#1058,#1067,#1074,#1075));
#1023 = ORIENTED_EDGE('',*,*,#1024,.T.);
#1024 = EDGE_CURVE('',#474,#1025,#1027,.T.);
#1025 = VERTEX_POINT('',#1026);
#1026 = CARTESIAN_POINT('',(51.581793068762,18.,12.95));
#1027 = LINE('',#1028,#1029);
#1028 = CARTESIAN_POINT('',(51.581793068762,9.,12.95));
#1029 = VECTOR('',#1030,1.);
#1030 = DIRECTION('',(0.,1.,0.));
#1031 = ORIENTED_EDGE('',*,*,#1032,.F.);
#1032 = EDGE_CURVE('',#1033,#1025,#1035,.T.);
#1033 = VERTEX_POINT('',#1034);
#1034 = CARTESIAN_POINT('',(50.468759454319,18.,12.399209145688));
#1035 = CIRCLE('',#1036,1.4);
#1036 = AXIS2_PLACEMENT_3D('',#1037,#1038,#1039);
#1037 = CARTESIAN_POINT('',(51.581793068762,18.,11.55));
#1038 = DIRECTION('',(0.,1.,0.));
#1039 = DIRECTION('',(0.,-0.,1.));
#1040 = ORIENTED_EDGE('',*,*,#1041,.F.);
#1041 = EDGE_CURVE('',#1042,#1033,#1044,.T.);
#1042 = VERTEX_POINT('',#1043);
#1043 = CARTESIAN_POINT('',(50.289839568248,18.,12.089310812529));
#1044 = CIRCLE('',#1045,1.4);
#1045 = AXIS2_PLACEMENT_3D('',#1046,#1047,#1048);
#1046 = CARTESIAN_POINT('',(51.581793068762,18.,11.55));
#1047 = DIRECTION('',(0.,1.,0.));
#1048 = DIRECTION('',(0.,-0.,1.));
#1049 = ORIENTED_EDGE('',*,*,#1050,.F.);
#1050 = EDGE_CURVE('',#1051,#1042,#1053,.T.);
#1051 = VERTEX_POINT('',#1052);
#1052 = CARTESIAN_POINT('',(52.418077181896,18.,10.427222692553));
#1053 = CIRCLE('',#1054,1.4);
#1054 = AXIS2_PLACEMENT_3D('',#1055,#1056,#1057);
#1055 = CARTESIAN_POINT('',(51.581793068762,18.,11.55));
#1056 = DIRECTION('',(0.,1.,0.));
#1057 = DIRECTION('',(0.,-0.,1.));
#1058 = ORIENTED_EDGE('',*,*,#1059,.F.);
#1059 = EDGE_CURVE('',#1060,#1051,#1062,.T.);
#1060 = VERTEX_POINT('',#1061);
#1061 = CARTESIAN_POINT('',(52.972288796371,18.,11.387145366968));
#1062 = CIRCLE('',#1063,1.4);
#1063 = AXIS2_PLACEMENT_3D('',#1064,#1065,#1066);
#1064 = CARTESIAN_POINT('',(51.581793068762,18.,11.55));
#1065 = DIRECTION('',(0.,1.,0.));
#1066 = DIRECTION('',(0.,-0.,1.));
#1067 = ORIENTED_EDGE('',*,*,#1068,.F.);
#1068 = EDGE_CURVE('',#1025,#1060,#1069,.T.);
#1069 = CIRCLE('',#1070,1.4);
#1070 = AXIS2_PLACEMENT_3D('',#1071,#1072,#1073);
#1071 = CARTESIAN_POINT('',(51.581793068762,18.,11.55));
#1072 = DIRECTION('',(0.,1.,0.));
#1073 = DIRECTION('',(0.,-0.,1.));
#1074 = ORIENTED_EDGE('',*,*,#1024,.F.);
#1075 = ORIENTED_EDGE('',*,*,#473,.T.);
#1076 = CYLINDRICAL_SURFACE('',#1077,1.4);
#1077 = AXIS2_PLACEMENT_3D('',#1078,#1079,#1080);
#1078 = CARTESIAN_POINT('',(51.581793068762,9.,11.55));
#1079 = DIRECTION('',(0.,1.,0.));
#1080 = DIRECTION('',(0.,-0.,1.));
#1081 = ADVANCED_FACE('',(#1082),#1137,.F.);
#1082 = FACE_BOUND('',#1083,.F.);
#1083 = EDGE_LOOP('',(#1084,#1092,#1101,#1110,#1119,#1128,#1135,#1136));
#1084 = ORIENTED_EDGE('',*,*,#1085,.T.);
#1085 = EDGE_CURVE('',#485,#1086,#1088,.T.);
#1086 = VERTEX_POINT('',#1087);
#1087 = CARTESIAN_POINT('',(45.,18.,24.35));
#1088 = LINE('',#1089,#1090);
#1089 = CARTESIAN_POINT('',(45.,9.,24.35));
#1090 = VECTOR('',#1091,1.);
#1091 = DIRECTION('',(0.,1.,0.));
#1092 = ORIENTED_EDGE('',*,*,#1093,.F.);
#1093 = EDGE_CURVE('',#1094,#1086,#1096,.T.);
#1094 = VERTEX_POINT('',#1095);
#1095 = CARTESIAN_POINT('',(44.445788385525,18.,24.23563194048));
#1096 = CIRCLE('',#1097,1.4);
#1097 = AXIS2_PLACEMENT_3D('',#1098,#1099,#1100);
#1098 = CARTESIAN_POINT('',(45.,18.,22.95));
#1099 = DIRECTION('',(0.,1.,0.));
#1100 = DIRECTION('',(0.,-0.,1.));
#1101 = ORIENTED_EDGE('',*,*,#1102,.F.);
#1102 = EDGE_CURVE('',#1103,#1094,#1105,.T.);
#1103 = VERTEX_POINT('',#1104);
#1104 = CARTESIAN_POINT('',(44.821080113929,18.,21.561480041782));
#1105 = CIRCLE('',#1106,1.4);
#1106 = AXIS2_PLACEMENT_3D('',#1107,#1108,#1109);
#1107 = CARTESIAN_POINT('',(45.,18.,22.95));
#1108 = DIRECTION('',(0.,1.,0.));
#1109 = DIRECTION('',(0.,-0.,1.));
#1110 = ORIENTED_EDGE('',*,*,#1111,.F.);
#1111 = EDGE_CURVE('',#1112,#1103,#1114,.T.);
#1112 = VERTEX_POINT('',#1113);
#1113 = CARTESIAN_POINT('',(45.178919886071,18.,21.561480041782));
#1114 = CIRCLE('',#1115,1.4);
#1115 = AXIS2_PLACEMENT_3D('',#1116,#1117,#1118);
#1116 = CARTESIAN_POINT('',(45.,18.,22.95));
#1117 = DIRECTION('',(0.,1.,0.));
#1118 = DIRECTION('',(0.,-0.,1.));
#1119 = ORIENTED_EDGE('',*,*,#1120,.F.);
#1120 = EDGE_CURVE('',#1121,#1112,#1123,.T.);
#1121 = VERTEX_POINT('',#1122);
#1122 = CARTESIAN_POINT('',(45.554211614475,18.,24.23563194048));
#1123 = CIRCLE('',#1124,1.4);
#1124 = AXIS2_PLACEMENT_3D('',#1125,#1126,#1127);
#1125 = CARTESIAN_POINT('',(45.,18.,22.95));
#1126 = DIRECTION('',(0.,1.,0.));
#1127 = DIRECTION('',(0.,-0.,1.));
#1128 = ORIENTED_EDGE('',*,*,#1129,.F.);
#1129 = EDGE_CURVE('',#1086,#1121,#1130,.T.);
#1130 = CIRCLE('',#1131,1.4);
#1131 = AXIS2_PLACEMENT_3D('',#1132,#1133,#1134);
#1132 = CARTESIAN_POINT('',(45.,18.,22.95));
#1133 = DIRECTION('',(0.,1.,0.));
#1134 = DIRECTION('',(0.,-0.,1.));
#1135 = ORIENTED_EDGE('',*,*,#1085,.F.);
#1136 = ORIENTED_EDGE('',*,*,#484,.T.);
#1137 = CYLINDRICAL_SURFACE('',#1138,1.4);
#1138 = AXIS2_PLACEMENT_3D('',#1139,#1140,#1141);
#1139 = CARTESIAN_POINT('',(45.,9.,22.95));
#1140 = DIRECTION('',(0.,1.,0.));
#1141 = DIRECTION('',(0.,-0.,1.));
#1142 = ADVANCED_FACE('',(#1143),#1161,.T.);
#1143 = FACE_BOUND('',#1144,.T.);
#1144 = EDGE_LOOP('',(#1145,#1146,#1147,#1155));
#1145 = ORIENTED_EDGE('',*,*,#566,.F.);
#1146 = ORIENTED_EDGE('',*,*,#772,.F.);
#1147 = ORIENTED_EDGE('',*,*,#1148,.T.);
#1148 = EDGE_CURVE('',#765,#1149,#1151,.T.);
#1149 = VERTEX_POINT('',#1150);
#1150 = CARTESIAN_POINT('',(50.058903043151,18.,7.1));
#1151 = LINE('',#1152,#1153);
#1152 = CARTESIAN_POINT('',(47.5,18.,7.1));
#1153 = VECTOR('',#1154,1.);
#1154 = DIRECTION('',(1.,0.,0.));
#1155 = ORIENTED_EDGE('',*,*,#1156,.F.);
#1156 = EDGE_CURVE('',#567,#1149,#1157,.T.);
#1157 = LINE('',#1158,#1159);
#1158 = CARTESIAN_POINT('',(50.058903043151,27.,7.1));
#1159 = VECTOR('',#1160,1.);
#1160 = DIRECTION('',(0.,-1.,-2.22044604925E-16));
#1161 = PLANE('',#1162);
#1162 = AXIS2_PLACEMENT_3D('',#1163,#1164,#1165);
#1163 = CARTESIAN_POINT('',(47.5,27.,7.1));
#1164 = DIRECTION('',(0.,-2.22044604925E-16,1.));
#1165 = DIRECTION('',(1.,0.,0.));
#1166 = ADVANCED_FACE('',(#1167),#1186,.F.);
#1167 = FACE_BOUND('',#1168,.F.);
#1168 = EDGE_LOOP('',(#1169,#1170,#1171,#1179));
#1169 = ORIENTED_EDGE('',*,*,#1156,.F.);
#1170 = ORIENTED_EDGE('',*,*,#574,.F.);
#1171 = ORIENTED_EDGE('',*,*,#1172,.F.);
#1172 = EDGE_CURVE('',#1173,#575,#1175,.T.);
#1173 = VERTEX_POINT('',#1174);
#1174 = CARTESIAN_POINT('',(52.532642005586,18.,9.238592272178));
#1175 = LINE('',#1176,#1177);
#1176 = CARTESIAN_POINT('',(52.532642005586,27.,9.238592272178));
#1177 = VECTOR('',#1178,1.);
#1178 = DIRECTION('',(0.,1.,2.22044604925E-16));
#1179 = ORIENTED_EDGE('',*,*,#1180,.T.);
#1180 = EDGE_CURVE('',#1173,#1149,#1181,.T.);
#1181 = CIRCLE('',#1182,2.5);
#1182 = AXIS2_PLACEMENT_3D('',#1183,#1184,#1185);
#1183 = CARTESIAN_POINT('',(50.058903043151,18.,9.6));
#1184 = DIRECTION('',(0.,1.,0.));
#1185 = DIRECTION('',(0.,-0.,1.));
#1186 = CYLINDRICAL_SURFACE('',#1187,2.5);
#1187 = AXIS2_PLACEMENT_3D('',#1188,#1189,#1190);
#1188 = CARTESIAN_POINT('',(50.058903043151,18.,9.6));
#1189 = DIRECTION('',(0.,1.,0.));
#1190 = DIRECTION('',(0.,-0.,1.));
#1191 = ADVANCED_FACE('',(#1192),#1210,.T.);
#1192 = FACE_BOUND('',#1193,.T.);
#1193 = EDGE_LOOP('',(#1194,#1195,#1203,#1209));
#1194 = ORIENTED_EDGE('',*,*,#689,.F.);
#1195 = ORIENTED_EDGE('',*,*,#1196,.T.);
#1196 = EDGE_CURVE('',#681,#1197,#1199,.T.);
#1197 = VERTEX_POINT('',#1198);
#1198 = CARTESIAN_POINT('',(39.941096956849,18.,7.1));
#1199 = LINE('',#1200,#1201);
#1200 = CARTESIAN_POINT('',(39.941096956849,27.,7.1));
#1201 = VECTOR('',#1202,1.);
#1202 = DIRECTION('',(0.,-1.,-2.22044604925E-16));
#1203 = ORIENTED_EDGE('',*,*,#1204,.T.);
#1204 = EDGE_CURVE('',#1197,#842,#1205,.T.);
#1205 = LINE('',#1206,#1207);
#1206 = CARTESIAN_POINT('',(39.941096956849,18.,7.1));
#1207 = VECTOR('',#1208,1.);
#1208 = DIRECTION('',(1.,-1.233123556334E-30,5.553494788808E-15));
#1209 = ORIENTED_EDGE('',*,*,#841,.T.);
#1210 = PLANE('',#1211);
#1211 = AXIS2_PLACEMENT_3D('',#1212,#1213,#1214);
#1212 = CARTESIAN_POINT('',(39.941096956849,27.,7.1));
#1213 = DIRECTION('',(-5.553494788808E-15,-2.22044604925E-16,1.));
#1214 = DIRECTION('',(1.,-1.233123556334E-30,5.553494788808E-15));
#1215 = ADVANCED_FACE('',(#1216),#1235,.F.);
#1216 = FACE_BOUND('',#1217,.T.);
#1217 = EDGE_LOOP('',(#1218,#1219,#1220,#1229));
#1218 = ORIENTED_EDGE('',*,*,#583,.F.);
#1219 = ORIENTED_EDGE('',*,*,#1172,.F.);
#1220 = ORIENTED_EDGE('',*,*,#1221,.T.);
#1221 = EDGE_CURVE('',#1173,#1222,#1224,.T.);
#1222 = VERTEX_POINT('',#1223);
#1223 = CARTESIAN_POINT('',(54.058955347971,18.,11.88224452946));
#1224 = CIRCLE('',#1225,9.7);
#1225 = AXIS2_PLACEMENT_3D('',#1226,#1227,#1228);
#1226 = CARTESIAN_POINT('',(45.,18.,15.35));
#1227 = DIRECTION('',(4.473221495647E-33,-1.,-2.22044604925E-16));
#1228 = DIRECTION('',(0.681401770154,1.625165726727E-16,-0.73190957613)
  );
#1229 = ORIENTED_EDGE('',*,*,#1230,.T.);
#1230 = EDGE_CURVE('',#1222,#584,#1231,.T.);
#1231 = LINE('',#1232,#1233);
#1232 = CARTESIAN_POINT('',(54.058955347971,27.,11.88224452946));
#1233 = VECTOR('',#1234,1.);
#1234 = DIRECTION('',(0.,1.,2.22044604925E-16));
#1235 = CYLINDRICAL_SURFACE('',#1236,9.7);
#1236 = AXIS2_PLACEMENT_3D('',#1237,#1238,#1239);
#1237 = CARTESIAN_POINT('',(45.,27.,15.35));
#1238 = DIRECTION('',(0.,1.,2.22044604925E-16));
#1239 = DIRECTION('',(0.681401770154,1.625165726727E-16,-0.73190957613)
  );
#1240 = ADVANCED_FACE('',(#1241),#1260,.F.);
#1241 = FACE_BOUND('',#1242,.F.);
#1242 = EDGE_LOOP('',(#1243,#1244,#1245,#1254));
#1243 = ORIENTED_EDGE('',*,*,#680,.F.);
#1244 = ORIENTED_EDGE('',*,*,#1196,.T.);
#1245 = ORIENTED_EDGE('',*,*,#1246,.T.);
#1246 = EDGE_CURVE('',#1197,#1247,#1249,.T.);
#1247 = VERTEX_POINT('',#1248);
#1248 = CARTESIAN_POINT('',(37.467357994414,18.,9.238592272178));
#1249 = CIRCLE('',#1250,2.5);
#1250 = AXIS2_PLACEMENT_3D('',#1251,#1252,#1253);
#1251 = CARTESIAN_POINT('',(39.941096956849,18.,9.6));
#1252 = DIRECTION('',(0.,1.,0.));
#1253 = DIRECTION('',(0.,-0.,1.));
#1254 = ORIENTED_EDGE('',*,*,#1255,.T.);
#1255 = EDGE_CURVE('',#1247,#672,#1256,.T.);
#1256 = LINE('',#1257,#1258);
#1257 = CARTESIAN_POINT('',(37.467357994414,27.,9.238592272178));
#1258 = VECTOR('',#1259,1.);
#1259 = DIRECTION('',(0.,1.,2.22044604925E-16));
#1260 = CYLINDRICAL_SURFACE('',#1261,2.5);
#1261 = AXIS2_PLACEMENT_3D('',#1262,#1263,#1264);
#1262 = CARTESIAN_POINT('',(39.941096956849,18.,9.6));
#1263 = DIRECTION('',(0.,1.,0.));
#1264 = DIRECTION('',(0.,-0.,1.));
#1265 = ADVANCED_FACE('',(#1266),#1285,.F.);
#1266 = FACE_BOUND('',#1267,.F.);
#1267 = EDGE_LOOP('',(#1268,#1269,#1277,#1284));
#1268 = ORIENTED_EDGE('',*,*,#592,.F.);
#1269 = ORIENTED_EDGE('',*,*,#1270,.T.);
#1270 = EDGE_CURVE('',#593,#1271,#1273,.T.);
#1271 = VERTEX_POINT('',#1272);
#1272 = CARTESIAN_POINT('',(54.674161102797,18.,15.093861449349));
#1273 = LINE('',#1274,#1275);
#1274 = CARTESIAN_POINT('',(54.674161102797,27.,15.093861449349));
#1275 = VECTOR('',#1276,1.);
#1276 = DIRECTION('',(0.,-1.,-2.22044604925E-16));
#1277 = ORIENTED_EDGE('',*,*,#1278,.T.);
#1278 = EDGE_CURVE('',#1271,#1222,#1279,.T.);
#1279 = CIRCLE('',#1280,2.5);
#1280 = AXIS2_PLACEMENT_3D('',#1281,#1282,#1283);
#1281 = CARTESIAN_POINT('',(52.509097593336,18.,13.843861449349));
#1282 = DIRECTION('',(0.,1.,0.));
#1283 = DIRECTION('',(0.,-0.,1.));
#1284 = ORIENTED_EDGE('',*,*,#1230,.T.);
#1285 = CYLINDRICAL_SURFACE('',#1286,2.5);
#1286 = AXIS2_PLACEMENT_3D('',#1287,#1288,#1289);
#1287 = CARTESIAN_POINT('',(52.509097593336,18.,13.843861449349));
#1288 = DIRECTION('',(0.,1.,0.));
#1289 = DIRECTION('',(0.,-0.,1.));
#1290 = ADVANCED_FACE('',(#1291),#1310,.F.);
#1291 = FACE_BOUND('',#1292,.T.);
#1292 = EDGE_LOOP('',(#1293,#1294,#1302,#1309));
#1293 = ORIENTED_EDGE('',*,*,#671,.F.);
#1294 = ORIENTED_EDGE('',*,*,#1295,.F.);
#1295 = EDGE_CURVE('',#1296,#663,#1298,.T.);
#1296 = VERTEX_POINT('',#1297);
#1297 = CARTESIAN_POINT('',(35.941044652029,18.,11.882244529459));
#1298 = LINE('',#1299,#1300);
#1299 = CARTESIAN_POINT('',(35.941044652029,27.,11.88224452946));
#1300 = VECTOR('',#1301,1.);
#1301 = DIRECTION('',(0.,1.,2.22044604925E-16));
#1302 = ORIENTED_EDGE('',*,*,#1303,.T.);
#1303 = EDGE_CURVE('',#1296,#1247,#1304,.T.);
#1304 = CIRCLE('',#1305,9.7);
#1305 = AXIS2_PLACEMENT_3D('',#1306,#1307,#1308);
#1306 = CARTESIAN_POINT('',(45.,18.,15.35));
#1307 = DIRECTION('',(2.007383461135E-33,-1.,-2.22044604925E-16));
#1308 = DIRECTION('',(-0.974553171279,4.97727315078E-17,-0.224156455072)
  );
#1309 = ORIENTED_EDGE('',*,*,#1255,.T.);
#1310 = CYLINDRICAL_SURFACE('',#1311,9.7);
#1311 = AXIS2_PLACEMENT_3D('',#1312,#1313,#1314);
#1312 = CARTESIAN_POINT('',(45.,27.,15.35));
#1313 = DIRECTION('',(0.,1.,2.22044604925E-16));
#1314 = DIRECTION('',(-0.974553171279,4.97727315078E-17,-0.224156455072)
  );
#1315 = ADVANCED_FACE('',(#1316),#1334,.T.);
#1316 = FACE_BOUND('',#1317,.T.);
#1317 = EDGE_LOOP('',(#1318,#1319,#1327,#1333));
#1318 = ORIENTED_EDGE('',*,*,#1270,.T.);
#1319 = ORIENTED_EDGE('',*,*,#1320,.T.);
#1320 = EDGE_CURVE('',#1271,#1321,#1323,.T.);
#1321 = VERTEX_POINT('',#1322);
#1322 = CARTESIAN_POINT('',(49.615258059646,18.,23.856138550651));
#1323 = LINE('',#1324,#1325);
#1324 = CARTESIAN_POINT('',(54.674161102797,18.,15.093861449349));
#1325 = VECTOR('',#1326,1.);
#1326 = DIRECTION('',(-0.5,-1.922962686384E-16,0.866025403784));
#1327 = ORIENTED_EDGE('',*,*,#1328,.F.);
#1328 = EDGE_CURVE('',#602,#1321,#1329,.T.);
#1329 = LINE('',#1330,#1331);
#1330 = CARTESIAN_POINT('',(49.615258059646,27.,23.856138550651));
#1331 = VECTOR('',#1332,1.);
#1332 = DIRECTION('',(0.,-1.,-2.22044604925E-16));
#1333 = ORIENTED_EDGE('',*,*,#601,.F.);
#1334 = PLANE('',#1335);
#1335 = AXIS2_PLACEMENT_3D('',#1336,#1337,#1338);
#1336 = CARTESIAN_POINT('',(54.674161102797,27.,15.093861449349));
#1337 = DIRECTION('',(-0.866025403784,1.110223024625E-16,-0.5));
#1338 = DIRECTION('',(-0.5,-1.922962686384E-16,0.866025403784));
#1339 = ADVANCED_FACE('',(#1340),#1359,.F.);
#1340 = FACE_BOUND('',#1341,.F.);
#1341 = EDGE_LOOP('',(#1342,#1350,#1351,#1352));
#1342 = ORIENTED_EDGE('',*,*,#1343,.F.);
#1343 = EDGE_CURVE('',#655,#1344,#1346,.T.);
#1344 = VERTEX_POINT('',#1345);
#1345 = CARTESIAN_POINT('',(35.325838897203,18.,15.093861449349));
#1346 = LINE('',#1347,#1348);
#1347 = CARTESIAN_POINT('',(35.325838897203,27.,15.093861449349));
#1348 = VECTOR('',#1349,1.);
#1349 = DIRECTION('',(0.,-1.,-2.22044604925E-16));
#1350 = ORIENTED_EDGE('',*,*,#662,.F.);
#1351 = ORIENTED_EDGE('',*,*,#1295,.F.);
#1352 = ORIENTED_EDGE('',*,*,#1353,.T.);
#1353 = EDGE_CURVE('',#1296,#1344,#1354,.T.);
#1354 = CIRCLE('',#1355,2.5);
#1355 = AXIS2_PLACEMENT_3D('',#1356,#1357,#1358);
#1356 = CARTESIAN_POINT('',(37.490902406664,18.,13.843861449349));
#1357 = DIRECTION('',(0.,1.,0.));
#1358 = DIRECTION('',(0.,-0.,1.));
#1359 = CYLINDRICAL_SURFACE('',#1360,2.5);
#1360 = AXIS2_PLACEMENT_3D('',#1361,#1362,#1363);
#1361 = CARTESIAN_POINT('',(37.490902406664,18.,13.843861449349));
#1362 = DIRECTION('',(0.,1.,0.));
#1363 = DIRECTION('',(0.,-0.,1.));
#1364 = ADVANCED_FACE('',(#1365),#1394,.F.);
#1365 = FACE_BOUND('',#1366,.F.);
#1366 = EDGE_LOOP('',(#1367,#1368,#1369,#1370,#1378,#1387));
#1367 = ORIENTED_EDGE('',*,*,#1328,.F.);
#1368 = ORIENTED_EDGE('',*,*,#609,.F.);
#1369 = ORIENTED_EDGE('',*,*,#618,.F.);
#1370 = ORIENTED_EDGE('',*,*,#1371,.F.);
#1371 = EDGE_CURVE('',#1372,#619,#1374,.T.);
#1372 = VERTEX_POINT('',#1373);
#1373 = CARTESIAN_POINT('',(46.526313342385,18.,24.929163198362));
#1374 = LINE('',#1375,#1376);
#1375 = CARTESIAN_POINT('',(46.526313342385,27.,24.929163198362));
#1376 = VECTOR('',#1377,1.);
#1377 = DIRECTION('',(0.,1.,2.22044604925E-16));
#1378 = ORIENTED_EDGE('',*,*,#1379,.T.);
#1379 = EDGE_CURVE('',#1372,#1380,#1382,.T.);
#1380 = VERTEX_POINT('',#1381);
#1381 = CARTESIAN_POINT('',(47.450194550185,18.,25.106138550651));
#1382 = CIRCLE('',#1383,2.5);
#1383 = AXIS2_PLACEMENT_3D('',#1384,#1385,#1386);
#1384 = CARTESIAN_POINT('',(47.450194550185,18.,22.606138550651));
#1385 = DIRECTION('',(0.,1.,0.));
#1386 = DIRECTION('',(0.,-0.,1.));
#1387 = ORIENTED_EDGE('',*,*,#1388,.T.);
#1388 = EDGE_CURVE('',#1380,#1321,#1389,.T.);
#1389 = CIRCLE('',#1390,2.5);
#1390 = AXIS2_PLACEMENT_3D('',#1391,#1392,#1393);
#1391 = CARTESIAN_POINT('',(47.450194550185,18.,22.606138550651));
#1392 = DIRECTION('',(0.,1.,0.));
#1393 = DIRECTION('',(0.,-0.,1.));
#1394 = CYLINDRICAL_SURFACE('',#1395,2.5);
#1395 = AXIS2_PLACEMENT_3D('',#1396,#1397,#1398);
#1396 = CARTESIAN_POINT('',(47.450194550185,18.,22.606138550651));
#1397 = DIRECTION('',(0.,1.,0.));
#1398 = DIRECTION('',(0.,-0.,1.));
#1399 = ADVANCED_FACE('',(#1400),#1418,.T.);
#1400 = FACE_BOUND('',#1401,.T.);
#1401 = EDGE_LOOP('',(#1402,#1410,#1416,#1417));
#1402 = ORIENTED_EDGE('',*,*,#1403,.T.);
#1403 = EDGE_CURVE('',#646,#1404,#1406,.T.);
#1404 = VERTEX_POINT('',#1405);
#1405 = CARTESIAN_POINT('',(40.384741940354,18.,23.856138550651));
#1406 = LINE('',#1407,#1408);
#1407 = CARTESIAN_POINT('',(40.384741940354,27.,23.856138550651));
#1408 = VECTOR('',#1409,1.);
#1409 = DIRECTION('',(0.,-1.,-2.22044604925E-16));
#1410 = ORIENTED_EDGE('',*,*,#1411,.T.);
#1411 = EDGE_CURVE('',#1404,#1344,#1412,.T.);
#1412 = LINE('',#1413,#1414);
#1413 = CARTESIAN_POINT('',(40.384741940354,18.,23.856138550651));
#1414 = VECTOR('',#1415,1.);
#1415 = DIRECTION('',(-0.5,1.922962686384E-16,-0.866025403784));
#1416 = ORIENTED_EDGE('',*,*,#1343,.F.);
#1417 = ORIENTED_EDGE('',*,*,#654,.F.);
#1418 = PLANE('',#1419);
#1419 = AXIS2_PLACEMENT_3D('',#1420,#1421,#1422);
#1420 = CARTESIAN_POINT('',(40.384741940354,27.,23.856138550651));
#1421 = DIRECTION('',(0.866025403784,1.110223024625E-16,-0.5));
#1422 = DIRECTION('',(-0.5,1.922962686384E-16,-0.866025403784));
#1423 = ADVANCED_FACE('',(#1424),#1453,.F.);
#1424 = FACE_BOUND('',#1425,.F.);
#1425 = EDGE_LOOP('',(#1426,#1434,#1435,#1436,#1437,#1446));
#1426 = ORIENTED_EDGE('',*,*,#1427,.T.);
#1427 = EDGE_CURVE('',#1428,#628,#1430,.T.);
#1428 = VERTEX_POINT('',#1429);
#1429 = CARTESIAN_POINT('',(43.473686657615,18.,24.929163198362));
#1430 = LINE('',#1431,#1432);
#1431 = CARTESIAN_POINT('',(43.473686657615,27.,24.929163198362));
#1432 = VECTOR('',#1433,1.);
#1433 = DIRECTION('',(0.,1.,2.22044604925E-16));
#1434 = ORIENTED_EDGE('',*,*,#636,.F.);
#1435 = ORIENTED_EDGE('',*,*,#645,.F.);
#1436 = ORIENTED_EDGE('',*,*,#1403,.T.);
#1437 = ORIENTED_EDGE('',*,*,#1438,.T.);
#1438 = EDGE_CURVE('',#1404,#1439,#1441,.T.);
#1439 = VERTEX_POINT('',#1440);
#1440 = CARTESIAN_POINT('',(42.549805449815,18.,25.106138550651));
#1441 = CIRCLE('',#1442,2.5);
#1442 = AXIS2_PLACEMENT_3D('',#1443,#1444,#1445);
#1443 = CARTESIAN_POINT('',(42.549805449815,18.,22.606138550651));
#1444 = DIRECTION('',(0.,1.,0.));
#1445 = DIRECTION('',(0.,-0.,1.));
#1446 = ORIENTED_EDGE('',*,*,#1447,.T.);
#1447 = EDGE_CURVE('',#1439,#1428,#1448,.T.);
#1448 = CIRCLE('',#1449,2.5);
#1449 = AXIS2_PLACEMENT_3D('',#1450,#1451,#1452);
#1450 = CARTESIAN_POINT('',(42.549805449815,18.,22.606138550651));
#1451 = DIRECTION('',(0.,1.,0.));
#1452 = DIRECTION('',(0.,-0.,1.));
#1453 = CYLINDRICAL_SURFACE('',#1454,2.5);
#1454 = AXIS2_PLACEMENT_3D('',#1455,#1456,#1457);
#1455 = CARTESIAN_POINT('',(42.549805449815,18.,22.606138550651));
#1456 = DIRECTION('',(0.,1.,0.));
#1457 = DIRECTION('',(0.,-0.,1.));
#1458 = ADVANCED_FACE('',(#1459),#1471,.F.);
#1459 = FACE_BOUND('',#1460,.T.);
#1460 = EDGE_LOOP('',(#1461,#1462,#1463,#1470));
#1461 = ORIENTED_EDGE('',*,*,#627,.F.);
#1462 = ORIENTED_EDGE('',*,*,#1371,.F.);
#1463 = ORIENTED_EDGE('',*,*,#1464,.T.);
#1464 = EDGE_CURVE('',#1372,#1428,#1465,.T.);
#1465 = CIRCLE('',#1466,9.7);
#1466 = AXIS2_PLACEMENT_3D('',#1467,#1468,#1469);
#1467 = CARTESIAN_POINT('',(45.,18.,15.35));
#1468 = DIRECTION('',(-2.672331468585E-33,-1.,-2.22044604925E-16));
#1469 = DIRECTION('',(0.293151401125,-2.122893041805E-16,0.956066031202)
  );
#1470 = ORIENTED_EDGE('',*,*,#1427,.T.);
#1471 = CYLINDRICAL_SURFACE('',#1472,9.7);
#1472 = AXIS2_PLACEMENT_3D('',#1473,#1474,#1475);
#1473 = CARTESIAN_POINT('',(45.,27.,15.35));
#1474 = DIRECTION('',(0.,1.,2.22044604925E-16));
#1475 = DIRECTION('',(0.293151401125,-2.122893041805E-16,0.956066031202)
  );
#1476 = ADVANCED_FACE('',(#1477,#1502,#1509,#1516),#1523,.T.);
#1477 = FACE_BOUND('',#1478,.T.);
#1478 = EDGE_LOOP('',(#1479,#1480,#1481,#1482,#1483,#1484,#1485,#1486,
    #1487,#1488,#1489,#1490,#1491,#1492,#1493,#1494,#1495,#1496,#1497,
    #1498,#1499,#1500,#1501));
#1479 = ORIENTED_EDGE('',*,*,#897,.F.);
#1480 = ORIENTED_EDGE('',*,*,#849,.T.);
#1481 = ORIENTED_EDGE('',*,*,#1204,.F.);
#1482 = ORIENTED_EDGE('',*,*,#1246,.T.);
#1483 = ORIENTED_EDGE('',*,*,#1303,.F.);
#1484 = ORIENTED_EDGE('',*,*,#1353,.T.);
#1485 = ORIENTED_EDGE('',*,*,#1411,.F.);
#1486 = ORIENTED_EDGE('',*,*,#1438,.T.);
#1487 = ORIENTED_EDGE('',*,*,#1447,.T.);
#1488 = ORIENTED_EDGE('',*,*,#1464,.F.);
#1489 = ORIENTED_EDGE('',*,*,#1379,.T.);
#1490 = ORIENTED_EDGE('',*,*,#1388,.T.);
#1491 = ORIENTED_EDGE('',*,*,#1320,.F.);
#1492 = ORIENTED_EDGE('',*,*,#1278,.T.);
#1493 = ORIENTED_EDGE('',*,*,#1221,.F.);
#1494 = ORIENTED_EDGE('',*,*,#1180,.T.);
#1495 = ORIENTED_EDGE('',*,*,#1148,.F.);
#1496 = ORIENTED_EDGE('',*,*,#764,.F.);
#1497 = ORIENTED_EDGE('',*,*,#816,.F.);
#1498 = ORIENTED_EDGE('',*,*,#865,.T.);
#1499 = ORIENTED_EDGE('',*,*,#912,.F.);
#1500 = ORIENTED_EDGE('',*,*,#921,.F.);
#1501 = ORIENTED_EDGE('',*,*,#948,.F.);
#1502 = FACE_BOUND('',#1503,.T.);
#1503 = EDGE_LOOP('',(#1504,#1505,#1506,#1507,#1508));
#1504 = ORIENTED_EDGE('',*,*,#989,.F.);
#1505 = ORIENTED_EDGE('',*,*,#998,.F.);
#1506 = ORIENTED_EDGE('',*,*,#1007,.F.);
#1507 = ORIENTED_EDGE('',*,*,#971,.F.);
#1508 = ORIENTED_EDGE('',*,*,#980,.F.);
#1509 = FACE_BOUND('',#1510,.T.);
#1510 = EDGE_LOOP('',(#1511,#1512,#1513,#1514,#1515));
#1511 = ORIENTED_EDGE('',*,*,#1041,.F.);
#1512 = ORIENTED_EDGE('',*,*,#1050,.F.);
#1513 = ORIENTED_EDGE('',*,*,#1059,.F.);
#1514 = ORIENTED_EDGE('',*,*,#1068,.F.);
#1515 = ORIENTED_EDGE('',*,*,#1032,.F.);
#1516 = FACE_BOUND('',#1517,.T.);
#1517 = EDGE_LOOP('',(#1518,#1519,#1520,#1521,#1522));
#1518 = ORIENTED_EDGE('',*,*,#1111,.F.);
#1519 = ORIENTED_EDGE('',*,*,#1120,.F.);
#1520 = ORIENTED_EDGE('',*,*,#1129,.F.);
#1521 = ORIENTED_EDGE('',*,*,#1093,.F.);
#1522 = ORIENTED_EDGE('',*,*,#1102,.F.);
#1523 = PLANE('',#1524);
#1524 = AXIS2_PLACEMENT_3D('',#1525,#1526,#1527);
#1525 = CARTESIAN_POINT('',(45.,18.,15.027656077384));
#1526 = DIRECTION('',(0.,1.,0.));
#1527 = DIRECTION('',(0.,-0.,1.));
#1528 = ( GEOMETRIC_REPRESENTATION_CONTEXT(3) 
GLOBAL_UNCERTAINTY_ASSIGNED_CONTEXT((#1532)) 
GLOBAL_UNIT_ASSIGNED_CONTEXT((#1529,#1530,#1531)) REPRESENTATION_CONTEXT
('Context #1','3D Context with UNIT and UNCERTAINTY') );
#1529 = ( LENGTH_UNIT() NAMED_UNIT(*) SI_UNIT(.MILLI.,.METRE.) );
#1530 = ( NAMED_UNIT(*) PLANE_ANGLE_UNIT() SI_UNIT($,.RADIAN.) );
#1531 = ( NAMED_UNIT(*) SI_UNIT($,.STERADIAN.) SOLID_ANGLE_UNIT() );
#1532 = UNCERTAINTY_MEASURE_WITH_UNIT(LENGTH_MEASURE(2.E-06),#1529,
  'distance_accuracy_value','confusion accuracy');
#1533 = PRODUCT_RELATED_PRODUCT_CATEGORY('part',$,(#7));
ENDSEC;
END-ISO-10303-21;
