ISO-10303-21;
HEADER;
FILE_DESCRIPTION(('FreeCAD Model'),'2;1');
FILE_NAME('Open CASCADE Shape Model','2026-09-21T15:38:37',('FreeCAD'),(
    'FreeCAD'),'Open CASCADE STEP processor 7.8','FreeCAD','Unknown');
FILE_SCHEMA(('AUTOMOTIVE_DESIGN { 1 0 10303 214 1 1 1 1 }'));
ENDSEC;
DATA;
#1 = APPLICATION_PROTOCOL_DEFINITION('international standard',
  'automotive_design',2000,#2);
#2 = APPLICATION_CONTEXT(
  'core data for automotive mechanical design processes');
#3 = SHAPE_DEFINITION_REPRESENTATION(#4,#10);
#4 = PRODUCT_DEFINITION_SHAPE('','',#5);
#5 = PRODUCT_DEFINITION('design','',#6,#9);
#6 = PRODUCT_DEFINITION_FORMATION('','',#7);
#7 = PRODUCT('Open CASCADE STEP translator 7.8 1',
  'Open CASCADE STEP translator 7.8 1','',(#8));
#8 = PRODUCT_CONTEXT('',#2,'mechanical');
#9 = PRODUCT_DEFINITION_CONTEXT('part definition',#2,'design');
#10 = ADVANCED_BREP_SHAPE_REPRESENTATION('',(#11,#15),#1453);
#11 = AXIS2_PLACEMENT_3D('',#12,#13,#14);
#12 = CARTESIAN_POINT('',(0.,0.,0.));
#13 = DIRECTION('',(0.,0.,1.));
#14 = DIRECTION('',(1.,0.,-0.));
#15 = MANIFOLD_SOLID_BREP('',#16);
#16 = CLOSED_SHELL('',(#17,#57,#88,#134,#158,#231,#243,#268,#293,#310,
    #327,#465,#489,#513,#667,#684,#715,#739,#770,#794,#811,#836,#861,
    #886,#917,#942,#967,#992,#1016,#1041,#1066,#1091,#1115,#1140,#1165,
    #1190,#1214,#1234,#1254,#1274,#1299,#1324,#1349,#1368,#1387,#1439));
#17 = ADVANCED_FACE('',(#18),#52,.F.);
#18 = FACE_BOUND('',#19,.F.);
#19 = EDGE_LOOP('',(#20,#30,#38,#46));
#20 = ORIENTED_EDGE('',*,*,#21,.F.);
#21 = EDGE_CURVE('',#22,#24,#26,.T.);
#22 = VERTEX_POINT('',#23);
#23 = CARTESIAN_POINT('',(0.,0.,29.));
#24 = VERTEX_POINT('',#25);
#25 = CARTESIAN_POINT('',(0.,0.,34.));
#26 = LINE('',#27,#28);
#27 = CARTESIAN_POINT('',(0.,0.,29.));
#28 = VECTOR('',#29,1.);
#29 = DIRECTION('',(0.,0.,1.));
#30 = ORIENTED_EDGE('',*,*,#31,.T.);
#31 = EDGE_CURVE('',#22,#32,#34,.T.);
#32 = VERTEX_POINT('',#33);
#33 = CARTESIAN_POINT('',(0.,30.,29.));
#34 = LINE('',#35,#36);
#35 = CARTESIAN_POINT('',(0.,0.,29.));
#36 = VECTOR('',#37,1.);
#37 = DIRECTION('',(-0.,1.,0.));
#38 = ORIENTED_EDGE('',*,*,#39,.T.);
#39 = EDGE_CURVE('',#32,#40,#42,.T.);
#40 = VERTEX_POINT('',#41);
#41 = CARTESIAN_POINT('',(0.,30.,34.));
#42 = LINE('',#43,#44);
#43 = CARTESIAN_POINT('',(0.,30.,29.));
#44 = VECTOR('',#45,1.);
#45 = DIRECTION('',(0.,0.,1.));
#46 = ORIENTED_EDGE('',*,*,#47,.F.);
#47 = EDGE_CURVE('',#24,#40,#48,.T.);
#48 = LINE('',#49,#50);
#49 = CARTESIAN_POINT('',(0.,0.,34.));
#50 = VECTOR('',#51,1.);
#51 = DIRECTION('',(-0.,1.,0.));
#52 = PLANE('',#53);
#53 = AXIS2_PLACEMENT_3D('',#54,#55,#56);
#54 = CARTESIAN_POINT('',(0.,0.,29.));
#55 = DIRECTION('',(1.,0.,-0.));
#56 = DIRECTION('',(0.,0.,1.));
#57 = ADVANCED_FACE('',(#58),#83,.F.);
#58 = FACE_BOUND('',#59,.F.);
#59 = EDGE_LOOP('',(#60,#68,#69,#77));
#60 = ORIENTED_EDGE('',*,*,#61,.F.);
#61 = EDGE_CURVE('',#22,#62,#64,.T.);
#62 = VERTEX_POINT('',#63);
#63 = CARTESIAN_POINT('',(90.,0.,29.));
#64 = LINE('',#65,#66);
#65 = CARTESIAN_POINT('',(0.,0.,29.));
#66 = VECTOR('',#67,1.);
#67 = DIRECTION('',(1.,0.,-0.));
#68 = ORIENTED_EDGE('',*,*,#21,.T.);
#69 = ORIENTED_EDGE('',*,*,#70,.T.);
#70 = EDGE_CURVE('',#24,#71,#73,.T.);
#71 = VERTEX_POINT('',#72);
#72 = CARTESIAN_POINT('',(90.,0.,34.));
#73 = LINE('',#74,#75);
#74 = CARTESIAN_POINT('',(0.,0.,34.));
#75 = VECTOR('',#76,1.);
#76 = DIRECTION('',(1.,0.,-0.));
#77 = ORIENTED_EDGE('',*,*,#78,.F.);
#78 = EDGE_CURVE('',#62,#71,#79,.T.);
#79 = LINE('',#80,#81);
#80 = CARTESIAN_POINT('',(90.,0.,29.));
#81 = VECTOR('',#82,1.);
#82 = DIRECTION('',(0.,0.,1.));
#83 = PLANE('',#84);
#84 = AXIS2_PLACEMENT_3D('',#85,#86,#87);
#85 = CARTESIAN_POINT('',(0.,0.,29.));
#86 = DIRECTION('',(-0.,1.,0.));
#87 = DIRECTION('',(0.,0.,1.));
#88 = ADVANCED_FACE('',(#89,#107,#118),#129,.T.);
#89 = FACE_BOUND('',#90,.T.);
#90 = EDGE_LOOP('',(#91,#92,#93,#101));
#91 = ORIENTED_EDGE('',*,*,#47,.F.);
#92 = ORIENTED_EDGE('',*,*,#70,.T.);
#93 = ORIENTED_EDGE('',*,*,#94,.T.);
#94 = EDGE_CURVE('',#71,#95,#97,.T.);
#95 = VERTEX_POINT('',#96);
#96 = CARTESIAN_POINT('',(90.,30.,34.));
#97 = LINE('',#98,#99);
#98 = CARTESIAN_POINT('',(90.,0.,34.));
#99 = VECTOR('',#100,1.);
#100 = DIRECTION('',(-0.,1.,0.));
#101 = ORIENTED_EDGE('',*,*,#102,.F.);
#102 = EDGE_CURVE('',#40,#95,#103,.T.);
#103 = LINE('',#104,#105);
#104 = CARTESIAN_POINT('',(0.,30.,34.));
#105 = VECTOR('',#106,1.);
#106 = DIRECTION('',(1.,0.,-0.));
#107 = FACE_BOUND('',#108,.T.);
#108 = EDGE_LOOP('',(#109));
#109 = ORIENTED_EDGE('',*,*,#110,.F.);
#110 = EDGE_CURVE('',#111,#111,#113,.T.);
#111 = VERTEX_POINT('',#112);
#112 = CARTESIAN_POINT('',(10.8,15.,34.));
#113 = CIRCLE('',#114,3.3);
#114 = AXIS2_PLACEMENT_3D('',#115,#116,#117);
#115 = CARTESIAN_POINT('',(7.5,15.,34.));
#116 = DIRECTION('',(0.,0.,1.));
#117 = DIRECTION('',(1.,0.,-0.));
#118 = FACE_BOUND('',#119,.T.);
#119 = EDGE_LOOP('',(#120));
#120 = ORIENTED_EDGE('',*,*,#121,.F.);
#121 = EDGE_CURVE('',#122,#122,#124,.T.);
#122 = VERTEX_POINT('',#123);
#123 = CARTESIAN_POINT('',(85.8,15.,34.));
#124 = CIRCLE('',#125,3.3);
#125 = AXIS2_PLACEMENT_3D('',#126,#127,#128);
#126 = CARTESIAN_POINT('',(82.5,15.,34.));
#127 = DIRECTION('',(0.,0.,1.));
#128 = DIRECTION('',(1.,0.,-0.));
#129 = PLANE('',#130);
#130 = AXIS2_PLACEMENT_3D('',#131,#132,#133);
#131 = CARTESIAN_POINT('',(0.,0.,34.));
#132 = DIRECTION('',(0.,0.,1.));
#133 = DIRECTION('',(1.,0.,-0.));
#134 = ADVANCED_FACE('',(#135),#153,.T.);
#135 = FACE_BOUND('',#136,.T.);
#136 = EDGE_LOOP('',(#137,#145,#146,#147));
#137 = ORIENTED_EDGE('',*,*,#138,.F.);
#138 = EDGE_CURVE('',#32,#139,#141,.T.);
#139 = VERTEX_POINT('',#140);
#140 = CARTESIAN_POINT('',(90.,30.,29.));
#141 = LINE('',#142,#143);
#142 = CARTESIAN_POINT('',(0.,30.,29.));
#143 = VECTOR('',#144,1.);
#144 = DIRECTION('',(1.,0.,-0.));
#145 = ORIENTED_EDGE('',*,*,#39,.T.);
#146 = ORIENTED_EDGE('',*,*,#102,.T.);
#147 = ORIENTED_EDGE('',*,*,#148,.F.);
#148 = EDGE_CURVE('',#139,#95,#149,.T.);
#149 = LINE('',#150,#151);
#150 = CARTESIAN_POINT('',(90.,30.,29.));
#151 = VECTOR('',#152,1.);
#152 = DIRECTION('',(0.,0.,1.));
#153 = PLANE('',#154);
#154 = AXIS2_PLACEMENT_3D('',#155,#156,#157);
#155 = CARTESIAN_POINT('',(0.,30.,29.));
#156 = DIRECTION('',(-0.,1.,0.));
#157 = DIRECTION('',(0.,0.,1.));
#158 = ADVANCED_FACE('',(#159,#170,#181,#192),#226,.F.);
#159 = FACE_BOUND('',#160,.F.);
#160 = EDGE_LOOP('',(#161,#162,#163,#169));
#161 = ORIENTED_EDGE('',*,*,#31,.F.);
#162 = ORIENTED_EDGE('',*,*,#61,.T.);
#163 = ORIENTED_EDGE('',*,*,#164,.T.);
#164 = EDGE_CURVE('',#62,#139,#165,.T.);
#165 = LINE('',#166,#167);
#166 = CARTESIAN_POINT('',(90.,0.,29.));
#167 = VECTOR('',#168,1.);
#168 = DIRECTION('',(-0.,1.,0.));
#169 = ORIENTED_EDGE('',*,*,#138,.F.);
#170 = FACE_BOUND('',#171,.F.);
#171 = EDGE_LOOP('',(#172));
#172 = ORIENTED_EDGE('',*,*,#173,.F.);
#173 = EDGE_CURVE('',#174,#174,#176,.T.);
#174 = VERTEX_POINT('',#175);
#175 = CARTESIAN_POINT('',(11.1,15.,29.));
#176 = CIRCLE('',#177,3.6);
#177 = AXIS2_PLACEMENT_3D('',#178,#179,#180);
#178 = CARTESIAN_POINT('',(7.5,15.,29.));
#179 = DIRECTION('',(0.,0.,1.));
#180 = DIRECTION('',(1.,0.,-0.));
#181 = FACE_BOUND('',#182,.F.);
#182 = EDGE_LOOP('',(#183));
#183 = ORIENTED_EDGE('',*,*,#184,.F.);
#184 = EDGE_CURVE('',#185,#185,#187,.T.);
#185 = VERTEX_POINT('',#186);
#186 = CARTESIAN_POINT('',(86.1,15.,29.));
#187 = CIRCLE('',#188,3.6);
#188 = AXIS2_PLACEMENT_3D('',#189,#190,#191);
#189 = CARTESIAN_POINT('',(82.5,15.,29.));
#190 = DIRECTION('',(0.,0.,1.));
#191 = DIRECTION('',(1.,0.,-0.));
#192 = FACE_BOUND('',#193,.F.);
#193 = EDGE_LOOP('',(#194,#204,#212,#220));
#194 = ORIENTED_EDGE('',*,*,#195,.T.);
#195 = EDGE_CURVE('',#196,#198,#200,.T.);
#196 = VERTEX_POINT('',#197);
#197 = CARTESIAN_POINT('',(75.,10.,29.));
#198 = VERTEX_POINT('',#199);
#199 = CARTESIAN_POINT('',(15.,10.,29.));
#200 = LINE('',#201,#202);
#201 = CARTESIAN_POINT('',(7.5,10.,29.));
#202 = VECTOR('',#203,1.);
#203 = DIRECTION('',(-1.,-0.,0.));
#204 = ORIENTED_EDGE('',*,*,#205,.T.);
#205 = EDGE_CURVE('',#198,#206,#208,.T.);
#206 = VERTEX_POINT('',#207);
#207 = CARTESIAN_POINT('',(15.,27.,29.));
#208 = LINE('',#209,#210);
#209 = CARTESIAN_POINT('',(15.,5.,29.));
#210 = VECTOR('',#211,1.);
#211 = DIRECTION('',(-0.,1.,0.));
#212 = ORIENTED_EDGE('',*,*,#213,.F.);
#213 = EDGE_CURVE('',#214,#206,#216,.T.);
#214 = VERTEX_POINT('',#215);
#215 = CARTESIAN_POINT('',(75.,27.,29.));
#216 = LINE('',#217,#218);
#217 = CARTESIAN_POINT('',(7.5,27.,29.));
#218 = VECTOR('',#219,1.);
#219 = DIRECTION('',(-1.,-0.,0.));
#220 = ORIENTED_EDGE('',*,*,#221,.F.);
#221 = EDGE_CURVE('',#196,#214,#222,.T.);
#222 = LINE('',#223,#224);
#223 = CARTESIAN_POINT('',(75.,5.,29.));
#224 = VECTOR('',#225,1.);
#225 = DIRECTION('',(-0.,1.,0.));
#226 = PLANE('',#227);
#227 = AXIS2_PLACEMENT_3D('',#228,#229,#230);
#228 = CARTESIAN_POINT('',(0.,0.,29.));
#229 = DIRECTION('',(0.,0.,1.));
#230 = DIRECTION('',(1.,0.,-0.));
#231 = ADVANCED_FACE('',(#232),#238,.T.);
#232 = FACE_BOUND('',#233,.T.);
#233 = EDGE_LOOP('',(#234,#235,#236,#237));
#234 = ORIENTED_EDGE('',*,*,#78,.F.);
#235 = ORIENTED_EDGE('',*,*,#164,.T.);
#236 = ORIENTED_EDGE('',*,*,#148,.T.);
#237 = ORIENTED_EDGE('',*,*,#94,.F.);
#238 = PLANE('',#239);
#239 = AXIS2_PLACEMENT_3D('',#240,#241,#242);
#240 = CARTESIAN_POINT('',(90.,0.,29.));
#241 = DIRECTION('',(1.,0.,-0.));
#242 = DIRECTION('',(0.,0.,1.));
#243 = ADVANCED_FACE('',(#244),#263,.F.);
#244 = FACE_BOUND('',#245,.F.);
#245 = EDGE_LOOP('',(#246,#247,#255,#262));
#246 = ORIENTED_EDGE('',*,*,#110,.F.);
#247 = ORIENTED_EDGE('',*,*,#248,.F.);
#248 = EDGE_CURVE('',#249,#111,#251,.T.);
#249 = VERTEX_POINT('',#250);
#250 = CARTESIAN_POINT('',(10.8,15.,29.3));
#251 = LINE('',#252,#253);
#252 = CARTESIAN_POINT('',(10.8,15.,28.));
#253 = VECTOR('',#254,1.);
#254 = DIRECTION('',(0.,0.,1.));
#255 = ORIENTED_EDGE('',*,*,#256,.T.);
#256 = EDGE_CURVE('',#249,#249,#257,.T.);
#257 = CIRCLE('',#258,3.3);
#258 = AXIS2_PLACEMENT_3D('',#259,#260,#261);
#259 = CARTESIAN_POINT('',(7.5,15.,29.3));
#260 = DIRECTION('',(0.,0.,1.));
#261 = DIRECTION('',(1.,0.,-0.));
#262 = ORIENTED_EDGE('',*,*,#248,.T.);
#263 = CYLINDRICAL_SURFACE('',#264,3.3);
#264 = AXIS2_PLACEMENT_3D('',#265,#266,#267);
#265 = CARTESIAN_POINT('',(7.5,15.,28.));
#266 = DIRECTION('',(0.,0.,1.));
#267 = DIRECTION('',(1.,0.,-0.));
#268 = ADVANCED_FACE('',(#269),#288,.F.);
#269 = FACE_BOUND('',#270,.F.);
#270 = EDGE_LOOP('',(#271,#272,#280,#287));
#271 = ORIENTED_EDGE('',*,*,#121,.F.);
#272 = ORIENTED_EDGE('',*,*,#273,.F.);
#273 = EDGE_CURVE('',#274,#122,#276,.T.);
#274 = VERTEX_POINT('',#275);
#275 = CARTESIAN_POINT('',(85.8,15.,29.3));
#276 = LINE('',#277,#278);
#277 = CARTESIAN_POINT('',(85.8,15.,28.));
#278 = VECTOR('',#279,1.);
#279 = DIRECTION('',(0.,0.,1.));
#280 = ORIENTED_EDGE('',*,*,#281,.T.);
#281 = EDGE_CURVE('',#274,#274,#282,.T.);
#282 = CIRCLE('',#283,3.3);
#283 = AXIS2_PLACEMENT_3D('',#284,#285,#286);
#284 = CARTESIAN_POINT('',(82.5,15.,29.3));
#285 = DIRECTION('',(0.,0.,1.));
#286 = DIRECTION('',(1.,0.,-0.));
#287 = ORIENTED_EDGE('',*,*,#273,.T.);
#288 = CYLINDRICAL_SURFACE('',#289,3.3);
#289 = AXIS2_PLACEMENT_3D('',#290,#291,#292);
#290 = CARTESIAN_POINT('',(82.5,15.,28.));
#291 = DIRECTION('',(0.,0.,1.));
#292 = DIRECTION('',(1.,0.,-0.));
#293 = ADVANCED_FACE('',(#294),#305,.F.);
#294 = FACE_BOUND('',#295,.F.);
#295 = EDGE_LOOP('',(#296,#297,#303,#304));
#296 = ORIENTED_EDGE('',*,*,#256,.F.);
#297 = ORIENTED_EDGE('',*,*,#298,.F.);
#298 = EDGE_CURVE('',#174,#249,#299,.T.);
#299 = LINE('',#300,#301);
#300 = CARTESIAN_POINT('',(11.1,15.,29.));
#301 = VECTOR('',#302,1.);
#302 = DIRECTION('',(-0.707106781187,1.731912112471E-16,0.707106781187)
  );
#303 = ORIENTED_EDGE('',*,*,#173,.T.);
#304 = ORIENTED_EDGE('',*,*,#298,.T.);
#305 = CONICAL_SURFACE('',#306,3.6,0.785398163397);
#306 = AXIS2_PLACEMENT_3D('',#307,#308,#309);
#307 = CARTESIAN_POINT('',(7.5,15.,29.));
#308 = DIRECTION('',(-0.,-0.,-1.));
#309 = DIRECTION('',(1.,0.,-0.));
#310 = ADVANCED_FACE('',(#311),#322,.F.);
#311 = FACE_BOUND('',#312,.F.);
#312 = EDGE_LOOP('',(#313,#314,#320,#321));
#313 = ORIENTED_EDGE('',*,*,#281,.F.);
#314 = ORIENTED_EDGE('',*,*,#315,.F.);
#315 = EDGE_CURVE('',#185,#274,#316,.T.);
#316 = LINE('',#317,#318);
#317 = CARTESIAN_POINT('',(86.1,15.,29.));
#318 = VECTOR('',#319,1.);
#319 = DIRECTION('',(-0.707106781187,1.731912112471E-16,0.707106781187)
  );
#320 = ORIENTED_EDGE('',*,*,#184,.T.);
#321 = ORIENTED_EDGE('',*,*,#315,.T.);
#322 = CONICAL_SURFACE('',#323,3.6,0.785398163397);
#323 = AXIS2_PLACEMENT_3D('',#324,#325,#326);
#324 = CARTESIAN_POINT('',(82.5,15.,29.));
#325 = DIRECTION('',(-0.,-0.,-1.));
#326 = DIRECTION('',(1.,0.,-0.));
#327 = ADVANCED_FACE('',(#328,#427,#438,#449),#460,.F.);
#328 = FACE_BOUND('',#329,.F.);
#329 = EDGE_LOOP('',(#330,#338,#346,#354,#362,#370,#379,#388,#396,#404,
    #412,#420,#426));
#330 = ORIENTED_EDGE('',*,*,#331,.F.);
#331 = EDGE_CURVE('',#332,#196,#334,.T.);
#332 = VERTEX_POINT('',#333);
#333 = CARTESIAN_POINT('',(75.,10.,0.));
#334 = LINE('',#335,#336);
#335 = CARTESIAN_POINT('',(75.,10.,0.));
#336 = VECTOR('',#337,1.);
#337 = DIRECTION('',(0.,0.,1.));
#338 = ORIENTED_EDGE('',*,*,#339,.F.);
#339 = EDGE_CURVE('',#340,#332,#342,.T.);
#340 = VERTEX_POINT('',#341);
#341 = CARTESIAN_POINT('',(49.75,10.,0.));
#342 = LINE('',#343,#344);
#343 = CARTESIAN_POINT('',(15.,10.,0.));
#344 = VECTOR('',#345,1.);
#345 = DIRECTION('',(1.,0.,-0.));
#346 = ORIENTED_EDGE('',*,*,#347,.F.);
#347 = EDGE_CURVE('',#348,#340,#350,.T.);
#348 = VERTEX_POINT('',#349);
#349 = CARTESIAN_POINT('',(49.75,10.,6.));
#350 = LINE('',#351,#352);
#351 = CARTESIAN_POINT('',(49.75,10.,-0.5));
#352 = VECTOR('',#353,1.);
#353 = DIRECTION('',(-0.,0.,-1.));
#354 = ORIENTED_EDGE('',*,*,#355,.F.);
#355 = EDGE_CURVE('',#356,#348,#358,.T.);
#356 = VERTEX_POINT('',#357);
#357 = CARTESIAN_POINT('',(48.25,10.,6.));
#358 = LINE('',#359,#360);
#359 = CARTESIAN_POINT('',(27.625,10.,6.));
#360 = VECTOR('',#361,1.);
#361 = DIRECTION('',(1.,0.,-0.));
#362 = ORIENTED_EDGE('',*,*,#363,.F.);
#363 = EDGE_CURVE('',#364,#356,#366,.T.);
#364 = VERTEX_POINT('',#365);
#365 = CARTESIAN_POINT('',(48.25,10.,15.35));
#366 = LINE('',#367,#368);
#367 = CARTESIAN_POINT('',(48.25,10.,-0.5));
#368 = VECTOR('',#369,1.);
#369 = DIRECTION('',(-0.,0.,-1.));
#370 = ORIENTED_EDGE('',*,*,#371,.F.);
#371 = EDGE_CURVE('',#372,#364,#374,.T.);
#372 = VERTEX_POINT('',#373);
#373 = CARTESIAN_POINT('',(45.,10.,18.6));
#374 = CIRCLE('',#375,3.25);
#375 = AXIS2_PLACEMENT_3D('',#376,#377,#378);
#376 = CARTESIAN_POINT('',(45.,10.,15.35));
#377 = DIRECTION('',(0.,1.,0.));
#378 = DIRECTION('',(0.,-0.,1.));
#379 = ORIENTED_EDGE('',*,*,#380,.F.);
#380 = EDGE_CURVE('',#381,#372,#383,.T.);
#381 = VERTEX_POINT('',#382);
#382 = CARTESIAN_POINT('',(41.75,10.,15.35));
#383 = CIRCLE('',#384,3.25);
#384 = AXIS2_PLACEMENT_3D('',#385,#386,#387);
#385 = CARTESIAN_POINT('',(45.,10.,15.35));
#386 = DIRECTION('',(0.,1.,0.));
#387 = DIRECTION('',(0.,-0.,1.));
#388 = ORIENTED_EDGE('',*,*,#389,.T.);
#389 = EDGE_CURVE('',#381,#390,#392,.T.);
#390 = VERTEX_POINT('',#391);
#391 = CARTESIAN_POINT('',(41.75,10.,6.));
#392 = LINE('',#393,#394);
#393 = CARTESIAN_POINT('',(41.75,10.,-0.5));
#394 = VECTOR('',#395,1.);
#395 = DIRECTION('',(-0.,0.,-1.));
#396 = ORIENTED_EDGE('',*,*,#397,.F.);
#397 = EDGE_CURVE('',#398,#390,#400,.T.);
#398 = VERTEX_POINT('',#399);
#399 = CARTESIAN_POINT('',(40.25,10.,6.));
#400 = LINE('',#401,#402);
#401 = CARTESIAN_POINT('',(27.625,10.,6.));
#402 = VECTOR('',#403,1.);
#403 = DIRECTION('',(1.,0.,-0.));
#404 = ORIENTED_EDGE('',*,*,#405,.T.);
#405 = EDGE_CURVE('',#398,#406,#408,.T.);
#406 = VERTEX_POINT('',#407);
#407 = CARTESIAN_POINT('',(40.25,10.,0.));
#408 = LINE('',#409,#410);
#409 = CARTESIAN_POINT('',(40.25,10.,-0.5));
#410 = VECTOR('',#411,1.);
#411 = DIRECTION('',(-0.,0.,-1.));
#412 = ORIENTED_EDGE('',*,*,#413,.F.);
#413 = EDGE_CURVE('',#414,#406,#416,.T.);
#414 = VERTEX_POINT('',#415);
#415 = CARTESIAN_POINT('',(15.,10.,0.));
#416 = LINE('',#417,#418);
#417 = CARTESIAN_POINT('',(15.,10.,0.));
#418 = VECTOR('',#419,1.);
#419 = DIRECTION('',(1.,0.,-0.));
#420 = ORIENTED_EDGE('',*,*,#421,.T.);
#421 = EDGE_CURVE('',#414,#198,#422,.T.);
#422 = LINE('',#423,#424);
#423 = CARTESIAN_POINT('',(15.,10.,0.));
#424 = VECTOR('',#425,1.);
#425 = DIRECTION('',(0.,0.,1.));
#426 = ORIENTED_EDGE('',*,*,#195,.F.);
#427 = FACE_BOUND('',#428,.F.);
#428 = EDGE_LOOP('',(#429));
#429 = ORIENTED_EDGE('',*,*,#430,.F.);
#430 = EDGE_CURVE('',#431,#431,#433,.T.);
#431 = VERTEX_POINT('',#432);
#432 = CARTESIAN_POINT('',(38.418206931238,10.,14.65));
#433 = CIRCLE('',#434,3.1);
#434 = AXIS2_PLACEMENT_3D('',#435,#436,#437);
#435 = CARTESIAN_POINT('',(38.418206931238,10.,11.55));
#436 = DIRECTION('',(0.,1.,0.));
#437 = DIRECTION('',(0.,-0.,1.));
#438 = FACE_BOUND('',#439,.F.);
#439 = EDGE_LOOP('',(#440));
#440 = ORIENTED_EDGE('',*,*,#441,.F.);
#441 = EDGE_CURVE('',#442,#442,#444,.T.);
#442 = VERTEX_POINT('',#443);
#443 = CARTESIAN_POINT('',(45.,10.,26.05));
#444 = CIRCLE('',#445,3.1);
#445 = AXIS2_PLACEMENT_3D('',#446,#447,#448);
#446 = CARTESIAN_POINT('',(45.,10.,22.95));
#447 = DIRECTION('',(0.,1.,0.));
#448 = DIRECTION('',(0.,-0.,1.));
#449 = FACE_BOUND('',#450,.F.);
#450 = EDGE_LOOP('',(#451));
#451 = ORIENTED_EDGE('',*,*,#452,.F.);
#452 = EDGE_CURVE('',#453,#453,#455,.T.);
#453 = VERTEX_POINT('',#454);
#454 = CARTESIAN_POINT('',(51.581793068762,10.,14.65));
#455 = CIRCLE('',#456,3.1);
#456 = AXIS2_PLACEMENT_3D('',#457,#458,#459);
#457 = CARTESIAN_POINT('',(51.581793068762,10.,11.55));
#458 = DIRECTION('',(0.,1.,0.));
#459 = DIRECTION('',(0.,-0.,1.));
#460 = PLANE('',#461);
#461 = AXIS2_PLACEMENT_3D('',#462,#463,#464);
#462 = CARTESIAN_POINT('',(15.,10.,0.));
#463 = DIRECTION('',(-0.,1.,0.));
#464 = DIRECTION('',(0.,0.,1.));
#465 = ADVANCED_FACE('',(#466),#484,.T.);
#466 = FACE_BOUND('',#467,.T.);
#467 = EDGE_LOOP('',(#468,#469,#477,#483));
#468 = ORIENTED_EDGE('',*,*,#331,.F.);
#469 = ORIENTED_EDGE('',*,*,#470,.T.);
#470 = EDGE_CURVE('',#332,#471,#473,.T.);
#471 = VERTEX_POINT('',#472);
#472 = CARTESIAN_POINT('',(75.,27.,0.));
#473 = LINE('',#474,#475);
#474 = CARTESIAN_POINT('',(75.,10.,0.));
#475 = VECTOR('',#476,1.);
#476 = DIRECTION('',(-0.,1.,0.));
#477 = ORIENTED_EDGE('',*,*,#478,.T.);
#478 = EDGE_CURVE('',#471,#214,#479,.T.);
#479 = LINE('',#480,#481);
#480 = CARTESIAN_POINT('',(75.,27.,0.));
#481 = VECTOR('',#482,1.);
#482 = DIRECTION('',(0.,0.,1.));
#483 = ORIENTED_EDGE('',*,*,#221,.F.);
#484 = PLANE('',#485);
#485 = AXIS2_PLACEMENT_3D('',#486,#487,#488);
#486 = CARTESIAN_POINT('',(75.,10.,0.));
#487 = DIRECTION('',(1.,0.,-0.));
#488 = DIRECTION('',(0.,0.,1.));
#489 = ADVANCED_FACE('',(#490),#508,.F.);
#490 = FACE_BOUND('',#491,.F.);
#491 = EDGE_LOOP('',(#492,#493,#501,#507));
#492 = ORIENTED_EDGE('',*,*,#421,.F.);
#493 = ORIENTED_EDGE('',*,*,#494,.T.);
#494 = EDGE_CURVE('',#414,#495,#497,.T.);
#495 = VERTEX_POINT('',#496);
#496 = CARTESIAN_POINT('',(15.,27.,0.));
#497 = LINE('',#498,#499);
#498 = CARTESIAN_POINT('',(15.,10.,0.));
#499 = VECTOR('',#500,1.);
#500 = DIRECTION('',(-0.,1.,0.));
#501 = ORIENTED_EDGE('',*,*,#502,.T.);
#502 = EDGE_CURVE('',#495,#206,#503,.T.);
#503 = LINE('',#504,#505);
#504 = CARTESIAN_POINT('',(15.,27.,0.));
#505 = VECTOR('',#506,1.);
#506 = DIRECTION('',(0.,0.,1.));
#507 = ORIENTED_EDGE('',*,*,#205,.F.);
#508 = PLANE('',#509);
#509 = AXIS2_PLACEMENT_3D('',#510,#511,#512);
#510 = CARTESIAN_POINT('',(15.,10.,0.));
#511 = DIRECTION('',(1.,0.,-0.));
#512 = DIRECTION('',(0.,0.,1.));
#513 = ADVANCED_FACE('',(#514),#662,.T.);
#514 = FACE_BOUND('',#515,.T.);
#515 = EDGE_LOOP('',(#516,#517,#525,#533,#541,#550,#559,#568,#576,#585,
    #594,#603,#611,#620,#629,#638,#646,#654,#660,#661));
#516 = ORIENTED_EDGE('',*,*,#478,.F.);
#517 = ORIENTED_EDGE('',*,*,#518,.F.);
#518 = EDGE_CURVE('',#519,#471,#521,.T.);
#519 = VERTEX_POINT('',#520);
#520 = CARTESIAN_POINT('',(49.75,27.,0.));
#521 = LINE('',#522,#523);
#522 = CARTESIAN_POINT('',(15.,27.,0.));
#523 = VECTOR('',#524,1.);
#524 = DIRECTION('',(1.,0.,-0.));
#525 = ORIENTED_EDGE('',*,*,#526,.F.);
#526 = EDGE_CURVE('',#527,#519,#529,.T.);
#527 = VERTEX_POINT('',#528);
#528 = CARTESIAN_POINT('',(49.75,27.,6.96));
#529 = LINE('',#530,#531);
#530 = CARTESIAN_POINT('',(49.75,27.,-0.5));
#531 = VECTOR('',#532,1.);
#532 = DIRECTION('',(-0.,0.,-1.));
#533 = ORIENTED_EDGE('',*,*,#534,.T.);
#534 = EDGE_CURVE('',#527,#535,#537,.T.);
#535 = VERTEX_POINT('',#536);
#536 = CARTESIAN_POINT('',(50.058903043151,27.,6.96));
#537 = LINE('',#538,#539);
#538 = CARTESIAN_POINT('',(47.5,27.,6.96));
#539 = VECTOR('',#540,1.);
#540 = DIRECTION('',(1.,0.,0.));
#541 = ORIENTED_EDGE('',*,*,#542,.T.);
#542 = EDGE_CURVE('',#535,#543,#545,.T.);
#543 = VERTEX_POINT('',#544);
#544 = CARTESIAN_POINT('',(51.613838926181,27.,8.125495434934));
#545 = CIRCLE('',#546,1.62);
#546 = AXIS2_PLACEMENT_3D('',#547,#548,#549);
#547 = CARTESIAN_POINT('',(50.058903043151,27.,8.58));
#548 = DIRECTION('',(0.,-1.,-2.22044604925E-16));
#549 = DIRECTION('',(-2.48689957516E-14,2.22044604925E-16,-1.));
#550 = ORIENTED_EDGE('',*,*,#551,.T.);
#551 = EDGE_CURVE('',#543,#552,#554,.T.);
#552 = VERTEX_POINT('',#553);
#553 = CARTESIAN_POINT('',(54.416299627551,27.,12.979499755922));
#554 = CIRCLE('',#555,9.67);
#555 = AXIS2_PLACEMENT_3D('',#556,#557,#558);
#556 = CARTESIAN_POINT('',(45.,27.,15.18));
#557 = DIRECTION('',(4.473221495647E-33,-1.,-2.22044604925E-16));
#558 = DIRECTION('',(0.681401770154,1.625165726727E-16,-0.73190957613));
#559 = ORIENTED_EDGE('',*,*,#560,.T.);
#560 = EDGE_CURVE('',#552,#561,#563,.T.);
#561 = VERTEX_POINT('',#562);
#562 = CARTESIAN_POINT('',(54.648180340684,27.,14.908861449349));
#563 = CIRCLE('',#564,1.62);
#564 = AXIS2_PLACEMENT_3D('',#565,#566,#567);
#565 = CARTESIAN_POINT('',(53.245219186553,27.,14.098861449349));
#566 = DIRECTION('',(-4.101169456807E-33,-1.,-2.22044604925E-16));
#567 = DIRECTION('',(0.70784239944,1.568457357007E-16,-0.706370396856));
#568 = ORIENTED_EDGE('',*,*,#569,.T.);
#569 = EDGE_CURVE('',#561,#570,#572,.T.);
#570 = VERTEX_POINT('',#571);
#571 = CARTESIAN_POINT('',(49.589277297533,27.,23.671138550651));
#572 = LINE('',#573,#574);
#573 = CARTESIAN_POINT('',(54.648180340684,27.,14.908861449349));
#574 = VECTOR('',#575,1.);
#575 = DIRECTION('',(-0.5,-1.922962686384E-16,0.866025403784));
#576 = ORIENTED_EDGE('',*,*,#577,.T.);
#577 = EDGE_CURVE('',#570,#578,#580,.T.);
#578 = VERTEX_POINT('',#579);
#579 = CARTESIAN_POINT('',(47.80246070137,27.,24.435004809144));
#580 = CIRCLE('',#581,1.62);
#581 = AXIS2_PLACEMENT_3D('',#582,#583,#584);
#582 = CARTESIAN_POINT('',(48.186316143402,27.,22.861138550651));
#583 = DIRECTION('',(3.603391568781E-33,-1.,-2.22044604925E-16));
#584 = DIRECTION('',(0.866025403784,-1.110223024625E-16,0.5));
#585 = ORIENTED_EDGE('',*,*,#586,.T.);
#586 = EDGE_CURVE('',#578,#587,#589,.T.);
#587 = VERTEX_POINT('',#588);
#588 = CARTESIAN_POINT('',(42.19753929863,27.,24.435004809144));
#589 = CIRCLE('',#590,9.67);
#590 = AXIS2_PLACEMENT_3D('',#591,#592,#593);
#591 = CARTESIAN_POINT('',(45.,27.,15.18));
#592 = DIRECTION('',(-2.672331468585E-33,-1.,-2.22044604925E-16));
#593 = DIRECTION('',(0.293151401125,-2.122893041805E-16,0.956066031202)
  );
#594 = ORIENTED_EDGE('',*,*,#595,.T.);
#595 = EDGE_CURVE('',#587,#596,#598,.T.);
#596 = VERTEX_POINT('',#597);
#597 = CARTESIAN_POINT('',(40.410722702467,27.,23.671138550651));
#598 = CIRCLE('',#599,1.62);
#599 = AXIS2_PLACEMENT_3D('',#600,#601,#602);
#600 = CARTESIAN_POINT('',(41.813683856598,27.,22.861138550651));
#601 = DIRECTION('',(8.871545530748E-34,-1.,-2.22044604925E-16));
#602 = DIRECTION('',(0.257813508439,-2.145383200467E-16,0.966194698219)
  );
#603 = ORIENTED_EDGE('',*,*,#604,.T.);
#604 = EDGE_CURVE('',#596,#605,#607,.T.);
#605 = VERTEX_POINT('',#606);
#606 = CARTESIAN_POINT('',(35.351819659317,27.,14.908861449349));
#607 = LINE('',#608,#609);
#608 = CARTESIAN_POINT('',(40.410722702467,27.,23.671138550651));
#609 = VECTOR('',#610,1.);
#610 = DIRECTION('',(-0.5,1.922962686384E-16,-0.866025403784));
#611 = ORIENTED_EDGE('',*,*,#612,.T.);
#612 = EDGE_CURVE('',#605,#613,#615,.T.);
#613 = VERTEX_POINT('',#614);
#614 = CARTESIAN_POINT('',(35.583700372449,27.,12.979499755922));
#615 = CIRCLE('',#616,1.62);
#616 = AXIS2_PLACEMENT_3D('',#617,#618,#619);
#617 = CARTESIAN_POINT('',(36.754780813447,27.,14.098861449349));
#618 = DIRECTION('',(1.27865167935E-33,-1.,-2.22044604925E-16));
#619 = DIRECTION('',(-0.866025403784,-1.110223024625E-16,0.5));
#620 = ORIENTED_EDGE('',*,*,#621,.T.);
#621 = EDGE_CURVE('',#613,#622,#624,.T.);
#622 = VERTEX_POINT('',#623);
#623 = CARTESIAN_POINT('',(38.386161073819,27.,8.125495434934));
#624 = CIRCLE('',#625,9.67);
#625 = AXIS2_PLACEMENT_3D('',#626,#627,#628);
#626 = CARTESIAN_POINT('',(45.,27.,15.18));
#627 = DIRECTION('',(2.007383461135E-33,-1.,-2.22044604925E-16));
#628 = DIRECTION('',(-0.974553171279,4.97727315078E-17,-0.224156455072)
  );
#629 = ORIENTED_EDGE('',*,*,#630,.T.);
#630 = EDGE_CURVE('',#622,#631,#633,.T.);
#631 = VERTEX_POINT('',#632);
#632 = CARTESIAN_POINT('',(39.941096956849,27.,6.96));
#633 = CIRCLE('',#634,1.62);
#634 = AXIS2_PLACEMENT_3D('',#635,#636,#637);
#635 = CARTESIAN_POINT('',(39.941096956849,27.,8.58));
#636 = DIRECTION('',(-4.0738051538E-33,-1.,-2.22044604925E-16));
#637 = DIRECTION('',(-0.965655907879,5.769258434605E-17,-0.259824301363)
  );
#638 = ORIENTED_EDGE('',*,*,#639,.T.);
#639 = EDGE_CURVE('',#631,#640,#642,.T.);
#640 = VERTEX_POINT('',#641);
#641 = CARTESIAN_POINT('',(40.25,27.,6.96));
#642 = LINE('',#643,#644);
#643 = CARTESIAN_POINT('',(39.941096956849,27.,6.96));
#644 = VECTOR('',#645,1.);
#645 = DIRECTION('',(1.,-1.233123556334E-30,5.553494788808E-15));
#646 = ORIENTED_EDGE('',*,*,#647,.T.);
#647 = EDGE_CURVE('',#640,#648,#650,.T.);
#648 = VERTEX_POINT('',#649);
#649 = CARTESIAN_POINT('',(40.25,27.,0.));
#650 = LINE('',#651,#652);
#651 = CARTESIAN_POINT('',(40.25,27.,-0.5));
#652 = VECTOR('',#653,1.);
#653 = DIRECTION('',(-0.,0.,-1.));
#654 = ORIENTED_EDGE('',*,*,#655,.F.);
#655 = EDGE_CURVE('',#495,#648,#656,.T.);
#656 = LINE('',#657,#658);
#657 = CARTESIAN_POINT('',(15.,27.,0.));
#658 = VECTOR('',#659,1.);
#659 = DIRECTION('',(1.,0.,-0.));
#660 = ORIENTED_EDGE('',*,*,#502,.T.);
#661 = ORIENTED_EDGE('',*,*,#213,.F.);
#662 = PLANE('',#663);
#663 = AXIS2_PLACEMENT_3D('',#664,#665,#666);
#664 = CARTESIAN_POINT('',(15.,27.,0.));
#665 = DIRECTION('',(-0.,1.,0.));
#666 = DIRECTION('',(0.,0.,1.));
#667 = ADVANCED_FACE('',(#668),#679,.F.);
#668 = FACE_BOUND('',#669,.F.);
#669 = EDGE_LOOP('',(#670,#671,#672,#673));
#670 = ORIENTED_EDGE('',*,*,#655,.F.);
#671 = ORIENTED_EDGE('',*,*,#494,.F.);
#672 = ORIENTED_EDGE('',*,*,#413,.T.);
#673 = ORIENTED_EDGE('',*,*,#674,.T.);
#674 = EDGE_CURVE('',#406,#648,#675,.T.);
#675 = LINE('',#676,#677);
#676 = CARTESIAN_POINT('',(40.25,9.5,0.));
#677 = VECTOR('',#678,1.);
#678 = DIRECTION('',(-0.,1.,0.));
#679 = PLANE('',#680);
#680 = AXIS2_PLACEMENT_3D('',#681,#682,#683);
#681 = CARTESIAN_POINT('',(15.,10.,0.));
#682 = DIRECTION('',(0.,0.,1.));
#683 = DIRECTION('',(1.,0.,-0.));
#684 = ADVANCED_FACE('',(#685),#710,.F.);
#685 = FACE_BOUND('',#686,.F.);
#686 = EDGE_LOOP('',(#687,#695,#696,#704));
#687 = ORIENTED_EDGE('',*,*,#688,.F.);
#688 = EDGE_CURVE('',#398,#689,#691,.T.);
#689 = VERTEX_POINT('',#690);
#690 = CARTESIAN_POINT('',(40.25,18.,6.));
#691 = LINE('',#692,#693);
#692 = CARTESIAN_POINT('',(40.25,9.,6.));
#693 = VECTOR('',#694,1.);
#694 = DIRECTION('',(-0.,1.,0.));
#695 = ORIENTED_EDGE('',*,*,#397,.T.);
#696 = ORIENTED_EDGE('',*,*,#697,.F.);
#697 = EDGE_CURVE('',#698,#390,#700,.T.);
#698 = VERTEX_POINT('',#699);
#699 = CARTESIAN_POINT('',(41.75,18.,6.));
#700 = LINE('',#701,#702);
#701 = CARTESIAN_POINT('',(41.75,9.,6.));
#702 = VECTOR('',#703,1.);
#703 = DIRECTION('',(0.,-1.,0.));
#704 = ORIENTED_EDGE('',*,*,#705,.F.);
#705 = EDGE_CURVE('',#689,#698,#706,.T.);
#706 = LINE('',#707,#708);
#707 = CARTESIAN_POINT('',(40.25,18.,6.));
#708 = VECTOR('',#709,1.);
#709 = DIRECTION('',(1.,0.,-0.));
#710 = PLANE('',#711);
#711 = AXIS2_PLACEMENT_3D('',#712,#713,#714);
#712 = CARTESIAN_POINT('',(40.25,9.,6.));
#713 = DIRECTION('',(0.,0.,1.));
#714 = DIRECTION('',(1.,0.,-0.));
#715 = ADVANCED_FACE('',(#716),#734,.T.);
#716 = FACE_BOUND('',#717,.T.);
#717 = EDGE_LOOP('',(#718,#719,#720,#728));
#718 = ORIENTED_EDGE('',*,*,#389,.T.);
#719 = ORIENTED_EDGE('',*,*,#697,.F.);
#720 = ORIENTED_EDGE('',*,*,#721,.T.);
#721 = EDGE_CURVE('',#698,#722,#724,.T.);
#722 = VERTEX_POINT('',#723);
#723 = CARTESIAN_POINT('',(41.75,18.,15.35));
#724 = LINE('',#725,#726);
#725 = CARTESIAN_POINT('',(41.75,18.,-1.));
#726 = VECTOR('',#727,1.);
#727 = DIRECTION('',(0.,0.,1.));
#728 = ORIENTED_EDGE('',*,*,#729,.F.);
#729 = EDGE_CURVE('',#381,#722,#730,.T.);
#730 = LINE('',#731,#732);
#731 = CARTESIAN_POINT('',(41.75,9.,15.35));
#732 = VECTOR('',#733,1.);
#733 = DIRECTION('',(-0.,1.,0.));
#734 = PLANE('',#735);
#735 = AXIS2_PLACEMENT_3D('',#736,#737,#738);
#736 = CARTESIAN_POINT('',(41.75,9.,-1.));
#737 = DIRECTION('',(1.,0.,-0.));
#738 = DIRECTION('',(0.,0.,1.));
#739 = ADVANCED_FACE('',(#740),#765,.F.);
#740 = FACE_BOUND('',#741,.F.);
#741 = EDGE_LOOP('',(#742,#743,#751,#759));
#742 = ORIENTED_EDGE('',*,*,#363,.T.);
#743 = ORIENTED_EDGE('',*,*,#744,.F.);
#744 = EDGE_CURVE('',#745,#356,#747,.T.);
#745 = VERTEX_POINT('',#746);
#746 = CARTESIAN_POINT('',(48.25,18.,6.));
#747 = LINE('',#748,#749);
#748 = CARTESIAN_POINT('',(48.25,9.,6.));
#749 = VECTOR('',#750,1.);
#750 = DIRECTION('',(0.,-1.,0.));
#751 = ORIENTED_EDGE('',*,*,#752,.T.);
#752 = EDGE_CURVE('',#745,#753,#755,.T.);
#753 = VERTEX_POINT('',#754);
#754 = CARTESIAN_POINT('',(48.25,18.,15.35));
#755 = LINE('',#756,#757);
#756 = CARTESIAN_POINT('',(48.25,18.,-1.));
#757 = VECTOR('',#758,1.);
#758 = DIRECTION('',(0.,0.,1.));
#759 = ORIENTED_EDGE('',*,*,#760,.F.);
#760 = EDGE_CURVE('',#364,#753,#761,.T.);
#761 = LINE('',#762,#763);
#762 = CARTESIAN_POINT('',(48.25,9.,15.35));
#763 = VECTOR('',#764,1.);
#764 = DIRECTION('',(-0.,1.,0.));
#765 = PLANE('',#766);
#766 = AXIS2_PLACEMENT_3D('',#767,#768,#769);
#767 = CARTESIAN_POINT('',(48.25,9.,-1.));
#768 = DIRECTION('',(1.,0.,-0.));
#769 = DIRECTION('',(0.,0.,1.));
#770 = ADVANCED_FACE('',(#771),#789,.F.);
#771 = FACE_BOUND('',#772,.F.);
#772 = EDGE_LOOP('',(#773,#774,#775,#783));
#773 = ORIENTED_EDGE('',*,*,#744,.T.);
#774 = ORIENTED_EDGE('',*,*,#355,.T.);
#775 = ORIENTED_EDGE('',*,*,#776,.T.);
#776 = EDGE_CURVE('',#348,#777,#779,.T.);
#777 = VERTEX_POINT('',#778);
#778 = CARTESIAN_POINT('',(49.75,18.,6.));
#779 = LINE('',#780,#781);
#780 = CARTESIAN_POINT('',(49.75,9.,6.));
#781 = VECTOR('',#782,1.);
#782 = DIRECTION('',(-0.,1.,0.));
#783 = ORIENTED_EDGE('',*,*,#784,.F.);
#784 = EDGE_CURVE('',#745,#777,#785,.T.);
#785 = LINE('',#786,#787);
#786 = CARTESIAN_POINT('',(40.25,18.,6.));
#787 = VECTOR('',#788,1.);
#788 = DIRECTION('',(1.,0.,-0.));
#789 = PLANE('',#790);
#790 = AXIS2_PLACEMENT_3D('',#791,#792,#793);
#791 = CARTESIAN_POINT('',(40.25,9.,6.));
#792 = DIRECTION('',(0.,0.,1.));
#793 = DIRECTION('',(1.,0.,-0.));
#794 = ADVANCED_FACE('',(#795),#806,.F.);
#795 = FACE_BOUND('',#796,.F.);
#796 = EDGE_LOOP('',(#797,#798,#804,#805));
#797 = ORIENTED_EDGE('',*,*,#518,.F.);
#798 = ORIENTED_EDGE('',*,*,#799,.F.);
#799 = EDGE_CURVE('',#340,#519,#800,.T.);
#800 = LINE('',#801,#802);
#801 = CARTESIAN_POINT('',(49.75,9.5,0.));
#802 = VECTOR('',#803,1.);
#803 = DIRECTION('',(-0.,1.,0.));
#804 = ORIENTED_EDGE('',*,*,#339,.T.);
#805 = ORIENTED_EDGE('',*,*,#470,.T.);
#806 = PLANE('',#807);
#807 = AXIS2_PLACEMENT_3D('',#808,#809,#810);
#808 = CARTESIAN_POINT('',(15.,10.,0.));
#809 = DIRECTION('',(0.,0.,1.));
#810 = DIRECTION('',(1.,0.,-0.));
#811 = ADVANCED_FACE('',(#812),#831,.F.);
#812 = FACE_BOUND('',#813,.F.);
#813 = EDGE_LOOP('',(#814,#823,#829,#830));
#814 = ORIENTED_EDGE('',*,*,#815,.F.);
#815 = EDGE_CURVE('',#816,#816,#818,.T.);
#816 = VERTEX_POINT('',#817);
#817 = CARTESIAN_POINT('',(38.418206931238,10.5,14.65));
#818 = CIRCLE('',#819,3.1);
#819 = AXIS2_PLACEMENT_3D('',#820,#821,#822);
#820 = CARTESIAN_POINT('',(38.418206931238,10.5,11.55));
#821 = DIRECTION('',(0.,1.,0.));
#822 = DIRECTION('',(0.,-0.,1.));
#823 = ORIENTED_EDGE('',*,*,#824,.F.);
#824 = EDGE_CURVE('',#431,#816,#825,.T.);
#825 = LINE('',#826,#827);
#826 = CARTESIAN_POINT('',(38.418206931238,10.,14.65));
#827 = VECTOR('',#828,1.);
#828 = DIRECTION('',(0.,1.,0.));
#829 = ORIENTED_EDGE('',*,*,#430,.T.);
#830 = ORIENTED_EDGE('',*,*,#824,.T.);
#831 = CYLINDRICAL_SURFACE('',#832,3.1);
#832 = AXIS2_PLACEMENT_3D('',#833,#834,#835);
#833 = CARTESIAN_POINT('',(38.418206931238,10.,11.55));
#834 = DIRECTION('',(0.,1.,0.));
#835 = DIRECTION('',(0.,-0.,1.));
#836 = ADVANCED_FACE('',(#837),#856,.F.);
#837 = FACE_BOUND('',#838,.F.);
#838 = EDGE_LOOP('',(#839,#848,#854,#855));
#839 = ORIENTED_EDGE('',*,*,#840,.F.);
#840 = EDGE_CURVE('',#841,#841,#843,.T.);
#841 = VERTEX_POINT('',#842);
#842 = CARTESIAN_POINT('',(45.,10.5,26.05));
#843 = CIRCLE('',#844,3.1);
#844 = AXIS2_PLACEMENT_3D('',#845,#846,#847);
#845 = CARTESIAN_POINT('',(45.,10.5,22.95));
#846 = DIRECTION('',(0.,1.,0.));
#847 = DIRECTION('',(0.,-0.,1.));
#848 = ORIENTED_EDGE('',*,*,#849,.F.);
#849 = EDGE_CURVE('',#442,#841,#850,.T.);
#850 = LINE('',#851,#852);
#851 = CARTESIAN_POINT('',(45.,10.,26.05));
#852 = VECTOR('',#853,1.);
#853 = DIRECTION('',(0.,1.,0.));
#854 = ORIENTED_EDGE('',*,*,#441,.T.);
#855 = ORIENTED_EDGE('',*,*,#849,.T.);
#856 = CYLINDRICAL_SURFACE('',#857,3.1);
#857 = AXIS2_PLACEMENT_3D('',#858,#859,#860);
#858 = CARTESIAN_POINT('',(45.,10.,22.95));
#859 = DIRECTION('',(0.,1.,0.));
#860 = DIRECTION('',(0.,-0.,1.));
#861 = ADVANCED_FACE('',(#862),#881,.F.);
#862 = FACE_BOUND('',#863,.F.);
#863 = EDGE_LOOP('',(#864,#873,#879,#880));
#864 = ORIENTED_EDGE('',*,*,#865,.F.);
#865 = EDGE_CURVE('',#866,#866,#868,.T.);
#866 = VERTEX_POINT('',#867);
#867 = CARTESIAN_POINT('',(51.581793068762,10.5,14.65));
#868 = CIRCLE('',#869,3.1);
#869 = AXIS2_PLACEMENT_3D('',#870,#871,#872);
#870 = CARTESIAN_POINT('',(51.581793068762,10.5,11.55));
#871 = DIRECTION('',(0.,1.,0.));
#872 = DIRECTION('',(0.,-0.,1.));
#873 = ORIENTED_EDGE('',*,*,#874,.F.);
#874 = EDGE_CURVE('',#453,#866,#875,.T.);
#875 = LINE('',#876,#877);
#876 = CARTESIAN_POINT('',(51.581793068762,10.,14.65));
#877 = VECTOR('',#878,1.);
#878 = DIRECTION('',(0.,1.,0.));
#879 = ORIENTED_EDGE('',*,*,#452,.T.);
#880 = ORIENTED_EDGE('',*,*,#874,.T.);
#881 = CYLINDRICAL_SURFACE('',#882,3.1);
#882 = AXIS2_PLACEMENT_3D('',#883,#884,#885);
#883 = CARTESIAN_POINT('',(51.581793068762,10.,11.55));
#884 = DIRECTION('',(0.,1.,0.));
#885 = DIRECTION('',(0.,-0.,1.));
#886 = ADVANCED_FACE('',(#887),#912,.T.);
#887 = FACE_BOUND('',#888,.T.);
#888 = EDGE_LOOP('',(#889,#890,#898,#906));
#889 = ORIENTED_EDGE('',*,*,#639,.F.);
#890 = ORIENTED_EDGE('',*,*,#891,.T.);
#891 = EDGE_CURVE('',#631,#892,#894,.T.);
#892 = VERTEX_POINT('',#893);
#893 = CARTESIAN_POINT('',(39.941096956849,18.,6.96));
#894 = LINE('',#895,#896);
#895 = CARTESIAN_POINT('',(39.941096956849,27.,6.96));
#896 = VECTOR('',#897,1.);
#897 = DIRECTION('',(0.,-1.,-2.22044604925E-16));
#898 = ORIENTED_EDGE('',*,*,#899,.T.);
#899 = EDGE_CURVE('',#892,#900,#902,.T.);
#900 = VERTEX_POINT('',#901);
#901 = CARTESIAN_POINT('',(40.25,18.,6.96));
#902 = LINE('',#903,#904);
#903 = CARTESIAN_POINT('',(39.941096956849,18.,6.96));
#904 = VECTOR('',#905,1.);
#905 = DIRECTION('',(1.,-1.233123556334E-30,5.553494788808E-15));
#906 = ORIENTED_EDGE('',*,*,#907,.T.);
#907 = EDGE_CURVE('',#900,#640,#908,.T.);
#908 = LINE('',#909,#910);
#909 = CARTESIAN_POINT('',(40.25,22.5,6.96));
#910 = VECTOR('',#911,1.);
#911 = DIRECTION('',(0.,1.,2.22044604925E-16));
#912 = PLANE('',#913);
#913 = AXIS2_PLACEMENT_3D('',#914,#915,#916);
#914 = CARTESIAN_POINT('',(39.941096956849,27.,6.96));
#915 = DIRECTION('',(-5.553494788808E-15,-2.22044604925E-16,1.));
#916 = DIRECTION('',(1.,-1.233123556334E-30,5.553494788808E-15));
#917 = ADVANCED_FACE('',(#918),#937,.F.);
#918 = FACE_BOUND('',#919,.T.);
#919 = EDGE_LOOP('',(#920,#928,#935,#936));
#920 = ORIENTED_EDGE('',*,*,#921,.T.);
#921 = EDGE_CURVE('',#622,#922,#924,.T.);
#922 = VERTEX_POINT('',#923);
#923 = CARTESIAN_POINT('',(38.386161073819,18.,8.125495434934));
#924 = LINE('',#925,#926);
#925 = CARTESIAN_POINT('',(38.386161073819,27.,8.125495434934));
#926 = VECTOR('',#927,1.);
#927 = DIRECTION('',(0.,-1.,-2.22044604925E-16));
#928 = ORIENTED_EDGE('',*,*,#929,.T.);
#929 = EDGE_CURVE('',#922,#892,#930,.T.);
#930 = CIRCLE('',#931,1.62);
#931 = AXIS2_PLACEMENT_3D('',#932,#933,#934);
#932 = CARTESIAN_POINT('',(39.941096956849,18.,8.58));
#933 = DIRECTION('',(-4.0738051538E-33,-1.,-2.22044604925E-16));
#934 = DIRECTION('',(-0.965655907879,5.769258434605E-17,-0.259824301363)
  );
#935 = ORIENTED_EDGE('',*,*,#891,.F.);
#936 = ORIENTED_EDGE('',*,*,#630,.F.);
#937 = CYLINDRICAL_SURFACE('',#938,1.62);
#938 = AXIS2_PLACEMENT_3D('',#939,#940,#941);
#939 = CARTESIAN_POINT('',(39.941096956849,27.,8.58));
#940 = DIRECTION('',(0.,1.,2.22044604925E-16));
#941 = DIRECTION('',(-0.965655907879,5.769258434605E-17,-0.259824301363)
  );
#942 = ADVANCED_FACE('',(#943),#962,.F.);
#943 = FACE_BOUND('',#944,.T.);
#944 = EDGE_LOOP('',(#945,#953,#960,#961));
#945 = ORIENTED_EDGE('',*,*,#946,.T.);
#946 = EDGE_CURVE('',#613,#947,#949,.T.);
#947 = VERTEX_POINT('',#948);
#948 = CARTESIAN_POINT('',(35.583700372449,18.,12.979499755922));
#949 = LINE('',#950,#951);
#950 = CARTESIAN_POINT('',(35.583700372449,27.,12.979499755922));
#951 = VECTOR('',#952,1.);
#952 = DIRECTION('',(0.,-1.,-2.22044604925E-16));
#953 = ORIENTED_EDGE('',*,*,#954,.T.);
#954 = EDGE_CURVE('',#947,#922,#955,.T.);
#955 = CIRCLE('',#956,9.67);
#956 = AXIS2_PLACEMENT_3D('',#957,#958,#959);
#957 = CARTESIAN_POINT('',(45.,18.,15.18));
#958 = DIRECTION('',(2.007383461135E-33,-1.,-2.22044604925E-16));
#959 = DIRECTION('',(-0.974553171279,4.97727315078E-17,-0.224156455072)
  );
#960 = ORIENTED_EDGE('',*,*,#921,.F.);
#961 = ORIENTED_EDGE('',*,*,#621,.F.);
#962 = CYLINDRICAL_SURFACE('',#963,9.67);
#963 = AXIS2_PLACEMENT_3D('',#964,#965,#966);
#964 = CARTESIAN_POINT('',(45.,27.,15.18));
#965 = DIRECTION('',(0.,1.,2.22044604925E-16));
#966 = DIRECTION('',(-0.974553171279,4.97727315078E-17,-0.224156455072)
  );
#967 = ADVANCED_FACE('',(#968),#987,.F.);
#968 = FACE_BOUND('',#969,.T.);
#969 = EDGE_LOOP('',(#970,#978,#985,#986));
#970 = ORIENTED_EDGE('',*,*,#971,.T.);
#971 = EDGE_CURVE('',#605,#972,#974,.T.);
#972 = VERTEX_POINT('',#973);
#973 = CARTESIAN_POINT('',(35.351819659317,18.,14.908861449349));
#974 = LINE('',#975,#976);
#975 = CARTESIAN_POINT('',(35.351819659317,27.,14.908861449349));
#976 = VECTOR('',#977,1.);
#977 = DIRECTION('',(0.,-1.,-2.22044604925E-16));
#978 = ORIENTED_EDGE('',*,*,#979,.T.);
#979 = EDGE_CURVE('',#972,#947,#980,.T.);
#980 = CIRCLE('',#981,1.62);
#981 = AXIS2_PLACEMENT_3D('',#982,#983,#984);
#982 = CARTESIAN_POINT('',(36.754780813447,18.,14.098861449349));
#983 = DIRECTION('',(1.27865167935E-33,-1.,-2.22044604925E-16));
#984 = DIRECTION('',(-0.866025403784,-1.110223024625E-16,0.5));
#985 = ORIENTED_EDGE('',*,*,#946,.F.);
#986 = ORIENTED_EDGE('',*,*,#612,.F.);
#987 = CYLINDRICAL_SURFACE('',#988,1.62);
#988 = AXIS2_PLACEMENT_3D('',#989,#990,#991);
#989 = CARTESIAN_POINT('',(36.754780813447,27.,14.098861449349));
#990 = DIRECTION('',(0.,1.,2.22044604925E-16));
#991 = DIRECTION('',(-0.866025403784,-1.110223024625E-16,0.5));
#992 = ADVANCED_FACE('',(#993),#1011,.T.);
#993 = FACE_BOUND('',#994,.T.);
#994 = EDGE_LOOP('',(#995,#1003,#1009,#1010));
#995 = ORIENTED_EDGE('',*,*,#996,.T.);
#996 = EDGE_CURVE('',#596,#997,#999,.T.);
#997 = VERTEX_POINT('',#998);
#998 = CARTESIAN_POINT('',(40.410722702467,18.,23.671138550651));
#999 = LINE('',#1000,#1001);
#1000 = CARTESIAN_POINT('',(40.410722702467,27.,23.671138550651));
#1001 = VECTOR('',#1002,1.);
#1002 = DIRECTION('',(0.,-1.,-2.22044604925E-16));
#1003 = ORIENTED_EDGE('',*,*,#1004,.T.);
#1004 = EDGE_CURVE('',#997,#972,#1005,.T.);
#1005 = LINE('',#1006,#1007);
#1006 = CARTESIAN_POINT('',(40.410722702467,18.,23.671138550651));
#1007 = VECTOR('',#1008,1.);
#1008 = DIRECTION('',(-0.5,1.922962686384E-16,-0.866025403784));
#1009 = ORIENTED_EDGE('',*,*,#971,.F.);
#1010 = ORIENTED_EDGE('',*,*,#604,.F.);
#1011 = PLANE('',#1012);
#1012 = AXIS2_PLACEMENT_3D('',#1013,#1014,#1015);
#1013 = CARTESIAN_POINT('',(40.410722702467,27.,23.671138550651));
#1014 = DIRECTION('',(0.866025403784,1.110223024625E-16,-0.5));
#1015 = DIRECTION('',(-0.5,1.922962686384E-16,-0.866025403784));
#1016 = ADVANCED_FACE('',(#1017),#1036,.F.);
#1017 = FACE_BOUND('',#1018,.T.);
#1018 = EDGE_LOOP('',(#1019,#1027,#1034,#1035));
#1019 = ORIENTED_EDGE('',*,*,#1020,.T.);
#1020 = EDGE_CURVE('',#587,#1021,#1023,.T.);
#1021 = VERTEX_POINT('',#1022);
#1022 = CARTESIAN_POINT('',(42.19753929863,18.,24.435004809144));
#1023 = LINE('',#1024,#1025);
#1024 = CARTESIAN_POINT('',(42.19753929863,27.,24.435004809144));
#1025 = VECTOR('',#1026,1.);
#1026 = DIRECTION('',(0.,-1.,-2.22044604925E-16));
#1027 = ORIENTED_EDGE('',*,*,#1028,.T.);
#1028 = EDGE_CURVE('',#1021,#997,#1029,.T.);
#1029 = CIRCLE('',#1030,1.62);
#1030 = AXIS2_PLACEMENT_3D('',#1031,#1032,#1033);
#1031 = CARTESIAN_POINT('',(41.813683856598,18.,22.861138550651));
#1032 = DIRECTION('',(8.871545530748E-34,-1.,-2.22044604925E-16));
#1033 = DIRECTION('',(0.257813508439,-2.145383200467E-16,0.966194698219)
  );
#1034 = ORIENTED_EDGE('',*,*,#996,.F.);
#1035 = ORIENTED_EDGE('',*,*,#595,.F.);
#1036 = CYLINDRICAL_SURFACE('',#1037,1.62);
#1037 = AXIS2_PLACEMENT_3D('',#1038,#1039,#1040);
#1038 = CARTESIAN_POINT('',(41.813683856598,27.,22.861138550651));
#1039 = DIRECTION('',(0.,1.,2.22044604925E-16));
#1040 = DIRECTION('',(0.257813508439,-2.145383200467E-16,0.966194698219)
  );
#1041 = ADVANCED_FACE('',(#1042),#1061,.F.);
#1042 = FACE_BOUND('',#1043,.T.);
#1043 = EDGE_LOOP('',(#1044,#1052,#1059,#1060));
#1044 = ORIENTED_EDGE('',*,*,#1045,.T.);
#1045 = EDGE_CURVE('',#578,#1046,#1048,.T.);
#1046 = VERTEX_POINT('',#1047);
#1047 = CARTESIAN_POINT('',(47.80246070137,18.,24.435004809144));
#1048 = LINE('',#1049,#1050);
#1049 = CARTESIAN_POINT('',(47.80246070137,27.,24.435004809144));
#1050 = VECTOR('',#1051,1.);
#1051 = DIRECTION('',(0.,-1.,-2.22044604925E-16));
#1052 = ORIENTED_EDGE('',*,*,#1053,.T.);
#1053 = EDGE_CURVE('',#1046,#1021,#1054,.T.);
#1054 = CIRCLE('',#1055,9.67);
#1055 = AXIS2_PLACEMENT_3D('',#1056,#1057,#1058);
#1056 = CARTESIAN_POINT('',(45.,18.,15.18));
#1057 = DIRECTION('',(-2.672331468585E-33,-1.,-2.22044604925E-16));
#1058 = DIRECTION('',(0.293151401125,-2.122893041805E-16,0.956066031202)
  );
#1059 = ORIENTED_EDGE('',*,*,#1020,.F.);
#1060 = ORIENTED_EDGE('',*,*,#586,.F.);
#1061 = CYLINDRICAL_SURFACE('',#1062,9.67);
#1062 = AXIS2_PLACEMENT_3D('',#1063,#1064,#1065);
#1063 = CARTESIAN_POINT('',(45.,27.,15.18));
#1064 = DIRECTION('',(0.,1.,2.22044604925E-16));
#1065 = DIRECTION('',(0.293151401125,-2.122893041805E-16,0.956066031202)
  );
#1066 = ADVANCED_FACE('',(#1067),#1086,.F.);
#1067 = FACE_BOUND('',#1068,.T.);
#1068 = EDGE_LOOP('',(#1069,#1077,#1084,#1085));
#1069 = ORIENTED_EDGE('',*,*,#1070,.T.);
#1070 = EDGE_CURVE('',#570,#1071,#1073,.T.);
#1071 = VERTEX_POINT('',#1072);
#1072 = CARTESIAN_POINT('',(49.589277297533,18.,23.671138550651));
#1073 = LINE('',#1074,#1075);
#1074 = CARTESIAN_POINT('',(49.589277297533,27.,23.671138550651));
#1075 = VECTOR('',#1076,1.);
#1076 = DIRECTION('',(0.,-1.,-2.22044604925E-16));
#1077 = ORIENTED_EDGE('',*,*,#1078,.T.);
#1078 = EDGE_CURVE('',#1071,#1046,#1079,.T.);
#1079 = CIRCLE('',#1080,1.62);
#1080 = AXIS2_PLACEMENT_3D('',#1081,#1082,#1083);
#1081 = CARTESIAN_POINT('',(48.186316143402,18.,22.861138550651));
#1082 = DIRECTION('',(3.603391568781E-33,-1.,-2.22044604925E-16));
#1083 = DIRECTION('',(0.866025403784,-1.110223024625E-16,0.5));
#1084 = ORIENTED_EDGE('',*,*,#1045,.F.);
#1085 = ORIENTED_EDGE('',*,*,#577,.F.);
#1086 = CYLINDRICAL_SURFACE('',#1087,1.62);
#1087 = AXIS2_PLACEMENT_3D('',#1088,#1089,#1090);
#1088 = CARTESIAN_POINT('',(48.186316143402,27.,22.861138550651));
#1089 = DIRECTION('',(0.,1.,2.22044604925E-16));
#1090 = DIRECTION('',(0.866025403784,-1.110223024625E-16,0.5));
#1091 = ADVANCED_FACE('',(#1092),#1110,.T.);
#1092 = FACE_BOUND('',#1093,.T.);
#1093 = EDGE_LOOP('',(#1094,#1102,#1108,#1109));
#1094 = ORIENTED_EDGE('',*,*,#1095,.T.);
#1095 = EDGE_CURVE('',#561,#1096,#1098,.T.);
#1096 = VERTEX_POINT('',#1097);
#1097 = CARTESIAN_POINT('',(54.648180340684,18.,14.908861449349));
#1098 = LINE('',#1099,#1100);
#1099 = CARTESIAN_POINT('',(54.648180340684,27.,14.908861449349));
#1100 = VECTOR('',#1101,1.);
#1101 = DIRECTION('',(0.,-1.,-2.22044604925E-16));
#1102 = ORIENTED_EDGE('',*,*,#1103,.T.);
#1103 = EDGE_CURVE('',#1096,#1071,#1104,.T.);
#1104 = LINE('',#1105,#1106);
#1105 = CARTESIAN_POINT('',(54.648180340684,18.,14.908861449349));
#1106 = VECTOR('',#1107,1.);
#1107 = DIRECTION('',(-0.5,-1.922962686384E-16,0.866025403784));
#1108 = ORIENTED_EDGE('',*,*,#1070,.F.);
#1109 = ORIENTED_EDGE('',*,*,#569,.F.);
#1110 = PLANE('',#1111);
#1111 = AXIS2_PLACEMENT_3D('',#1112,#1113,#1114);
#1112 = CARTESIAN_POINT('',(54.648180340684,27.,14.908861449349));
#1113 = DIRECTION('',(-0.866025403784,1.110223024625E-16,-0.5));
#1114 = DIRECTION('',(-0.5,-1.922962686384E-16,0.866025403784));
#1115 = ADVANCED_FACE('',(#1116),#1135,.F.);
#1116 = FACE_BOUND('',#1117,.T.);
#1117 = EDGE_LOOP('',(#1118,#1126,#1133,#1134));
#1118 = ORIENTED_EDGE('',*,*,#1119,.T.);
#1119 = EDGE_CURVE('',#552,#1120,#1122,.T.);
#1120 = VERTEX_POINT('',#1121);
#1121 = CARTESIAN_POINT('',(54.416299627551,18.,12.979499755922));
#1122 = LINE('',#1123,#1124);
#1123 = CARTESIAN_POINT('',(54.416299627551,27.,12.979499755922));
#1124 = VECTOR('',#1125,1.);
#1125 = DIRECTION('',(0.,-1.,-2.22044604925E-16));
#1126 = ORIENTED_EDGE('',*,*,#1127,.T.);
#1127 = EDGE_CURVE('',#1120,#1096,#1128,.T.);
#1128 = CIRCLE('',#1129,1.62);
#1129 = AXIS2_PLACEMENT_3D('',#1130,#1131,#1132);
#1130 = CARTESIAN_POINT('',(53.245219186553,18.,14.098861449349));
#1131 = DIRECTION('',(-4.101169456807E-33,-1.,-2.22044604925E-16));
#1132 = DIRECTION('',(0.70784239944,1.568457357007E-16,-0.706370396856)
  );
#1133 = ORIENTED_EDGE('',*,*,#1095,.F.);
#1134 = ORIENTED_EDGE('',*,*,#560,.F.);
#1135 = CYLINDRICAL_SURFACE('',#1136,1.62);
#1136 = AXIS2_PLACEMENT_3D('',#1137,#1138,#1139);
#1137 = CARTESIAN_POINT('',(53.245219186553,27.,14.098861449349));
#1138 = DIRECTION('',(0.,1.,2.22044604925E-16));
#1139 = DIRECTION('',(0.70784239944,1.568457357007E-16,-0.706370396856)
  );
#1140 = ADVANCED_FACE('',(#1141),#1160,.F.);
#1141 = FACE_BOUND('',#1142,.T.);
#1142 = EDGE_LOOP('',(#1143,#1151,#1158,#1159));
#1143 = ORIENTED_EDGE('',*,*,#1144,.T.);
#1144 = EDGE_CURVE('',#543,#1145,#1147,.T.);
#1145 = VERTEX_POINT('',#1146);
#1146 = CARTESIAN_POINT('',(51.613838926181,18.,8.125495434934));
#1147 = LINE('',#1148,#1149);
#1148 = CARTESIAN_POINT('',(51.613838926181,27.,8.125495434934));
#1149 = VECTOR('',#1150,1.);
#1150 = DIRECTION('',(0.,-1.,-2.22044604925E-16));
#1151 = ORIENTED_EDGE('',*,*,#1152,.T.);
#1152 = EDGE_CURVE('',#1145,#1120,#1153,.T.);
#1153 = CIRCLE('',#1154,9.67);
#1154 = AXIS2_PLACEMENT_3D('',#1155,#1156,#1157);
#1155 = CARTESIAN_POINT('',(45.,18.,15.18));
#1156 = DIRECTION('',(4.473221495647E-33,-1.,-2.22044604925E-16));
#1157 = DIRECTION('',(0.681401770154,1.625165726727E-16,-0.73190957613)
  );
#1158 = ORIENTED_EDGE('',*,*,#1119,.F.);
#1159 = ORIENTED_EDGE('',*,*,#551,.F.);
#1160 = CYLINDRICAL_SURFACE('',#1161,9.67);
#1161 = AXIS2_PLACEMENT_3D('',#1162,#1163,#1164);
#1162 = CARTESIAN_POINT('',(45.,27.,15.18));
#1163 = DIRECTION('',(0.,1.,2.22044604925E-16));
#1164 = DIRECTION('',(0.681401770154,1.625165726727E-16,-0.73190957613)
  );
#1165 = ADVANCED_FACE('',(#1166),#1185,.F.);
#1166 = FACE_BOUND('',#1167,.T.);
#1167 = EDGE_LOOP('',(#1168,#1176,#1183,#1184));
#1168 = ORIENTED_EDGE('',*,*,#1169,.T.);
#1169 = EDGE_CURVE('',#535,#1170,#1172,.T.);
#1170 = VERTEX_POINT('',#1171);
#1171 = CARTESIAN_POINT('',(50.058903043151,18.,6.96));
#1172 = LINE('',#1173,#1174);
#1173 = CARTESIAN_POINT('',(50.058903043151,27.,6.96));
#1174 = VECTOR('',#1175,1.);
#1175 = DIRECTION('',(0.,-1.,-2.22044604925E-16));
#1176 = ORIENTED_EDGE('',*,*,#1177,.T.);
#1177 = EDGE_CURVE('',#1170,#1145,#1178,.T.);
#1178 = CIRCLE('',#1179,1.62);
#1179 = AXIS2_PLACEMENT_3D('',#1180,#1181,#1182);
#1180 = CARTESIAN_POINT('',(50.058903043151,18.,8.58));
#1181 = DIRECTION('',(0.,-1.,-2.22044604925E-16));
#1182 = DIRECTION('',(-2.48689957516E-14,2.22044604925E-16,-1.));
#1183 = ORIENTED_EDGE('',*,*,#1144,.F.);
#1184 = ORIENTED_EDGE('',*,*,#542,.F.);
#1185 = CYLINDRICAL_SURFACE('',#1186,1.62);
#1186 = AXIS2_PLACEMENT_3D('',#1187,#1188,#1189);
#1187 = CARTESIAN_POINT('',(50.058903043151,27.,8.58));
#1188 = DIRECTION('',(0.,1.,2.22044604925E-16));
#1189 = DIRECTION('',(-2.48689957516E-14,2.22044604925E-16,-1.));
#1190 = ADVANCED_FACE('',(#1191),#1209,.T.);
#1191 = FACE_BOUND('',#1192,.T.);
#1192 = EDGE_LOOP('',(#1193,#1194,#1202,#1208));
#1193 = ORIENTED_EDGE('',*,*,#534,.F.);
#1194 = ORIENTED_EDGE('',*,*,#1195,.F.);
#1195 = EDGE_CURVE('',#1196,#527,#1198,.T.);
#1196 = VERTEX_POINT('',#1197);
#1197 = CARTESIAN_POINT('',(49.75,18.,6.96));
#1198 = LINE('',#1199,#1200);
#1199 = CARTESIAN_POINT('',(49.75,22.5,6.96));
#1200 = VECTOR('',#1201,1.);
#1201 = DIRECTION('',(0.,1.,2.22044604925E-16));
#1202 = ORIENTED_EDGE('',*,*,#1203,.T.);
#1203 = EDGE_CURVE('',#1196,#1170,#1204,.T.);
#1204 = LINE('',#1205,#1206);
#1205 = CARTESIAN_POINT('',(47.5,18.,6.96));
#1206 = VECTOR('',#1207,1.);
#1207 = DIRECTION('',(1.,0.,0.));
#1208 = ORIENTED_EDGE('',*,*,#1169,.F.);
#1209 = PLANE('',#1210);
#1210 = AXIS2_PLACEMENT_3D('',#1211,#1212,#1213);
#1211 = CARTESIAN_POINT('',(47.5,27.,6.96));
#1212 = DIRECTION('',(0.,-2.22044604925E-16,1.));
#1213 = DIRECTION('',(1.,0.,0.));
#1214 = ADVANCED_FACE('',(#1215,#1218),#1229,.F.);
#1215 = FACE_BOUND('',#1216,.F.);
#1216 = EDGE_LOOP('',(#1217));
#1217 = ORIENTED_EDGE('',*,*,#815,.T.);
#1218 = FACE_BOUND('',#1219,.F.);
#1219 = EDGE_LOOP('',(#1220));
#1220 = ORIENTED_EDGE('',*,*,#1221,.F.);
#1221 = EDGE_CURVE('',#1222,#1222,#1224,.T.);
#1222 = VERTEX_POINT('',#1223);
#1223 = CARTESIAN_POINT('',(38.418206931238,10.5,13.15));
#1224 = CIRCLE('',#1225,1.6);
#1225 = AXIS2_PLACEMENT_3D('',#1226,#1227,#1228);
#1226 = CARTESIAN_POINT('',(38.418206931238,10.5,11.55));
#1227 = DIRECTION('',(0.,1.,0.));
#1228 = DIRECTION('',(0.,-0.,1.));
#1229 = PLANE('',#1230);
#1230 = AXIS2_PLACEMENT_3D('',#1231,#1232,#1233);
#1231 = CARTESIAN_POINT('',(38.418206931238,10.5,11.55));
#1232 = DIRECTION('',(0.,1.,0.));
#1233 = DIRECTION('',(0.,-0.,1.));
#1234 = ADVANCED_FACE('',(#1235,#1238),#1249,.F.);
#1235 = FACE_BOUND('',#1236,.F.);
#1236 = EDGE_LOOP('',(#1237));
#1237 = ORIENTED_EDGE('',*,*,#840,.T.);
#1238 = FACE_BOUND('',#1239,.F.);
#1239 = EDGE_LOOP('',(#1240));
#1240 = ORIENTED_EDGE('',*,*,#1241,.F.);
#1241 = EDGE_CURVE('',#1242,#1242,#1244,.T.);
#1242 = VERTEX_POINT('',#1243);
#1243 = CARTESIAN_POINT('',(45.,10.5,24.55));
#1244 = CIRCLE('',#1245,1.6);
#1245 = AXIS2_PLACEMENT_3D('',#1246,#1247,#1248);
#1246 = CARTESIAN_POINT('',(45.,10.5,22.95));
#1247 = DIRECTION('',(0.,1.,0.));
#1248 = DIRECTION('',(0.,-0.,1.));
#1249 = PLANE('',#1250);
#1250 = AXIS2_PLACEMENT_3D('',#1251,#1252,#1253);
#1251 = CARTESIAN_POINT('',(45.,10.5,22.95));
#1252 = DIRECTION('',(0.,1.,0.));
#1253 = DIRECTION('',(0.,-0.,1.));
#1254 = ADVANCED_FACE('',(#1255,#1258),#1269,.F.);
#1255 = FACE_BOUND('',#1256,.F.);
#1256 = EDGE_LOOP('',(#1257));
#1257 = ORIENTED_EDGE('',*,*,#865,.T.);
#1258 = FACE_BOUND('',#1259,.F.);
#1259 = EDGE_LOOP('',(#1260));
#1260 = ORIENTED_EDGE('',*,*,#1261,.F.);
#1261 = EDGE_CURVE('',#1262,#1262,#1264,.T.);
#1262 = VERTEX_POINT('',#1263);
#1263 = CARTESIAN_POINT('',(51.581793068762,10.5,13.15));
#1264 = CIRCLE('',#1265,1.6);
#1265 = AXIS2_PLACEMENT_3D('',#1266,#1267,#1268);
#1266 = CARTESIAN_POINT('',(51.581793068762,10.5,11.55));
#1267 = DIRECTION('',(0.,1.,0.));
#1268 = DIRECTION('',(0.,-0.,1.));
#1269 = PLANE('',#1270);
#1270 = AXIS2_PLACEMENT_3D('',#1271,#1272,#1273);
#1271 = CARTESIAN_POINT('',(51.581793068762,10.5,11.55));
#1272 = DIRECTION('',(0.,1.,0.));
#1273 = DIRECTION('',(0.,-0.,1.));
#1274 = ADVANCED_FACE('',(#1275),#1294,.F.);
#1275 = FACE_BOUND('',#1276,.F.);
#1276 = EDGE_LOOP('',(#1277,#1286,#1292,#1293));
#1277 = ORIENTED_EDGE('',*,*,#1278,.F.);
#1278 = EDGE_CURVE('',#1279,#1279,#1281,.T.);
#1279 = VERTEX_POINT('',#1280);
#1280 = CARTESIAN_POINT('',(38.418206931238,18.,13.15));
#1281 = CIRCLE('',#1282,1.6);
#1282 = AXIS2_PLACEMENT_3D('',#1283,#1284,#1285);
#1283 = CARTESIAN_POINT('',(38.418206931238,18.,11.55));
#1284 = DIRECTION('',(0.,1.,0.));
#1285 = DIRECTION('',(0.,-0.,1.));
#1286 = ORIENTED_EDGE('',*,*,#1287,.F.);
#1287 = EDGE_CURVE('',#1222,#1279,#1288,.T.);
#1288 = LINE('',#1289,#1290);
#1289 = CARTESIAN_POINT('',(38.418206931238,9.,13.15));
#1290 = VECTOR('',#1291,1.);
#1291 = DIRECTION('',(0.,1.,0.));
#1292 = ORIENTED_EDGE('',*,*,#1221,.T.);
#1293 = ORIENTED_EDGE('',*,*,#1287,.T.);
#1294 = CYLINDRICAL_SURFACE('',#1295,1.6);
#1295 = AXIS2_PLACEMENT_3D('',#1296,#1297,#1298);
#1296 = CARTESIAN_POINT('',(38.418206931238,9.,11.55));
#1297 = DIRECTION('',(0.,1.,0.));
#1298 = DIRECTION('',(0.,-0.,1.));
#1299 = ADVANCED_FACE('',(#1300),#1319,.F.);
#1300 = FACE_BOUND('',#1301,.F.);
#1301 = EDGE_LOOP('',(#1302,#1311,#1317,#1318));
#1302 = ORIENTED_EDGE('',*,*,#1303,.F.);
#1303 = EDGE_CURVE('',#1304,#1304,#1306,.T.);
#1304 = VERTEX_POINT('',#1305);
#1305 = CARTESIAN_POINT('',(45.,18.,24.55));
#1306 = CIRCLE('',#1307,1.6);
#1307 = AXIS2_PLACEMENT_3D('',#1308,#1309,#1310);
#1308 = CARTESIAN_POINT('',(45.,18.,22.95));
#1309 = DIRECTION('',(0.,1.,0.));
#1310 = DIRECTION('',(0.,-0.,1.));
#1311 = ORIENTED_EDGE('',*,*,#1312,.F.);
#1312 = EDGE_CURVE('',#1242,#1304,#1313,.T.);
#1313 = LINE('',#1314,#1315);
#1314 = CARTESIAN_POINT('',(45.,9.,24.55));
#1315 = VECTOR('',#1316,1.);
#1316 = DIRECTION('',(0.,1.,0.));
#1317 = ORIENTED_EDGE('',*,*,#1241,.T.);
#1318 = ORIENTED_EDGE('',*,*,#1312,.T.);
#1319 = CYLINDRICAL_SURFACE('',#1320,1.6);
#1320 = AXIS2_PLACEMENT_3D('',#1321,#1322,#1323);
#1321 = CARTESIAN_POINT('',(45.,9.,22.95));
#1322 = DIRECTION('',(0.,1.,0.));
#1323 = DIRECTION('',(0.,-0.,1.));
#1324 = ADVANCED_FACE('',(#1325),#1344,.F.);
#1325 = FACE_BOUND('',#1326,.F.);
#1326 = EDGE_LOOP('',(#1327,#1336,#1342,#1343));
#1327 = ORIENTED_EDGE('',*,*,#1328,.F.);
#1328 = EDGE_CURVE('',#1329,#1329,#1331,.T.);
#1329 = VERTEX_POINT('',#1330);
#1330 = CARTESIAN_POINT('',(51.581793068762,18.,13.15));
#1331 = CIRCLE('',#1332,1.6);
#1332 = AXIS2_PLACEMENT_3D('',#1333,#1334,#1335);
#1333 = CARTESIAN_POINT('',(51.581793068762,18.,11.55));
#1334 = DIRECTION('',(0.,1.,0.));
#1335 = DIRECTION('',(0.,-0.,1.));
#1336 = ORIENTED_EDGE('',*,*,#1337,.F.);
#1337 = EDGE_CURVE('',#1262,#1329,#1338,.T.);
#1338 = LINE('',#1339,#1340);
#1339 = CARTESIAN_POINT('',(51.581793068762,9.,13.15));
#1340 = VECTOR('',#1341,1.);
#1341 = DIRECTION('',(0.,1.,0.));
#1342 = ORIENTED_EDGE('',*,*,#1261,.T.);
#1343 = ORIENTED_EDGE('',*,*,#1337,.T.);
#1344 = CYLINDRICAL_SURFACE('',#1345,1.6);
#1345 = AXIS2_PLACEMENT_3D('',#1346,#1347,#1348);
#1346 = CARTESIAN_POINT('',(51.581793068762,9.,11.55));
#1347 = DIRECTION('',(0.,1.,0.));
#1348 = DIRECTION('',(0.,-0.,1.));
#1349 = ADVANCED_FACE('',(#1350),#1363,.T.);
#1350 = FACE_BOUND('',#1351,.T.);
#1351 = EDGE_LOOP('',(#1352,#1353,#1354,#1355,#1356,#1357));
#1352 = ORIENTED_EDGE('',*,*,#688,.F.);
#1353 = ORIENTED_EDGE('',*,*,#405,.T.);
#1354 = ORIENTED_EDGE('',*,*,#674,.T.);
#1355 = ORIENTED_EDGE('',*,*,#647,.F.);
#1356 = ORIENTED_EDGE('',*,*,#907,.F.);
#1357 = ORIENTED_EDGE('',*,*,#1358,.F.);
#1358 = EDGE_CURVE('',#689,#900,#1359,.T.);
#1359 = LINE('',#1360,#1361);
#1360 = CARTESIAN_POINT('',(40.25,18.,-1.));
#1361 = VECTOR('',#1362,1.);
#1362 = DIRECTION('',(0.,0.,1.));
#1363 = PLANE('',#1364);
#1364 = AXIS2_PLACEMENT_3D('',#1365,#1366,#1367);
#1365 = CARTESIAN_POINT('',(40.25,18.660267111853,3.319732888147));
#1366 = DIRECTION('',(1.,0.,0.));
#1367 = DIRECTION('',(-0.,0.,1.));
#1368 = ADVANCED_FACE('',(#1369),#1382,.T.);
#1369 = FACE_BOUND('',#1370,.T.);
#1370 = EDGE_LOOP('',(#1371,#1372,#1378,#1379,#1380,#1381));
#1371 = ORIENTED_EDGE('',*,*,#776,.T.);
#1372 = ORIENTED_EDGE('',*,*,#1373,.T.);
#1373 = EDGE_CURVE('',#777,#1196,#1374,.T.);
#1374 = LINE('',#1375,#1376);
#1375 = CARTESIAN_POINT('',(49.75,18.,-1.));
#1376 = VECTOR('',#1377,1.);
#1377 = DIRECTION('',(0.,0.,1.));
#1378 = ORIENTED_EDGE('',*,*,#1195,.T.);
#1379 = ORIENTED_EDGE('',*,*,#526,.T.);
#1380 = ORIENTED_EDGE('',*,*,#799,.F.);
#1381 = ORIENTED_EDGE('',*,*,#347,.F.);
#1382 = PLANE('',#1383);
#1383 = AXIS2_PLACEMENT_3D('',#1384,#1385,#1386);
#1384 = CARTESIAN_POINT('',(49.75,18.660267111853,3.319732888147));
#1385 = DIRECTION('',(-1.,-0.,-0.));
#1386 = DIRECTION('',(0.,0.,-1.));
#1387 = ADVANCED_FACE('',(#1388,#1425,#1428,#1431),#1434,.T.);
#1388 = FACE_BOUND('',#1389,.T.);
#1389 = EDGE_LOOP('',(#1390,#1391,#1392,#1393,#1394,#1395,#1396,#1397,
    #1398,#1399,#1400,#1401,#1402,#1403,#1404,#1405,#1406,#1407,#1408,
    #1417,#1424));
#1390 = ORIENTED_EDGE('',*,*,#705,.F.);
#1391 = ORIENTED_EDGE('',*,*,#1358,.T.);
#1392 = ORIENTED_EDGE('',*,*,#899,.F.);
#1393 = ORIENTED_EDGE('',*,*,#929,.F.);
#1394 = ORIENTED_EDGE('',*,*,#954,.F.);
#1395 = ORIENTED_EDGE('',*,*,#979,.F.);
#1396 = ORIENTED_EDGE('',*,*,#1004,.F.);
#1397 = ORIENTED_EDGE('',*,*,#1028,.F.);
#1398 = ORIENTED_EDGE('',*,*,#1053,.F.);
#1399 = ORIENTED_EDGE('',*,*,#1078,.F.);
#1400 = ORIENTED_EDGE('',*,*,#1103,.F.);
#1401 = ORIENTED_EDGE('',*,*,#1127,.F.);
#1402 = ORIENTED_EDGE('',*,*,#1152,.F.);
#1403 = ORIENTED_EDGE('',*,*,#1177,.F.);
#1404 = ORIENTED_EDGE('',*,*,#1203,.F.);
#1405 = ORIENTED_EDGE('',*,*,#1373,.F.);
#1406 = ORIENTED_EDGE('',*,*,#784,.F.);
#1407 = ORIENTED_EDGE('',*,*,#752,.T.);
#1408 = ORIENTED_EDGE('',*,*,#1409,.F.);
#1409 = EDGE_CURVE('',#1410,#753,#1412,.T.);
#1410 = VERTEX_POINT('',#1411);
#1411 = CARTESIAN_POINT('',(45.,18.,18.6));
#1412 = CIRCLE('',#1413,3.25);
#1413 = AXIS2_PLACEMENT_3D('',#1414,#1415,#1416);
#1414 = CARTESIAN_POINT('',(45.,18.,15.35));
#1415 = DIRECTION('',(0.,1.,0.));
#1416 = DIRECTION('',(0.,-0.,1.));
#1417 = ORIENTED_EDGE('',*,*,#1418,.F.);
#1418 = EDGE_CURVE('',#722,#1410,#1419,.T.);
#1419 = CIRCLE('',#1420,3.25);
#1420 = AXIS2_PLACEMENT_3D('',#1421,#1422,#1423);
#1421 = CARTESIAN_POINT('',(45.,18.,15.35));
#1422 = DIRECTION('',(0.,1.,0.));
#1423 = DIRECTION('',(0.,-0.,1.));
#1424 = ORIENTED_EDGE('',*,*,#721,.F.);
#1425 = FACE_BOUND('',#1426,.T.);
#1426 = EDGE_LOOP('',(#1427));
#1427 = ORIENTED_EDGE('',*,*,#1303,.F.);
#1428 = FACE_BOUND('',#1429,.T.);
#1429 = EDGE_LOOP('',(#1430));
#1430 = ORIENTED_EDGE('',*,*,#1328,.F.);
#1431 = FACE_BOUND('',#1432,.T.);
#1432 = EDGE_LOOP('',(#1433));
#1433 = ORIENTED_EDGE('',*,*,#1278,.F.);
#1434 = PLANE('',#1435);
#1435 = AXIS2_PLACEMENT_3D('',#1436,#1437,#1438);
#1436 = CARTESIAN_POINT('',(45.,18.,14.843408885343));
#1437 = DIRECTION('',(0.,1.,0.));
#1438 = DIRECTION('',(0.,-0.,1.));
#1439 = ADVANCED_FACE('',(#1440),#1448,.F.);
#1440 = FACE_BOUND('',#1441,.F.);
#1441 = EDGE_LOOP('',(#1442,#1443,#1444,#1445,#1446,#1447));
#1442 = ORIENTED_EDGE('',*,*,#760,.T.);
#1443 = ORIENTED_EDGE('',*,*,#1409,.F.);
#1444 = ORIENTED_EDGE('',*,*,#1418,.F.);
#1445 = ORIENTED_EDGE('',*,*,#729,.F.);
#1446 = ORIENTED_EDGE('',*,*,#380,.T.);
#1447 = ORIENTED_EDGE('',*,*,#371,.T.);
#1448 = CYLINDRICAL_SURFACE('',#1449,3.25);
#1449 = AXIS2_PLACEMENT_3D('',#1450,#1451,#1452);
#1450 = CARTESIAN_POINT('',(45.,9.,15.35));
#1451 = DIRECTION('',(0.,1.,0.));
#1452 = DIRECTION('',(0.,-0.,1.));
#1453 = ( GEOMETRIC_REPRESENTATION_CONTEXT(3)
GLOBAL_UNCERTAINTY_ASSIGNED_CONTEXT((#1457))
GLOBAL_UNIT_ASSIGNED_CONTEXT((#1454,#1455,#1456)) REPRESENTATION_CONTEXT
('Context #1','3D Context with UNIT and UNCERTAINTY') );
#1454 = ( LENGTH_UNIT() NAMED_UNIT(*) SI_UNIT(.MILLI.,.METRE.) );
#1455 = ( NAMED_UNIT(*) PLANE_ANGLE_UNIT() SI_UNIT($,.RADIAN.) );
#1456 = ( NAMED_UNIT(*) SI_UNIT($,.STERADIAN.) SOLID_ANGLE_UNIT() );
#1457 = UNCERTAINTY_MEASURE_WITH_UNIT(LENGTH_MEASURE(2.E-07),#1454,
  'distance_accuracy_value','confusion accuracy');
#1458 = PRODUCT_RELATED_PRODUCT_CATEGORY('part',$,(#7));
ENDSEC;
END-ISO-10303-21;
